<?xml version="1.0" encoding="UTF-8"?>
<svg version="1.1" viewBox="0 0 2048 2048" width="512" height="512" xmlns="http://www.w3.org/2000/svg">
<path transform="translate(339,192)" d="m0 0h1045l23 3 21 6 20 9 16 10 13 10 14 13 11 14 7 10 11 21 6 17 4 16 2 14 1 18v325l-9-1-33-5-35-3-51-1-1-317-2-10-4-8-7-7-9-4-4-1h-1033l-10 4-6 5h-2l-2 4-4 9-1 5v1351l2 9 5 8 7 6 9 4 6 1h1028l10-3 8-6 4-5 4-9 1-11 1-74 54-1 32-3 38-6h4v90l-2 23-5 21-8 21-9 17-10 14-10 11-4 5-8 7-13 10-19 11-19 8-18 5-18 3-15 1h-1026l-25-2-21-5-20-8-17-9-15-11-10-9-13-13-11-15-9-16-6-13-6-18-4-21-1-9-1-30v-1264l1-72 2-17 4-17 7-20 10-19 10-14 12-14 8-8 17-13 13-8 19-9 19-6 16-3z" fill="#FCFCFC"/>
<path transform="translate(1411,722)" d="m0 0h32l31 2 35 5 27 6 27 8 24 9 21 9 24 12 27 16 17 12 16 12 13 11 14 12 22 22 9 11 9 10 15 20 14 21 9 15 12 23 8 16 11 28 8 24 8 32 5 29 3 29 1 22v19l-2 32-5 35-6 27-8 28-10 27-12 26-14 27-14 22-12 17-11 14-11 13-18 20-10 10-11 9-12 11-16 12-17 12-21 13-24 13-21 10-23 9-27 9-24 6-26 5-31 4-12 1h-54l-30-3-29-5-32-8-27-9-25-10-29-14-24-14-18-12-15-11-16-13-10-9-12-11-19-19-7-8-10-12-13-17-16-24-13-22-14-28-11-27-11-34-7-30-5-31-2-20-1-19v-28l2-28 4-30 7-33 8-27 10-27 11-25 11-21 13-22 11-16 12-16 8-10 12-14 14-15 8-8h2l1-3 8-7 10-9 17-13 19-14 35-21 26-13 32-13 22-7 27-7 26-5 22-3zm1 128-21 2-24 4-27 7-27 10-17 8-18 10-21 14-12 9-15 13-13 12-9 10-7 8-14 18-12 19-10 18-8 17-8 21-6 19-5 23-3 18-2 26v21l2 24 4 24 6 25 8 23 9 21 11 21 13 20 13 17 9 10 7 8 16 16 11 9 10 8 10 7 14 9 18 10 21 10 19 7 19 6 23 5 19 3 24 2h19l24-2 30-5 30-8 21-8 25-12 16-9 15-10 16-12 15-13 20-20 9-11 11-14 11-17 12-21 9-19 10-28 7-27 4-26 1-8 1-31-2-30-5-30-7-26-9-24-12-25-8-14-14-21-11-14-12-14-17-17-11-9-17-13-15-10-18-10-16-8-21-9-26-8-24-5-22-3-11-1z" fill="#FBFBFB"/>
<path transform="translate(436,512)" d="m0 0h711l14 3 14 7 10 8 9 11 6 12 4 15v15l-4 16-7 13-9 11-11 8-11 5-10 3-13 1h-697l-14-2-11-4-10-6-10-9-9-13-5-12-2-9v-18l3-12 8-16 9-10 10-8 15-7z" fill="#FCFCFC"/>
<path transform="translate(1429,922)" d="m0 0 17 2 12 5 11 7 11 11 8 13 4 12 1 7 1 102 103 1 11 2 16 8 12 11 6 7 8 16 3 16-1 17-6 16-8 12-9 9-13 8-11 4-14 2h-98v101l-2 12-5 12-7 11-10 10-14 8-12 4-5 1h-19l-12-3-15-8-12-11-7-10-6-13-2-12v-102h-98l-14-2-11-4-10-6-10-9-7-9-6-12-3-10-1-16 3-16 5-11 6-9 8-9 10-7 11-5 12-3 104-1 1-103 4-16 6-11 9-11 10-8 11-6 11-3z" fill="#FBFBFB"/>
<path transform="translate(436,1408)" d="m0 0h555l16 4 10 5 11 9 7 8 6 10 5 13 1 5v20l-5 16-7 12-10 11-14 9-16 5-12 1h-541l-14-2-11-4-10-6-10-9-9-13-5-12-2-9v-18l3-12 8-16 9-10 10-8 15-7z" fill="#FDFDFD"/>
<path transform="translate(436,960)" d="m0 0h420l14 3 14 7 11 9 9 12 5 11 3 10 1 7-1 16-4 14-6 11-11 12-9 7-11 5-11 3-12 1h-406l-14-2-11-4-11-7-9-8-9-13-5-12-2-9v-18l3-12 8-16 9-10 8-7 14-7z" fill="#FCFCFC"/>
<path transform="translate(318,349)" d="m0 0h1l1 1356h-1l-3-12v-1339z" fill="#282828"/>
<path transform="translate(338,319)" d="m0 0h1049l4 6-9-3-4-1h-1033l-10 3 2-4z" fill="#D9D9D9"/>
<path transform="translate(334,1723)" d="m0 0 9 3 6 1h1028l12-3-2 3h-3v2h-1045v-2h-3z" fill="#D9D9D9"/>
<path transform="translate(1404,347)" d="m0 0 3 4 1 5v312h-3z" fill="#282828"/>
<path transform="translate(1531,335)" d="m0 0h1l1 18v325l-9-1-5-1v-1h12z" fill="#D8D8D8"/>
<path transform="translate(1258,1208)" d="m0 0h107l2 3 1 23v89l-2-3-1-8v-102h-98l-9-1z" fill="#3E3E3E"/>
<path transform="translate(1011,1076)" d="m0 0h1v13l-2 7v99l2 15v6l-2-4-3-23-2-30v-28l2-28 3-24z" fill="#C1C1C1"/>
<path transform="translate(1492,982)" d="m0 0h1l1 99 103 1 5 1v1h-109l-1-1z" fill="#292929"/>
<path transform="translate(1367,969)" d="m0 0h1v107l-2 4h-1v-102z" fill="#292929"/>
<path transform="translate(1488,963)" d="m0 0 2 3 2 6 1 10v101h111l13 5 5 3-3 1-12-6-116-1-1-112-2-5z" fill="#C6C6C6"/>
<path transform="translate(1408,517)" d="m0 0h1v150h67l11 2 1 2-17-1-15-1-48-1z" fill="#E0E0E0"/>
<path transform="translate(1405,1619)" d="m0 0h8l-4 2-1 70-2 8-2 2z" fill="#2A2A2A"/>
<path transform="translate(1411,722)" d="m0 0h32l31 2v1l-89 1-2 1-11 1h-10v-1l21-3z" fill="#818181"/>
<path transform="translate(1339,1559)" d="m0 0 16 2 28 3 1 1 8 1 75 1v1l-12 1h-54l-30-3-29-5z" fill="#A2A2A2"/>
<path transform="translate(1529,1609)" d="m0 0h4v90l-1 14h-1l-1-101h-11v-1z" fill="#E0E0E0"/>
<path transform="translate(1151,825)" d="m0 0 2 1-7 8-40 40-6 8-5 6-2-1 9-11 12-14 14-15 8-8h2l1-3 8-7z" fill="#A9A9A9"/>
<path transform="translate(1007,1107)" d="m0 0h1v78h-1l-1-7-1-19v-28l1-17z" fill="#393939"/>
<path transform="translate(1018,1419)" d="m0 0 4 2 10 9 7 10 5 11 3 11v20l-2 7h-1l-1-34-7-16-11-12-7-7z" fill="#2E2E2E"/>
<path transform="translate(1472,1617)" d="m0 0h12l-1 2-14 1-1 1h-59l4-2 46-1z" fill="#969696"/>
<path transform="translate(1724,1115)" d="m0 0h1l1 21 1 4v12l-1 4-1 32-3 8-2 2 3-26 1-31-1-25z" fill="#8F8F8F"/>
<path transform="translate(1850,1180)" d="m0 0h1v9l-5 35-2 10h-1v-18l3-8 1-26z" fill="#E0E0E0"/>
<path transform="translate(1488,963)" d="m0 0 2 3 2 6 1 10-1 101h-1l-1-110-2-5z" fill="#ccc"/>
<path transform="translate(1134,1112)" d="m0 0h1l-1 24v21l1 23-3-2v-64z" fill="#3F3F3F"/>
<path transform="translate(1408,667)" d="m0 0h68l11 2 1 2-17-1-15-1-48-1z" fill="#9F9F9F"/>
<path transform="translate(1508,267)" d="m0 0 4 5 10 21 6 18 3 16v5l-3-1-2-18-9-26-7-14v-2h-2z" fill="#393939"/>
<path transform="translate(383,1007)" d="m0 0h1l1 34 6 14-1 2-6-12-3-12v-18z" fill="#2E2E2E"/>
<path transform="translate(1406,848)" d="m0 0h38l10 1 2 2h-52v-2z" fill="#2F2F2F"/>
<path transform="translate(1405,1441)" d="m0 0h47v2l-10 1h-33z" fill="#363636"/>
<path transform="translate(383,1455)" d="m0 0h1l1 34 3 7-1 4-4-10-2-9v-18z" fill="#2F2F2F"/>
<path transform="translate(383,559)" d="m0 0h1l1 34 3 7-1 4-4-10-2-9v-18z" fill="#2F2F2F"/>
<path transform="translate(272,212)" d="m0 0 2 1-10 7-11 8-10 9-13 13-2-1 12-13 10-9 17-12z" fill="#7D7D7D"/>
<path transform="translate(1589,754)" d="m0 0 6 1 33 16 14 8-3 1-15-8-16-8-19-9z" fill="#313131"/>
<path transform="translate(193,1716)" d="m0 0 2 1 1 8 2 10 8 24 2 4-1 3-5-11-6-18-3-14z" fill="#323232"/>
<path transform="translate(1339,1559)" d="m0 0 16 2 28 3v3l-18-2-23-4z" fill="#797979"/>
<path transform="translate(1207,1341)" d="m0 0 27 27-6-2-20-20z" fill="#2C2C2C"/>
<path transform="translate(1379,851)" d="m0 0h9l-4 3-25 5-4-1 1-2 17-3z" fill="#9C9C9C"/>
<path transform="translate(1140,1212)" d="m0 0 2 3 7 24 6 16-1 2-6-12-3-10-2-7-3-10z" fill="#3F3F3F"/>
<path transform="translate(211,274)" d="m0 0 1 3-7 14-4 11-2 9-3 4 1-8 7-20z" fill="#3C3C3C"/>
<path transform="translate(1230,924)" d="m0 0 3 1-17 16-7 8-1-3 5-6 7-6 5-6z" fill="#383838"/>
<path transform="translate(1530,1716)" d="m0 0h1l-1 11-5 19h-1v-7l2-4 1-17z" fill="#959595"/>
<path transform="translate(1207,1130)" d="m0 0h1v31l-2-3-1-16z" fill="#3F3F3F"/>
<path transform="translate(1840,1045)" d="m0 0 2 4 5 25v5l-2-1-2-5-1-14-2-5z" fill="#696969"/>
<path transform="translate(1724,1115)" d="m0 0h1l1 21 1 4v12l-2 2-2-38z" fill="#8B8B8B"/>
<path transform="translate(411,969)" d="m0 0 2 1-10 9-9 9-3 6h-2l2-5 6-8 8-8z" fill="#3A3A3A"/>
<path transform="translate(408,1419)" d="m0 0 2 1-16 16-4 8h-2l2-6 7-9 7-7z" fill="#404040"/>
<path transform="translate(1279,1401)" d="m0 0 6 2 19 10 4 3-7-1-18-10z" fill="#404040"/>
<path transform="translate(408,523)" d="m0 0 2 1-16 16-4 8h-2l2-6 7-9 7-7z" fill="#404040"/>
<path transform="translate(391,1505)" d="m0 0 6 5v2h2l6 7 8 7h-3l-13-11-6-8z" fill="#343434"/>
<path transform="translate(391,609)" d="m0 0 6 5v2h2l6 7 8 7h-3l-13-11-6-8z" fill="#343434"/>
<path transform="translate(1156,1261)" d="m0 0 3 4 10 21 3 5-1 2-5-8-8-16-2-3z" fill="#323232"/>
<path transform="translate(391,1057)" d="m0 0 6 5v2h2l6 7 7 6h-3l-11-9-7-9z" fill="#3F3F3F"/>
<path transform="translate(1043,1455)" d="m0 0h1l1 35-4 10h-1v-6l2-2z" fill="#A9A9A9"/>
<path transform="translate(1661,1328)" d="m0 0 1 2-4 6-16 17-4 2 6-7 11-12z" fill="#5F5F5F"/>
<path transform="translate(1036,1505)" d="m0 0 1 2-8 10-8 7h-2l2-4 7-6 7-8z" fill="#323232"/>
<path transform="translate(1028,1281)" d="m0 0 3 4 3 10 5 10 2 10-2-2-9-23z" fill="#363636"/>
<path transform="translate(1376,1437)" d="m0 0 11 1 17 2v1h-19l-9-3z" fill="#919191"/>
<path transform="translate(1018,1419)" d="m0 0 4 2 10 9 6 9-4-2-7-8-9-9z" fill="#373737"/>
<path transform="translate(1848,1089)" d="m0 0h1l2 14v9l-3-1z" fill="#373737"/>
<path transform="translate(413,1416)" d="m0 0 2 1-21 21v-3l15-15z" fill="#D9D9D9"/>
<path transform="translate(1850,1180)" d="m0 0h1v9l-2 15h-1v-22z" fill="#2C2C2C"/>
<path transform="translate(1138,1088)" d="m0 0 1 4-3 18h-1v-19z" fill="#929292"/>
<path transform="translate(413,520)" d="m0 0 2 1-21 21v-3l15-15z" fill="#D9D9D9"/>
<path transform="translate(1132,1161)" d="m0 0h2l1 19-3-2z" fill="#303030"/>
<path transform="translate(856,961)" d="m0 0h7l12 4 5 3-2 1-9-4-12-2z" fill="#303030"/>
<path transform="translate(1344,1429)" d="m0 0 17 4 4 2-5 1-4-2-12-2z" fill="#6E6E6E"/>
<path transform="translate(1237,1090)" d="m0 0 2 1-5 4-8 7-4 2v2l-2-1 7-8z" fill="#777"/>
<path transform="translate(1698,819)" d="m0 0 5 3 11 10 4 4-5-2-10-9-3-2v-2h-2z" fill="#3D3D3D"/>
<path transform="translate(1390,1355)" d="m0 0 5 2 16 8 1 2-9-3-11-6z" fill="#313131"/>
<path transform="translate(1738,856)" d="m0 0 5 5 11 12-1 2-11-11-4-6z" fill="#3A3A3A"/>
<path transform="translate(1751,1419)" d="m0 0v3l-13 14v-3l3-5 8-7z" fill="#363636"/>
<path transform="translate(195,315)" d="m0 0h1v15l-4 3 2-14z" fill="#313131"/>
<path transform="translate(1451,213)" d="m0 0 5 2 11 7 5 5-4-1-8-6-5-3z" fill="#313131"/>
<path transform="translate(1470,1820)" d="m0 0 3 1-11 8-8 5-2-1 9-6z" fill="#363636"/>
<path transform="translate(1402,1851)" d="m0 0h5l-4 2-13 2h-5l1-2 3-1z" fill="#323232"/>
<path transform="translate(1093,1403)" d="m0 0h2v2h2v2h2l3 5 6 8-2 1-11-14z" fill="#565656"/>
<path transform="translate(1158,1024)" d="m0 0 1 3-7 16h-1l1-7 2-5h2l1-6z" fill="#7E7E7E"/>
<path transform="translate(1011,1076)" d="m0 0h1v13l-2 5h-1v-8z" fill="#323232"/>
<path transform="translate(328,193)" d="m0 0h10l-2 2-7 1h-11l4-2z" fill="#323232"/>
<path transform="translate(1624,1367)" d="m0 0 2 1-10 10-3 2-3-1 13-11z" fill="#383838"/>
<path transform="translate(1039,979)" d="m0 0 1 4-4 10-3 6-1-3z" fill="#2D2D2D"/>
<path transform="translate(1715,1455)" d="m0 0 3 1-13 12-2-1z" fill="#333"/>
<path transform="translate(1711,1233)" d="m0 0h1l-1 10-5 10-1-3z" fill="#333"/>
<path transform="translate(1475,1564)" d="m0 0h15v1l-13 2h-5z" fill="#333"/>
<path transform="translate(1719,1201)" d="m0 0h1v10l-3 8h-1l1-9z" fill="#333"/>
<path transform="translate(193,1716)" d="m0 0 2 1 1 8v8h-1l-2-10z" fill="#3A3A3A"/>
<path transform="translate(1842,1236)" d="m0 0 1 3-3 12h-1v-12z" fill="#969696"/>
<path transform="translate(1167,812)" d="m0 0 2 1-9 8-5 4-2-1 9-8z" fill="#464646"/>
<path transform="translate(1527,317)" d="m0 0h2l2 10v5l-3-1z" fill="#282828"/>
<path transform="translate(1530,1716)" d="m0 0h1l-1 11-2 4v-13z" fill="#343434"/>
<path transform="translate(1529,1609)" d="m0 0h4v4l-4-1h-10v-1z" fill="#2E2E2E"/>
<path transform="translate(1196,960)" d="m0 0 3 1-10 13-1-2 5-8h2z" fill="#565656"/>
<path transform="translate(1271,894)" d="m0 0 2 1-13 9-2-1 8-6 1-2z" fill="#565656"/>
<path transform="translate(1390,850)" d="m0 0h12l-3 2-13 1z" fill="#ccc"/>
<path transform="translate(1846,1213)" d="m0 0h1l-1 11-2 4v-11z" fill="#353535"/>
<path transform="translate(1063,1358)" d="m0 0 5 5 4 8-1 2-8-13z" fill="#2F2F2F"/>
<path transform="translate(1103,875)" d="m0 0 1 2-9 11-2-1 9-11z" fill="#444"/>
</svg>
