<?xml version="1.0" encoding="UTF-8"?>
<svg version="1.1" viewBox="0 0 2048 2048" width="512" height="512" xmlns="http://www.w3.org/2000/svg">
<path transform="translate(150,64)" d="m0 0h1039l9 3 11 8 254 254 7 11 2 6v692l-2 10-5 8-5 5-10 5-4 1h-13l-11-4-7-6-5-9-2-6v-658h-164l-21-3-16-6-11-6-9-7-9-8-11-14-8-15-5-16-2-11v-170l-999 1-10 4-8 7-5 10-1 5v1738l3 10 6 8 10 6 10 2h1220l10-2 10-6 6-9 2-6 1-7 1-180 4-10 7-8 6-4 11-3 13 1 12 6 6 7 4 8 1 6v179l-2 17-5 16-8 16-9 11-7 8-13 10-16 8-17 5-20 2h-1218l-18-2-16-5-15-8-10-8-8-7-11-14-8-15-5-16-2-10v-1751l4-17 6-15 9-14 9-10 7-7 10-7 16-8 13-4zm1066 110v119l3 10 6 8 9 6 5 2 7 1h115l-1-4-8-7-135-135z" fill="#005CAD"/>
<path transform="translate(1879,828)" d="m0 0h18l18 3 16 6 14 8 13 11 10 11 8 13 6 13 4 15 2 12v14l-3 19-7 19-7 12-7 9-12 13-46 46-6 5-3 4 1 5 2 7 1 19-2 15-2 5 1 4 12 12 9 11 9 14 7 14 5 15 3 16 1 8v19l-2 16-6 21-8 17-8 12-8 10-6 7-6 5-5 5-5 6-8 7-14 14-6 7-6 5-6 7-6 5-6 7-6 5-6 7-6 5-7 8h-2l-2 4h-2l-2 4h-2l-2 4h-2l-1 3-7 6-5 6-6 5-6 7-6 5-7 8h-2l-1 3-8 7-7 6-11 4h-10l-9-3-6-4-7-7-5-11-1-11 3-10 7-9 159-159 9-13 5-12 2-9v-19l-4-14-6-11-8-10-4-4-4 2-5 4-7 8-236 236h-2l-2 4h-2l-2 4h-2l-2 4h-2l-2 4h-2l-2 4-4 4h-2l-2 4h-2l-2 4-4 4h-2l-1 3-6 5-6 7-6 5-7 8-16 16h-2l-2 4h-2l-2 4-4 4h-2l-1 3-6 5-3 4h-2l-1 3-5 5h-2l-2 4h-2l-2 4h-2l-2 4h-2l-2 4h-2l-2 4h-2l-2 4h-2l-2 4h-2l-2 4h-2l-2 4h-2l-2 4h-2l-2 4h-2l-2 4h-2l-2 4h-2l-2 4h-2l-2 4h-2l-2 4h-2l-1 3-6 5-3 4h-2l-2 4h-2l-2 4h-2l-2 4h-2l-2 4h-2l-2 4h-2l-2 4h-2l-1 3-6 5-6 7-6 5-6 7-8 7-56 56-9 6-11 4-189 54-29 8-6 1h-8l-10-4-9-7-7-14v-13l10-36 32-112 13-46 10-34 6-11 581-581 11-8 14-7 11-3 7-1h17l11 2 8 2 67-67 14-10 16-8 19-5zm1 64-14 7-7 6-5 6-7 6-7 8-5 4-5 6-7 6-5 6-7 6v2l-4 2-1 4 49 49 4-2 56-56 6-9 3-10v-11l-4-11-7-9-8-6-11-4zm-154 86-6 3-111 111-6 5-7 8-5 4-6 7-5 5-5 4-6 7-6 5-6 7-6 5-6 7-5 5-5 4-6 7-6 5-6 7-6 5-6 7-6 5-6 7-6 5-7 8-19 19-6 5-6 7-6 5-7 8-42 42-4 3 1 4 112 112 4-2 326-326 4-7 1-4-4-8-94-94-6-5-3-2zm-383 380-8 7-7 8-159 159-3 2 1 4 112 112 4-2 175-175-2-4-111-111zm-207 240-3 7-30 106v1l9-1 104-30 1-4-8-7-72-72z" fill="#005CAD"/>
<path transform="translate(279,1088)" d="m0 0h976l10 3 10 9 4 8 2 12-2 12-6 10-8 6-8 3-11 1h-962l-12-3-8-6-5-6-4-11v-11l3-11 7-9 10-6z" fill="#005CAD"/>
<path transform="translate(282,704)" d="m0 0h973l11 4 8 7 6 12 1 9-2 12-6 10-7 6-8 3-11 1h-964l-9-2-8-5-7-8-3-7-1-5v-9l3-11 7-9 10-6z" fill="#005CAD"/>
<path transform="translate(280,512)" d="m0 0h719l11 4 8 7 6 12v17l-4 10-6 7-7 4-6 2-11 1h-707l-9-2-8-5-7-8-4-11v-11l3-11 7-9 8-5z" fill="#005CAD"/>
<path transform="translate(537,896)" d="m0 0h716l10 3 9 6 6 10 2 7v12l-4 11-9 10-10 4-10 1h-708l-10-2-8-5-6-7-4-9-1-4v-9l3-10 4-6 8-7 8-4z" fill="#005CAD"/>
<path transform="translate(471,320)" d="m0 0h528l10 3 10 9 5 11v17l-4 10-6 7-9 5-15 2h-515l-8-2-8-4-7-8-4-8-1-5v-9l2-9 6-10 8-6z" fill="#005CAD"/>
<path transform="translate(735,1661)" d="m0 0h31l20 3 21 6 18 8 16 10 13 10 6 5v2l4 2 12 13 13 18 7 15v15l-6 12-8 7-9 4-5 1h-11l-9-3-9-8-9-14-8-10-10-10-13-9-14-7-12-4-10-2h-30l-21 5-22 8-24 12-24 14-23 11-24 9-22 6-25 4-12 1h-15l-19-2-22-5-16-6-16-8-16-11-13-12-5-4-7-8-9-11-9-14-6-13-1-10 3-10 7-10 9-6 9-3h12l10 4 8 7 11 18 12 13 9 8 19 11 13 5 16 3h22l21-4 20-7 18-8 26-14 16-9 21-10 25-9 19-5 17-3z" fill="#005CAD"/>
<path transform="translate(279,1280)" d="m0 0h464l10 3 7 5 6 9 3 11-1 13-6 12-8 7-9 3-10 1h-452l-8-2-8-4-7-7-5-13v-11l3-11 7-9 10-6z" fill="#005CAD"/>
<path transform="translate(1111,512)" d="m0 0h144l9 3 6 4 6 7 4 9 1 9-2 12-6 10-7 6-8 3-11 1h-132l-9-2-8-5-7-8-4-11v-11l3-11 6-8 9-6z" fill="#005CAD"/>
<path transform="translate(281,896)" d="m0 0h140l11 3 8 6 6 10 2 7v13l-4 10-9 10-10 4-10 1h-132l-10-2-8-5-6-7-4-9-1-5v-8l3-10 4-6 5-5 8-5z" fill="#005CAD"/>
<path transform="translate(855,1280)" d="m0 0h144l10 3 10 9 5 11v17l-4 10-6 7-9 5-14 2h-132l-13-4-9-8-5-11-1-5v-8l3-11 4-6 9-8z" fill="#005CAD"/>
<path transform="translate(66,156)" d="m0 0 2 4v14l1 2v1667l-1 3 1 4-2 3 1 2-1 3 1 5-1 4v11l1 8-2 4-1-8v-1725z" fill="#0368B5"/>
<path transform="translate(1410,399)" d="m0 0 2 2 1 7v544l-1 4-1 15h-1l-1-568z" fill="#0469B6"/>
<path transform="translate(1155,135)" d="m0 0 2 4 1 10-1 6v7 1 3h-2v3h2l-1 11-1 29h-1l-1-62z" fill="#0469B6"/>
<path transform="translate(1831,1065)" d="m0 0 4 1 1 3 3 1 4 9v3h-5l-4-7v-3l-4-2z" fill="#0368B5"/>
<path transform="translate(1155,135)" d="m0 0 2 4 1 10-2 10-3-1v-14z" fill="#0368B5"/>
<path transform="translate(1448,321)" d="m0 0 4 2 13 13 2 6-3-1-1-4-4-2-6-7-5-5z" fill="#0469B6"/>
<path transform="translate(392,1711)" d="m0 0h4l2 5 3 1 1 7-2 2v-2h-2l-6-10z" fill="#0469B6"/>
<path transform="translate(1162,323)" d="m0 0 5 2 1 6 4 1 2 6-3 1-2-1v-2l-2-1-5-10z" fill="#0368B5"/>
<path transform="translate(1765,999)" d="m0 0 1 2h2v2h3l5 6v2l3 1 1 4-3-2v-2l-6-3v-2h-2v-3l-4-2z" fill="#0469B6"/>
<path transform="translate(65,1863)" d="m0 0h2v15l1 8-2 4-1-8z" fill="#0469B6"/>
<path transform="translate(1797,1031)" d="m0 0 1 2h2v2l3 1 1 3h3l1 4h3l-1 3-1-2-4-2v-2l-4-2v-2l-4-2z" fill="#0469B6"/>
<path transform="translate(1410,1735)" d="m0 0 2 1 1 8-1 4 1 2-3 4z" fill="#0469B6"/>
</svg>
