<svg width="64" height="64" viewBox="0 0 64 64" fill="none" xmlns="http://www.w3.org/2000/svg">
<path d="M52.75 42.06H49.75V31H54C54.4378 30.9986 54.8641 30.8598 55.2188 30.6031C55.5734 30.3464 55.8385 29.9848 55.9766 29.5693C56.1147 29.1539 56.1189 28.7056 55.9885 28.2876C55.8582 27.8697 55.5998 27.5032 55.25 27.24L36.75 11.12C36.8628 10.2363 36.7876 9.33872 36.5291 8.48615C36.2707 7.63358 35.8349 6.84528 35.2504 6.17295C34.6659 5.50063 33.9459 4.95948 33.1375 4.58499C32.3292 4.21051 31.4508 4.01115 30.56 4H13.94C12.2991 4.00264 10.7262 4.65565 9.56593 5.81593C8.40565 6.97621 7.75264 8.54912 7.75 10.19V53.81C7.75264 55.4509 8.40565 57.0238 9.56593 58.1841C10.7262 59.3443 12.2991 59.9974 13.94 60H30.56C34.69 59.94 37.16 56.45 36.75 52.5C36.75 52.2348 36.6446 51.9804 36.4571 51.7929C36.2696 51.6054 36.0152 51.5 35.75 51.5C35.4848 51.5 35.2304 51.6054 35.0429 51.7929C34.8554 51.9804 34.75 52.2348 34.75 52.5V53.81C34.7474 54.9204 34.3051 55.9847 33.5199 56.7699C32.7347 57.5551 31.6704 57.9974 30.56 58H13.94C12.8296 57.9974 11.7653 57.5551 10.9801 56.7699C10.1949 55.9847 9.75264 54.9204 9.75 53.81V10.19C9.75128 9.63506 9.86253 9.08587 10.0773 8.57418C10.2921 8.06248 10.6061 7.59842 11.0013 7.20882C11.3965 6.81921 11.865 6.51178 12.3797 6.3043C12.8944 6.09682 13.4451 5.99339 14 6L14.57 7.51C14.7872 8.09832 15.18 8.60568 15.6951 8.96341C16.2103 9.32113 16.8229 9.51194 17.45 9.51H27C27.6282 9.51113 28.2417 9.32015 28.7583 8.96267C29.2748 8.60519 29.6697 8.09831 29.89 7.51L30.49 6C31.0461 5.99071 31.5985 6.09222 32.1149 6.29863C32.6314 6.50503 33.1016 6.81219 33.4981 7.2022C33.8947 7.5922 34.2096 8.05725 34.4245 8.57022C34.6394 9.08319 34.7501 9.63382 34.75 10.19V11L16.11 27.23C15.7628 27.4946 15.5066 27.8609 15.3773 28.2778C15.2479 28.6948 15.2516 29.1417 15.388 29.5564C15.5244 29.9711 15.7867 30.333 16.1383 30.5917C16.49 30.8505 16.9135 30.9932 17.35 31H21.6V42.06H19.66C19.1643 42.067 18.6754 42.1773 18.2246 42.3837C17.7739 42.59 17.371 42.888 17.0417 43.2587C16.7125 43.6294 16.464 44.0645 16.3122 44.5365C16.1604 45.0085 16.1086 45.5069 16.16 46C16.16 46.9283 16.5287 47.8185 17.1851 48.4749C17.8415 49.1312 18.7317 49.5 19.66 49.5H52.75C57.41 49.45 57.42 42.11 52.75 42.06ZM28.06 6.79C27.9826 6.99425 27.8462 7.17085 27.6681 7.2973C27.49 7.42374 27.2783 7.4943 27.06 7.5H17.46C16.62 7.5 16.37 6.64 16.15 6H28.35L28.06 6.79ZM17.35 29C17.35 29 17.29 29 17.27 28.94C17.25 28.88 17.34 28.84 17.39 28.77L35.66 12.83L53.94 28.77C53.99 28.84 54.09 28.83 54.06 28.94C54.03 29.05 17.41 28.93 17.35 29ZM47.72 31V42.06H45.37V31H47.72ZM43.37 31V42.06H38.84V31H43.37ZM36.84 31V42.06H34.49V31H36.84ZM32.49 31V42.06H28V31H32.49ZM26 31V42.06H23.6V31H26ZM54.25 46C54.25 46.3978 54.092 46.7794 53.8107 47.0607C53.5294 47.342 53.1478 47.5 52.75 47.5H19.66C17.66 47.5 17.66 44.05 19.66 44.06H52.75C52.9836 44.0692 53.2123 44.1295 53.4201 44.2367C53.6278 44.3438 53.8096 44.4951 53.9526 44.6801C54.0956 44.865 54.1963 45.079 54.2477 45.307C54.2991 45.5351 54.2999 45.7716 54.25 46Z" fill="#005FB0"/>
<path d="M18.8599 52.16C18.5946 52.16 18.3403 52.2654 18.1528 52.4529C17.9652 52.6404 17.8599 52.8948 17.8599 53.16C17.8599 53.4252 17.9652 53.6796 18.1528 53.8671C18.3403 54.0546 18.5946 54.16 18.8599 54.16H26.9999C27.2651 54.16 27.5194 54.0546 27.707 53.8671C27.8945 53.6796 27.9999 53.4252 27.9999 53.16C27.9999 52.8948 27.8945 52.6404 27.707 52.4529C27.5194 52.2654 27.2651 52.16 26.9999 52.16H18.8599ZM35.1699 18.46H36.6399C36.6399 18.7252 36.7452 18.9796 36.9328 19.1671C37.1203 19.3546 37.3746 19.46 37.6399 19.46C39.6399 19.16 38.2799 16.31 36.6399 16.46V16C36.6399 15.7348 36.5345 15.4804 36.347 15.2929C36.1594 15.1054 35.9051 15 35.6399 15C35.3746 15 35.1203 15.1054 34.9328 15.2929C34.7452 15.4804 34.6399 15.7348 34.6399 16V16.53C34.0769 16.6449 33.5706 16.9503 33.2064 17.3947C32.8421 17.8391 32.642 18.3954 32.6399 18.97V19.97C32.6425 20.6296 32.9057 21.2614 33.3721 21.7278C33.8385 22.1942 34.4703 22.4574 35.1299 22.46C35.5599 22.46 36.5999 22.23 36.5999 22.94C36.5999 23.37 36.8199 24.41 36.1199 24.42H34.6799C34.6799 24.1548 34.5745 23.9004 34.387 23.7129C34.1994 23.5254 33.9451 23.42 33.6799 23.42C31.6799 23.72 33.0499 26.56 34.6799 26.42C34.5999 27.14 34.8499 27.88 35.6799 27.9C36.5099 27.92 36.7499 27.11 36.6799 26.37C37.2437 26.2568 37.751 25.952 38.1156 25.5072C38.4802 25.0624 38.6796 24.5051 38.6799 23.93V22.93C38.6799 22.2723 38.4186 21.6415 37.9535 21.1764C37.4884 20.7113 36.8576 20.45 36.1999 20.45H35.1999C35.0699 20.45 34.9453 20.3984 34.8534 20.3065C34.7615 20.2146 34.7099 20.09 34.7099 19.96C34.7299 19.5 34.4599 18.46 35.1699 18.46Z" fill="#005FB0"/>
</svg>
