<?xml version="1.0" encoding="UTF-8"?>
<svg version="1.1" viewBox="0 0 2048 2048" width="512" height="512" xmlns="http://www.w3.org/2000/svg">
<path transform="translate(299)" d="m0 0h1722l12 6 7 6 6 10 2 6v900l-7 14-7 7-8 4-7 2-12 1h-95v97l-2 14-4 9-7 8-5 4-9 3-8 1h-102v100l-2 13-5 10-7 7-10 5-5 1-19 1h-1681l-18-1-11-4-8-7-6-8-3-7v-903l7-13 7-7 8-4 9-2h105v-104l3-11 3-6 8-9 10-5 10-2h103v-106l3-10 6-9 7-6zm42 68v68l1534 1 15 3 9 5 6 7 4 9 2 14 1 712 4 1h61l3-3v-816l-1-1zm-135 136-1 1-1 60 1 8 236 1h1300l14 3 9 6 7 10 2 6 1 7 1 718h67l1-1v-818l-19-1zm-137 137-1 1v818h1638v-819z" fill="#005DAD"/>
<path transform="translate(360,409)" d="m0 0 1079 1 10 3 9 7 6 9 3 9 5 36 6 20 8 16 6 10 11 14 6 7 14 11 10 7 19 10 19 6 16 3 23 3 10 3 8 6 7 9 3 10v283l-3 10-8 11-10 6-16 3-29 4-21 7-19 10-11 8-15 13-9 11-7 10-6 10-8 19-5 18-4 32-4 11-7 9-8 5-6 2-8 1h-1096l-11-3-9-6-7-9-3-9-3-22-3-18-7-21-10-19-12-16-8-9-11-9-10-7-18-10-24-8-21-3-20-3-9-4-8-7-5-9-3-12v-275l3-11 4-8 7-7 9-5 17-3 24-3 24-8 21-11 9-7 11-9 11-12 9-12 10-19 6-18 3-13 3-25 3-13 7-10 9-6 9-3zm71 68-58 1-3 8-6 23-10 24-8 15-12 18-11 13-12 13-14 12-14 10-21 12-24 10-25 7-8 2-1 3v206l3 3 27 7 20 8 16 8 15 9 12 9 14 12 11 11 9 11 8 11 10 16 11 23 7 21 5 20 1 1h1028l2-2 7-27 11-27 9-16 9-14 11-13 9-11 11-10 11-9 15-10 15-9 29-12 27-7 3-2v-209l-9-3-25-7-23-10-13-7-17-11-14-12-12-11-9-10-11-14-12-20-8-16-6-15-7-27-1-5-112-1z" fill="#005DAD"/>
<path transform="translate(1599,1331)" d="m0 0h10l12 4 14 10 21 16 19 14 21 16 19 14 13 10 12 9 19 14 21 16 19 14 21 16 156 117 19 14 17 13 16 12 10 9 6 8 4 10v10l-4 11-8 11-11 9-15 13-10 8-14 12-10 8-14 12-10 8-14 12-10 8-14 12-10 8-14 12-10 8-14 12-10 8-14 12-10 8-14 12-10 8-14 12-10 8-14 12-10 8-14 12-10 8-14 12-10 8-14 12-10 8-14 12-10 8-14 12-25 20-12 6-3 1h-12l-11-5-6-4-7-9-3-7-1-5-1-174-548-1-12-3-9-7-5-6-4-8-1-5v-284l4-11 9-10 8-5 8-2 550-1 1-141 4-12 9-10 9-5zm39 103-1 106-3 10-6 9-8 6-10 3-6 1-546 1v205l550 1 13 4 10 9 4 7 2 8 1 136 4-2 11-9 14-12 11-9 13-11 11-9 13-11 11-9 13-11 11-9 13-11 11-9 13-11 11-9 13-11 11-9 13-11 11-9 13-11 11-9 13-11 11-9 13-11 11-9 13-11 11-9 13-11 3-2-2-4-14-10-18-14-19-14-21-16-19-14-128-96-19-14-13-10-19-14-13-10-34-25z" fill="#005DAD"/>
<path transform="translate(883,580)" d="m0 0h10l26 3 19 5 15 5 25 13 11 8 13 11 8 7 13 15 9 13 14 27 7 23 3 15 2 19v13l-3 26-5 19-6 17-11 21-10 14-11 13-5 6h-2v2l-14 11-12 9-25 13-21 7-18 4-18 2h-18l-20-2-14-3-24-8-16-8-14-8-13-11-8-7-5-5-12-13-10-14-13-25-8-24-3-14-2-18v-21l3-24 9-29 8-16 9-16 18-22 9-9 14-11 8-6 24-13 27-9 17-3zm1 68-21 3-17 6-15 8-11 9-12 12-7 10-9 17-5 16-2 16v12l2 15 6 19 8 15 10 13 10 10 13 9 15 8 16 5 16 2h13l15-2 21-7 16-9 14-12 8-9 7-10 7-14 6-19 2-19-1-12-2-13-5-15-8-16-9-12-7-8-16-12-15-8-19-6-18-2z" fill="#005DAD"/>
<path transform="translate(746,1502)" d="m0 0h145l9 2 10 6 7 9 4 11 1 12v255l-1 17-3 10-7 9-7 6-10 3-6 1h-141l-11-3-10-7-6-9-3-10-1-19v-254l2-15 5-10 4-5 10-7zm39 68v205h68v-205z" fill="#005DAD"/>
<path transform="translate(404,1502)" d="m0 0h146l9 2 9 6 7 8 4 9 1 5v279l-2 10-6 10-8 7-11 4-6 1h-141l-13-4-9-7-6-10-2-6-1-9v-271l2-11 4-8 7-8 8-5zm40 68v205h67l1-1v-204z" fill="#005DAD"/>
<path transform="translate(29,1502)" d="m0 0h145l9 2 10 6 7 9 4 10 1 14v252l-1 21-4 10-7 9-8 5-14 3h-140l-11-3-9-6-6-7-4-8-1-4v-287l7-13 7-7 10-5zm39 68v205h67l1-1v-204z" fill="#005DAD"/>
<path transform="translate(1983,79)" d="m0 0 2 4v18l1 4v750l-1 19-2 7-2-2v-795z" fill="#046AB7"/>
<path transform="translate(1847,215)" d="m0 0h1l1 8 1 679v59l-1 43-2 10-2 1v-798z" fill="#046AB7"/>
<path transform="translate(1711,776)" d="m0 0h1l1 38v120l1 150-1 58-2 11-2-1v-68l1-293z" fill="#046AB7"/>
<path transform="translate(1711,350)" d="m0 0 2 4 1 3-1 56v297l-1 8h-1l-1-17-1-309v-37z" fill="#046AB7"/>
<path transform="translate(721,1521)" d="m0 0 4 3-1 3v16l1 5v228l-1 5 1 9-1 3 1 7-1 10 1 8-1 4h-2l-1-4z" fill="#046AB7"/>
<path transform="translate(996,1521)" d="m0 0 1 3-1 10 1 19v210l-1 3 1 3-1 5v40l1 3-1 5-3-1v-294z" fill="#046AB7"/>
<path transform="translate(378,1537)" d="m0 0h1l2 21v214l-1 7h-2v-7l-1-3 1-4-1-6v-218z" fill="#046AB7"/>
<path transform="translate(514,1577)" d="m0 0 2 1 2 7v158l-1 2v17l-2 7-2-2v-187z" fill="#046AB7"/>
<path transform="translate(858,1578)" d="m0 0h2l2 18-1 17 1 42v88l-1 2v17l-2 7-2-3v-187z" fill="#0369B6"/>
<path transform="translate(138,1577)" d="m0 0 2 1 2 9-1 6v41l1 88v21l-1 2v17l-2 7-2-1v-189z" fill="#046AB7"/>
<path transform="translate(138,622)" d="m0 0 3 1 1 6-1 29 1 13-1 3v142l-1 3-1 9h-1l-1-163v-37z" fill="#046AB7"/>
<path transform="translate(278,28)" d="m0 0 2 3v11l1 13v67l-2 10-2-1v-102z" fill="#046AB7"/>
<path transform="translate(138,180)" d="m0 0h1l1 13 1 4v3l-1 5 1 3v54l-2 9-2 1v-88z" fill="#046AB7"/>
<path transform="translate(1574,1373)" d="m0 0 3 4v43l-1 5v17l1 5-2 7h-1l-1-16v-63z" fill="#046AB7"/>
<path transform="translate(1574,1465)" d="m0 0h1l2 12-1 9v3l-2 4-1-3v-24z" fill="#046AB7"/>
<path transform="translate(1e3 1513)" d="m0 0 1 2-4 6h-3l-2 6h-2l1-6 3-3z" fill="#0163B1"/>
</svg>
