<svg width="41" height="41" viewBox="0 0 41 41" fill="none" xmlns="http://www.w3.org/2000/svg">
<g clip-path="url(#clip0_260_3036)">
<path fill-rule="evenodd" clip-rule="evenodd" d="M38.1268 13.9382V11.5294L26.6956 1.60155H13.8594L2.42822 11.5294V13.9382H38.1268Z" fill="#005FB0"/>
<mask id="mask0_260_3036" style="mask-type:luminance" maskUnits="userSpaceOnUse" x="0" y="0" width="41" height="41">
<path d="M0 0.000160217H40.9998V41H0V0.000160217Z" fill="white"/>
</mask>
<g mask="url(#mask0_260_3036)">
<path fill-rule="evenodd" clip-rule="evenodd" d="M38.1268 13.9386H27.5242C27.1338 15.1021 26.462 16.1364 25.5903 16.9597H39.7701V13.9386H38.1268Z" fill="#74777F"/>
<path fill-rule="evenodd" clip-rule="evenodd" d="M38.1995 16.9596H29.4219V19.5294C29.4219 19.856 29.6897 20.1213 30.0166 20.1213H37.6071C37.934 20.1213 38.1995 19.856 38.1995 19.5294V16.9596Z" fill="#007AFF" fill-opacity="0.15"/>
<path fill-rule="evenodd" clip-rule="evenodd" d="M15.4075 16.9595C14.5358 16.1362 13.864 15.1019 13.4736 13.9383H1.39551V16.9595H11.7893H15.4075Z" fill="#74777F"/>
<path fill-rule="evenodd" clip-rule="evenodd" d="M11.7893 19.5293V16.9595H3.01172V19.5293C3.01172 19.856 3.27958 20.1213 3.60421 20.1213H11.1969C11.5215 20.1213 11.7893 19.856 11.7893 19.5293Z" fill="#007AFF" fill-opacity="0.15"/>
<path fill-rule="evenodd" clip-rule="evenodd" d="M11.7895 16.9595V19.5294C11.7895 19.856 11.5217 20.1213 11.1971 20.1213H9.09521V33.3584H32.1254V20.1213H30.0167C29.6898 20.1213 29.422 19.856 29.422 19.5294V16.9595H11.7895Z" fill="#EFF3F3"/>
<path fill-rule="evenodd" clip-rule="evenodd" d="M9.09505 20.1213H5.71289V33.3584H9.09505V20.1213Z" fill="#62B7FF"/>
<path fill-rule="evenodd" clip-rule="evenodd" d="M9.09477 33.3582H2.8208V36.3794H38.1765V33.3582H15.4436H9.09477Z" fill="#005FB0"/>
<path fill-rule="evenodd" clip-rule="evenodd" d="M38.1767 36.3795H2.31257C1.48176 36.3795 0.800781 37.0577 0.800781 37.8878C0.800781 38.7203 1.48176 39.3984 2.31257 39.3984H38.6874C39.2299 39.3984 39.7111 39.1081 39.9767 38.6727V37.1053C39.7111 36.6699 39.2299 36.3795 38.6874 36.3795H38.1767Z" fill="#74777F"/>
<path fill-rule="evenodd" clip-rule="evenodd" d="M20.769 21.9472H15.4438V33.3584H20.769V21.9472ZM20.769 33.3584H26.0964V21.9472H20.769V33.3584Z" fill="#9BC6FF"/>
<path fill-rule="evenodd" clip-rule="evenodd" d="M32.125 33.3584H35.5071V20.1213H32.125V33.3584Z" fill="#62B7FF"/>
<path fill-rule="evenodd" clip-rule="evenodd" d="M20.4988 4.17827C16.4084 4.17827 13.0898 7.4943 13.0898 11.5816C13.0897 12.3827 13.2193 13.1786 13.4735 13.9383C13.8639 15.1018 14.5357 16.1361 15.4074 16.9594C16.7352 18.216 18.5262 18.9849 20.4988 18.9849C22.4713 18.9849 24.2645 18.216 25.5901 16.9594C26.4618 16.1361 27.1336 15.1018 27.524 13.9383C27.7738 13.1987 27.9077 12.4049 27.9077 11.5816C27.9077 7.4943 24.5913 4.17827 20.4988 4.17827Z" fill="#FDFCFF"/>
<path d="M23.0797 12.8178C23.0797 13.453 22.8958 13.9655 22.5281 14.3488C22.1604 14.7321 21.7155 14.9862 21.1911 15.1087V16.0477C21.1911 16.4446 20.8529 16.7712 20.4557 16.7712C20.0584 16.7712 19.7339 16.4446 19.7339 16.0477V15.1155C19.407 15.0407 19.1119 14.9204 18.8486 14.7526C18.5785 14.5825 18.3901 14.4305 18.2856 14.2989L18.1245 14.0903C17.4594 13.2193 18.5581 12.2893 19.1981 12.9607C19.2776 13.0424 19.3571 13.1399 19.4524 13.2442C19.7202 13.5414 20.1129 13.589 20.4307 13.589C21.0367 13.589 21.3386 13.3395 21.3386 12.8404C21.3386 12.6613 21.2251 12.5229 20.9959 12.4255C20.7666 12.3256 20.4875 12.2394 20.1606 12.16C19.8337 12.0829 19.5068 11.9786 19.18 11.8493C18.8532 11.7177 18.5762 11.4932 18.3469 11.1734C18.1177 10.8559 18.0019 10.4521 18.0019 9.9622C18.0019 9.46996 18.1608 9.03225 18.4695 8.63754C18.7737 8.24748 19.2141 7.98203 19.7452 7.88L19.7475 7.03622C19.7475 6.63935 20.072 6.31272 20.4693 6.31272C20.8665 6.31272 21.1911 6.63935 21.1911 7.03622V7.88905C21.4204 7.93894 21.6292 8.00925 21.8176 8.09774C22.006 8.18847 22.1354 8.2611 22.2103 8.31779L22.3193 8.41757C23.2703 9.12746 22.3533 10.3886 21.5338 9.69906C20.9777 9.23188 19.7202 9.1297 19.7202 9.98486C19.7202 10.1663 19.8042 10.3115 19.9722 10.4204C20.1379 10.5315 20.3444 10.604 20.5896 10.6404C20.837 10.6789 21.1049 10.7402 21.4 10.8242C21.695 10.9103 21.9651 11.0101 22.2103 11.1257C22.4555 11.2391 22.662 11.4411 22.83 11.7314C22.9957 12.0217 23.0797 12.3846 23.0797 12.8178Z" fill="#005FB0"/>
</g>
</g>
<defs>
<clipPath id="clip0_260_3036">
<rect width="41" height="41" fill="white"/>
</clipPath>
</defs>
</svg>
