<?xml version="1.0" encoding="UTF-8"?>
<svg version="1.1" viewBox="0 0 4096 2528" width="256" height="158" xmlns="http://www.w3.org/2000/svg">
<path transform="translate(2109,594)" d="m0 0 4 5 7 8 6 9 8 17 5 3 6 1 28 1 1 4-6 12-4 4h-2v2h-2l-2 4-7 10-2 4-1 9-1 112 1 22 2 7 7 2 11 1 44 1h32l46-1 16-1 10-3 3-3 4-6 12-9h3l2 11 3 17 3 5 11 9 9 6 18 9 2 5-7 6-15 9-4 4h-2l-2 4-4 2-2 4-8 15-3 10-1 7-3 1-7-2-6-5-6-8v-2l-11-2-34-2h-124v129l1 16 3 12 7 10 8 7 9 9 1 3-2 2-28 5-7 4-6 5-12 22-5 5-13 1-4-4-7-15-3-6-1-3-4-2-6-4-16-4-14-2-1-1v-7l4-6 9-6h2l2-4 6-14 2-14 1-31v-105l-4-1-16-1h-107l-25 1-11 1-6 4-5 6-9 7-9 5h-4l-1-3v-12l-4-17-3-7-14-10-16-9-5-4 1-3 7-6 18-11 6-5 1-2h2l2-4 4-7 1-6v-26l2-1 11 9 8 6 5 5 5 4 11 3 11 1h83l43-1 16-2 1-2 1-45-1-83-3-16-7-17-13-17-1-5 1-3 2-1 23-2 8-4 6-7 12-20 6-11z"/>
<path transform="translate(2109,507)" d="m0 0 6 3 6 8 8 16 11 19 10 18 9 19 1 3h89l21-1 3 2-1 7-2 3h-2l-2 4-4 4h-2l-2 4-14 18-9 11-10 11-7 8-11 13-9 13-4 15-2 18-1 18v48h93l10-4 11-8 9-9 11-9 14-13 8-7 14-12 13-13 5-3 3 1 3 11 1 87 2 9 5 5 8 5 16 7 19 10 11 6 17 9 16 8v4l-21 12-26 14-17 9-16 8-11 7-3 7-1 99-2 4-6-2-13-11-8-7-14-12-8-7-20-18-14-12-5-3-16-3-13-1-38-1h-20l-12 1-3 2-1 5-1 24v39l2 19 4 10 10 13 9 8 9 11 8 8 9 11 10 12 10 14 7 7 4 7-1 3-2 1h-107l-3 1-2 5-10 19-11 21-8 14-8 16-7 9-3 1-8-6-6-9-8-17-6-10-8-16-7-12-7-14-12-2h-96l-3-2v-6l4-6 13-12 9-12 13-16 10-11 9-11 7-8 9-14 3-6 2-22 1-67h-92l-10 1-10 6-16 15-24 22-11 9-10 9-7 6-10 6h-4v-14l-1-6v-84l-8-7-27-14-24-13-16-9-14-9-3-3 2-4 6-4 15-6 13-9 23-12 20-11 9-7 4-5v-54l-1-32-1-2v-10l1-3 4-1 15 9 9 8 11 9 14 12 11 10 8 7 13 11 12 7 9 2 24 1 51 1 12-1 3-7v-43l-1-27-1-13-3-8-9-12-12-14-14-15-9-11-10-12-9-11-11-13-2-8 5-3 52 1 29 1h22l5-5 9-16 8-16 7-12 9-15 5-13 5-8zm4 39m-5 1-1 3-2-1-9 14-12 20-9 19-2 4h-2v2h-2l-1 3-8 2-2 2-1-1-53-2h-19l3 7 9 9 7 8 7 7 9 11 4 2 2 4 12 16 6 12 2 8 2 23v89l-6 1-20 1h-50l-32-1-13-2-10-4-13-11-18-18h-2v-2h-2v-2l-8-7-9-9-9-7-2 4v72l-3 5-10 7-10 6-19 10-23 12-12 5 3 5 19 12 13 8 17 8 16 8 6 4 3 8-1 28v37l1 11 4-2 11-9 5-5v-2l4-2 13-13 8-7 10-10 10-7 6-2 22-1h101v81l-2 28-3 12-7 13-9 11-4 4v2h-2l-7 8-9 10-7 8-11 13v2l-3 1 4 2h72l12 4 4 2 2 5 8 19 8 16 8 15 3 3 8 2 6-7 7-12 11-23 8-17 5-5 3-1 83-1v-3l-9-10-11-12-9-11-11-12-5-5-8-9-6-11-2-16-1-14v-60l1-26 2-5 2-1h77l30 1 13 2 10 4 5 4 7 8 16 15 15 15 10 8 5 1 2-75 3-6 10-6 25-14 19-11 18-11-3-3-52-26-11-7-8-7-1-2-2-76-2-3-7 4-21 21-8 7-12 11-8 7-11 7-9 3-13 2-60 1-28-1-11-2-3-5-1-11v-49l2-37 3-17 3-10 5-6v-2h2l9-11 10-10 8-10 9-10 8-11-1-3h-10v-2l-54-2-13-2-7-3-3-4-7-17-11-22-10-15-3-2z"/>
<path transform="translate(323,1549)" d="m0 0h8l5 2 2 5-2 18-1 6 56 7 51 7 79 9 43 6h8l4-15 4-8 11-7 3-6h2l-1 23-2 13-3 37-4 29-3 16-4 8-12-3-4-4-2-5-2-14-9-1-37-5-68-8-60-8-47-5-4-1-4 19-5 26-6 42 25 3 71 8 88 11 29 3h20l4-4 6-9 10-10 3-6h1l-1 33-4 44-5 28-4 18-5 6h-6l-6-4-1-1v-20l-1-5-69-8-64-8-95-10h-2l-2 10-2 12-5 5-3 1h-7l-5-3-2-3-1-13 3-39 8-61 5-41 3-35 4-26 7-41 2-12 3-5z"/>
<path transform="translate(1035,1745)" d="m0 0h4l1 2v11l-9 13-5 5h-2v2l-8 7-12 10-11 7-11 8-23 15-24 14-15 9-14 7-16 9-28 15-12 7-11 6-16 10-13 11-6 9-4 14-1 7-3 54-3 26-11 65-4 15-5 12-12 20-6 5-11 3-13 1h-17l-17-1-15-4-16-12-3-1h-8l-8 3-9 11-16 2-12 1-10 1-9 3-6 5-9 4-14 3-22 3-7 14-9 36-12 28-6 11-13 20-11 16-9 12-4 5h-2l-2 4-11 11-16 11-17 9-21 8-15 3-21 1-16-2-15-5-12-7-13-11-9-12-9-19-3-12v-42l3-21 6-23 9-26 17-38 5-5 4-2 7 1v7l-5 17-12 36-4 23v28l3 10 6 9 8 9 10 7 16 8 14 4 8 1h15l16-3 16-6 25-12 22-16 10-10 9-13 11-23 4-15 2-19v-39l4-11 5-5 2-1h7l11 3 9 6 7 1h9l9-6 10-6 11-6 9-7 5-1 8 5 7 6 7 1 10-4 8-4 8-14 4-5 4-1 19 9 15 3 26 2h20l8-3 5-9 4-13 2-11 2-23 2-48 4-23 8-31 5-14 8-14 8-11 9-10 12-11 16-12 15-10 22-13 38-20 24-12 19-10 24-13 17-11 14-10 13-10 8-7z"/>
<path transform="translate(2150,1343)" d="m0 0h16l17 3 12 4 17 9 11 9 11 10 12 16 10 16 12 20 15 28 11 21 12 22 15 29 10 18 10 19 9 16 7 12 4 3 16 4 5 3 4 5 1 6-4 2-13 1h-175l-124-1-9-2-2-3v-6l5-6 8-1h32l10-5 9-10 10-14 10-13 10-14 11-16 8-11 10-14 10-13 12-17 15-23 3-9v-12l-3-6-5-5v-2l-4-2-10-8-15-8-5-1-3 24-4 11-4 5-10 5-6 2h-21l-13-4-10-6-8-7-6-9-2-7v-20l3-10 6-10 14-14 18-11 7-2zm106 153-10 15-12 19-13 18-7 11-8 12-14 19-4 7 7 2 40 1h80l1-5-6-10-10-16-10-19-24-44-7-9z"/>
<path transform="translate(2742,1406)" d="m0 0h98l36 1 7 3 3 3-2 7-10 11-19 12-21 16-16 10-11 6-6 4-4 5 12 2 35 1 15 2 8 5 1 4-7 6-21 10-19 8-34 17-12 8-12 9-7 6h-2v2h-2l-2 4-8 9-7 12-1 3v10l4 12 6 8 8 6 16 5 36 7 25 2 56 3 27 3 11 4 5 5 4 7 1 5v7l-2 7-6 8-5 6-16 11-14 3-12 1h-11l-7-2-3-3 1-7 5-10 5-14 1-9-6-2-24-2-18-1-77-2-32-2-12-2-17-6-8-6-4-6-3-13v-8l4-18 6-11 8-11 4-5 8-7 8-8 22-18 10-9 4-3-8 1-2 1-18 1-43-1-7-1-3-3v-6l5-7 13-8 24-11 22-12 28-15 21-12 14-9 2-4-69-1h-24l-8 2-2 3v10l1 4v10l-5 5-4-1-9-6-10-11-13-17-11-13-9-13-1-6z"/>
<path transform="translate(3637,1902)" d="m0 0 6 1 2 5-2 7-6 11-4 23-8 83-1 9 9-10 13-10 7-6 14-10 8-4 16-2h9l8 3 4 5 1 4v11l-2 19-5 13-8 15-8 9-4 6-7 8 18 2 40 2h8l8-4 4-10 12-36 9-21 10-18 9-15 5-4h4v13l-5 16-9 29-6 19-7 17-7 16-6 11-16 21-12 12-4 1-15 1h-154l-29 2-18 3-28 10-14 8-10 8-10 9-14 14-1 2h-2l-2 4-8 8-7 8-20 20h-2v2h-2v2l-8 7-12 11-10 8-13 11-18 12-23 11-21 9-18 5-13 1-4-2 2-5 7-6 20-9 23-13 24-16 12-9 14-11 11-10 8-7 7-7 8-7 15-15 7-8 7-7 7-8 9-10 9-11 9-9 1-2h2l2-4 8-8h2l1-3 14-11 10-7 16-8 15-6 11-3 16-2 36-3 4-1 2-16 3-48 4-38 4-24 5-17 6-16 7-13 9-15zm29 137-10 2-10 6-7 4-10 9-9 12-6 12-2 5h11l24-10 14-7 11-9 5-6 2-4-1-9-4-2-4 1 1-4z"/>
<path transform="translate(1483,1403)" d="m0 0h20l14 3 16 8 7 6 10 14 8 15 6 16 3 17v32l-5 20-8 18-8 12-9 10-9 7-16 4h-28l-15-4-11-4h-2v104l-1 23-5 5-5 4-16 10-3 1h-10l-10-4-10-9-8-8-5-8-3-8 1-4 15-6 7-5 2-7 1-20v-179l-2-12-4-9-9-15-7-11-2-5v-6h10l11 2 8 4 10 6 7 4 8 3 7-1 10-8 5-5 7-5 13-4zm-10 31-10 5-4 5-3 8-1 11-1 49 2 25 3 8 6 4 15 3 12 1 10-4 7-7 6-13 2-16v-36l-2-19-5-12-4-5-11-6-5-1z"/>
<path transform="translate(982,1400)" d="m0 0 11 2 15 6 12 11 6 9 12 20 6 12 7 10 9 3 5-1 3-9 8-47 3-8 8-7 3-1 13 1 25 6 8 5v12l-3 13-7 16-2 8-2 28-1 34v88l-3 3-3 1h-38l-5-3-1-1v-43l-2-14-8-11-11-11-8-13-13-29-12-22-7-9-7-5-7-1-2 6v26l-1 17-1 74-1 20-2 9-4 6-9 4-16 4h-14l-11-4-10-9-8-15 1-7 8-6 13-8 3-6v-91l1-45 3-15 5-5 16-4z"/>
<path transform="translate(3242,1745)" d="m0 0h5l2 7-1 7-9 12-11 11h-2v2l-14 11-22 15-26 17-16 9-17 10-24 13-12 7-16 8-18 10-21 12-10 7-11 9-6 8-4 12-2 13-2 40-2 26-12 72-4 19-5 12-11 19-6 7-7 3-18 1h-17l-33-1-6-1v-2h-2l-5-7-9-4-6-1-7 3-3 1-2 4-6 5-2 1-10 1h-52l-25-2-7 1-4-1h-11l-11 3-6 5-6 9-10 19-8 9-4-1-1-2v-7l3-12 8-17 9-16 9-12 9-11 11-11 18-13 5-5 6 1 11 4 6 5 8 3 14 2h40l9-3 6-5 11-18 8-11 8-17 6-4h2l1 4v7l-5 14-9 21-5 12h82l5-3 3-4 5-15 3-20 2-26 1-30 3-23 5-22 6-23 8-16 8-13 9-11 8-7 11-10 11-8 18-12 22-13 28-15 56-28 21-12 19-12 14-11 11-9z"/>
<path transform="translate(1683,1407)" d="m0 0h37l15 4 16 9 12 11 7 7 10 15 8 17 8 29 6 3 14 5 4 3-1 5-8 4-13 4-3 9-8 23-10 18-10 13-5 6h-2l-2 4-11 9-11 7-17 5-16 2h-17l-13-2-9-4-10-7-12-11-11-14-10-17-5-11-7-29-2-1h-16l-6-5-2-3v-7l4-5 20-3 3-5 5-21 6-17 9-17 11-12 9-8 14-8 13-4zm16 24-11 2-9 6-4 5-8 16-3 15-1 15 2 7 8 2 30 1 21-1 6-2 1-2v-19l-2-23-4-11-8-7-7-3zm23 92-52 1-3 1-2 6v20l4 16 7 14 6 8 8 6 7 2h7l9-4 9-7 5-6 3-8 1-8v-21l-2-13-4-6z"/>
<path transform="translate(1926,1410)" d="m0 0h19l16 3 19 7 16 9 11 9 10 11 7 11 8 16 6 18 2 10v23l-4 18-6 15-4 9-7 12-8 11-9 9-13 9-14 6-19 5-16 2-20-1-16-4-11-5-12-8-12-11-11-14-10-16-6-13-3-11v-29l2-20 4-15 11-23 10-14 7-7 10-7 16-8 14-5zm4 28-8 3-8 6-8 10-2 5-2 18v69l3 21 7 14 11 12 10 3h10l10-4 7-6v-2h2l6-9 2-13 1-13 1-73-2-13-4-13-8-9-8-4-8-2z"/>
<path transform="translate(2978,1410)" d="m0 0h15l15 2 16 5 17 9 15 11 11 12 9 13 8 15 3 12 2 16v27l-3 18-4 10-9 15-10 13-13 13-15 11-19 7-15 3h-27l-14-3-13-4-12-7-10-8-8-8-10-13-9-16-5-15-3-13-1-9v-16l5-24 5-17 9-17 6-9h2l2-4 8-8 11-8 16-8 10-3zm2 28-9 2-9 7-4 9-3 19v79l3 19 4 10 9 11 5 3 9 2 12-1 10-5v-2l4-2 7-8 3-6 2-15 1-77-2-20-5-10-6-7-10-6-8-2z"/>
<path transform="translate(2498,1410)" d="m0 0h15l13 2 15 4 14 7 14 9 10 9 9 10 10 16 7 16 3 16 1 24-2 22-5 15-8 14-8 11-9 10-10 9-12 8-19 7-14 3h-29l-20-4-12-5-12-9-9-8-10-13-9-15-6-12-5-18-2-16v-14l4-20 6-18 8-16 9-12 14-14 11-7 15-7 13-3zm-2 29-8 3-7 7-4 11-2 12-1 22v54l2 18 5 16 9 11 6 4 4 1h17l10-5 10-10 4-8 2-10 1-30v-60l-2-11-6-12-7-7-9-5-4-1z"/>
<path transform="translate(1255,1410)" d="m0 0 18 1 17 4 11 5 16 9 12 9 7 7 10 13 8 16 4 11 3 21v18l-2 19-4 15-8 16-9 12-11 12-10 8-14 8-18 6-11 2h-29l-21-5-14-7-11-9-10-10-11-15-9-17-4-13-3-18v-20l5-24 7-21 7-12 9-12 13-12 13-8 15-6 10-2zm1 28-12 2-6 4-6 7-2 5-3 20v76l3 19 4 11 10 12 8 4 4 1h9l10-3 8-6 8-9 3-7 1-6 1-37v-60l-2-9-5-10-7-7-12-6z"/>
<path transform="translate(2036,1855)" d="m0 0h9l1 1v10l-6 37-5 38-3 32-2 45v27l2 23 3 11 4 8 5 4 5 2 18 2h30l11-2 9-8 10-15 7-13 6-8 8-14 2-2h4l-1 9-6 17-5 23-2 11 10 1 33 1 37-1 10-2 9-5 9-8 6-9 2-11-1-5-2-1v-2l-13 1-6 1h-16l-9-4-5-6-2-12v-14l5-28 2-10 3-8 5-5 10-5 9 1 10 4 9 6 8 9 8 14 4 13 3 18v11l-1 12-5 24-8 16-9 14-13 16-4 5h-2l-2 4h-2v2h-2v2h-2l-2 4-8 5-10 2h-45l-16-1-7-2-7-9-3-2h-9l-10 5-7 6-5 2-28 2h-26l-17-3-10-9-7-14-5-17-1-5-1-21 3-35 4-35 7-59 5-29 6-29 4-28z"/>
<path transform="translate(2145,174)" d="m0 0h17l10 4 6 4 7 7 10 15 10 19 10 28 1 2 4-2 7-6 8-10 13-13 2-3h2l2-4 13-12 10-7 9-4h13l10 3 22 11 5 4 1 7-3 3-4 1-23 2-8 2-6 5-1 2h-2l-2 4-9 10-11 14-7 9-16 20-4 6-2 4 1 4 8 15 8 20 4 12 4 1 6-1 3-10 6-12 6-5 6-2 11 1 10 5 8 7 5 7 3 9v11l-3 8-7 11-9 8-12 7h-8l-10-2-12-6-12-11-7-8-8-16-5-12-10-20-3-3-7 4h-2l-2 4-12 13-8 8-7 8-13 12-19 9h-12l-5-3-9-1-12-7-6-9 1-5 3-3 4-1 9 2h10l8-5 8-8 7-8 13-16 7-8 11-13 10-14 1-4-4-12-5-14-6-16-7-11h-3l-3 12-5 6-11 4-7 1h-8l-14-4-8-5-4-5-4-10v-12l4-10 6-8 7-7 8-5z"/>
<path transform="translate(3589,1068)" d="m0 0h10l13 4 8 6 8 9 5 13 1 10-2 11-6 12-14 22-12 17-6 8-1 3 6 1 15 5 42 11 14 7 8 9 6 12 5 18v11l-5 5-3 1h-11l-4-4-8-18-6-3-14-3-67-10-7 1-7 6-6 8h-2l-2 4-12 13-6 9-5 9 6-2 3-7 4-2 10 2 1 4 3 1 3 3 6 3 6 5 4 8 2 13v8l-3 9-7 6-15 5-14 3-16-6-7-6-6-10-3-8-1-12 3-14 5-12 7-11 14-21 7-10 2-6-6-2-20-6-19-5-27-8-9-7-6-8-5-11-5-16v-9l4-10 3-3h5l7 8 10 14 4 5 15 4 44 7 17 5 8 3 6-1 6-4 10-9 4-5 8-11 6-8 3-7-2-5-6-1-16-1-7-3-6-7-3-9-4-10 1-5 5-8 9-11 10-5z"/>
<path transform="translate(3329,722)" d="m0 0h8l10 5 5 4 6 8 4 9 1 11-6 14-8 10-7 7-7 8-9 8-14 7-17 4-10 6-6 7-1 3v18l4 12 6 8 7 6 9 4 13 5 10-14 4-6 8-9 7-10 10-11 13-10 13-8 9-3 6-1h16l12 4 9 7 5 8 2 9-2 10-6 10-8 8-7 8-7 7-10 7-22 10-21 8-12 4h-2v14l2 15v14l-2 5-6-1-5-3-4-9-3-14-2-19-3-5-5-2-16-5-11-6-9-7-7-8-1-3h-2l-9-16-5-13-2-11-2-18-9-2-13-3-13-5-11-8-4-5-1-8 7-1 12 2 24 6 5 1h7l6-16 6-15 10-17 5-5 11-8 26-13z"/>
<path transform="translate(553,1243)" d="m0 0h21l15 3 14 5 13 9 10 9 11 11 7 10 7 6 3-3 6-3 10-11 8-6 13-2 1 1v9l-4 8-9 9-4 6h-2l-2 4-6 4-6 2v6l10 20-1 10-6 17-8 16-9 13-7 8-8 5-4 2-3 4v9l2 14v18l-2 12-4 6-3 1-5-4-3-7-2-18-3-7-4-6-4-5-9-2h-13l-14 4-24-5-15-5-11-7-12-11-6-9-3-8 1-7 7-15 7-8 9-4h19l16 4 25 8 18 14 9 8 9 5h12l8-5 8-10 6-12 2-16-4-16-2-3-8-1-27 1-17-4-16-7-10-6-11-8-11-10-7-10-3-5-1-9 3-10 7-10 4-3z"/>
<path transform="translate(3619,1531)" d="m0 0 9 3 8 7 11 14 6 9 5-2 21-14 21-10 13-3 10-1h28l11 3 8 6 5 9 2 8v16l-5 10-8 6-11 5-27 5-22 3-7-1-19-3h-10l-6 4-6 7-4 4-3 9v16l3 12 4 6 7 7 5 9 5-2 12-10 17-9 17-5 20-2h25l11 3 10 6 7 9 4 11 2 10-1 9-4 6-6 5-19 6-29 8h-6l-2-1-14-2-3-2-31-4h-13l-3 12-2 14-6 8-6-1-6-7v-16l2-11 4-10 4-8v-7h-4l-1 7-2 5-1 6h-2l-2-13v-9l-5-8-6-13-2-9-1-10v-22l3-13 7-11 3-6-2-7-9-9-9-14-7-15v-11z"/>
<path transform="translate(3208,1408)" d="m0 0 19 1 16 4 16 8 14 10 11 11 7 10 5 10v5l-17 8-14 11-6 3-5-1-6-7-11-23-10-14-7-4-3-1h-19l-7 3-7 8-7 15-5 21-3 22v31l2 14 5 16 7 13 10 10 8 3h8l10-4 7-6h2l2-4 6-8 3-6 5-21 3-6 4-2 7 3 8 6 13 2 11 2 5 3-1 7-7 12-11 17-9 10-10 8-8 4-12 4-18 3h-27l-15-3-12-5-14-10-15-15-9-13-8-14-8-24-1-7v-25l3-14 7-19 8-15 13-17 11-10 10-7 16-8 15-4z"/>
<path transform="translate(1016,591)" d="m0 0 4 1 3 6 1 9-2 10-6 5-5 6h-2l1 5 12 11 11 12 9 9v2h2v2h2v2h2l7 8 15 15 7 6 16 2 8 4 4 6v8l-4 10-8 10h-2l-2 4-9 8-9-2-14-9-12-11-20-20-7-8-12-13-7-8-9-10-9-12-6 3-11 11-8 7-7 8 4 7 11 12 7 8 9 11 8 8 7 8 9 9 9 11 8 10 6 13 1 8-4 10-7 9-11 5-10 3-6-1-8-7-3-5v-7l2-5-1-7-9-12-11-12-7-8-9-10-8-8v-2h-2l-7-8-7-7-5-2-4 1-9 10-3 2-15-6-6-5 2-6 4-6 26-26 8-7 8-8 8-7 12-11 8-7 13-12 8-7 14-12 13-11z"/>
<path transform="translate(2904,383)" d="m0 0 7 1 9 4 13 11 6 8 3 9 1 10 1 32 1 10 8-4 9-7 4-2 2-4 9-9 5-6 7-4h8l7 4 11 12 6 8 1 7-9 7-11 8-7 7-12 19-7 12-10 17-13 23-8 13-8 17h-4l-27-14-5-4 7-11 8-16 3-5 4-13 1-8-3-7-5-8v-15l5-24 1-6v-12l-1-10-7 1-8 10-11 17-9 16-8 13-14 25-9 11-10 5-10-1-10-4-8-5-5-4-6-9-1-5 3-5 10-8 15-11 7-5 7-10 13-22 12-23 8-13 8-11 12-10z"/>
<path transform="translate(3486,910)" d="m0 0h12l7 3 9 7 4 8 2 9v12l-4 16-8 16-5 16-1 8 9-1 34-14h13l4 2 4 6 2 6 3 16-3 9-4 4-3 2h-9l-18 5-11 6-18 12-17 11-11 7-13 10-9 5-15 8-8-1-7-8-5-11-1-6 3-7 5-5 18-12 6-7 5-11 6-15 7-11 9-14 7-11 3-9v-9l-2-2-9 1-14 8-33 22-15 9-14 6-18 5-8-1-6-4-5-5-5-10-3-12 1-6 2-5-2-4 4-3h9l13 1 15-3 19-8 27-18 15-9 18-11z"/>
<path transform="translate(842,751)" d="m0 0h14l6 2 6 8 3 13 11 11 14 11 13 11 10 8 11 10 11 9 9 9 5 4 6 10 1 3-3 7-7 9-12 6-4-1-14-11-7-6-9-5-6-3-6 1-4 3-12-1-5-1-23-8-27-4h-11l4 9 10 10 2 1v2l4 2 13 12 11 9 13 10 12 10v2l4 2 8 10 4 9v10l-6 10-14 9-5 3-4 4-9-6-5-4-6-9-4-15-9-10-13-12-11-9-13-11-14-12-15-15-5-10v-8l5-11 5-7 15-10 9-3 14 2 16 5 9 2h9l2-1v-8l-3-10-7-11-7-10-6-12 1-5 4-6 8-10z"/>
<path transform="translate(2019,190)" d="m0 0h12l8 2 9 5 10 8 8 10 8 14 5 15 2 18-1 17-5 15-7 12-11 14-11 8-7 3h-19l-21-5 2 40v31l-1 23-2 8-5 3-7 1h-22l-9-4-5-5-1-3v-8l4-8 9-7 3-2v-16l-6-56-4-64-2-20-5-13-7-11-5-11 2-5 5-1 21 9 7 5 4-1 9-5 15-9 10-5zm-7 23-9 3-4 5-3 7-1 7v22l2 28 3 15 2 3 10 2h10l9-4 5-5 4-9v-23l-2-19-4-19-5-10-6-3z"/>
<path transform="translate(3052,478)" d="m0 0 7 2 7 6 8 20 1 7 6-2h9l2-1h12l8 3 6 4 10 9 8 10 5 9 3 10v20l-5 16-9 17-12 14-5 6-11 8-12 6-14 4h-12l-13-3-9-6-16-17-2-1-6 4-6 7-9 14-14 19-7 9-12 13-7 3-15 1-11-4-6-5-4-7-2-6v-10l4-10 5-6 7 1 3 1 1 6h2v-2l8-7 9-10 16-22 14-20 18-24 8-10 14-19 10-17 4-11 1-3v-12l-1-9 2-4zm38 50v3l-4 1-13 14-11 14-9 11-11 16-2 4v11l6 5 10 7 1 1 13-1 6-3 14-12 10-12 7-11 5-8 3-8v-8l-6-12-8-8-5-3z"/>
<path transform="translate(1549,286)" d="m0 0h9l10 2 12 6 10 9 7 9 9 15 5 10 3 11 1 7v31l-4 10-8 10-9 8-10 4-28 3h-4l5 15 6 14 8 24 9 21 3 9 1 8-2 7-4 5h-2v2l-16 11-7 2-9-2-10-8-7-6-1-2v-6l6-5 5-4-2-13-7-22-8-21-3-10-14-38-7-20-11-28-5-10-2-2-7-3-11-7-3-4 1-5 2-4 7-1h29l6-5 7-8 9-8 11-7 10-3zm-11 24-11 4-7 7-1 2v15l5 14 7 18 6 16 7 11 9 3h10l10-4 7-8 2-5v-10l-13-36-4-11-6-9-9-6-3-1z"/>
<path transform="translate(1128,501)" d="m0 0 5 2 2 2 1 6-2 23 2 4 23 10 25 12 23 12 23 11 7 2 7-6 7-11 3-2 6 1 6 5 5 8-1 7-3 6-8 12-11 13-5 3-9 3-16-5-11-7h-2l-4 9-5 16-8 16-7 11-10 10-11 7-5 2h-15l-10-3-10-6-8-6-7-10-3-9-1-9v-13l4-33 3-13-1-5-1-3-4-2-7-5-9-3h-7l-19 6h-3l-2-3v-7l7-8 8-7 11-7 15-11 13-10 10-9zm28 92-5 4-6 18-4 11v10l4 7 4 1 4 2 6-1v2h2l1-3 6-1 6-10 6-12 1-8-3-9-7-8-7-3zm7 52m-14 1 1 2h2v-2zm6 1-3 2h7z"/>
<path transform="translate(2402,219)" d="m0 0h9l24 8 10 6-1 7-15 25-8 19-4 14 27 5 29 5 7-1 6-16 7-19 6-20 5-8 1-1h8l24 10 8 6 1 6-5 12-12 19-11 33-5 24-6 35-4 9-2 1-17 1-16-3-4-4v-7l5-19 6-23v-8l-14-2-23-7-16-4-5 1-4 10-3 10-10 19-7 10-4 3h-11l-21-8-5-5-2-5v-9l7-10 7-7h2l3-9 9-29 7-38 6-21 5-10z"/>
<path transform="translate(1827,216)" d="m0 0h7l3 5-2 7-8 9-8 5-2 3 5 9 9 11 9 10 20 26 13 18 9 11 7 6 6-1 15-5 6 1 4 5 1 8-3 8-5 5-8 6-10 4-7 1h-8l-11-2-8-5-10-9-3-3-5 2-6 5-7 8-9 8-14 8-9 3-12 2h-15l-10-4-8-7-7-8-3-6-3-17 1-16 3-10 7-11 18-20 6-7 2-5-1-7-9-10-10-6-7-5-12-6-3-3 2-5 6-4 13-3 42-4zm-20 93-10 9-8 8-9 12 2 11h2v2l-2 1 6 5 3-1v2l-2 1h8l3-3 1 2 1-3 3 1 13-10 6-5 3-5v-10l-3-6-9-10z"/>
<path transform="translate(617,1085)" d="m0 0h5l4 5 1 2v11l-1 13 15-1h94l9-3 3-4 7-18 3-3h8l7 4 6 8 1 3v11l-11 23-8 11-8 3-26 3 4 17 4 14 1 8-3 14-8 15-13 17-9 6-8 2h-9l-12-3-9-4-8-6-8-9-6-10-5-19-4-19-4-12-4-6-6-2v3l4 2 1 2h-5l-3-4v-3l-11 3-10 6-10 7-8 3-3-5 1-10 5-14 17-33 13-22 5-5zm62 66-5 3-2 4v11l4 17 5 9 7 8 7 3 7-2 5-5 3-7v-9l-5-24-4-6-4-2z"/>
<path transform="translate(1515,1842)" d="m0 0 3 1 1 4v36l-5 83-4 45-6 45-5 24-7 21-8 18-10 14-9 11h-2v2l-12 9-11 3-21 2h-34l-8-2-1-1v-6l4-5 15-10 6-17 3-17 2-23 2-83 1-18 3-16 8-27 4-16 10-19 2-3 3 1v34l-1 82-2 29-4 25-6 23-6 32-3 11h2v-3l7-1 12-4 11-7 6-5 11-16 5-11 7-26 4-26 3-42 3-65 2-20 4-16 7-22 4-16 4-8z"/>
<path transform="translate(3699,1326)" d="m0 0h11l5 3 5 8 5 15v10l-4 5-8 3-36 5-23 4h-3l8 26 7 32v5l24-6 33-9 5-1h10l4 6 4 22 1 10-1 4-4 2-41 5-20 5-27 8-36 12-8 3h-5l-5-6-8-26v-7l6-2 43-11 4-2 1-5-5-17-11-35-3-2h-10l-31 5h-12l-6-5-9-25v-6l9-12 8-4 6 1 10 5 2 2 16-2 14-5 24-6 32-9z"/>
<path transform="translate(2449,1843)" d="m0 0 2 1v12l-2 31-2 81-2 39-3 30-4 22-7 28-7 19-8 15-8 12-9 10-10 8-10 5-15 3-28 2-20-1-6-3-3-3 1-4 3-3 16-7 4-2 2-8 3-30 2-28 3-65 3-27 9-42 4-15 7-14 4-14 4-7 2 4v24l-4 39-1 18-2 68-2 26-3 21-6 19-4 25 16-3 12-6 13-13 6-10 8-18 5-17 2-16 1-13 2-83 3-26 6-25 8-33 4-9 7-12z"/>
<path transform="translate(1898,1825)" d="m0 0h5l1 1v14l-8 76-12 90-4 29 11-6 10-5 14-9 18-10 9-4 5-1h12l6 3 4 6 2 15-3 18-5 12-10 15-12 14-7 7-7 8-11 9-10 6-10 5-17 5-44 7-45 7-27 4-4-1v-6l5-5 21-12 19-10 10-7 14-12 14-14 8-11 4-5 2-5 6-35 3-27 7-79 3-23 5-21 6-21 5-16 4-5zm14 217-12 4-10 5-15 11-14 12-16 16-1 3 8 3h8l21-4 20-7 16-8 10-9 8-8 4-8-2-5-7-4-5-1z"/>
<path transform="translate(1248,1986)" d="m0 0 2 1-2 15-4 15-11 33-7 22-5 12-10 21-8 11-14 16-10 9-10 3-6 1h-14l-1 8-5 4-6 19-10 21-11 18-7 9h-2l-2 4-9 8-19 11-15 7-34 13-5 1h-12l3-5 14-10 11-8 18-13 15-12 11-9 12-11 8-7 11-14 5-10 3-8 2-5-14-5-19-5-15-6-5-5v-8l3-11 8-16 7-16 14-24 6-10 5-4 6 2 10 10 13 20 9 11 5 3 14 4 11 1 9-1 5-5 4-11 7-24 13-30 10-19 4-7 10-8z"/>
<path transform="translate(1415,333)" d="m0 0 7 1 3 6 1 8-3 6-7 6-16 7-16 8-1 4 10 25 12 23 9 19 8 14 8 16 7 15 2 6-1 7-7 9-11 9-5 3-4 1h-8l-9-3-5-5-6-7-2-4v-6l5-6 3-2-1-6-13-26-8-17-8-16-11-21-5-7-9 1-14 9-23 9h-2l1 5 8 7 9 7 5 8 1 6-3 3h-27l-28-2h-16l-11-4-7-5-2-4 1-5 4-6 10-8 18-10 45-23 23-12 16-9 23-11 16-8 23-11z"/>
<path transform="translate(3323,1985)" d="m0 0h3v8l-4 16-11 34-5 17-14 34-8 15-9 12-8 10-7 7-7 3-35 4-20 4-31 11-16 9-14 13h-2v2l-7 6-1 2h-2l-2 4-18 18-5 6-6 5-7 8h-2l-2 4-8 7-10 10-8 7-3 1v2l-8 7-13 10-15 10-16 8-32 14-17 5-5 1h-10l-2-4 2-4 10-6 23-11 20-12 25-17 16-12 10-9 11-9 13-12 29-29 7-8 9-10 7-8 9-11 10-11 7-8h2v-2l11-9 16-12 25-12 17-6 14-2h36l8-4 3-8 5-24 5-14 12-24 13-19 6-11 5-5z"/>
<path transform="translate(3201,607)" d="m0 0h14l11 3 14 7 10 8 8 8 8 14 6 17 2 8v9l-4 5-6 3-7-1-4-4-4-11-4-14-5-10-8-7-5-2h-11l-8 6-8 7-3 6 3 9 7 8 8 9 9 7 6 7 2 6v6l-2 4-4 2h-9l-10-5-12-11-13-12-3-1h-7l-5 3-7 9-5 5-3 5-1 4v7l4 9 8 6 12 6 16 2 8 4 1 2v10l-6 5-8 2h-18l-11-4-11-7-11-11-12-18-3-10-1-7v-14l2-15 7-16 7-13 10-13 11-11 11-7 17-9 12-4z"/>
<path transform="translate(2620,279)" d="m0 0h21l15 4 12 5 13 9 7 6 9 14 4 11 1 5v8l-3 6-6 5h-15l-9-3-4-5-1-2-2-16-5-13-6-7-7-3h-13l-8 4-7 8-8 16-6 16-7 15-4 17v13l2 11 7 8 6 3 10 1 12-3 6-4 5-8 5-13 1-1h6l10 6 11 7 3 4-1 6-4 8-7 7-14 8-13 4-10 2h-9l-13-2-10-4-13-9-10-10-10-16-5-15-2-9-1-16 4-20 8-19 9-14 8-8 14-9 15-6z"/>
<path transform="translate(1e3 1982)" d="m0 0 5 1 5 5 7 9 14 27 5 15 1 17-2 14-4 13-5 11-6 17-7 14-13 19-12 12-13 9-11 5-17 5-23 6-21 6h-9l1-6 8-5 28-16 25-12 12-8 13-11 8-8 11-17 1-9-7-17-14-23-7-10-3-9 1-5 5-10 8-10 4-7 5-13 4-6z"/>
<path transform="translate(2533,1856)" d="m0 0h8l2 6-3 97-2 24-4 25-11 54-8 29-10 28-12 28-4 8-8 12-4 5-6 3-18 3-7 4-8 5-14 5h-7l1-5 11-9 11-8h2v-2l18-18 12-16 13-17 10-15 9-25 3-14 3-29 1-15 1-90 2-21 3-10 7-15 6-23z"/>
<path transform="translate(3666,1764)" d="m0 0h7l8 6 12 2 108 1 5 3 2 4v30l-2 10-6 3h-18l-7-3-4-4h-18l-60 3h-30l-10-3-5-8-1-3v-14l3-12 4-6z"/>
<path transform="translate(1658,253)" d="m0 0h10l16 4 6 4 3 4 1 3v11l-4 6-5 5-1 7 7 16 4 16 6 28 7 21 2 9v8l-5 8-7 6-9 4h-12l-8-4-5-5-12-11v-5l7-6 2-1v-10l-7-26-4-13-6-27-9-30v-9l3-6 7-4z"/>
<path transform="translate(479,1462)" d="m0 0 8 1 5 5 5 8 8 5 24 7 64 16 16 5 3 2v11l-4 22-3 8-5 6-1 1h-3l-4-2v-2l-25-11-23-7-37-10-38-11-9-6-5-6-3-9 12-20 4-5z"/>
<path transform="translate(1355,1973)" d="m0 0 3 1 1 5v20l-5 30-8 31-8 26-13 31-8 12-13 15-10 9-14 7-25 9-26 6-21 3h-5v-4l5-5 9-7 16-10 13-9 19-14 11-8 7-7 8-7 3-4h2l2-4 11-15 9-17 7-14 13-37 5-19 3-13 6-9z"/>
<path transform="translate(1608,1877)" d="m0 0 5 1 1 2v10l-7 63-6 52-3 38-4 31-7 27-8 26-7 12-4 5h-2v-23l3-60 4-36 5-32 8-39 13-50 4-17 4-9z"/>
<path transform="translate(2902,2169)" d="m0 0 12 3 12 6 2 2v12l-6 11-10 13-6 8-7 4-11-1-14-4h-8l-5 5-11 12-7 5-29-5-11-4-1-7 7-10 6-9 4-7 9-10 6-3h10l16 4h8l3-3 7-3 7-9 8-6z"/>
<path transform="translate(2269,1885)" d="m0 0h10l10 3 9 8 2 4-1 8-9 14-8 11-8 7-7 5h-2v2l-3-1-2-4-11-4-11-1-10 6-7 9-11 5-4 1h-9l-10-3-9-6-2-3v-9l4-8 10-13 11-12 5-2h7l10 4 8 7h6l5-4 4-6h2l2-4 4-4h2l2-4 5-4z"/>
<path transform="translate(2772 2e3)" d="m0 0h12l9 4 6 7 1 7-3 9-7 12-7 9-9 9-9 4-5-1-13-10-6-1-8 9-7 8-8 8-7 4h-6l-24-12-6-6 1-7 9-10 10-13 9-9 8-5 6 1 6 4 8 7h10l4-1 2-4 8-11 8-8z"/>
<path transform="translate(821,1278)" d="m0 0h15l12 4 15 9 13 11 8 7 7 8 9 10 8 13-1 4-5 2-6 1h-11l-29-4-14-3-19-7-17-9-7-8v-11l4-10 8-10 8-6z"/>
<path transform="translate(3318,2146)" d="m0 0 7 1 5 4 8 10 3 3-1 7-13 17-7 9-7 7-3 2h-6l-5-4-4-6-3-2h-7l-16 17-3 3h-2v2l-8 5-6-1-5-5-12-7-4-5 3-12 4-5 4-4 4-8 8-11 2-3 5 1 8 10 9 3h8l8-4 12-13 11-9z"/>
<path transform="translate(1236,1932)" d="m0 0 9 1 5 4 2 6-1 8-8 16-12 12-9 4-9-1-10-3-1-2-14 9-9 10-6 2h-12l-13-5-5-6v-8l3-9 10-13 4-5 3-2 45-1v-2h2l2-4 10-9 3-1z"/>
<path transform="translate(3551,800)" d="m0 0 9 2 6 4 10 12 4 8 1 11-2 17-7 26-8 11-4-2-6-9-14-30-5-11-2-11v-8l6-10 9-9z"/>
<path transform="translate(2914,265)" d="m0 0h7l6 3 6 5 7 11 9 20 11 23 1 7-4 2-12 1-14-7-13-11-8-7-7-6-7-9-2-5v-7l3-10 5-5 9-4z"/>
<path transform="translate(711,786)" d="m0 0 5 1 5 5 1 2v7l-6 9-11 10h-2l-2 4-7 7-8 7h-2v2l-5 4-7 3h-8l-9-6-10-13-2-4 1-5 6-9 13-9 16-4 15-5 13-5z"/>
<path transform="translate(2371,1810)" d="m0 0 6 1-1 5-8 16-3 5-4 11 5 11 1 4v16l-5 10-5 7-6 5-6 12-5 5-5 2-13-4 1-8 8-5 6-3-1-17-1-12v-15l4-11 9-11 7-11 11-11z"/>
<path transform="translate(964,1869)" d="m0 0h6l9 6 13 11 3 5 1 5-4 12-9 10-5 5-9 8-4-1-6-5-10-8-13-13-5-7 1-5 14-10 8-6z"/>
<path transform="translate(1435,1807)" d="m0 0h4l1 7-4 17-7 8-4 10-1 7 6 2 5 3v10l-5 12-6 12-8 10-11 11-6 3h-5l-2-3v-5l9-11 3-3 1-3v-10l-2-10-5-8 1-6 9-17 5-9 7-10 6-9 5-5z"/>
<path transform="translate(3764,2163)" d="m0 0 5 1 10 7 6 4 5 5 2 3-1 9-7 12-13 15-4 3-5-2-21-12-5-4-1-4 6-11 8-11 7-8z"/>
<path transform="translate(1201,1885)" d="m0 0 9 1 6 4 5 6 2 7v8l-2 9-4 6h-2v2l-7 4-18 4-20 3-1-3 3-10 13-22 9-13z"/>
<path transform="translate(2119,2154)" d="m0 0 4 1 12 6 6 7 1 2v12l-6 10-3 4h-2v2h-2v2l-9 6-6-2-11-10-4-6-1-3v-7l4-8 9-10z"/>
<path transform="translate(1168,1945)" d="m0 0h3l1 2 10 1v1h-17z"/>
<path transform="translate(1137,1984)" d="m0 0 4 2-4 1z"/>
<path transform="translate(577,1700)" d="m0 0 2 1-1 5h-1z"/>
<path transform="translate(1566,2146)" d="m0 0 3 1-1 2h-2z"/>
<path transform="translate(1341,404)" d="m0 0 4 1-1 2z"/>
<path transform="translate(2199,1959)" d="m0 0 3 1h-3z"/>
<path transform="translate(2216,615)" d="m0 0h3l-1 2z"/>
<path transform="translate(1542,312)" d="m0 0 3 2h-3z"/>
<path transform="translate(2203,1959)" d="m0 0 2 1-2 1z"/>
<path transform="translate(1168,1941)" d="m0 0 1 2-2-1z"/>
<path transform="translate(3563,892)" d="m0 0h2l-1 2z"/>
<path transform="translate(1173,1945)" d="m0 0 2 1z"/>
<path transform="translate(1201,1978)" d="m0 0"/>
<path transform="translate(2206,1959)" d="m0 0"/>
<path transform="translate(616,1477)" d="m0 0"/>
<path transform="translate(3536,1263)" d="m0 0"/>
<path transform="translate(624,1158)" d="m0 0"/>
<path transform="translate(3597,1133)" d="m0 0"/>
<path transform="translate(1833,874)" d="m0 0"/>
<path transform="translate(1857,749)" d="m0 0"/>
<path transform="translate(980,659)" d="m0 0"/>
<path transform="translate(1148,642)" d="m0 0"/>
<path transform="translate(1987,615)" d="m0 0"/>
<path transform="translate(2109,550)" d="m0 0"/>
<path transform="translate(1343,401)" d="m0 0"/>
<path transform="translate(1796,357)" d="m0 0"/>
<path transform="translate(1792,356)" d="m0 0"/>
<path transform="translate(1848,349)" d="m0 0"/>
<path transform="translate(1785,344)" d="m0 0"/>
<path transform="translate(1825,335)" d="m0 0"/>
<path transform="translate(1540,312)" d="m0 0"/>
</svg>
