<?xml version="1.0" encoding="UTF-8"?>
<svg version="1.1" viewBox="0 0 2048 2048" width="512" height="512" xmlns="http://www.w3.org/2000/svg">
<path transform="translate(495,113)" d="m0 0h23l13 4 11 6 10 8 10 10 12 17 10 18 9 21 9 27 8 32 6 35 4 35 2 25v6l4-1h277l5-1 4-45 5-35 7-34 9-31 8-21 12-25 9-14 9-11 7-8 12-9 12-6 11-3h23l12 4 11 6 9 7 11 11 11 15 10 18 9 20 11 33 7 29 6 34 5 46 1 21 4-1h276l6-1 4-44 5-35 6-30 7-26 8-24 9-20 9-17 10-14 11-13 13-10 14-7 8-2h24l12 4 11 6 9 7 12 12 12 17 13 25 8 21 7 22 7 28 6 34 5 46 1 16 1 5h119l25 2 16 3 19 6 18 8 18 10 17 13 16 15 11 13 10 15 9 16 8 19 6 22 3 22 1 35-1 1217-2 16-5 21-7 19-11 21-8 12-8 10-9 10-11 11-13 10-14 9-15 8-21 8-21 5-23 3h-1522l-18-2-25-6-20-8-17-9-12-8-16-13-15-15-13-17-8-13-8-16-7-18-5-21-2-14-1-15v-1231l2-21 5-23 8-22 11-21 8-12 8-10 12-13 13-12 17-12 18-10 20-8 18-5 18-3 15-1h124v-13l4-42 5-32 6-28 7-25 7-20 9-21 9-16 8-12 9-10 5-6 12-9 12-6zm8 57-8 7-7 10-8 15-8 20-8 26-6 26-4 24-3 25-2 24v9l112 1 3-1v-16l-4-39-5-30-7-29-10-30-7-16-9-15-8-9-4-2zm517 0-8 7-7 10-8 15-9 23-7 23-6 27-4 23-3 24-2 26v8l113 1 3-2-3-38-4-30-7-34-7-24-6-17-5-11-7-14-9-12-5-4-2-1zm518 0-6 4-6 7-10 17-8 19-8 24-6 24-6 32-4 37-1 22 112 1 4-1-2-30-4-34-6-31-8-30-9-24-8-16-6-10-8-9-3-2zm-1267 243-20 2-16 4-15 6-13 8-12 9-7 6-7 8-9 12-8 14-7 18-3 14-2 25v1218l2 21 4 16 6 15 9 16 11 14 10 10 14 10 14 8 15 6 18 4 9 1h1520l14-2 18-5 19-9 12-8 14-12 1-3h2l10-13 8-13 7-17 4-15 2-14v-1243l-2-15-5-17-10-21-10-14-8-9-8-7-14-10-15-8-21-7-12-2-15-1h-290l-2 1 1 21 4 37 5 28 6 25 7 22 8 20 10 19 11 12 10 3 11 4 7 6 5 10 1 10-3 10-6 8-8 5-9 2h-8l-14-3-16-8-11-9-9-10-11-16-10-18-8-19-11-33-7-30-6-36-4-36-2-25h-460l1 23 4 36 5 29 7 28 9 27 8 18 10 16 8 8 5 2 12 3 9 6 6 9 1 3v15l-6 11-8 6-5 2-6 1h-8l-14-3-16-8-11-9-9-10-12-17-11-21-9-23-8-25-7-30-6-36-3-25-3-36h-460v10l4 42 4 26 6 27 8 27 10 25 9 16 7 9 6 4 15 4 9 6 6 9 2 9-1 9-4 8-4 5-8 5-9 2h-9l-16-4-13-7-11-9-9-10-10-14-9-16-8-17-10-28-7-27-5-24-5-32-3-29-2-26z"/>
<path transform="translate(980,1462)" d="m0 0h57l134 1 9 3 6 4 6 7 3 6 1 6v202l-2 9-6 10-6 5-9 3-59 1h-226l-14-1-8-3-8-7-4-7-2-6v-209l3-8 6-8 10-6 4-1zm-71 58v141l228 1 1-1 1-89v-52z"/>
<path transform="translate(458,1462)" d="m0 0h51l123 1 9 3 8 6 5 7 2 6v211l-4 10-8 8-10 4-65 1h-221l-14-1-10-5-8-9-3-8-1-13v-190l1-9 4-8 5-6 10-6 3-1zm-88 58v141l226 1 3-1v-141z"/>
<path transform="translate(1545,1462)" d="m0 0h27l139 1 11 4 6 5 6 10 1 3v210l-4 10-7 8-8 4-4 1-49 1h-235l-15-1-9-4-8-8-4-9-1-8v-199l2-9 5-8 7-6 9-4zm-97 58v141l197 1h31l2-2v-140z"/>
<path transform="translate(873,817)" d="m0 0h300l8 3 5 3v2h2l6 9 2 9v201l-2 10-4 7-5 5-6 4-9 2h-295l-10-4-7-6-5-9-1-5v-208l4-10 7-8zm36 57v141h229l1-85v-56z"/>
<path transform="translate(875,1140)" d="m0 0h297l9 3 10 9 4 8 1 6v201l-2 10-3 6-5 6-7 4-7 2h-298l-9-4-8-7-4-8-1-5v-208l4-10 5-6 10-6zm34 57v141h230v-141z"/>
<path transform="translate(334,817)" d="m0 0h300l10 4 7 7 4 7 1 4v211l-4 9-7 8-8 4-6 1h-295l-9-3-9-8-4-8-1-3-1-24v-180l2-11 5-8 8-7zm101 56-65 1-1 136 1 5 226 1 3-1v-141z"/>
<path transform="translate(1413,817)" d="m0 0h299l9 3 9 8 5 11v210l-4 10-7 8-9 4-5 1h-296l-10-4-8-8-4-9-1-9v-198l3-12 6-8 10-6zm36 57-1 13v128h230v-141z"/>
<path transform="translate(1414,1140)" d="m0 0h297l9 3 8 6 6 10 1 3v210l-4 10-8 9-7 3-5 1h-297l-8-3-10-9-4-9-1-9v-197l2-10 6-9 7-6zm35 57-1 9v132h230v-141z"/>
<path transform="translate(335,1140)" d="m0 0h297l10 3 9 8 4 8 1 3v211l-3 8-9 10-11 4h-298l-8-3-9-8-4-8-1-3-1-22v-181l1-9 5-10 9-8zm35 57-1 141h230v-141z"/>
</svg>
