<svg width="182" height="37" viewBox="0 0 182 37" fill="none" xmlns="http://www.w3.org/2000/svg">
<path d="M75.295 1C70.9888 1 67.4852 4.51245 67.4852 8.82955V20.2727H66.8845C66.7251 20.2727 66.5723 20.3362 66.4597 20.4491C66.347 20.5621 66.2837 20.7153 66.2837 20.875V22.9372C65.7488 23.1715 65.2935 23.5569 64.9735 24.0463C64.6534 24.5357 64.4824 25.108 64.4814 25.6932V26.8977C64.4814 27.0575 64.5447 27.2107 64.6574 27.3236C64.7701 27.4365 64.9229 27.5 65.0822 27.5H85.5079C85.6672 27.5 85.82 27.4365 85.9327 27.3236C86.0454 27.2107 86.1086 27.0575 86.1086 26.8977V25.6932C86.1076 25.108 85.9367 24.5357 85.6166 24.0463C85.2966 23.5569 84.8413 23.1715 84.3064 22.9372V20.875C84.3064 20.7153 84.2431 20.5621 84.1304 20.4491C84.0178 20.3362 83.865 20.2727 83.7056 20.2727H83.1049V8.82955C83.1049 4.51245 79.6013 1 75.295 1ZM68.6867 8.82955C69.049 0.0417843 81.5411 0.0417843 81.9034 8.82955V20.2727H68.6867V8.82955ZM67.4852 21.4773H83.1049V22.6818H67.4852V21.4773ZM84.9071 25.6932V26.2955H65.683V25.6932C65.683 24.697 66.4916 23.8864 67.4852 23.8864H83.1049C84.0985 23.8864 84.9071 24.697 84.9071 25.6932Z" fill="#005FB0"/>
<path d="M67.4852 20.7727H67.9852V20.2727V8.82955C67.9852 4.78741 71.2662 1.5 75.295 1.5C79.3239 1.5 82.6049 4.78741 82.6049 8.82955V20.2727V20.7727H83.1049H83.7056C83.7319 20.7727 83.7574 20.7832 83.7764 20.8022C83.7955 20.8213 83.8064 20.8475 83.8064 20.875V22.9372V23.264L84.1058 23.3952C84.5516 23.5904 84.9312 23.9117 85.1982 24.3199C85.4651 24.7282 85.6078 25.2057 85.6086 25.694V26.8977C85.6086 26.9253 85.5977 26.9514 85.5787 26.9705C85.5597 26.9895 85.5342 27 85.5079 27H65.0822C65.0559 27 65.0304 26.9895 65.0114 26.9705C64.9924 26.9514 64.9814 26.9253 64.9814 26.8977V25.6936C64.9824 25.2054 65.125 24.7281 65.3919 24.3199C65.6589 23.9117 66.0385 23.5904 66.4843 23.3952L66.7837 23.264V22.9372V20.875C66.7837 20.8475 66.7946 20.8213 66.8137 20.8022C66.8327 20.7832 66.8582 20.7727 66.8845 20.7727H67.4852ZM68.1872 8.80895L68.1867 8.81924V8.82955V20.2727V20.7727H68.6867H81.9034H82.4034V20.2727V8.82955V8.81924L82.4029 8.80895C82.0143 -0.618018 68.5758 -0.618017 68.1872 8.80895ZM67.4852 20.9773H66.9852V21.4773V22.6818V23.1818H67.4852H83.1049H83.6049V22.6818V21.4773V20.9773H83.1049H67.4852ZM84.9071 26.7955H85.4071V26.2955V25.6932C85.4071 24.4221 84.3758 23.3864 83.1049 23.3864H67.4852C66.2142 23.3864 65.183 24.4221 65.183 25.6932V26.2955V26.7955H65.683H84.9071Z" stroke="#FDFCFF" stroke-opacity="0.49"/>
<path d="M77.6981 7.62503H75.8959V5.81822C75.8959 5.65848 75.8326 5.50529 75.7199 5.39234C75.6072 5.2794 75.4544 5.21594 75.2951 5.21594C75.1358 5.21594 74.983 5.2794 74.8703 5.39234C74.7576 5.50529 74.6943 5.65848 74.6943 5.81822V7.62503H72.8921C72.1075 7.62865 72.1051 8.82597 72.8921 8.82958H74.6943V14.25C74.6967 15.0342 75.8928 15.0402 75.8959 14.25V8.82958H77.6981C78.4821 8.82657 78.4851 7.62804 77.6981 7.62503Z" fill="#005FB0"/>
<path d="M75.3959 7.62503V8.12503H75.8959H77.6969C77.7303 8.12525 77.7464 8.13142 77.7516 8.13373C77.7568 8.13606 77.7599 8.13851 77.7631 8.14223C77.7716 8.15198 77.7873 8.18051 77.7872 8.22668C77.7872 8.27286 77.7714 8.30192 77.7624 8.31221C77.759 8.31618 77.7557 8.3187 77.7505 8.32102C77.7454 8.3233 77.7296 8.32937 77.6969 8.32958H75.8959H75.3959V8.82958V14.2488C75.3956 14.283 75.3893 14.2998 75.3869 14.3053C75.3844 14.3108 75.3819 14.3139 75.3783 14.317C75.3691 14.3251 75.3414 14.3405 75.2961 14.3404C75.2509 14.3403 75.2222 14.3247 75.212 14.3157C75.208 14.3123 75.2054 14.3089 75.203 14.3035C75.2006 14.2982 75.1945 14.2821 75.1943 14.2491V8.82958V8.32958H74.6943H72.8935C72.8602 8.32932 72.844 8.32315 72.8387 8.32078C72.8334 8.31839 72.8302 8.31587 72.8269 8.3121C72.8183 8.30226 72.8027 8.27377 72.8027 8.22781C72.8028 8.18184 72.8185 8.15292 72.8274 8.14266C72.8309 8.13869 72.8342 8.13611 72.8395 8.13372C72.8447 8.13138 72.8607 8.12529 72.8935 8.12503H74.6943H75.1943V7.62503V5.81822C75.1943 5.79068 75.2053 5.76453 75.2243 5.74545C75.2433 5.72641 75.2688 5.71594 75.2951 5.71594C75.3214 5.71594 75.3469 5.72641 75.3659 5.74545C75.3849 5.76453 75.3959 5.79068 75.3959 5.81822V7.62503Z" stroke="#FDFCFF" stroke-opacity="0.49"/>
<path d="M105.332 1C101.026 1 97.5223 4.51245 97.5223 8.82955V20.2727H96.9216C96.7622 20.2727 96.6094 20.3362 96.4968 20.4491C96.3841 20.5621 96.3208 20.7153 96.3208 20.875V22.9372C95.7859 23.1715 95.3306 23.5569 95.0106 24.0463C94.6905 24.5357 94.5196 25.108 94.5186 25.6932V26.8977C94.5186 27.0575 94.5818 27.2107 94.6945 27.3236C94.8072 27.4365 94.96 27.5 95.1193 27.5H115.545C115.704 27.5 115.857 27.4365 115.97 27.3236C116.082 27.2107 116.146 27.0575 116.146 26.8977V25.6932C116.145 25.108 115.974 24.5357 115.654 24.0463C115.334 23.5569 114.878 23.1715 114.343 22.9372V20.875C114.343 20.7153 114.28 20.5621 114.168 20.4491C114.055 20.3362 113.902 20.2727 113.743 20.2727H113.142V8.82955C113.142 4.51245 109.638 1 105.332 1ZM98.7238 8.82955C99.0861 0.0417843 111.578 0.0417843 111.94 8.82955V20.2727H98.7238V8.82955ZM97.5223 21.4773H113.142V22.6818H97.5223V21.4773ZM114.944 25.6932V26.2955H95.7201V25.6932C95.7201 24.697 96.5287 23.8864 97.5223 23.8864H113.142C114.136 23.8864 114.944 24.697 114.944 25.6932Z" fill="#005FB0"/>
<path d="M97.5223 20.7727H98.0223V20.2727V8.82955C98.0223 4.78741 101.303 1.5 105.332 1.5C109.361 1.5 112.642 4.78741 112.642 8.82955V20.2727V20.7727H113.142H113.743C113.769 20.7727 113.795 20.7832 113.814 20.8022C113.833 20.8213 113.843 20.8475 113.843 20.875V22.9372V23.264L114.143 23.3952C114.589 23.5904 114.968 23.9117 115.235 24.3199C115.502 24.7282 115.645 25.2057 115.646 25.694V26.8977C115.646 26.9253 115.635 26.9514 115.616 26.9705C115.597 26.9895 115.571 27 115.545 27H95.1193C95.093 27 95.0675 26.9895 95.0485 26.9705C95.0295 26.9514 95.0186 26.9253 95.0186 26.8977V25.6936C95.0195 25.2054 95.1621 24.7281 95.429 24.3199C95.696 23.9117 96.0756 23.5904 96.5214 23.3952L96.8208 23.264V22.9372V20.875C96.8208 20.8475 96.8317 20.8213 96.8508 20.8022C96.8698 20.7832 96.8953 20.7727 96.9216 20.7727H97.5223ZM98.2243 8.80895L98.2238 8.81924V8.82955V20.2727V20.7727H98.7238H111.94H112.44V20.2727V8.82955V8.81924L112.44 8.80895C112.051 -0.618018 98.6129 -0.618017 98.2243 8.80895ZM97.5223 20.9773H97.0223V21.4773V22.6818V23.1818H97.5223H113.142H113.642V22.6818V21.4773V20.9773H113.142H97.5223ZM114.944 26.7955H115.444V26.2955V25.6932C115.444 24.4221 114.413 23.3864 113.142 23.3864H97.5223C96.2514 23.3864 95.2201 24.4221 95.2201 25.6932V26.2955V26.7955H95.7201H114.944Z" stroke="#FDFCFF" stroke-opacity="0.49"/>
<path d="M107.735 7.62503H105.933V5.81822C105.933 5.65848 105.87 5.50529 105.757 5.39234C105.644 5.2794 105.492 5.21594 105.332 5.21594C105.173 5.21594 105.02 5.2794 104.907 5.39234C104.795 5.50529 104.731 5.65848 104.731 5.81822V7.62503H102.929C102.145 7.62865 102.142 8.82597 102.929 8.82958H104.731V14.25C104.734 15.0342 105.93 15.0402 105.933 14.25V8.82958H107.735C108.519 8.82657 108.522 7.62804 107.735 7.62503Z" fill="#005FB0"/>
<path d="M105.433 7.62503V8.12503H105.933H107.734C107.767 8.12525 107.784 8.13142 107.789 8.13373C107.794 8.13606 107.797 8.13851 107.8 8.14223C107.809 8.15198 107.824 8.18051 107.824 8.22668C107.824 8.27286 107.808 8.30192 107.8 8.31221C107.796 8.31618 107.793 8.3187 107.788 8.32102C107.783 8.3233 107.767 8.32937 107.734 8.32958H105.933H105.433V8.82958V14.2488C105.433 14.283 105.426 14.2998 105.424 14.3053C105.422 14.3108 105.419 14.3139 105.415 14.317C105.406 14.3251 105.378 14.3405 105.333 14.3404C105.288 14.3403 105.259 14.3247 105.249 14.3157C105.245 14.3123 105.243 14.3089 105.24 14.3035C105.238 14.2982 105.232 14.2821 105.231 14.2491V8.82958V8.32958H104.731H102.931C102.897 8.32932 102.881 8.32315 102.876 8.32078C102.87 8.31839 102.867 8.31587 102.864 8.3121C102.855 8.30226 102.84 8.27377 102.84 8.22781C102.84 8.18184 102.856 8.15292 102.865 8.14266C102.868 8.13869 102.871 8.13611 102.877 8.13372C102.882 8.13138 102.898 8.12529 102.931 8.12503H104.731H105.231V7.62503V5.81822C105.231 5.79068 105.242 5.76453 105.261 5.74545C105.28 5.72641 105.306 5.71594 105.332 5.71594C105.359 5.71594 105.384 5.72641 105.403 5.74545C105.422 5.76453 105.433 5.79068 105.433 5.81822V7.62503Z" stroke="#FDFCFF" stroke-opacity="0.49"/>
<path d="M54.1579 0C48.2267 0 43.401 4.83791 43.401 10.7841V26.5455H42.5735C42.354 26.5455 42.1436 26.6329 41.9884 26.7884C41.8332 26.944 41.746 27.155 41.746 27.375V30.2154C41.0093 30.5381 40.3822 31.0689 39.9413 31.743C39.5005 32.4171 39.265 33.2053 39.2637 34.0114V35.6705C39.2637 35.8905 39.3509 36.1015 39.506 36.257C39.6612 36.4126 39.8717 36.5 40.0911 36.5H68.2246C68.4441 36.5 68.6545 36.4126 68.8097 36.257C68.9649 36.1015 69.0521 35.8905 69.0521 35.6705V34.0114C69.0507 33.2053 68.8152 32.4171 68.3744 31.743C67.9336 31.0689 67.3065 30.5381 66.5697 30.2154V27.375C66.5697 27.155 66.4825 26.944 66.3274 26.7884C66.1722 26.6329 65.9617 26.5455 65.7423 26.5455H64.9148V10.7841C64.9148 4.83791 60.0891 0 54.1579 0ZM45.0559 10.7841C45.5548 -1.31981 62.7609 -1.31981 63.2599 10.7841V26.5455H45.0559V10.7841ZM43.401 28.2045H64.9148V29.8636H43.401V28.2045ZM67.3972 34.0114V34.8409H40.9186V34.0114C40.9186 32.6393 42.0323 31.5227 43.401 31.5227H64.9148C66.2834 31.5227 67.3972 32.6393 67.3972 34.0114Z" fill="#FDFCFF"/>
<path d="M57.4675 9.12482H54.9851V6.63619C54.9851 6.41618 54.898 6.20518 54.7428 6.04961C54.5876 5.89404 54.3771 5.80664 54.1577 5.80664C53.9382 5.80664 53.7278 5.89404 53.5726 6.04961C53.4174 6.20518 53.3302 6.41618 53.3302 6.63619V9.12482H50.8479C49.7672 9.1298 49.7639 10.7789 50.8479 10.7839H53.3302V18.2498C53.3335 19.3299 54.981 19.3382 54.9851 18.2498V10.7839H57.4675C58.5473 10.7798 58.5515 9.12897 57.4675 9.12482Z" fill="#FDFCFF"/>
<path d="M33.2413 1C28.9351 1 25.4315 4.51245 25.4315 8.82955V20.2727H24.8308C24.6714 20.2727 24.5186 20.3362 24.406 20.4491C24.2933 20.5621 24.23 20.7153 24.23 20.875V22.9372C23.6951 23.1715 23.2398 23.5569 22.9197 24.0463C22.5997 24.5357 22.4287 25.108 22.4277 25.6932V26.8977C22.4277 27.0575 22.491 27.2107 22.6037 27.3236C22.7164 27.4365 22.8692 27.5 23.0285 27.5H43.4542C43.6135 27.5 43.7663 27.4365 43.879 27.3236C43.9916 27.2107 44.0549 27.0575 44.0549 26.8977V25.6932C44.0539 25.108 43.883 24.5357 43.5629 24.0463C43.2429 23.5569 42.7876 23.1715 42.2527 22.9372V20.875C42.2527 20.7153 42.1894 20.5621 42.0767 20.4491C41.964 20.3362 41.8112 20.2727 41.6519 20.2727H41.0512V8.82955C41.0512 4.51245 37.5476 1 33.2413 1ZM26.633 8.82955C26.9953 0.0417843 39.4874 0.0417843 39.8496 8.82955V20.2727H26.633V8.82955ZM25.4315 21.4773H41.0512V22.6818H25.4315V21.4773ZM42.8534 25.6932V26.2955H23.6292V25.6932C23.6292 24.697 24.4379 23.8864 25.4315 23.8864H41.0512C42.0448 23.8864 42.8534 24.697 42.8534 25.6932Z" fill="#005FB0"/>
<path d="M25.4315 20.7727H25.9315V20.2727V8.82955C25.9315 4.78741 29.2124 1.5 33.2413 1.5C37.2702 1.5 40.5512 4.78741 40.5512 8.82955V20.2727V20.7727H41.0512H41.6519C41.6782 20.7727 41.7037 20.7832 41.7227 20.8022C41.7417 20.8213 41.7527 20.8475 41.7527 20.875V22.9372V23.264L42.0521 23.3952C42.4979 23.5904 42.8775 23.9117 43.1445 24.3199C43.4114 24.7282 43.5541 25.2057 43.5549 25.694V26.8977C43.5549 26.9253 43.544 26.9514 43.525 26.9705C43.506 26.9895 43.4805 27 43.4542 27H23.0285C23.0022 27 22.9767 26.9895 22.9577 26.9705C22.9387 26.9514 22.9277 26.9253 22.9277 26.8977V25.6936C22.9286 25.2054 23.0713 24.7281 23.3382 24.3199C23.6052 23.9117 23.9848 23.5904 24.4306 23.3952L24.73 23.264V22.9372V20.875C24.73 20.8475 24.7409 20.8213 24.76 20.8022C24.7789 20.7832 24.8044 20.7727 24.8308 20.7727H25.4315ZM26.1334 8.80895L26.133 8.81924V8.82955V20.2727V20.7727H26.633H39.8496H40.3496V20.2727V8.82955V8.81924L40.3492 8.80895C39.9606 -0.618018 26.5221 -0.618017 26.1334 8.80895ZM25.4315 20.9773H24.9315V21.4773V22.6818V23.1818H25.4315H41.0512H41.5512V22.6818V21.4773V20.9773H41.0512H25.4315ZM42.8534 26.7955H43.3534V26.2955V25.6932C43.3534 24.4221 42.3221 23.3864 41.0512 23.3864H25.4315C24.1605 23.3864 23.1292 24.4221 23.1292 25.6932V26.2955V26.7955H23.6292H42.8534Z" stroke="#FDFCFF" stroke-opacity="0.49"/>
<path d="M35.6444 7.62503H33.8421V5.81822C33.8421 5.65848 33.7788 5.50529 33.6662 5.39234C33.5535 5.2794 33.4007 5.21594 33.2414 5.21594C33.0821 5.21594 32.9293 5.2794 32.8166 5.39234C32.7039 5.50529 32.6406 5.65848 32.6406 5.81822V7.62503H30.8384C30.0538 7.62865 30.0514 8.82597 30.8384 8.82958H32.6406V14.25C32.643 15.0342 33.8391 15.0402 33.8421 14.25V8.82958H35.6444C36.4284 8.82657 36.4314 7.62804 35.6444 7.62503Z" fill="#005FB0"/>
<path d="M33.3421 7.62503V8.12503H33.8421H35.6432C35.6766 8.12525 35.6927 8.13142 35.6979 8.13373C35.7031 8.13606 35.7062 8.13851 35.7094 8.14223C35.7179 8.15198 35.7336 8.18051 35.7335 8.22668C35.7335 8.27286 35.7177 8.30192 35.7087 8.31221C35.7053 8.31618 35.702 8.3187 35.6968 8.32102C35.6917 8.3233 35.6759 8.32937 35.6432 8.32958H33.8421H33.3421V8.82958V14.2488C33.3419 14.283 33.3356 14.2998 33.3332 14.3053C33.3307 14.3108 33.3282 14.3139 33.3246 14.317C33.3153 14.3251 33.2877 14.3405 33.2424 14.3404C33.1971 14.3403 33.1685 14.3247 33.1583 14.3157C33.1543 14.3123 33.1517 14.3089 33.1493 14.3035C33.1469 14.2982 33.1408 14.2821 33.1406 14.2491V8.82958V8.32958H32.6406H30.8398C30.8065 8.32932 30.7903 8.32315 30.785 8.32078C30.7797 8.31839 30.7765 8.31587 30.7732 8.3121C30.7646 8.30226 30.749 8.27377 30.749 8.22781C30.7491 8.18184 30.7648 8.15292 30.7737 8.14266C30.7772 8.13869 30.7805 8.13611 30.7858 8.13372C30.791 8.13138 30.807 8.12529 30.8398 8.12503H32.6406H33.1406V7.62503V5.81822C33.1406 5.79068 33.1516 5.76453 33.1706 5.74545C33.1896 5.72641 33.2151 5.71594 33.2414 5.71594C33.2677 5.71594 33.2932 5.72641 33.3122 5.74545C33.3312 5.76453 33.3421 5.79068 33.3421 5.81822V7.62503Z" stroke="#FDFCFF" stroke-opacity="0.49"/>
<path d="M126.25 0C120.318 0 115.493 4.83791 115.493 10.7841V26.5455H114.665C114.446 26.5455 114.235 26.6329 114.08 26.7884C113.925 26.944 113.838 27.155 113.838 27.375V30.2154C113.101 30.5381 112.474 31.0689 112.033 31.743C111.592 32.4171 111.357 33.2053 111.355 34.0114V35.6705C111.355 35.8905 111.443 36.1015 111.598 36.257C111.753 36.4126 111.963 36.5 112.183 36.5H140.316C140.536 36.5 140.746 36.4126 140.902 36.257C141.057 36.1015 141.144 35.8905 141.144 35.6705V34.0114C141.143 33.2053 140.907 32.4171 140.466 31.743C140.025 31.0689 139.398 30.5381 138.662 30.2154V27.375C138.662 27.155 138.574 26.944 138.419 26.7884C138.264 26.6329 138.054 26.5455 137.834 26.5455H137.007V10.7841C137.007 4.83791 132.181 0 126.25 0ZM117.148 10.7841C117.647 -1.31981 134.853 -1.31981 135.352 10.7841V26.5455H117.148V10.7841ZM115.493 28.2045H137.007V29.8636H115.493V28.2045ZM139.489 34.0114V34.8409H113.01V34.0114C113.01 32.6393 114.124 31.5227 115.493 31.5227H137.007C138.375 31.5227 139.489 32.6393 139.489 34.0114Z" fill="#FDFCFF"/>
<path d="M129.559 9.12482H127.077V6.63619C127.077 6.41618 126.99 6.20518 126.835 6.04961C126.679 5.89404 126.469 5.80664 126.249 5.80664C126.03 5.80664 125.82 5.89404 125.664 6.04961C125.509 6.20518 125.422 6.41618 125.422 6.63619V9.12482H122.94C121.859 9.1298 121.856 10.7789 122.94 10.7839H125.422V18.2498C125.425 19.3299 127.073 19.3382 127.077 18.2498V10.7839H129.559C130.639 10.7798 130.643 9.12897 129.559 9.12482Z" fill="#FDFCFF"/>
<path d="M146.984 1C142.678 1 139.175 4.51245 139.175 8.82955V20.2727H138.574C138.415 20.2727 138.262 20.3362 138.149 20.4491C138.036 20.5621 137.973 20.7153 137.973 20.875V22.9372C137.438 23.1715 136.983 23.5569 136.663 24.0463C136.343 24.5357 136.172 25.108 136.171 25.6932V26.8977C136.171 27.0575 136.234 27.2107 136.347 27.3236C136.46 27.4365 136.612 27.5 136.772 27.5H157.197C157.357 27.5 157.509 27.4365 157.622 27.3236C157.735 27.2107 157.798 27.0575 157.798 26.8977V25.6932C157.797 25.108 157.626 24.5357 157.306 24.0463C156.986 23.5569 156.531 23.1715 155.996 22.9372V20.875C155.996 20.7153 155.933 20.5621 155.82 20.4491C155.707 20.3362 155.554 20.2727 155.395 20.2727H154.794V8.82955C154.794 4.51245 151.291 1 146.984 1ZM140.376 8.82955C140.738 0.0417843 153.231 0.0417843 153.593 8.82955V20.2727H140.376V8.82955ZM139.175 21.4773H154.794V22.6818H139.175V21.4773ZM156.597 25.6932V26.2955H137.372V25.6932C137.372 24.697 138.181 23.8864 139.175 23.8864H154.794C155.788 23.8864 156.597 24.697 156.597 25.6932Z" fill="#005FB0"/>
<path d="M139.175 20.7727H139.675V20.2727V8.82955C139.675 4.78741 142.956 1.5 146.984 1.5C151.013 1.5 154.294 4.78741 154.294 8.82955V20.2727V20.7727H154.794H155.395C155.421 20.7727 155.447 20.7832 155.466 20.8022C155.485 20.8213 155.496 20.8475 155.496 20.875V22.9372V23.264L155.795 23.3952C156.241 23.5904 156.621 23.9117 156.888 24.3199C157.155 24.7282 157.297 25.2057 157.298 25.694V26.8977C157.298 26.9253 157.287 26.9514 157.268 26.9705C157.249 26.9895 157.224 27 157.197 27H136.772C136.745 27 136.72 26.9895 136.701 26.9705C136.682 26.9514 136.671 26.9253 136.671 26.8977V25.6936C136.672 25.2054 136.814 24.7281 137.081 24.3199C137.348 23.9117 137.728 23.5904 138.174 23.3952L138.473 23.264V22.9372V20.875C138.473 20.8475 138.484 20.8213 138.503 20.8022C138.522 20.7832 138.548 20.7727 138.574 20.7727H139.175ZM139.877 8.80895L139.876 8.81924V8.82955V20.2727V20.7727H140.376H153.593H154.093V20.2727V8.82955V8.81924L154.092 8.80895C153.704 -0.618018 140.265 -0.618017 139.877 8.80895ZM139.175 20.9773H138.675V21.4773V22.6818V23.1818H139.175H154.794H155.294V22.6818V21.4773V20.9773H154.794H139.175ZM156.597 26.7955H157.097V26.2955V25.6932C157.097 24.4221 156.065 23.3864 154.794 23.3864H139.175C137.904 23.3864 136.872 24.4221 136.872 25.6932V26.2955V26.7955H137.372H156.597Z" stroke="#FDFCFF" stroke-opacity="0.49"/>
<path d="M149.388 7.62503H147.585V5.81822C147.585 5.65848 147.522 5.50529 147.409 5.39234C147.297 5.2794 147.144 5.21594 146.985 5.21594C146.825 5.21594 146.672 5.2794 146.56 5.39234C146.447 5.50529 146.384 5.65848 146.384 5.81822V7.62503H144.582C143.797 7.62865 143.795 8.82597 144.582 8.82958H146.384V14.25C146.386 15.0342 147.582 15.0402 147.585 14.25V8.82958H149.388C150.172 8.82657 150.175 7.62804 149.388 7.62503Z" fill="#005FB0"/>
<path d="M147.085 7.62503V8.12503H147.585H149.386C149.42 8.12525 149.436 8.13142 149.441 8.13373C149.446 8.13606 149.449 8.13851 149.453 8.14223C149.461 8.15198 149.477 8.18051 149.477 8.22668C149.477 8.27286 149.461 8.30192 149.452 8.31221C149.448 8.31618 149.445 8.3187 149.44 8.32102C149.435 8.3233 149.419 8.32937 149.386 8.32958H147.585H147.085V8.82958V14.2488C147.085 14.283 147.079 14.2998 147.076 14.3053C147.074 14.3108 147.071 14.3139 147.068 14.317C147.059 14.3251 147.031 14.3405 146.986 14.3404C146.94 14.3403 146.912 14.3247 146.901 14.3157C146.897 14.3123 146.895 14.3089 146.892 14.3035C146.89 14.2982 146.884 14.2821 146.884 14.2491V8.82958V8.32958H146.384H144.583C144.55 8.32932 144.533 8.32315 144.528 8.32078C144.523 8.31839 144.52 8.31587 144.516 8.3121C144.508 8.30226 144.492 8.27377 144.492 8.22781C144.492 8.18184 144.508 8.15292 144.517 8.14266C144.52 8.13869 144.524 8.13611 144.529 8.13372C144.534 8.13138 144.55 8.12529 144.583 8.12503H146.384H146.884V7.62503V5.81822C146.884 5.79068 146.895 5.76453 146.914 5.74545C146.933 5.72641 146.958 5.71594 146.985 5.71594C147.011 5.71594 147.036 5.72641 147.055 5.74545C147.074 5.76453 147.085 5.79068 147.085 5.81822V7.62503Z" stroke="#FDFCFF" stroke-opacity="0.49"/>
<g clip-path="url(#clip0_390_1743)">
<path d="M16.8271 10.4486L15.5444 4.99946C15.524 4.91467 15.4709 4.84143 15.3968 4.79576C15.3226 4.75009 15.2335 4.7357 15.1488 4.75574C15.0641 4.77577 14.9908 4.8286 14.9449 4.90268C14.8989 4.97675 14.8841 5.06605 14.9036 5.15105L16.1864 10.6001C16.2065 10.6853 16.2594 10.759 16.3337 10.805C16.4079 10.851 16.4973 10.8656 16.5823 10.8456C16.6244 10.8356 16.6641 10.8174 16.6992 10.7921C16.7342 10.7668 16.764 10.7348 16.7867 10.6979C16.8095 10.661 16.8247 10.62 16.8317 10.5772C16.8386 10.5345 16.837 10.4907 16.8271 10.4486ZM20.6199 26.5604L17.0771 11.5103C17.057 11.4251 17.004 11.3514 16.9298 11.3054C16.8555 11.2594 16.7661 11.2448 16.6811 11.2649C16.5961 11.285 16.5226 11.3381 16.4767 11.4125C16.4308 11.487 16.4163 11.5767 16.4363 11.6619L19.9791 26.7119C19.9992 26.7971 20.0522 26.8708 20.1264 26.9168C20.2007 26.9628 20.2901 26.9774 20.3751 26.9573C20.552 26.9155 20.6616 26.7377 20.6199 26.5604ZM2.71012 24.1658C2.53345 24.1241 2.35587 24.2338 2.31412 24.4112L1.80822 26.5604C1.78938 26.6451 1.80461 26.7339 1.8506 26.8074C1.89659 26.881 1.96964 26.9334 2.05392 26.9533C2.1382 26.9733 2.22692 26.9591 2.30086 26.9139C2.3748 26.8688 2.42801 26.7962 2.44895 26.712L2.95486 24.5628C2.96479 24.5206 2.96634 24.4769 2.95942 24.4341C2.9525 24.3914 2.93724 24.3504 2.91451 24.3135C2.89178 24.2766 2.86204 24.2446 2.82697 24.2193C2.7919 24.1939 2.75219 24.1758 2.71012 24.1658ZM7.27964 4.75406C7.10302 4.7122 6.92543 4.82204 6.88364 4.99946L2.64143 23.0207C2.62189 23.1057 2.63671 23.195 2.68266 23.2691C2.7286 23.3432 2.80193 23.396 2.88661 23.416C2.97129 23.4361 3.06044 23.4217 3.13457 23.376C3.2087 23.3303 3.26178 23.2571 3.28221 23.1723L7.52442 5.15105C7.54447 5.06587 7.52995 4.97618 7.48404 4.90173C7.43814 4.82728 7.36461 4.77416 7.27964 4.75406ZM22.4156 26.5464L16.335 4.98545C16.3236 4.94329 16.304 4.90381 16.2773 4.8693C16.2507 4.83478 16.2174 4.80592 16.1795 4.78439C16.1416 4.76285 16.0998 4.74906 16.0566 4.74383C16.0134 4.7386 15.9695 4.74202 15.9276 4.7539C15.8857 4.76579 15.8465 4.78589 15.8124 4.81305C15.7783 4.8402 15.7499 4.87388 15.7289 4.91212C15.7079 4.95036 15.6946 4.9924 15.6899 5.03581C15.6852 5.07922 15.6891 5.12314 15.7015 5.16502L21.7821 26.7259C21.8016 26.7951 21.8431 26.8559 21.9002 26.8993C21.9574 26.9427 22.027 26.9662 22.0987 26.9662C22.1284 26.9662 22.1585 26.9622 22.1885 26.9537C22.2301 26.9419 22.2689 26.922 22.3029 26.8952C22.3368 26.8683 22.3651 26.835 22.3862 26.7972C22.4073 26.7594 22.4208 26.7177 22.4258 26.6747C22.4309 26.6317 22.4274 26.5881 22.4156 26.5464ZM6.49943 4.7577C6.41542 4.7339 6.32542 4.74453 6.24923 4.78725C6.17304 4.82997 6.11689 4.90128 6.09314 4.98549L0.0124299 26.5464C0.000662269 26.5881 -0.00279617 26.6317 0.00225208 26.6748C0.00730033 26.7178 0.0207564 26.7594 0.0418518 26.7973C0.0629473 26.8351 0.0912688 26.8684 0.125199 26.8952C0.15913 26.9221 0.198004 26.942 0.239603 26.9538C0.268803 26.9621 0.299007 26.9663 0.329359 26.9663C0.40102 26.9662 0.470701 26.9427 0.527832 26.8994C0.584964 26.856 0.626429 26.7951 0.645938 26.726L6.72664 5.16511C6.75038 5.08087 6.73979 4.99064 6.69718 4.91424C6.65457 4.83784 6.58344 4.78153 6.49943 4.7577ZM12.0663 5.06507C12.0651 5.02171 12.0553 4.97901 12.0376 4.93943C12.0199 4.89986 11.9946 4.86419 11.963 4.83447C11.9315 4.80476 11.8944 4.78159 11.854 4.76629C11.8135 4.751 11.7704 4.74389 11.7271 4.74536C11.6839 4.74668 11.6414 4.75653 11.602 4.77433C11.5626 4.79214 11.527 4.81755 11.4974 4.84913C11.4678 4.8807 11.4447 4.91781 11.4294 4.95835C11.4141 4.99888 11.4069 5.04204 11.4082 5.08536L11.4469 6.34815H10.9812L11.0199 5.08536C11.0213 5.04204 11.0141 4.99888 10.9988 4.95835C10.9835 4.91782 10.9603 4.88071 10.9307 4.84914C10.9011 4.81757 10.8656 4.79215 10.8262 4.77435C10.7868 4.75654 10.7442 4.74669 10.701 4.74536C10.5215 4.73978 10.3675 4.8829 10.3619 5.06507L10.3127 6.66808C10.3114 6.71225 10.3189 6.75626 10.3348 6.79748C10.3507 6.8387 10.3747 6.87629 10.4054 6.90802C10.4361 6.93975 10.4729 6.96497 10.5135 6.98219C10.5541 6.99941 10.5977 7.00827 10.6418 7.00825H11.7865C11.8306 7.00823 11.8742 6.99934 11.9148 6.98211C11.9554 6.96488 11.9921 6.93966 12.0228 6.90794C12.0534 6.87621 12.0775 6.83864 12.0934 6.79743C12.1093 6.75623 12.1168 6.71224 12.1155 6.66808L12.0663 5.06507ZM12.1409 7.49703C12.1382 7.4113 12.1024 7.32996 12.041 7.27026C11.9796 7.21055 11.8974 7.17717 11.8118 7.17719H10.6163C10.5307 7.17718 10.4485 7.21057 10.3871 7.27027C10.3257 7.32997 10.2899 7.4113 10.2872 7.49703L10.2008 10.3114C10.1994 10.3556 10.2069 10.3996 10.2228 10.4408C10.2388 10.482 10.2628 10.5196 10.2935 10.5513C10.3242 10.5831 10.3609 10.6083 10.4015 10.6255C10.4421 10.6427 10.4857 10.6516 10.5298 10.6516H11.8983C11.9424 10.6516 11.986 10.6427 12.0266 10.6255C12.0672 10.6082 12.1039 10.583 12.1346 10.5513C12.1653 10.5196 12.1893 10.482 12.2052 10.4408C12.2212 10.3996 12.2287 10.3556 12.2273 10.3114L12.1409 7.49703ZM10.8692 9.99157L10.9354 7.83724H11.4926L11.5588 9.99157H10.8692ZM12.2598 11.3692C12.2572 11.2835 12.2213 11.2021 12.1599 11.1424C12.0985 11.0827 12.0163 11.0494 11.9308 11.0494H10.4973C10.4117 11.0494 10.3296 11.0828 10.2681 11.1425C10.2067 11.2022 10.1709 11.2835 10.1683 11.3692L10.0695 14.5813C10.0682 14.6255 10.0757 14.6695 10.0916 14.7107C10.1075 14.7519 10.1315 14.7895 10.1622 14.8212C10.1929 14.853 10.2296 14.8782 10.2702 14.8954C10.3108 14.9127 10.3545 14.9215 10.3986 14.9215H12.0295C12.0736 14.9215 12.1173 14.9126 12.1578 14.8954C12.1984 14.8782 12.2352 14.8529 12.2658 14.8212C12.2965 14.7895 12.3205 14.7519 12.3365 14.7107C12.3524 14.6695 12.3599 14.6255 12.3586 14.5813L12.2598 11.3692ZM10.738 14.2615L10.8165 11.7094H11.6116L11.6901 14.2615H10.738ZM12.4042 16.0743C12.4016 15.9886 12.3658 15.9072 12.3044 15.8475C12.243 15.7878 12.1608 15.7544 12.0752 15.7544H10.3529C10.2674 15.7544 10.1852 15.7878 10.1238 15.8475C10.0623 15.9072 10.0265 15.9886 10.0239 16.0743L9.90365 19.9935C9.90227 20.0377 9.90976 20.0817 9.92567 20.1229C9.94158 20.1641 9.96559 20.2017 9.99628 20.2335C10.027 20.2652 10.0637 20.2904 10.1043 20.3077C10.1449 20.3249 10.1885 20.3338 10.2326 20.3337H12.1954C12.2395 20.3337 12.2831 20.3248 12.3237 20.3076C12.3643 20.2904 12.401 20.2652 12.4317 20.2334C12.4624 20.2017 12.4864 20.1641 12.5024 20.1229C12.5183 20.0817 12.5258 20.0377 12.5245 19.9936L12.4042 16.0743ZM10.5721 19.6737L10.6721 16.4145H11.756L11.8559 19.6737H10.5721ZM12.5825 21.8821C12.5798 21.7964 12.544 21.7151 12.4825 21.6554C12.4211 21.5957 12.3389 21.5623 12.2533 21.5623H10.1747C10.0892 21.5623 10.007 21.5957 9.94556 21.6554C9.88414 21.7151 9.84832 21.7964 9.84569 21.8821L9.69995 26.626C9.69862 26.6693 9.70581 26.7124 9.72112 26.753C9.73643 26.7935 9.75955 26.8306 9.78916 26.8622C9.81877 26.8938 9.8543 26.9192 9.89371 26.937C9.93312 26.9548 9.97565 26.9646 10.0189 26.966C10.1991 26.9715 10.3524 26.8285 10.358 26.6463L10.4939 22.2223H11.9341L12.0701 26.6463C12.0714 26.6896 12.0812 26.7322 12.099 26.7717C12.1167 26.8113 12.1421 26.8469 12.1736 26.8766C12.2051 26.9062 12.2421 26.9294 12.2825 26.9448C12.3229 26.9601 12.366 26.9673 12.4092 26.966C12.4524 26.9646 12.4949 26.9548 12.5343 26.937C12.5737 26.9192 12.6093 26.8938 12.6389 26.8622C12.6685 26.8306 12.6916 26.7935 12.7069 26.753C12.7222 26.7125 12.7294 26.6693 12.7281 26.626L12.5825 21.8821Z" fill="#FDFCFF" fill-opacity="0.59"/>
</g>
<g clip-path="url(#clip1_390_1743)">
<mask id="path-22-inside-1_390_1743" fill="white">
<path d="M175.427 10.4486L174.144 4.99946C174.124 4.91467 174.071 4.84143 173.996 4.79576C173.922 4.75009 173.833 4.7357 173.748 4.75574C173.664 4.77577 173.59 4.8286 173.544 4.90268C173.499 4.97675 173.484 5.06605 173.503 5.15105L174.786 10.6001C174.806 10.6853 174.859 10.759 174.933 10.805C175.008 10.851 175.097 10.8656 175.182 10.8456C175.224 10.8356 175.264 10.8174 175.299 10.7921C175.334 10.7668 175.364 10.7348 175.386 10.6979C175.409 10.661 175.424 10.62 175.431 10.5772C175.438 10.5345 175.437 10.4907 175.427 10.4486ZM179.219 26.5604L175.677 11.5103C175.657 11.4251 175.604 11.3514 175.529 11.3054C175.455 11.2594 175.366 11.2448 175.281 11.2649C175.196 11.285 175.122 11.3381 175.076 11.4125C175.03 11.487 175.016 11.5767 175.036 11.6619L178.579 26.7119C178.599 26.7971 178.652 26.8708 178.726 26.9168C178.8 26.9628 178.89 26.9774 178.975 26.9573C179.152 26.9155 179.261 26.7377 179.219 26.5604ZM161.31 24.1658C161.133 24.1241 160.955 24.2338 160.914 24.4112L160.408 26.5604C160.389 26.6451 160.404 26.7339 160.45 26.8074C160.496 26.881 160.569 26.9334 160.654 26.9533C160.738 26.9733 160.827 26.9591 160.9 26.9139C160.974 26.8688 161.028 26.7962 161.049 26.712L161.554 24.5628C161.564 24.5206 161.566 24.4769 161.559 24.4341C161.552 24.3914 161.537 24.3504 161.514 24.3135C161.491 24.2766 161.462 24.2446 161.427 24.2193C161.392 24.1939 161.352 24.1758 161.31 24.1658ZM165.879 4.75406C165.703 4.7122 165.525 4.82204 165.483 4.99946L161.241 23.0207C161.222 23.1057 161.236 23.195 161.282 23.2691C161.328 23.3432 161.402 23.396 161.486 23.416C161.571 23.4361 161.66 23.4217 161.734 23.376C161.808 23.3303 161.861 23.2571 161.882 23.1723L166.124 5.15105C166.144 5.06587 166.13 4.97618 166.084 4.90173C166.038 4.82728 165.964 4.77416 165.879 4.75406ZM181.015 26.5464L174.935 4.98545C174.923 4.94329 174.904 4.90381 174.877 4.8693C174.85 4.83478 174.817 4.80592 174.779 4.78439C174.741 4.76285 174.699 4.74906 174.656 4.74383C174.613 4.7386 174.569 4.74202 174.527 4.7539C174.485 4.76579 174.446 4.78589 174.412 4.81305C174.378 4.8402 174.35 4.87388 174.328 4.91212C174.307 4.95036 174.294 4.9924 174.289 5.03581C174.285 5.07922 174.289 5.12314 174.301 5.16502L180.382 26.7259C180.401 26.7951 180.443 26.8559 180.5 26.8993C180.557 26.9427 180.627 26.9662 180.698 26.9662C180.728 26.9662 180.758 26.9622 180.788 26.9537C180.83 26.9419 180.869 26.922 180.902 26.8952C180.936 26.8683 180.965 26.835 180.986 26.7972C181.007 26.7594 181.02 26.7177 181.025 26.6747C181.03 26.6317 181.027 26.5881 181.015 26.5464ZM165.099 4.7577C165.015 4.7339 164.925 4.74453 164.849 4.78725C164.773 4.82997 164.716 4.90128 164.693 4.98549L158.612 26.5464C158.6 26.5881 158.597 26.6317 158.602 26.6748C158.607 26.7178 158.62 26.7594 158.641 26.7973C158.663 26.8351 158.691 26.8684 158.725 26.8952C158.759 26.9221 158.798 26.942 158.839 26.9538C158.868 26.9621 158.899 26.9663 158.929 26.9663C159.001 26.9662 159.07 26.9427 159.127 26.8994C159.185 26.856 159.226 26.7951 159.246 26.726L165.326 5.16511C165.35 5.08087 165.339 4.99064 165.297 4.91424C165.254 4.83784 165.183 4.78153 165.099 4.7577ZM170.666 5.06507C170.665 5.02171 170.655 4.97901 170.637 4.93943C170.62 4.89986 170.594 4.86419 170.563 4.83447C170.531 4.80476 170.494 4.78159 170.454 4.76629C170.413 4.751 170.37 4.74389 170.327 4.74536C170.284 4.74668 170.241 4.75653 170.202 4.77433C170.162 4.79214 170.127 4.81755 170.097 4.84913C170.067 4.8807 170.044 4.91781 170.029 4.95835C170.014 4.99888 170.006 5.04204 170.008 5.08536L170.047 6.34815H169.581L169.62 5.08536C169.621 5.04204 169.614 4.99888 169.598 4.95835C169.583 4.91782 169.56 4.88071 169.53 4.84914C169.501 4.81757 169.465 4.79215 169.426 4.77435C169.386 4.75654 169.344 4.74669 169.301 4.74536C169.121 4.73978 168.967 4.8829 168.961 5.06507L168.912 6.66808C168.911 6.71225 168.918 6.75626 168.934 6.79748C168.95 6.8387 168.974 6.87629 169.005 6.90802C169.036 6.93975 169.072 6.96497 169.113 6.98219C169.154 6.99941 169.197 7.00827 169.241 7.00825H170.386C170.43 7.00823 170.474 6.99934 170.514 6.98211C170.555 6.96488 170.592 6.93966 170.622 6.90794C170.653 6.87621 170.677 6.83864 170.693 6.79743C170.709 6.75623 170.716 6.71224 170.715 6.66808L170.666 5.06507ZM170.74 7.49703C170.738 7.4113 170.702 7.32996 170.641 7.27026C170.579 7.21055 170.497 7.17717 170.411 7.17719H169.216C169.13 7.17718 169.048 7.21057 168.987 7.27027C168.925 7.32997 168.889 7.4113 168.887 7.49703L168.8 10.3114C168.799 10.3556 168.807 10.3996 168.822 10.4408C168.838 10.482 168.862 10.5196 168.893 10.5513C168.924 10.5831 168.96 10.6083 169.001 10.6255C169.042 10.6427 169.085 10.6516 169.129 10.6516H170.498C170.542 10.6516 170.586 10.6427 170.626 10.6255C170.667 10.6082 170.704 10.583 170.734 10.5513C170.765 10.5196 170.789 10.482 170.805 10.4408C170.821 10.3996 170.828 10.3556 170.827 10.3114L170.74 7.49703ZM169.469 9.99157L169.535 7.83724H170.092L170.158 9.99157H169.469ZM170.859 11.3692C170.857 11.2835 170.821 11.2021 170.76 11.1424C170.698 11.0827 170.616 11.0494 170.53 11.0494H169.097C169.011 11.0494 168.929 11.0828 168.868 11.1425C168.806 11.2022 168.771 11.2835 168.768 11.3692L168.669 14.5813C168.668 14.6255 168.675 14.6695 168.691 14.7107C168.707 14.7519 168.731 14.7895 168.762 14.8212C168.793 14.853 168.829 14.8782 168.87 14.8954C168.91 14.9127 168.954 14.9215 168.998 14.9215H170.629C170.673 14.9215 170.717 14.9126 170.757 14.8954C170.798 14.8782 170.835 14.8529 170.865 14.8212C170.896 14.7895 170.92 14.7519 170.936 14.7107C170.952 14.6695 170.96 14.6255 170.958 14.5813L170.859 11.3692ZM169.338 14.2615L169.416 11.7094H170.211L170.29 14.2615H169.338ZM171.004 16.0743C171.001 15.9886 170.965 15.9072 170.904 15.8475C170.843 15.7878 170.76 15.7544 170.675 15.7544H168.953C168.867 15.7544 168.785 15.7878 168.723 15.8475C168.662 15.9072 168.626 15.9886 168.623 16.0743L168.503 19.9935C168.502 20.0377 168.509 20.0817 168.525 20.1229C168.541 20.1641 168.565 20.2017 168.596 20.2335C168.627 20.2652 168.663 20.2904 168.704 20.3077C168.745 20.3249 168.788 20.3338 168.832 20.3337H170.795C170.839 20.3337 170.883 20.3248 170.923 20.3076C170.964 20.2904 171.001 20.2652 171.031 20.2334C171.062 20.2017 171.086 20.1641 171.102 20.1229C171.118 20.0817 171.125 20.0377 171.124 19.9936L171.004 16.0743ZM169.172 19.6737L169.272 16.4145H170.356L170.456 19.6737H169.172ZM171.182 21.8821C171.179 21.7964 171.144 21.7151 171.082 21.6554C171.021 21.5957 170.939 21.5623 170.853 21.5623H168.774C168.689 21.5623 168.607 21.5957 168.545 21.6554C168.484 21.7151 168.448 21.7964 168.445 21.8821L168.3 26.626C168.298 26.6693 168.305 26.7124 168.321 26.753C168.336 26.7935 168.359 26.8306 168.389 26.8622C168.418 26.8938 168.454 26.9192 168.493 26.937C168.533 26.9548 168.575 26.9646 168.618 26.966C168.799 26.9715 168.952 26.8285 168.958 26.6463L169.094 22.2223H170.534L170.67 26.6463C170.671 26.6896 170.681 26.7322 170.699 26.7717C170.716 26.8113 170.742 26.8469 170.773 26.8766C170.805 26.9062 170.842 26.9294 170.882 26.9448C170.923 26.9601 170.966 26.9673 171.009 26.966C171.052 26.9646 171.095 26.9548 171.134 26.937C171.173 26.9192 171.209 26.8938 171.238 26.8622C171.268 26.8306 171.291 26.7935 171.307 26.753C171.322 26.7125 171.329 26.6693 171.328 26.626L171.182 21.8821Z"/>
</mask>
<path d="M175.427 10.4486L174.144 4.99946C174.124 4.91467 174.071 4.84143 173.996 4.79576C173.922 4.75009 173.833 4.7357 173.748 4.75574C173.664 4.77577 173.59 4.8286 173.544 4.90268C173.499 4.97675 173.484 5.06605 173.503 5.15105L174.786 10.6001C174.806 10.6853 174.859 10.759 174.933 10.805C175.008 10.851 175.097 10.8656 175.182 10.8456C175.224 10.8356 175.264 10.8174 175.299 10.7921C175.334 10.7668 175.364 10.7348 175.386 10.6979C175.409 10.661 175.424 10.62 175.431 10.5772C175.438 10.5345 175.437 10.4907 175.427 10.4486ZM179.219 26.5604L175.677 11.5103C175.657 11.4251 175.604 11.3514 175.529 11.3054C175.455 11.2594 175.366 11.2448 175.281 11.2649C175.196 11.285 175.122 11.3381 175.076 11.4125C175.03 11.487 175.016 11.5767 175.036 11.6619L178.579 26.7119C178.599 26.7971 178.652 26.8708 178.726 26.9168C178.8 26.9628 178.89 26.9774 178.975 26.9573C179.152 26.9155 179.261 26.7377 179.219 26.5604ZM161.31 24.1658C161.133 24.1241 160.955 24.2338 160.914 24.4112L160.408 26.5604C160.389 26.6451 160.404 26.7339 160.45 26.8074C160.496 26.881 160.569 26.9334 160.654 26.9533C160.738 26.9733 160.827 26.9591 160.9 26.9139C160.974 26.8688 161.028 26.7962 161.049 26.712L161.554 24.5628C161.564 24.5206 161.566 24.4769 161.559 24.4341C161.552 24.3914 161.537 24.3504 161.514 24.3135C161.491 24.2766 161.462 24.2446 161.427 24.2193C161.392 24.1939 161.352 24.1758 161.31 24.1658ZM165.879 4.75406C165.703 4.7122 165.525 4.82204 165.483 4.99946L161.241 23.0207C161.222 23.1057 161.236 23.195 161.282 23.2691C161.328 23.3432 161.402 23.396 161.486 23.416C161.571 23.4361 161.66 23.4217 161.734 23.376C161.808 23.3303 161.861 23.2571 161.882 23.1723L166.124 5.15105C166.144 5.06587 166.13 4.97618 166.084 4.90173C166.038 4.82728 165.964 4.77416 165.879 4.75406ZM181.015 26.5464L174.935 4.98545C174.923 4.94329 174.904 4.90381 174.877 4.8693C174.85 4.83478 174.817 4.80592 174.779 4.78439C174.741 4.76285 174.699 4.74906 174.656 4.74383C174.613 4.7386 174.569 4.74202 174.527 4.7539C174.485 4.76579 174.446 4.78589 174.412 4.81305C174.378 4.8402 174.35 4.87388 174.328 4.91212C174.307 4.95036 174.294 4.9924 174.289 5.03581C174.285 5.07922 174.289 5.12314 174.301 5.16502L180.382 26.7259C180.401 26.7951 180.443 26.8559 180.5 26.8993C180.557 26.9427 180.627 26.9662 180.698 26.9662C180.728 26.9662 180.758 26.9622 180.788 26.9537C180.83 26.9419 180.869 26.922 180.902 26.8952C180.936 26.8683 180.965 26.835 180.986 26.7972C181.007 26.7594 181.02 26.7177 181.025 26.6747C181.03 26.6317 181.027 26.5881 181.015 26.5464ZM165.099 4.7577C165.015 4.7339 164.925 4.74453 164.849 4.78725C164.773 4.82997 164.716 4.90128 164.693 4.98549L158.612 26.5464C158.6 26.5881 158.597 26.6317 158.602 26.6748C158.607 26.7178 158.62 26.7594 158.641 26.7973C158.663 26.8351 158.691 26.8684 158.725 26.8952C158.759 26.9221 158.798 26.942 158.839 26.9538C158.868 26.9621 158.899 26.9663 158.929 26.9663C159.001 26.9662 159.07 26.9427 159.127 26.8994C159.185 26.856 159.226 26.7951 159.246 26.726L165.326 5.16511C165.35 5.08087 165.339 4.99064 165.297 4.91424C165.254 4.83784 165.183 4.78153 165.099 4.7577ZM170.666 5.06507C170.665 5.02171 170.655 4.97901 170.637 4.93943C170.62 4.89986 170.594 4.86419 170.563 4.83447C170.531 4.80476 170.494 4.78159 170.454 4.76629C170.413 4.751 170.37 4.74389 170.327 4.74536C170.284 4.74668 170.241 4.75653 170.202 4.77433C170.162 4.79214 170.127 4.81755 170.097 4.84913C170.067 4.8807 170.044 4.91781 170.029 4.95835C170.014 4.99888 170.006 5.04204 170.008 5.08536L170.047 6.34815H169.581L169.62 5.08536C169.621 5.04204 169.614 4.99888 169.598 4.95835C169.583 4.91782 169.56 4.88071 169.53 4.84914C169.501 4.81757 169.465 4.79215 169.426 4.77435C169.386 4.75654 169.344 4.74669 169.301 4.74536C169.121 4.73978 168.967 4.8829 168.961 5.06507L168.912 6.66808C168.911 6.71225 168.918 6.75626 168.934 6.79748C168.95 6.8387 168.974 6.87629 169.005 6.90802C169.036 6.93975 169.072 6.96497 169.113 6.98219C169.154 6.99941 169.197 7.00827 169.241 7.00825H170.386C170.43 7.00823 170.474 6.99934 170.514 6.98211C170.555 6.96488 170.592 6.93966 170.622 6.90794C170.653 6.87621 170.677 6.83864 170.693 6.79743C170.709 6.75623 170.716 6.71224 170.715 6.66808L170.666 5.06507ZM170.74 7.49703C170.738 7.4113 170.702 7.32996 170.641 7.27026C170.579 7.21055 170.497 7.17717 170.411 7.17719H169.216C169.13 7.17718 169.048 7.21057 168.987 7.27027C168.925 7.32997 168.889 7.4113 168.887 7.49703L168.8 10.3114C168.799 10.3556 168.807 10.3996 168.822 10.4408C168.838 10.482 168.862 10.5196 168.893 10.5513C168.924 10.5831 168.96 10.6083 169.001 10.6255C169.042 10.6427 169.085 10.6516 169.129 10.6516H170.498C170.542 10.6516 170.586 10.6427 170.626 10.6255C170.667 10.6082 170.704 10.583 170.734 10.5513C170.765 10.5196 170.789 10.482 170.805 10.4408C170.821 10.3996 170.828 10.3556 170.827 10.3114L170.74 7.49703ZM169.469 9.99157L169.535 7.83724H170.092L170.158 9.99157H169.469ZM170.859 11.3692C170.857 11.2835 170.821 11.2021 170.76 11.1424C170.698 11.0827 170.616 11.0494 170.53 11.0494H169.097C169.011 11.0494 168.929 11.0828 168.868 11.1425C168.806 11.2022 168.771 11.2835 168.768 11.3692L168.669 14.5813C168.668 14.6255 168.675 14.6695 168.691 14.7107C168.707 14.7519 168.731 14.7895 168.762 14.8212C168.793 14.853 168.829 14.8782 168.87 14.8954C168.91 14.9127 168.954 14.9215 168.998 14.9215H170.629C170.673 14.9215 170.717 14.9126 170.757 14.8954C170.798 14.8782 170.835 14.8529 170.865 14.8212C170.896 14.7895 170.92 14.7519 170.936 14.7107C170.952 14.6695 170.96 14.6255 170.958 14.5813L170.859 11.3692ZM169.338 14.2615L169.416 11.7094H170.211L170.29 14.2615H169.338ZM171.004 16.0743C171.001 15.9886 170.965 15.9072 170.904 15.8475C170.843 15.7878 170.76 15.7544 170.675 15.7544H168.953C168.867 15.7544 168.785 15.7878 168.723 15.8475C168.662 15.9072 168.626 15.9886 168.623 16.0743L168.503 19.9935C168.502 20.0377 168.509 20.0817 168.525 20.1229C168.541 20.1641 168.565 20.2017 168.596 20.2335C168.627 20.2652 168.663 20.2904 168.704 20.3077C168.745 20.3249 168.788 20.3338 168.832 20.3337H170.795C170.839 20.3337 170.883 20.3248 170.923 20.3076C170.964 20.2904 171.001 20.2652 171.031 20.2334C171.062 20.2017 171.086 20.1641 171.102 20.1229C171.118 20.0817 171.125 20.0377 171.124 19.9936L171.004 16.0743ZM169.172 19.6737L169.272 16.4145H170.356L170.456 19.6737H169.172ZM171.182 21.8821C171.179 21.7964 171.144 21.7151 171.082 21.6554C171.021 21.5957 170.939 21.5623 170.853 21.5623H168.774C168.689 21.5623 168.607 21.5957 168.545 21.6554C168.484 21.7151 168.448 21.7964 168.445 21.8821L168.3 26.626C168.298 26.6693 168.305 26.7124 168.321 26.753C168.336 26.7935 168.359 26.8306 168.389 26.8622C168.418 26.8938 168.454 26.9192 168.493 26.937C168.533 26.9548 168.575 26.9646 168.618 26.966C168.799 26.9715 168.952 26.8285 168.958 26.6463L169.094 22.2223H170.534L170.67 26.6463C170.671 26.6896 170.681 26.7322 170.699 26.7717C170.716 26.8113 170.742 26.8469 170.773 26.8766C170.805 26.9062 170.842 26.9294 170.882 26.9448C170.923 26.9601 170.966 26.9673 171.009 26.966C171.052 26.9646 171.095 26.9548 171.134 26.937C171.173 26.9192 171.209 26.8938 171.238 26.8622C171.268 26.8306 171.291 26.7935 171.307 26.753C171.322 26.7125 171.329 26.6693 171.328 26.626L171.182 21.8821Z" stroke="#FDFCFF" stroke-opacity="0.5" stroke-width="2" mask="url(#path-22-inside-1_390_1743)"/>
</g>
<path d="M90.4519 24.5127C90.4942 24.3332 90.6739 24.2221 90.8526 24.2644C90.8952 24.2745 90.9354 24.2929 90.9709 24.3185C91.0063 24.3441 91.0364 24.3765 91.0594 24.4138C91.0824 24.4511 91.0979 24.4926 91.1049 24.5359C91.1119 24.5792 91.1103 24.6234 91.1003 24.6661L90.5884 26.8408C90.5672 26.926 90.5133 26.9994 90.4385 27.0451C90.3637 27.0908 90.2739 27.1052 90.1886 27.085C90.1034 27.0648 90.0295 27.0118 89.9829 26.9373C89.9364 26.8629 89.921 26.7731 89.94 26.6874L90.4519 24.5127Z" fill="#005FB0"/>
<path d="M95.0757 4.87059C95.118 4.69107 95.2977 4.57993 95.4764 4.62228C95.5624 4.64262 95.6368 4.69638 95.6832 4.77171C95.7297 4.84704 95.7444 4.93779 95.7241 5.02399L91.4315 23.2591C91.4108 23.3449 91.3571 23.419 91.2821 23.4652C91.2071 23.5114 91.1169 23.526 91.0312 23.5057C90.9455 23.4854 90.8713 23.432 90.8248 23.357C90.7784 23.2821 90.7634 23.1917 90.7831 23.1057L95.0757 4.87059Z" fill="#005FB0"/>
<path d="M94.4337 4.65587C94.5108 4.61264 94.6019 4.60189 94.6869 4.62597C94.7719 4.65009 94.8439 4.70706 94.887 4.78437C94.9301 4.86167 94.9408 4.95298 94.9168 5.03821L88.764 26.855C88.7442 26.9249 88.7023 26.9865 88.6444 27.0304C88.5866 27.0743 88.5161 27.0981 88.4436 27.0981C88.4129 27.0981 88.3823 27.0938 88.3528 27.0854C88.3107 27.0735 88.2714 27.0534 88.237 27.0262C88.2027 26.999 88.174 26.9653 88.1527 26.9271C88.1314 26.8888 88.1177 26.8467 88.1126 26.8031C88.1075 26.7596 88.111 26.7154 88.1229 26.6732L94.2758 4.85646C94.2998 4.77125 94.3566 4.69909 94.4337 4.65587Z" fill="#005FB0"/>
<path d="M95.5624 4.98523C95.5623 4.98545 95.5623 4.98567 95.5622 4.98589L95.5624 4.98523ZM95.5624 4.98523L95.4293 4.9539M95.5624 4.98523L95.5624 4.98516L95.4293 4.95385C95.4294 4.94535 95.4294 4.93685 95.4292 4.92835C95.4285 4.90104 95.4266 4.87379 95.4233 4.8467C95.4233 4.84662 95.4233 4.84655 95.4233 4.84647C95.4136 4.76732 95.3926 4.68954 95.3606 4.61561C95.3983 4.61111 95.4374 4.61304 95.4764 4.62228L95.4293 4.9539M95.4293 4.9539C95.4293 4.95414 95.4293 4.95438 95.4293 4.95461L95.4293 4.9539ZM94.8343 4.81375L94.8343 4.81377L94.8343 4.81375ZM88.6042 26.8089L88.6042 26.8086C88.6042 26.8088 88.6042 26.8089 88.6041 26.809L88.6042 26.8089ZM95.4128 5.11294C95.4234 5.06055 95.4289 5.00753 95.4293 4.95462L95.4128 5.11294ZM90.7755 24.5889L90.7759 24.5886L90.7755 24.5889ZM90.6136 24.5515L90.6135 24.5518C90.6135 24.5517 90.6136 24.5516 90.6136 24.5515L90.6136 24.5515Z" stroke="#FDFCFF" stroke-opacity="0.49"/>
<defs>
<clipPath id="clip0_390_1743">
<rect width="22.4282" height="22.4848" fill="white" transform="translate(0 4.61328)"/>
</clipPath>
<clipPath id="clip1_390_1743">
<rect width="22.4282" height="22.4848" fill="white" transform="translate(158.6 4.61328)"/>
</clipPath>
</defs>
</svg>
