<svg width="182" height="37" viewBox="0 0 182 37" fill="none" xmlns="http://www.w3.org/2000/svg">
<path d="M75.485 1C71.1679 1 67.6554 4.51245 67.6554 8.82955V20.2727H67.0531C66.8934 20.2727 66.7402 20.3362 66.6273 20.4491C66.5143 20.5621 66.4509 20.7153 66.4509 20.875V22.9372C65.9146 23.1715 65.4582 23.5569 65.1373 24.0463C64.8164 24.5357 64.645 25.108 64.644 25.6932V26.8977C64.644 27.0575 64.7075 27.2107 64.8204 27.3236C64.9334 27.4365 65.0866 27.5 65.2463 27.5H85.7236C85.8833 27.5 86.0365 27.4365 86.1495 27.3236C86.2624 27.2107 86.3259 27.0575 86.3259 26.8977V25.6932C86.3249 25.108 86.1535 24.5357 85.8326 24.0463C85.5117 23.5569 85.0553 23.1715 84.519 22.9372V20.875C84.519 20.7153 84.4556 20.5621 84.3426 20.4491C84.2297 20.3362 84.0765 20.2727 83.9168 20.2727H83.3145V8.82955C83.3145 4.51245 79.802 1 75.485 1ZM68.86 8.82955C69.2231 0.0417843 81.7468 0.0417843 82.11 8.82955V20.2727H68.86V8.82955ZM67.6554 21.4773H83.3145V22.6818H67.6554V21.4773ZM85.1213 25.6932V26.2955H65.8486V25.6932C65.8486 24.697 66.6592 23.8864 67.6554 23.8864H83.3145C84.3107 23.8864 85.1213 24.697 85.1213 25.6932Z" fill="black"/>
<path d="M77.8939 7.62491H76.0871V5.81809C76.0871 5.65836 76.0236 5.50517 75.9107 5.39222C75.7977 5.27927 75.6445 5.21582 75.4848 5.21582C75.3251 5.21582 75.1719 5.27927 75.0589 5.39222C74.946 5.50517 74.8825 5.65836 74.8825 5.81809V7.62491H73.0757C72.2891 7.62853 72.2867 8.82584 73.0757 8.82946H74.8825V14.2499C74.8849 15.0341 76.084 15.0401 76.0871 14.2499V8.82946H77.8939C78.6798 8.82645 78.6829 7.62792 77.8939 7.62491Z" fill="black"/>
<path d="M105.598 1C101.281 1 97.7689 4.51245 97.7689 8.82955V20.2727H97.1667C97.0069 20.2727 96.8537 20.3362 96.7408 20.4491C96.6278 20.5621 96.5644 20.7153 96.5644 20.875V22.9372C96.0281 23.1715 95.5717 23.5569 95.2508 24.0463C94.93 24.5357 94.7586 25.108 94.7576 25.6932V26.8977C94.7576 27.0575 94.821 27.2107 94.934 27.3236C95.0469 27.4365 95.2001 27.5 95.3598 27.5H115.837C115.997 27.5 116.15 27.4365 116.263 27.3236C116.376 27.2107 116.439 27.0575 116.439 26.8977V25.6932C116.438 25.108 116.267 24.5357 115.946 24.0463C115.625 23.5569 115.169 23.1715 114.633 22.9372V20.875C114.633 20.7153 114.569 20.5621 114.456 20.4491C114.343 20.3362 114.19 20.2727 114.03 20.2727H113.428V8.82955C113.428 4.51245 109.916 1 105.598 1ZM98.9735 8.82955C99.3366 0.0417843 111.86 0.0417843 112.223 8.82955V20.2727H98.9735V8.82955ZM97.7689 21.4773H113.428V22.6818H97.7689V21.4773ZM115.235 25.6932V26.2955H95.9621V25.6932C95.9621 24.697 96.7728 23.8864 97.7689 23.8864H113.428C114.424 23.8864 115.235 24.697 115.235 25.6932Z" fill="black"/>
<path d="M108.007 7.62491H106.201V5.81809C106.201 5.65836 106.137 5.50517 106.024 5.39222C105.911 5.27927 105.758 5.21582 105.598 5.21582C105.439 5.21582 105.285 5.27927 105.172 5.39222C105.059 5.50517 104.996 5.65836 104.996 5.81809V7.62491H103.189C102.403 7.62853 102.4 8.82584 103.189 8.82946H104.996V14.2499C104.998 15.0341 106.198 15.0401 106.201 14.2499V8.82946H108.007C108.793 8.82645 108.796 7.62792 108.007 7.62491Z" fill="black"/>
<path d="M54.2953 0C48.3492 0 43.5113 4.83791 43.5113 10.7841V26.5455H42.6817C42.4617 26.5455 42.2507 26.6329 42.0951 26.7884C41.9396 26.944 41.8522 27.155 41.8522 27.375V30.2154C41.1135 30.5381 40.4849 31.0689 40.0429 31.743C39.601 32.4171 39.3649 33.2053 39.3635 34.0114V35.6705C39.3635 35.8905 39.4509 36.1015 39.6065 36.257C39.7621 36.4126 39.9731 36.5 40.1931 36.5H68.3976C68.6176 36.5 68.8286 36.4126 68.9842 36.257C69.1398 36.1015 69.2272 35.8905 69.2272 35.6705V34.0114C69.2258 33.2053 68.9897 32.4171 68.5478 31.743C68.1058 31.0689 67.4772 30.5381 66.7385 30.2154V27.375C66.7385 27.155 66.6511 26.944 66.4956 26.7884C66.34 26.6329 66.129 26.5455 65.909 26.5455H65.0794V10.7841C65.0794 4.83791 60.2415 0 54.2953 0ZM45.1703 10.7841C45.6706 -1.31981 62.9201 -1.31981 63.4203 10.7841V26.5455H45.1703V10.7841ZM43.5113 28.2045H65.0794V29.8636H43.5113V28.2045ZM67.5681 34.0114V34.8409H41.0226V34.0114C41.0226 32.6393 42.1392 31.5227 43.5113 31.5227H65.0794C66.4515 31.5227 67.5681 32.6393 67.5681 34.0114Z" fill="#005FB0"/>
<path d="M57.6137 9.12482H55.1251V6.63619C55.1251 6.41618 55.0377 6.20518 54.8821 6.04961C54.7265 5.89404 54.5155 5.80664 54.2955 5.80664C54.0755 5.80664 53.8645 5.89404 53.709 6.04961C53.5534 6.20518 53.466 6.41618 53.466 6.63619V9.12482H50.9774C49.894 9.1298 49.8907 10.7789 50.9774 10.7839H53.466V18.2498C53.4693 19.3299 55.1209 19.3382 55.1251 18.2498V10.7839H57.6137C58.6963 10.7798 58.7004 9.12897 57.6137 9.12482Z" fill="#005FB0"/>
<path d="M33.3258 1C29.0087 1 25.4962 4.51245 25.4962 8.82955V20.2727H24.894C24.7342 20.2727 24.581 20.3362 24.4681 20.4491C24.3551 20.5621 24.2917 20.7153 24.2917 20.875V22.9372C23.7554 23.1715 23.299 23.5569 22.9781 24.0463C22.6573 24.5357 22.4859 25.108 22.4849 25.6932V26.8977C22.4849 27.0575 22.5483 27.2107 22.6613 27.3236C22.7742 27.4365 22.9274 27.5 23.0871 27.5H43.5644C43.7241 27.5 43.8773 27.4365 43.9903 27.3236C44.1032 27.2107 44.1667 27.0575 44.1667 26.8977V25.6932C44.1657 25.108 43.9943 24.5357 43.6734 24.0463C43.3526 23.5569 42.8961 23.1715 42.3599 22.9372V20.875C42.3599 20.7153 42.2964 20.5621 42.1835 20.4491C42.0705 20.3362 41.9173 20.2727 41.7576 20.2727H41.1553V8.82955C41.1553 4.51245 37.6429 1 33.3258 1ZM26.7008 8.82955C27.0639 0.0417843 39.5876 0.0417843 39.9508 8.82955V20.2727H26.7008V8.82955ZM25.4962 21.4773H41.1553V22.6818H25.4962V21.4773ZM42.9621 25.6932V26.2955H23.6894V25.6932C23.6894 24.697 24.5001 23.8864 25.4962 23.8864H41.1553C42.1515 23.8864 42.9621 24.697 42.9621 25.6932Z" fill="black"/>
<path d="M35.7347 7.62491H33.9279V5.81809C33.9279 5.65836 33.8644 5.50517 33.7515 5.39222C33.6385 5.27927 33.4853 5.21582 33.3256 5.21582C33.1659 5.21582 33.0127 5.27927 32.8997 5.39222C32.7868 5.50517 32.7233 5.65836 32.7233 5.81809V7.62491H30.9165C30.1299 7.62853 30.1275 8.82584 30.9165 8.82946H32.7233V14.2499C32.7257 15.0341 33.9249 15.0401 33.9279 14.2499V8.82946H35.7347C36.5207 8.82645 36.5237 7.62792 35.7347 7.62491Z" fill="black"/>
<path d="M126.568 0C120.622 0 115.784 4.83791 115.784 10.7841V26.5455H114.955C114.735 26.5455 114.524 26.6329 114.368 26.7884C114.213 26.944 114.125 27.155 114.125 27.375V30.2154C113.386 30.5381 112.758 31.0689 112.316 31.743C111.874 32.4171 111.638 33.2053 111.636 34.0114V35.6705C111.636 35.8905 111.724 36.1015 111.879 36.257C112.035 36.4126 112.246 36.5 112.466 36.5H140.671C140.891 36.5 141.102 36.4126 141.257 36.257C141.413 36.1015 141.5 35.8905 141.5 35.6705V34.0114C141.499 33.2053 141.263 32.4171 140.821 31.743C140.379 31.0689 139.75 30.5381 139.011 30.2154V27.375C139.011 27.155 138.924 26.944 138.769 26.7884C138.613 26.6329 138.402 26.5455 138.182 26.5455H137.352V10.7841C137.352 4.83791 132.514 0 126.568 0ZM117.443 10.7841C117.944 -1.31981 135.193 -1.31981 135.693 10.7841V26.5455H117.443V10.7841ZM115.784 28.2045H137.352V29.8636H115.784V28.2045ZM139.841 34.0114V34.8409H113.296V34.0114C113.296 32.6393 114.412 31.5227 115.784 31.5227H137.352C138.724 31.5227 139.841 32.6393 139.841 34.0114Z" fill="#005FB0"/>
<path d="M129.886 9.12482H127.398V6.63619C127.398 6.41618 127.31 6.20518 127.155 6.04961C126.999 5.89404 126.788 5.80664 126.568 5.80664C126.348 5.80664 126.137 5.89404 125.981 6.04961C125.826 6.20518 125.738 6.41618 125.738 6.63619V9.12482H123.25C122.166 9.1298 122.163 10.7789 123.25 10.7839H125.738V18.2498C125.742 19.3299 127.393 19.3382 127.398 18.2498V10.7839H129.886C130.969 10.7798 130.973 9.12897 129.886 9.12482Z" fill="#005FB0"/>
<path d="M147.356 1C143.039 1 139.527 4.51245 139.527 8.82955V20.2727H138.924C138.764 20.2727 138.611 20.3362 138.498 20.4491C138.385 20.5621 138.322 20.7153 138.322 20.875V22.9372C137.786 23.1715 137.329 23.5569 137.008 24.0463C136.688 24.5357 136.516 25.108 136.515 25.6932V26.8977C136.515 27.0575 136.579 27.2107 136.692 27.3236C136.804 27.4365 136.958 27.5 137.117 27.5H157.595C157.754 27.5 157.908 27.4365 158.021 27.3236C158.134 27.2107 158.197 27.0575 158.197 26.8977V25.6932C158.196 25.108 158.025 24.5357 157.704 24.0463C157.383 23.5569 156.926 23.1715 156.39 22.9372V20.875C156.39 20.7153 156.327 20.5621 156.214 20.4491C156.101 20.3362 155.948 20.2727 155.788 20.2727H155.186V8.82955C155.186 4.51245 151.673 1 147.356 1ZM140.731 8.82955C141.094 0.0417843 153.618 0.0417843 153.981 8.82955V20.2727H140.731V8.82955ZM139.527 21.4773H155.186V22.6818H139.527V21.4773ZM156.992 25.6932V26.2955H137.72V25.6932C137.72 24.697 138.53 23.8864 139.527 23.8864H155.186C156.182 23.8864 156.992 24.697 156.992 25.6932Z" fill="black"/>
<path d="M149.765 7.62491H147.958V5.81809C147.958 5.65836 147.895 5.50517 147.782 5.39222C147.669 5.27927 147.516 5.21582 147.356 5.21582C147.196 5.21582 147.043 5.27927 146.93 5.39222C146.817 5.50517 146.754 5.65836 146.754 5.81809V7.62491H144.947C144.16 7.62853 144.158 8.82584 144.947 8.82946H146.754V14.2499C146.756 15.0341 147.955 15.0401 147.958 14.2499V8.82946H149.765C150.551 8.82645 150.554 7.62792 149.765 7.62491Z" fill="black"/>
<g clip-path="url(#clip0_119_829)">
<path d="M16.8696 10.4483L15.5837 4.99921C15.5632 4.91442 15.51 4.84119 15.4357 4.79552C15.3613 4.74985 15.272 4.73546 15.1871 4.75549C15.1022 4.77553 15.0287 4.82836 14.9826 4.90243C14.9365 4.97651 14.9217 5.06581 14.9413 5.15081L16.2273 10.5999C16.2474 10.6851 16.3005 10.7587 16.3749 10.8047C16.4494 10.8508 16.539 10.8653 16.6242 10.8453C16.6664 10.8354 16.7062 10.8172 16.7413 10.7919C16.7765 10.7665 16.8063 10.7345 16.8291 10.6976C16.8519 10.6608 16.8672 10.6198 16.8742 10.577C16.8811 10.5342 16.8796 10.4905 16.8696 10.4483ZM20.672 26.5601L17.1202 11.51C17.1001 11.4249 17.0469 11.3512 16.9725 11.3052C16.8981 11.2592 16.8084 11.2446 16.7232 11.2646C16.6381 11.2847 16.5643 11.3378 16.5183 11.4123C16.4723 11.4867 16.4577 11.5764 16.4778 11.6616L20.0296 26.7117C20.0497 26.7968 20.1028 26.8705 20.1772 26.9165C20.2517 26.9625 20.3413 26.9771 20.4265 26.9571C20.6039 26.9152 20.7138 26.7375 20.672 26.5601ZM2.71696 24.1656C2.53985 24.1238 2.36182 24.2336 2.31996 24.411L1.81278 26.5601C1.7939 26.6449 1.80917 26.7336 1.85528 26.8072C1.90138 26.8807 1.97461 26.9332 2.05911 26.9531C2.1436 26.973 2.23254 26.9589 2.30667 26.9137C2.3808 26.8685 2.43414 26.796 2.45514 26.7117L2.96232 24.5626C2.97228 24.5204 2.97383 24.4767 2.96689 24.4339C2.95995 24.3911 2.94465 24.3501 2.92187 24.3133C2.89909 24.2764 2.86926 24.2444 2.8341 24.219C2.79895 24.1937 2.75914 24.1755 2.71696 24.1656ZM7.29802 4.75381C7.12095 4.71196 6.94292 4.82179 6.90102 4.99921L2.6481 23.0205C2.62851 23.1055 2.64337 23.1948 2.68943 23.2689C2.73549 23.3429 2.809 23.3958 2.8939 23.4158C2.9788 23.4358 3.06817 23.4214 3.14249 23.3758C3.21681 23.3301 3.27002 23.2569 3.2905 23.1721L7.54342 5.15081C7.56352 5.06562 7.54896 4.97594 7.50294 4.90149C7.45692 4.82704 7.38321 4.77392 7.29802 4.75381ZM22.4722 26.5461L16.3762 4.9852C16.3648 4.94305 16.3452 4.90357 16.3184 4.86905C16.2917 4.83454 16.2584 4.80568 16.2204 4.78414C16.1824 4.7626 16.1405 4.74882 16.0971 4.74359C16.0538 4.73836 16.0098 4.74178 15.9678 4.75366C15.9258 4.76554 15.8865 4.78564 15.8524 4.8128C15.8182 4.83996 15.7897 4.87363 15.7686 4.91187C15.7475 4.95011 15.7342 4.99216 15.7295 5.03557C15.7248 5.07898 15.7287 5.1229 15.7411 5.16477L21.8371 26.7257C21.8567 26.7948 21.8982 26.8557 21.9555 26.899C22.0128 26.9424 22.0827 26.9659 22.1545 26.966C22.1842 26.966 22.2145 26.962 22.2445 26.9534C22.2862 26.9416 22.3252 26.9218 22.3592 26.8949C22.3932 26.8681 22.4216 26.8348 22.4427 26.7969C22.4639 26.7591 22.4774 26.7175 22.4824 26.6745C22.4875 26.6314 22.484 26.5878 22.4722 26.5461ZM6.51584 4.75746C6.43162 4.73366 6.34139 4.74429 6.26501 4.787C6.18863 4.82972 6.13234 4.90103 6.10852 4.98525L0.0124613 26.5462C0.000663942 26.5879 -0.00280323 26.6315 0.00225777 26.6745C0.00731877 26.7176 0.0208088 26.7592 0.0419575 26.797C0.0631062 26.8348 0.0914993 26.8681 0.125515 26.895C0.159531 26.9218 0.198504 26.9417 0.240208 26.9535C0.269482 26.9618 0.299762 26.966 0.330191 26.9661C0.402033 26.966 0.471889 26.9425 0.529165 26.8991C0.586441 26.8558 0.628011 26.7949 0.647569 26.7258L6.74363 5.16486C6.76743 5.08063 6.75681 4.99039 6.71409 4.914C6.67137 4.8376 6.60006 4.78129 6.51584 4.75746ZM12.0967 5.06482C12.0955 5.02146 12.0858 4.97876 12.068 4.93919C12.0503 4.89961 12.0249 4.86394 11.9933 4.83423C11.9617 4.80451 11.9245 4.78134 11.8839 4.76605C11.8433 4.75075 11.8001 4.74364 11.7567 4.74512C11.7134 4.74644 11.6708 4.75629 11.6313 4.77409C11.5918 4.79189 11.5561 4.81731 11.5264 4.84888C11.4968 4.88045 11.4736 4.91757 11.4582 4.9581C11.4429 4.99863 11.4357 5.04179 11.437 5.08511L11.4758 6.34791H11.0089L11.0478 5.08511C11.0491 5.04179 11.0419 4.99864 11.0265 4.95811C11.0112 4.91758 10.988 4.88047 10.9583 4.84889C10.9286 4.81732 10.893 4.79191 10.8535 4.7741C10.814 4.75629 10.7714 4.74645 10.7281 4.74512C10.5481 4.73954 10.3936 4.88266 10.3881 5.06482L10.3388 6.66783C10.3374 6.71201 10.3449 6.75602 10.3609 6.79723C10.3768 6.83845 10.4009 6.87604 10.4317 6.90777C10.4625 6.9395 10.4993 6.96473 10.54 6.98194C10.5807 6.99916 10.6245 7.00802 10.6687 7.008H11.8162C11.8604 7.00799 11.9042 6.9991 11.9449 6.98187C11.9855 6.96464 12.0224 6.93941 12.0531 6.90769C12.0839 6.87597 12.108 6.83839 12.1239 6.79719C12.1399 6.75599 12.1474 6.712 12.1461 6.66783L12.0967 5.06482ZM12.1715 7.49678C12.1689 7.41106 12.133 7.32972 12.0714 7.27001C12.0098 7.21031 11.9274 7.17693 11.8417 7.17694H10.6431C10.5573 7.17694 10.4749 7.21032 10.4133 7.27003C10.3518 7.32973 10.3159 7.41106 10.3132 7.49678L10.2265 10.3112C10.2252 10.3553 10.2327 10.3993 10.2487 10.4405C10.2646 10.4818 10.2887 10.5193 10.3195 10.5511C10.3502 10.5828 10.387 10.608 10.4277 10.6253C10.4684 10.6425 10.5122 10.6514 10.5564 10.6514H11.9284C11.9725 10.6514 12.0163 10.6425 12.057 10.6252C12.0977 10.608 12.1345 10.5828 12.1652 10.551C12.196 10.5193 12.2201 10.4817 12.236 10.4405C12.252 10.3993 12.2596 10.3553 12.2582 10.3112L12.1715 7.49678ZM10.8967 9.99132L10.963 7.837H11.5217L11.588 9.99132H10.8967ZM12.2907 11.369C12.2881 11.2832 12.2522 11.2019 12.1906 11.1422C12.1291 11.0825 12.0467 11.0491 11.9609 11.0491H10.5238C10.438 11.0491 10.3556 11.0825 10.2941 11.1422C10.2325 11.2019 10.1966 11.2832 10.194 11.369L10.095 14.5811C10.0936 14.6253 10.1011 14.6693 10.1171 14.7105C10.133 14.7517 10.1571 14.7893 10.1879 14.821C10.2187 14.8527 10.2555 14.878 10.2962 14.8952C10.3369 14.9124 10.3806 14.9213 10.4248 14.9213H12.0599C12.1041 14.9213 12.1479 14.9124 12.1885 14.8951C12.2292 14.8779 12.2661 14.8527 12.2968 14.821C12.3276 14.7892 12.3516 14.7516 12.3676 14.7104C12.3836 14.6692 12.3911 14.6252 12.3898 14.5811L12.2907 11.369ZM10.7651 14.2612L10.8438 11.7091H11.6409L11.7196 14.2612H10.7651ZM12.4355 16.0741C12.4329 15.9883 12.397 15.907 12.3354 15.8473C12.2739 15.7876 12.1915 15.7542 12.1057 15.7542H10.3791C10.2933 15.7542 10.2109 15.7876 10.1493 15.8473C10.0877 15.907 10.0518 15.9883 10.0492 16.074L9.92866 19.9933C9.92727 20.0375 9.93478 20.0815 9.95073 20.1227C9.96669 20.1639 9.99076 20.2015 10.0215 20.2332C10.0523 20.265 10.0891 20.2902 10.1298 20.3074C10.1705 20.3246 10.2143 20.3335 10.2585 20.3335H12.2262C12.2704 20.3335 12.3142 20.3246 12.3548 20.3074C12.3955 20.2901 12.4324 20.2649 12.4631 20.2332C12.4939 20.2015 12.518 20.1639 12.5339 20.1227C12.5499 20.0815 12.5574 20.0375 12.5561 19.9933L12.4355 16.0741ZM10.5988 19.6734L10.6991 16.4142H11.7857L11.8858 19.6734H10.5988ZM12.6142 21.8819C12.6116 21.7961 12.5756 21.7148 12.5141 21.6551C12.4525 21.5954 12.3701 21.562 12.2843 21.562H10.2004C10.1146 21.562 10.0322 21.5954 9.97067 21.6551C9.9091 21.7148 9.87319 21.7962 9.87055 21.8819L9.72445 26.6257C9.72311 26.669 9.73032 26.7122 9.74567 26.7527C9.76101 26.7933 9.78419 26.8304 9.81388 26.8619C9.84357 26.8935 9.87918 26.9189 9.91869 26.9367C9.95821 26.9545 10.0008 26.9644 10.0442 26.9657C10.2249 26.9713 10.3786 26.8282 10.3841 26.6461L10.5204 22.2221H11.9643L12.1005 26.6461C12.1019 26.6894 12.1117 26.732 12.1295 26.7715C12.1473 26.811 12.1727 26.8466 12.2043 26.8763C12.2359 26.906 12.273 26.9292 12.3135 26.9445C12.354 26.9599 12.3972 26.9671 12.4405 26.9657C12.4838 26.9644 12.5265 26.9546 12.566 26.9368C12.6055 26.9189 12.6411 26.8935 12.6708 26.862C12.7005 26.8304 12.7237 26.7933 12.739 26.7527C12.7543 26.7122 12.7615 26.6691 12.7602 26.6257L12.6142 21.8819Z" fill="black"/>
</g>
<g clip-path="url(#clip1_119_829)">
<path d="M175.87 10.4483L174.584 4.99921C174.563 4.91442 174.51 4.84119 174.436 4.79552C174.361 4.74985 174.272 4.73546 174.187 4.75549C174.102 4.77553 174.029 4.82836 173.983 4.90243C173.937 4.97651 173.922 5.06581 173.941 5.15081L175.227 10.5999C175.247 10.6851 175.301 10.7587 175.375 10.8047C175.449 10.8508 175.539 10.8653 175.624 10.8453C175.666 10.8354 175.706 10.8172 175.741 10.7919C175.776 10.7665 175.806 10.7345 175.829 10.6976C175.852 10.6608 175.867 10.6198 175.874 10.577C175.881 10.5342 175.88 10.4905 175.87 10.4483ZM179.672 26.5601L176.12 11.51C176.1 11.4249 176.047 11.3512 175.973 11.3052C175.898 11.2592 175.808 11.2446 175.723 11.2646C175.638 11.2847 175.564 11.3378 175.518 11.4123C175.472 11.4867 175.458 11.5764 175.478 11.6616L179.03 26.7117C179.05 26.7968 179.103 26.8705 179.177 26.9165C179.252 26.9625 179.341 26.9771 179.427 26.9571C179.604 26.9152 179.714 26.7375 179.672 26.5601ZM161.717 24.1656C161.54 24.1238 161.362 24.2336 161.32 24.411L160.813 26.5601C160.794 26.6449 160.809 26.7336 160.855 26.8072C160.901 26.8807 160.975 26.9332 161.059 26.9531C161.144 26.973 161.233 26.9589 161.307 26.9137C161.381 26.8685 161.434 26.796 161.455 26.7117L161.962 24.5626C161.972 24.5204 161.974 24.4767 161.967 24.4339C161.96 24.3911 161.945 24.3501 161.922 24.3133C161.899 24.2764 161.869 24.2444 161.834 24.219C161.799 24.1937 161.759 24.1755 161.717 24.1656ZM166.298 4.75381C166.121 4.71196 165.943 4.82179 165.901 4.99921L161.648 23.0205C161.629 23.1055 161.643 23.1948 161.689 23.2689C161.735 23.3429 161.809 23.3958 161.894 23.4158C161.979 23.4358 162.068 23.4214 162.142 23.3758C162.217 23.3301 162.27 23.2569 162.291 23.1721L166.543 5.15081C166.564 5.06562 166.549 4.97594 166.503 4.90149C166.457 4.82704 166.383 4.77392 166.298 4.75381ZM181.472 26.5461L175.376 4.9852C175.365 4.94305 175.345 4.90357 175.318 4.86905C175.292 4.83454 175.258 4.80568 175.22 4.78414C175.182 4.7626 175.14 4.74882 175.097 4.74359C175.054 4.73836 175.01 4.74178 174.968 4.75366C174.926 4.76554 174.887 4.78564 174.852 4.8128C174.818 4.83996 174.79 4.87363 174.769 4.91187C174.748 4.95011 174.734 4.99216 174.73 5.03557C174.725 5.07898 174.729 5.1229 174.741 5.16477L180.837 26.7257C180.857 26.7948 180.898 26.8557 180.956 26.899C181.013 26.9424 181.083 26.9659 181.155 26.966C181.184 26.966 181.214 26.962 181.244 26.9534C181.286 26.9416 181.325 26.9218 181.359 26.8949C181.393 26.8681 181.422 26.8348 181.443 26.7969C181.464 26.7591 181.477 26.7175 181.482 26.6745C181.487 26.6314 181.484 26.5878 181.472 26.5461ZM165.516 4.75746C165.432 4.73366 165.341 4.74429 165.265 4.787C165.189 4.82972 165.132 4.90103 165.109 4.98525L159.012 26.5462C159.001 26.5879 158.997 26.6315 159.002 26.6745C159.007 26.7176 159.021 26.7592 159.042 26.797C159.063 26.8348 159.091 26.8681 159.126 26.895C159.16 26.9218 159.199 26.9417 159.24 26.9535C159.269 26.9618 159.3 26.966 159.33 26.9661C159.402 26.966 159.472 26.9425 159.529 26.8991C159.586 26.8558 159.628 26.7949 159.648 26.7258L165.744 5.16486C165.767 5.08063 165.757 4.99039 165.714 4.914C165.671 4.8376 165.6 4.78129 165.516 4.75746ZM171.097 5.06482C171.096 5.02146 171.086 4.97876 171.068 4.93919C171.05 4.89961 171.025 4.86394 170.993 4.83423C170.962 4.80451 170.924 4.78134 170.884 4.76605C170.843 4.75075 170.8 4.74364 170.757 4.74512C170.713 4.74644 170.671 4.75629 170.631 4.77409C170.592 4.79189 170.556 4.81731 170.526 4.84888C170.497 4.88045 170.474 4.91757 170.458 4.9581C170.443 4.99863 170.436 5.04179 170.437 5.08511L170.476 6.34791H170.009L170.048 5.08511C170.049 5.04179 170.042 4.99864 170.027 4.95811C170.011 4.91758 169.988 4.88047 169.958 4.84889C169.929 4.81732 169.893 4.79191 169.854 4.7741C169.814 4.75629 169.771 4.74645 169.728 4.74512C169.548 4.73954 169.394 4.88266 169.388 5.06482L169.339 6.66783C169.337 6.71201 169.345 6.75602 169.361 6.79723C169.377 6.83845 169.401 6.87604 169.432 6.90777C169.462 6.9395 169.499 6.96473 169.54 6.98194C169.581 6.99916 169.624 7.00802 169.669 7.008H170.816C170.86 7.00799 170.904 6.9991 170.945 6.98187C170.986 6.96464 171.022 6.93941 171.053 6.90769C171.084 6.87597 171.108 6.83839 171.124 6.79719C171.14 6.75599 171.147 6.712 171.146 6.66783L171.097 5.06482ZM171.172 7.49678C171.169 7.41106 171.133 7.32972 171.071 7.27001C171.01 7.21031 170.927 7.17693 170.842 7.17694H169.643C169.557 7.17694 169.475 7.21032 169.413 7.27003C169.352 7.32973 169.316 7.41106 169.313 7.49678L169.227 10.3112C169.225 10.3553 169.233 10.3993 169.249 10.4405C169.265 10.4818 169.289 10.5193 169.319 10.5511C169.35 10.5828 169.387 10.608 169.428 10.6253C169.468 10.6425 169.512 10.6514 169.556 10.6514H170.928C170.973 10.6514 171.016 10.6425 171.057 10.6252C171.098 10.608 171.134 10.5828 171.165 10.551C171.196 10.5193 171.22 10.4817 171.236 10.4405C171.252 10.3993 171.26 10.3553 171.258 10.3112L171.172 7.49678ZM169.897 9.99132L169.963 7.837H170.522L170.588 9.99132H169.897ZM171.291 11.369C171.288 11.2832 171.252 11.2019 171.191 11.1422C171.129 11.0825 171.047 11.0491 170.961 11.0491H169.524C169.438 11.0491 169.356 11.0825 169.294 11.1422C169.233 11.2019 169.197 11.2832 169.194 11.369L169.095 14.5811C169.094 14.6253 169.101 14.6693 169.117 14.7105C169.133 14.7517 169.157 14.7893 169.188 14.821C169.219 14.8527 169.255 14.878 169.296 14.8952C169.337 14.9124 169.381 14.9213 169.425 14.9213H171.06C171.104 14.9213 171.148 14.9124 171.189 14.8951C171.229 14.8779 171.266 14.8527 171.297 14.821C171.328 14.7892 171.352 14.7516 171.368 14.7104C171.384 14.6692 171.391 14.6252 171.39 14.5811L171.291 11.369ZM169.765 14.2612L169.844 11.7091H170.641L170.72 14.2612H169.765ZM171.436 16.0741C171.433 15.9883 171.397 15.907 171.335 15.8473C171.274 15.7876 171.191 15.7542 171.106 15.7542H169.379C169.293 15.7542 169.211 15.7876 169.149 15.8473C169.088 15.907 169.052 15.9883 169.049 16.074L168.929 19.9933C168.927 20.0375 168.935 20.0815 168.951 20.1227C168.967 20.1639 168.991 20.2015 169.022 20.2332C169.052 20.265 169.089 20.2902 169.13 20.3074C169.171 20.3246 169.214 20.3335 169.258 20.3335H171.226C171.27 20.3335 171.314 20.3246 171.355 20.3074C171.396 20.2901 171.432 20.2649 171.463 20.2332C171.494 20.2015 171.518 20.1639 171.534 20.1227C171.55 20.0815 171.557 20.0375 171.556 19.9933L171.436 16.0741ZM169.599 19.6734L169.699 16.4142H170.786L170.886 19.6734H169.599ZM171.614 21.8819C171.612 21.7961 171.576 21.7148 171.514 21.6551C171.452 21.5954 171.37 21.562 171.284 21.562H169.2C169.115 21.562 169.032 21.5954 168.971 21.6551C168.909 21.7148 168.873 21.7962 168.871 21.8819L168.724 26.6257C168.723 26.669 168.73 26.7122 168.746 26.7527C168.761 26.7933 168.784 26.8304 168.814 26.8619C168.844 26.8935 168.879 26.9189 168.919 26.9367C168.958 26.9545 169.001 26.9644 169.044 26.9657C169.225 26.9713 169.379 26.8282 169.384 26.6461L169.52 22.2221H170.964L171.101 26.6461C171.102 26.6894 171.112 26.732 171.13 26.7715C171.147 26.811 171.173 26.8466 171.204 26.8763C171.236 26.906 171.273 26.9292 171.314 26.9445C171.354 26.9599 171.397 26.9671 171.44 26.9657C171.484 26.9644 171.526 26.9546 171.566 26.9368C171.605 26.9189 171.641 26.8935 171.671 26.862C171.7 26.8304 171.724 26.7933 171.739 26.7527C171.754 26.7122 171.762 26.6691 171.76 26.6257L171.614 21.8819Z" fill="black"/>
</g>
<mask id="path-15-inside-1_119_829" fill="white">
<path d="M90.6807 24.5127C90.7231 24.3332 90.9032 24.2221 91.0825 24.2644C91.1251 24.2745 91.1654 24.2929 91.201 24.3185C91.2366 24.3441 91.2667 24.3765 91.2898 24.4138C91.3128 24.4511 91.3283 24.4926 91.3354 24.5359C91.3424 24.5792 91.3408 24.6234 91.3307 24.6661L90.8175 26.8408C90.7963 26.926 90.7423 26.9994 90.6673 27.0451C90.5923 27.0908 90.5023 27.1052 90.4168 27.085C90.3313 27.0648 90.2572 27.0118 90.2105 26.9373C90.1639 26.8629 90.1484 26.7731 90.1675 26.6874L90.6807 24.5127Z"/>
<path d="M95.3162 4.87059C95.3586 4.69107 95.5387 4.57993 95.7179 4.62228C95.8041 4.64262 95.8787 4.69638 95.9252 4.77171C95.9718 4.84704 95.9865 4.93779 95.9662 5.02399L91.6628 23.2591C91.6421 23.3449 91.5882 23.419 91.513 23.4652C91.4378 23.5114 91.3474 23.526 91.2615 23.5057C91.1756 23.4854 91.1012 23.432 91.0546 23.357C91.008 23.2821 90.993 23.1917 91.0128 23.1057L95.3162 4.87059Z"/>
<path d="M94.6726 4.65587C94.7499 4.61264 94.8412 4.60189 94.9264 4.62597C95.0116 4.65009 95.0838 4.70706 95.127 4.78437C95.1702 4.86167 95.181 4.95298 95.1569 5.03821L88.9885 26.855C88.9687 26.9249 88.9267 26.9865 88.8687 27.0304C88.8107 27.0743 88.7401 27.0981 88.6674 27.0981C88.6366 27.0981 88.6059 27.0938 88.5763 27.0854C88.5341 27.0735 88.4947 27.0534 88.4603 27.0262C88.4258 26.999 88.3971 26.9653 88.3757 26.9271C88.3543 26.8888 88.3407 26.8467 88.3355 26.8031C88.3304 26.7596 88.3339 26.7154 88.3459 26.6732L94.5143 4.85646C94.5384 4.77125 94.5953 4.69909 94.6726 4.65587Z"/>
</mask>
<path d="M90.6807 24.5127C90.7231 24.3332 90.9032 24.2221 91.0825 24.2644C91.1251 24.2745 91.1654 24.2929 91.201 24.3185C91.2366 24.3441 91.2667 24.3765 91.2898 24.4138C91.3128 24.4511 91.3283 24.4926 91.3354 24.5359C91.3424 24.5792 91.3408 24.6234 91.3307 24.6661L90.8175 26.8408C90.7963 26.926 90.7423 26.9994 90.6673 27.0451C90.5923 27.0908 90.5023 27.1052 90.4168 27.085C90.3313 27.0648 90.2572 27.0118 90.2105 26.9373C90.1639 26.8629 90.1484 26.7731 90.1675 26.6874L90.6807 24.5127Z" fill="black"/>
<path d="M95.3162 4.87059C95.3586 4.69107 95.5387 4.57993 95.7179 4.62228C95.8041 4.64262 95.8787 4.69638 95.9252 4.77171C95.9718 4.84704 95.9865 4.93779 95.9662 5.02399L91.6628 23.2591C91.6421 23.3449 91.5882 23.419 91.513 23.4652C91.4378 23.5114 91.3474 23.526 91.2615 23.5057C91.1756 23.4854 91.1012 23.432 91.0546 23.357C91.008 23.2821 90.993 23.1917 91.0128 23.1057L95.3162 4.87059Z" fill="black"/>
<path d="M94.6726 4.65587C94.7499 4.61264 94.8412 4.60189 94.9264 4.62597C95.0116 4.65009 95.0838 4.70706 95.127 4.78437C95.1702 4.86167 95.181 4.95298 95.1569 5.03821L88.9885 26.855C88.9687 26.9249 88.9267 26.9865 88.8687 27.0304C88.8107 27.0743 88.7401 27.0981 88.6674 27.0981C88.6366 27.0981 88.6059 27.0938 88.5763 27.0854C88.5341 27.0735 88.4947 27.0534 88.4603 27.0262C88.4258 26.999 88.3971 26.9653 88.3757 26.9271C88.3543 26.8888 88.3407 26.8467 88.3355 26.8031C88.3304 26.7596 88.3339 26.7154 88.3459 26.6732L94.5143 4.85646C94.5384 4.77125 94.5953 4.69909 94.6726 4.65587Z" fill="black"/>
<path d="M91.0825 24.2644L91.3122 23.2911L91.312 23.2911L91.0825 24.2644ZM90.6807 24.5127L91.654 24.7424L91.654 24.7423L90.6807 24.5127ZM90.1675 26.6874L89.1942 26.4577L89.1915 26.4699L90.1675 26.6874ZM90.4168 27.085L90.6465 26.1117L90.6465 26.1117L90.4168 27.085ZM90.8175 26.8408L91.7879 27.0826L91.7908 27.0704L90.8175 26.8408ZM91.3307 24.6661L90.3575 24.4363L90.3575 24.4364L91.3307 24.6661ZM91.3354 24.5359L92.3224 24.3758L92.3224 24.3757L91.3354 24.5359ZM91.2898 24.4138L90.4391 24.9395L90.4391 24.9396L91.2898 24.4138ZM91.201 24.3185L91.7857 23.5072L91.7857 23.5072L91.201 24.3185ZM95.7179 4.62228L95.4879 5.59547L95.4882 5.59555L95.7179 4.62228ZM95.3162 4.87059L94.3429 4.64078L94.3429 4.64091L95.3162 4.87059ZM91.0128 23.1057L90.0395 22.876L90.0383 22.8811L91.0128 23.1057ZM91.0546 23.357L91.9038 22.829L91.9038 22.829L91.0546 23.357ZM91.6628 23.2591L92.6349 23.4939L92.6361 23.4888L91.6628 23.2591ZM95.9662 5.02399L96.9395 5.25368L96.9395 5.25366L95.9662 5.02399ZM95.9252 4.77171L96.7758 4.24591V4.24591L95.9252 4.77171ZM94.9264 4.62597L95.1987 3.66375L95.1983 3.66365L94.9264 4.62597ZM94.6726 4.65587L95.1607 5.52866L95.1607 5.52865L94.6726 4.65587ZM94.5143 4.85646L93.552 4.58437L93.552 4.58439L94.5143 4.85646ZM88.3459 26.6732L89.3081 26.9454L89.3081 26.9453L88.3459 26.6732ZM88.3355 26.8031L89.3287 26.6863L88.3355 26.8031ZM88.3757 26.9271L89.2486 26.4391H89.2486L88.3757 26.9271ZM88.5763 27.0854L88.8492 26.1234L88.8484 26.1231L88.5763 27.0854ZM88.6674 27.0981L88.6664 28.0981L88.6684 28.0981L88.6674 27.0981ZM88.8687 27.0304L88.2651 26.2331L88.265 26.2331L88.8687 27.0304ZM88.9885 26.855L89.9507 27.1272L89.9508 27.127L88.9885 26.855ZM95.1569 5.03821L96.1192 5.31028L96.1192 5.31013L95.1569 5.03821ZM95.127 4.78437L94.2542 5.27239V5.27239L95.127 4.78437ZM91.312 23.2911C90.5962 23.1223 89.8768 23.5651 89.7075 24.2831L91.654 24.7423C91.5694 25.1012 91.2103 25.322 90.8529 25.2377L91.312 23.2911ZM89.7075 24.283L89.1943 26.4577L91.1408 26.917L91.654 24.7424L89.7075 24.283ZM89.1915 26.4699C89.1152 26.8124 89.1769 27.1711 89.3632 27.4684L91.0578 26.4062C91.1509 26.5547 91.1817 26.7338 91.1436 26.9048L89.1915 26.4699ZM89.3632 27.4684C89.5496 27.7657 89.8456 27.9777 90.1871 28.0583L90.6465 26.1117C90.817 26.152 90.9648 26.2578 91.0578 26.4062L89.3632 27.4684ZM90.1871 28.0583C90.5286 28.1389 90.8881 28.0816 91.1877 27.899L90.1468 26.1912C90.2964 26.1001 90.4759 26.0715 90.6465 26.1117L90.1871 28.0583ZM91.1877 27.899C91.4873 27.7164 91.703 27.4231 91.7878 27.0826L89.8472 26.5989C89.8896 26.4289 89.9973 26.2824 90.1468 26.1912L91.1877 27.899ZM91.7908 27.0704L92.304 24.8958L90.3575 24.4364L89.8443 26.6111L91.7908 27.0704ZM92.304 24.8959C92.3442 24.7254 92.3505 24.5487 92.3224 24.3758L90.3483 24.696C90.3342 24.6097 90.3374 24.5214 90.3575 24.4363L92.304 24.8959ZM92.3224 24.3757C92.2944 24.2028 92.2325 24.0371 92.1404 23.8881L90.4391 24.9396C90.3931 24.8651 90.3623 24.7824 90.3483 24.696L92.3224 24.3757ZM92.1405 23.8881C92.0483 23.7391 91.9278 23.6097 91.7857 23.5072L90.6163 25.1297C90.5453 25.0786 90.4851 25.014 90.4391 24.9395L92.1405 23.8881ZM91.7857 23.5072C91.6435 23.4048 91.4827 23.3314 91.3122 23.2911L90.8528 25.2377C90.7676 25.2176 90.6873 25.1809 90.6163 25.1298L91.7857 23.5072ZM95.9479 3.6491C95.2312 3.4797 94.5123 3.92363 94.3429 4.64078L96.2894 5.10041C96.2048 5.45851 95.8462 5.68016 95.4879 5.59547L95.9479 3.6491ZM94.3429 4.64091L90.0395 22.876L91.986 23.3354L96.2894 5.10028L94.3429 4.64091ZM90.0383 22.8811C89.9591 23.2247 90.0192 23.5856 90.2054 23.8851L91.9038 22.829C91.9968 22.9785 92.0268 23.1587 91.9872 23.3303L90.0383 22.8811ZM90.2054 23.8851C90.3915 24.1845 90.6887 24.398 91.0318 24.479L91.4912 22.5324C91.6625 22.5729 91.8109 22.6795 91.9038 22.829L90.2054 23.8851ZM91.0318 24.479C91.375 24.56 91.7362 24.5018 92.0366 24.3172L90.9895 22.6132C91.1395 22.5211 91.3198 22.492 91.4912 22.5324L91.0318 24.479ZM92.0366 24.3172C92.337 24.1326 92.5521 23.8366 92.6348 23.4939L90.6907 23.0243C90.7321 22.8532 90.8395 22.7054 90.9895 22.6132L92.0366 24.3172ZM92.6361 23.4888L96.9395 5.25368L94.9929 4.7943L90.6895 23.0294L92.6361 23.4888ZM96.9395 5.25366C97.0207 4.90933 96.9619 4.54684 96.7758 4.24591L95.0746 5.29751C94.9817 5.14725 94.9523 4.96625 94.9929 4.79432L96.9395 5.25366ZM96.7758 4.24591C96.5898 3.94499 96.2919 3.73028 95.9476 3.64902L95.4882 5.59555C95.3163 5.55497 95.1675 5.44776 95.0746 5.29751L96.7758 4.24591ZM95.1983 3.66365C94.8579 3.56746 94.4932 3.61042 94.1845 3.78308L95.1607 5.52865C95.0065 5.61487 94.8245 5.63632 94.6545 5.58829L95.1983 3.66365ZM94.1845 3.78308C93.8758 3.95574 93.6482 4.24397 93.552 4.58437L95.4765 5.12856C95.4285 5.29853 95.3149 5.44244 95.1607 5.52866L94.1845 3.78308ZM93.552 4.58439L87.3836 26.4012L89.3081 26.9453L95.4765 5.12853L93.552 4.58439ZM87.3836 26.401C87.3359 26.5696 87.3219 26.7459 87.3424 26.9199L89.3287 26.6863C89.3389 26.7732 89.3319 26.8613 89.3081 26.9454L87.3836 26.401ZM87.3424 26.9199C87.3628 27.0939 87.4174 27.2621 87.5029 27.415L89.2486 26.4391C89.2912 26.5154 89.3185 26.5994 89.3287 26.6863L87.3424 26.9199ZM87.5029 27.415C87.5883 27.5679 87.7031 27.7025 87.8406 27.8111L89.0799 26.2413C89.1486 26.2955 89.2059 26.3627 89.2486 26.4391L87.5029 27.415ZM87.8406 27.8111C87.9781 27.9196 88.1357 28 88.3043 28.0477L88.8484 26.1231C88.9326 26.1469 89.0112 26.1871 89.0799 26.2413L87.8406 27.8111ZM88.3034 28.0475C88.4215 28.081 88.5436 28.098 88.6664 28.0981L88.6684 26.0981C88.7295 26.0982 88.7903 26.1067 88.8492 26.1234L88.3034 28.0475ZM88.6684 28.0981C88.9587 28.0978 89.2409 28.0029 89.4724 27.8276L88.265 26.2331C88.3806 26.1457 88.5214 26.0983 88.6663 26.0981L88.6684 28.0981ZM89.4723 27.8276C89.7038 27.6524 89.8717 27.4065 89.9507 27.1272L88.0263 26.5827C88.0657 26.4433 88.1495 26.3206 88.2651 26.2331L89.4723 27.8276ZM89.9508 27.127L96.1192 5.31028L94.1946 4.76614L88.0262 26.5829L89.9508 27.127ZM96.1192 5.31013C96.2154 4.96974 96.1725 4.60508 95.9998 4.29634L94.2542 5.27239C94.168 5.11826 94.1466 4.93622 94.1946 4.76629L96.1192 5.31013ZM95.9998 4.29634C95.8272 3.98761 95.5391 3.76007 95.1987 3.66375L94.6541 5.58819C94.4842 5.54011 94.3404 5.42651 94.2542 5.27239L95.9998 4.29634Z" fill="black" mask="url(#path-15-inside-1_119_829)"/>
<defs>
<clipPath id="clip0_119_829">
<rect width="22.4848" height="22.4848" fill="white" transform="translate(0 4.61328)"/>
</clipPath>
<clipPath id="clip1_119_829">
<rect width="22.4848" height="22.4848" fill="white" transform="translate(159 4.61328)"/>
</clipPath>
</defs>
</svg>
