<svg width="182" height="37" viewBox="0 0 182 37" fill="none" xmlns="http://www.w3.org/2000/svg">
<path d="M75.3304 0C69.8155 0 65.3284 4.83791 65.3284 10.7841V26.5455H64.559C64.3549 26.5455 64.1592 26.6329 64.015 26.7884C63.8707 26.944 63.7896 27.155 63.7896 27.375V30.2154C63.1045 30.5381 62.5215 31.0689 62.1116 31.743C61.7017 32.4171 61.4827 33.2053 61.4814 34.0114V35.6705C61.4814 35.8905 61.5625 36.1015 61.7068 36.257C61.8511 36.4126 62.0468 36.5 62.2508 36.5H88.4101C88.6141 36.5 88.8098 36.4126 88.9541 36.257C89.0984 36.1015 89.1794 35.8905 89.1794 35.6705V34.0114C89.1782 33.2053 88.9592 32.4171 88.5493 31.743C88.1394 31.0689 87.5564 30.5381 86.8713 30.2154V27.375C86.8713 27.155 86.7902 26.944 86.6459 26.7884C86.5016 26.6329 86.3059 26.5455 86.1019 26.5455H85.3325V10.7841C85.3325 4.83791 80.8454 0 75.3304 0ZM66.8672 10.7841C67.3311 -1.31981 83.3298 -1.31981 83.7937 10.7841V26.5455H66.8672V10.7841ZM65.3284 28.2045H85.3325V29.8636H65.3284V28.2045ZM87.6407 34.0114V34.8409H63.0202V34.0114C63.0202 32.6393 64.0558 31.5227 65.3284 31.5227H85.3325C86.6051 31.5227 87.6407 32.6393 87.6407 34.0114Z" fill="#F2F2F7"/>
<path d="M78.4079 9.1247H76.0998V6.63606C76.0998 6.41605 76.0187 6.20506 75.8744 6.04949C75.7301 5.89392 75.5344 5.80652 75.3304 5.80652C75.1263 5.80652 74.9306 5.89392 74.7863 6.04949C74.642 6.20506 74.561 6.41605 74.561 6.63606V9.1247H72.2528C71.248 9.12968 71.2449 10.7788 72.2528 10.7838H74.561V18.2497C74.5641 19.3298 76.0959 19.3381 76.0998 18.2497V10.7838H78.4079C79.412 10.7796 79.4158 9.12885 78.4079 9.1247Z" fill="#F2F2F7"/>
<path d="M105.369 0C99.8536 0 95.3665 4.83791 95.3665 10.7841V26.5455H94.5971C94.393 26.5455 94.1973 26.6329 94.053 26.7884C93.9088 26.944 93.8277 27.155 93.8277 27.375V30.2154C93.1426 30.5381 92.5595 31.0689 92.1497 31.743C91.7398 32.4171 91.5208 33.2053 91.5195 34.0114V35.6705C91.5195 35.8905 91.6006 36.1015 91.7449 36.257C91.8892 36.4126 92.0849 36.5 92.2889 36.5H118.448C118.652 36.5 118.848 36.4126 118.992 36.257C119.136 36.1015 119.218 35.8905 119.218 35.6705V34.0114C119.216 33.2053 118.997 32.4171 118.587 31.743C118.178 31.0689 117.594 30.5381 116.909 30.2154V27.375C116.909 27.155 116.828 26.944 116.684 26.7884C116.54 26.6329 116.344 26.5455 116.14 26.5455H115.371V10.7841C115.371 4.83791 110.884 0 105.369 0ZM96.9053 10.7841C97.3692 -1.31981 113.368 -1.31981 113.832 10.7841V26.5455H96.9053V10.7841ZM95.3665 28.2045H115.371V29.8636H95.3665V28.2045ZM117.679 34.0114V34.8409H93.0583V34.0114C93.0583 32.6393 94.0939 31.5227 95.3665 31.5227H115.371C116.643 31.5227 117.679 32.6393 117.679 34.0114Z" fill="#F2F2F7"/>
<path d="M108.446 9.1247H106.138V6.63606C106.138 6.41605 106.057 6.20506 105.913 6.04949C105.768 5.89392 105.573 5.80652 105.368 5.80652C105.164 5.80652 104.969 5.89392 104.824 6.04949C104.68 6.20506 104.599 6.41605 104.599 6.63606V9.1247H102.291C101.286 9.12968 101.283 10.7788 102.291 10.7838H104.599V18.2497C104.602 19.3298 106.134 19.3381 106.138 18.2497V10.7838H108.446C109.45 10.7796 109.454 9.12885 108.446 9.1247Z" fill="#F2F2F7"/>
<path d="M54.0675 4C49.7613 4 46.2577 7.51245 46.2577 11.8295V23.2727H45.6569C45.4976 23.2727 45.3448 23.3362 45.2321 23.4491C45.1195 23.5621 45.0562 23.7153 45.0562 23.875V25.9372C44.5213 26.1715 44.066 26.5569 43.7459 27.0463C43.4259 27.5357 43.2549 28.108 43.2539 28.6932V29.8977C43.2539 30.0575 43.3172 30.2107 43.4299 30.3236C43.5425 30.4365 43.6953 30.5 43.8547 30.5H64.2803C64.4397 30.5 64.5925 30.4365 64.7051 30.3236C64.8178 30.2107 64.8811 30.0575 64.8811 29.8977V28.6932C64.8801 28.108 64.7091 27.5357 64.3891 27.0463C64.069 26.5569 63.6138 26.1715 63.0788 25.9372V23.875C63.0788 23.7153 63.0155 23.5621 62.9029 23.4491C62.7902 23.3362 62.6374 23.2727 62.4781 23.2727H61.8773V11.8295C61.8773 7.51245 58.3737 4 54.0675 4ZM47.4592 11.8295C47.8215 3.04178 60.3136 3.04178 60.6758 11.8295V23.2727H47.4592V11.8295ZM46.2577 24.4773H61.8773V25.6818H46.2577V24.4773ZM63.6796 28.6932V29.2955H44.4554V28.6932C44.4554 27.697 45.264 26.8864 46.2577 26.8864H61.8773C62.871 26.8864 63.6796 27.697 63.6796 28.6932Z" fill="#FDFCFF" fill-opacity="0.5"/>
<path d="M56.4706 10.6239H54.6683V8.81712C54.6683 8.65738 54.605 8.50419 54.4924 8.39125C54.3797 8.2783 54.2269 8.21484 54.0676 8.21484C53.9082 8.21484 53.7554 8.2783 53.6428 8.39125C53.5301 8.50419 53.4668 8.65738 53.4668 8.81712V10.6239H51.6645C50.88 10.6275 50.8775 11.8249 51.6645 11.8285H53.4668V17.2489C53.4692 18.0331 54.6653 18.0391 54.6683 17.2489V11.8285H56.4706C57.2546 11.8255 57.2576 10.6269 56.4706 10.6239Z" fill="#FDFCFF" fill-opacity="0.5"/>
<path d="M33.2413 4C28.9351 4 25.4315 7.51245 25.4315 11.8295V23.2727H24.8308C24.6714 23.2727 24.5186 23.3362 24.406 23.4491C24.2933 23.5621 24.23 23.7153 24.23 23.875V25.9372C23.6951 26.1715 23.2398 26.5569 22.9197 27.0463C22.5997 27.5357 22.4287 28.108 22.4277 28.6932V29.8977C22.4277 30.0575 22.491 30.2107 22.6037 30.3236C22.7164 30.4365 22.8692 30.5 23.0285 30.5H43.4542C43.6135 30.5 43.7663 30.4365 43.879 30.3236C43.9916 30.2107 44.0549 30.0575 44.0549 29.8977V28.6932C44.0539 28.108 43.883 27.5357 43.5629 27.0463C43.2429 26.5569 42.7876 26.1715 42.2527 25.9372V23.875C42.2527 23.7153 42.1894 23.5621 42.0767 23.4491C41.964 23.3362 41.8112 23.2727 41.6519 23.2727H41.0512V11.8295C41.0512 7.51245 37.5476 4 33.2413 4ZM26.633 11.8295C26.9953 3.04178 39.4874 3.04178 39.8496 11.8295V23.2727H26.633V11.8295ZM25.4315 24.4773H41.0512V25.6818H25.4315V24.4773ZM42.8534 28.6932V29.2955H23.6292V28.6932C23.6292 27.697 24.4379 26.8864 25.4315 26.8864H41.0512C42.0448 26.8864 42.8534 27.697 42.8534 28.6932Z" fill="#FDFCFF" fill-opacity="0.5"/>
<path d="M35.6444 10.625H33.8421V8.81822C33.8421 8.65848 33.7788 8.50529 33.6662 8.39234C33.5535 8.2794 33.4007 8.21594 33.2414 8.21594C33.0821 8.21594 32.9293 8.2794 32.8166 8.39234C32.7039 8.50529 32.6406 8.65848 32.6406 8.81822V10.625H30.8384C30.0538 10.6286 30.0514 11.826 30.8384 11.8296H32.6406V17.25C32.643 18.0342 33.8391 18.0402 33.8421 17.25V11.8296H35.6444C36.4284 11.8266 36.4314 10.628 35.6444 10.625Z" fill="#FDFCFF" fill-opacity="0.5"/>
<path d="M126.159 4C121.853 4 118.349 7.51245 118.349 11.8295V23.2727H117.749C117.589 23.2727 117.437 23.3362 117.324 23.4491C117.211 23.5621 117.148 23.7153 117.148 23.875V25.9372C116.613 26.1715 116.158 26.5569 115.838 27.0463C115.518 27.5357 115.347 28.108 115.346 28.6932V29.8977C115.346 30.0575 115.409 30.2107 115.522 30.3236C115.634 30.4365 115.787 30.5 115.946 30.5H136.372C136.531 30.5 136.684 30.4365 136.797 30.3236C136.91 30.2107 136.973 30.0575 136.973 29.8977V28.6932C136.972 28.108 136.801 27.5357 136.481 27.0463C136.161 26.5569 135.706 26.1715 135.171 25.9372V23.875C135.171 23.7153 135.107 23.5621 134.995 23.4491C134.882 23.3362 134.729 23.2727 134.57 23.2727H133.969V11.8295C133.969 7.51245 130.466 4 126.159 4ZM119.551 11.8295C119.913 3.04178 132.405 3.04178 132.768 11.8295V23.2727H119.551V11.8295ZM118.349 24.4773H133.969V25.6818H118.349V24.4773ZM135.771 28.6932V29.2955H116.547V28.6932C116.547 27.697 117.356 26.8864 118.349 26.8864H133.969C134.963 26.8864 135.771 27.697 135.771 28.6932Z" fill="#FDFCFF" fill-opacity="0.5"/>
<path d="M128.562 10.6239H126.76V8.81712C126.76 8.65738 126.697 8.50419 126.584 8.39125C126.471 8.2783 126.319 8.21484 126.159 8.21484C126 8.21484 125.847 8.2783 125.735 8.39125C125.622 8.50419 125.559 8.65738 125.559 8.81712V10.6239H123.756C122.972 10.6275 122.969 11.8249 123.756 11.8285H125.559V17.2489C125.561 18.0331 126.757 18.0391 126.76 17.2489V11.8285H128.562C129.346 11.8255 129.349 10.6269 128.562 10.6239Z" fill="#FDFCFF" fill-opacity="0.5"/>
<path d="M146.984 4C142.678 4 139.175 7.51245 139.175 11.8295V23.2727H138.574C138.415 23.2727 138.262 23.3362 138.149 23.4491C138.036 23.5621 137.973 23.7153 137.973 23.875V25.9372C137.438 26.1715 136.983 26.5569 136.663 27.0463C136.343 27.5357 136.172 28.108 136.171 28.6932V29.8977C136.171 30.0575 136.234 30.2107 136.347 30.3236C136.46 30.4365 136.612 30.5 136.772 30.5H157.197C157.357 30.5 157.509 30.4365 157.622 30.3236C157.735 30.2107 157.798 30.0575 157.798 29.8977V28.6932C157.797 28.108 157.626 27.5357 157.306 27.0463C156.986 26.5569 156.531 26.1715 155.996 25.9372V23.875C155.996 23.7153 155.933 23.5621 155.82 23.4491C155.707 23.3362 155.554 23.2727 155.395 23.2727H154.794V11.8295C154.794 7.51245 151.291 4 146.984 4ZM140.376 11.8295C140.738 3.04178 153.231 3.04178 153.593 11.8295V23.2727H140.376V11.8295ZM139.175 24.4773H154.794V25.6818H139.175V24.4773ZM156.597 28.6932V29.2955H137.372V28.6932C137.372 27.697 138.181 26.8864 139.175 26.8864H154.794C155.788 26.8864 156.597 27.697 156.597 28.6932Z" fill="#FDFCFF" fill-opacity="0.5"/>
<path d="M149.388 10.625H147.585V8.81822C147.585 8.65848 147.522 8.50529 147.409 8.39234C147.297 8.2794 147.144 8.21594 146.985 8.21594C146.825 8.21594 146.672 8.2794 146.56 8.39234C146.447 8.50529 146.384 8.65848 146.384 8.81822V10.625H144.582C143.797 10.6286 143.795 11.826 144.582 11.8296H146.384V17.25C146.386 18.0342 147.582 18.0402 147.585 17.25V11.8296H149.388C150.172 11.8266 150.175 10.628 149.388 10.625Z" fill="#FDFCFF" fill-opacity="0.5"/>
<g clip-path="url(#clip0_390_1717)">
<path d="M16.8271 13.4486L15.5444 7.99946C15.524 7.91467 15.4709 7.84143 15.3968 7.79576C15.3226 7.75009 15.2335 7.7357 15.1488 7.75574C15.0641 7.77577 14.9908 7.8286 14.9449 7.90268C14.8989 7.97675 14.8841 8.06605 14.9036 8.15105L16.1864 13.6001C16.2065 13.6853 16.2594 13.759 16.3337 13.805C16.4079 13.851 16.4973 13.8656 16.5823 13.8456C16.6244 13.8356 16.6641 13.8174 16.6992 13.7921C16.7342 13.7668 16.764 13.7348 16.7867 13.6979C16.8095 13.661 16.8247 13.62 16.8317 13.5772C16.8386 13.5345 16.837 13.4907 16.8271 13.4486ZM20.6199 29.5604L17.0771 14.5103C17.057 14.4251 17.004 14.3514 16.9298 14.3054C16.8555 14.2594 16.7661 14.2448 16.6811 14.2649C16.5961 14.285 16.5226 14.3381 16.4767 14.4125C16.4308 14.487 16.4163 14.5767 16.4363 14.6619L19.9791 29.7119C19.9992 29.7971 20.0522 29.8708 20.1264 29.9168C20.2007 29.9628 20.2901 29.9774 20.3751 29.9573C20.552 29.9155 20.6616 29.7377 20.6199 29.5604ZM2.71012 27.1658C2.53345 27.1241 2.35587 27.2338 2.31412 27.4112L1.80822 29.5604C1.78938 29.6451 1.80461 29.7339 1.8506 29.8074C1.89659 29.881 1.96964 29.9334 2.05392 29.9533C2.1382 29.9733 2.22692 29.9591 2.30086 29.9139C2.3748 29.8688 2.42801 29.7962 2.44895 29.712L2.95486 27.5628C2.96479 27.5206 2.96634 27.4769 2.95942 27.4341C2.9525 27.3914 2.93724 27.3504 2.91451 27.3135C2.89178 27.2766 2.86204 27.2446 2.82697 27.2193C2.7919 27.1939 2.75219 27.1758 2.71012 27.1658ZM7.27964 7.75406C7.10302 7.7122 6.92543 7.82204 6.88364 7.99946L2.64143 26.0207C2.62189 26.1057 2.63671 26.195 2.68266 26.2691C2.7286 26.3432 2.80193 26.396 2.88661 26.416C2.97129 26.4361 3.06044 26.4217 3.13457 26.376C3.2087 26.3303 3.26178 26.2571 3.28221 26.1723L7.52442 8.15105C7.54447 8.06587 7.52995 7.97618 7.48404 7.90173C7.43814 7.82728 7.36461 7.77416 7.27964 7.75406ZM22.4156 29.5464L16.335 7.98545C16.3236 7.94329 16.304 7.90381 16.2773 7.8693C16.2507 7.83478 16.2174 7.80592 16.1795 7.78439C16.1416 7.76285 16.0998 7.74906 16.0566 7.74383C16.0134 7.7386 15.9695 7.74202 15.9276 7.7539C15.8857 7.76579 15.8465 7.78589 15.8124 7.81305C15.7783 7.8402 15.7499 7.87388 15.7289 7.91212C15.7079 7.95036 15.6946 7.9924 15.6899 8.03581C15.6852 8.07922 15.6891 8.12314 15.7015 8.16502L21.7821 29.7259C21.8016 29.7951 21.8431 29.8559 21.9002 29.8993C21.9574 29.9427 22.027 29.9662 22.0987 29.9662C22.1284 29.9662 22.1585 29.9622 22.1885 29.9537C22.2301 29.9419 22.2689 29.922 22.3029 29.8952C22.3368 29.8683 22.3651 29.835 22.3862 29.7972C22.4073 29.7594 22.4208 29.7177 22.4258 29.6747C22.4309 29.6317 22.4274 29.5881 22.4156 29.5464ZM6.49943 7.7577C6.41542 7.7339 6.32542 7.74453 6.24923 7.78725C6.17304 7.82997 6.11689 7.90128 6.09314 7.98549L0.0124299 29.5464C0.000662269 29.5881 -0.00279617 29.6317 0.00225208 29.6748C0.00730033 29.7178 0.0207564 29.7594 0.0418518 29.7973C0.0629473 29.8351 0.0912688 29.8684 0.125199 29.8952C0.15913 29.9221 0.198004 29.942 0.239603 29.9538C0.268803 29.9621 0.299007 29.9663 0.329359 29.9663C0.40102 29.9662 0.470701 29.9427 0.527832 29.8994C0.584964 29.856 0.626429 29.7951 0.645938 29.726L6.72664 8.16511C6.75038 8.08087 6.73979 7.99064 6.69718 7.91424C6.65457 7.83784 6.58344 7.78153 6.49943 7.7577ZM12.0663 8.06507C12.0651 8.02171 12.0553 7.97901 12.0376 7.93943C12.0199 7.89986 11.9946 7.86419 11.963 7.83447C11.9315 7.80476 11.8944 7.78159 11.854 7.76629C11.8135 7.751 11.7704 7.74389 11.7271 7.74536C11.6839 7.74668 11.6414 7.75653 11.602 7.77433C11.5626 7.79214 11.527 7.81755 11.4974 7.84913C11.4678 7.8807 11.4447 7.91781 11.4294 7.95835C11.4141 7.99888 11.4069 8.04204 11.4082 8.08536L11.4469 9.34815H10.9812L11.0199 8.08536C11.0213 8.04204 11.0141 7.99888 10.9988 7.95835C10.9835 7.91782 10.9603 7.88071 10.9307 7.84914C10.9011 7.81757 10.8656 7.79215 10.8262 7.77435C10.7868 7.75654 10.7442 7.74669 10.701 7.74536C10.5215 7.73978 10.3675 7.8829 10.3619 8.06507L10.3127 9.66808C10.3114 9.71225 10.3189 9.75626 10.3348 9.79748C10.3507 9.8387 10.3747 9.87629 10.4054 9.90802C10.4361 9.93975 10.4729 9.96497 10.5135 9.98219C10.5541 9.99941 10.5977 10.0083 10.6418 10.0082H11.7865C11.8306 10.0082 11.8742 9.99934 11.9148 9.98211C11.9554 9.96488 11.9921 9.93966 12.0228 9.90794C12.0534 9.87621 12.0775 9.83864 12.0934 9.79743C12.1093 9.75623 12.1168 9.71224 12.1155 9.66808L12.0663 8.06507ZM12.1409 10.497C12.1382 10.4113 12.1024 10.33 12.041 10.2703C11.9796 10.2106 11.8974 10.1772 11.8118 10.1772H10.6163C10.5307 10.1772 10.4485 10.2106 10.3871 10.2703C10.3257 10.33 10.2899 10.4113 10.2872 10.497L10.2008 13.3114C10.1994 13.3556 10.2069 13.3996 10.2228 13.4408C10.2388 13.482 10.2628 13.5196 10.2935 13.5513C10.3242 13.5831 10.3609 13.6083 10.4015 13.6255C10.4421 13.6427 10.4857 13.6516 10.5298 13.6516H11.8983C11.9424 13.6516 11.986 13.6427 12.0266 13.6255C12.0672 13.6082 12.1039 13.583 12.1346 13.5513C12.1653 13.5196 12.1893 13.482 12.2052 13.4408C12.2212 13.3996 12.2287 13.3556 12.2273 13.3114L12.1409 10.497ZM10.8692 12.9916L10.9354 10.8372H11.4926L11.5588 12.9916H10.8692ZM12.2598 14.3692C12.2572 14.2835 12.2213 14.2021 12.1599 14.1424C12.0985 14.0827 12.0163 14.0494 11.9308 14.0494H10.4973C10.4117 14.0494 10.3296 14.0828 10.2681 14.1425C10.2067 14.2022 10.1709 14.2835 10.1683 14.3692L10.0695 17.5813C10.0682 17.6255 10.0757 17.6695 10.0916 17.7107C10.1075 17.7519 10.1315 17.7895 10.1622 17.8212C10.1929 17.853 10.2296 17.8782 10.2702 17.8954C10.3108 17.9127 10.3545 17.9215 10.3986 17.9215H12.0295C12.0736 17.9215 12.1173 17.9126 12.1578 17.8954C12.1984 17.8782 12.2352 17.8529 12.2658 17.8212C12.2965 17.7895 12.3205 17.7519 12.3365 17.7107C12.3524 17.6695 12.3599 17.6255 12.3586 17.5813L12.2598 14.3692ZM10.738 17.2615L10.8165 14.7094H11.6116L11.6901 17.2615H10.738ZM12.4042 19.0743C12.4016 18.9886 12.3658 18.9072 12.3044 18.8475C12.243 18.7878 12.1608 18.7544 12.0752 18.7544H10.3529C10.2674 18.7544 10.1852 18.7878 10.1238 18.8475C10.0623 18.9072 10.0265 18.9886 10.0239 19.0743L9.90365 22.9935C9.90227 23.0377 9.90976 23.0817 9.92567 23.1229C9.94158 23.1641 9.96559 23.2017 9.99628 23.2335C10.027 23.2652 10.0637 23.2904 10.1043 23.3077C10.1449 23.3249 10.1885 23.3338 10.2326 23.3337H12.1954C12.2395 23.3337 12.2831 23.3248 12.3237 23.3076C12.3643 23.2904 12.401 23.2652 12.4317 23.2334C12.4624 23.2017 12.4864 23.1641 12.5024 23.1229C12.5183 23.0817 12.5258 23.0377 12.5245 22.9936L12.4042 19.0743ZM10.5721 22.6737L10.6721 19.4145H11.756L11.8559 22.6737H10.5721ZM12.5825 24.8821C12.5798 24.7964 12.544 24.7151 12.4825 24.6554C12.4211 24.5957 12.3389 24.5623 12.2533 24.5623H10.1747C10.0892 24.5623 10.007 24.5957 9.94556 24.6554C9.88414 24.7151 9.84832 24.7964 9.84569 24.8821L9.69995 29.626C9.69862 29.6693 9.70581 29.7124 9.72112 29.753C9.73643 29.7935 9.75955 29.8306 9.78916 29.8622C9.81877 29.8938 9.8543 29.9192 9.89371 29.937C9.93312 29.9548 9.97565 29.9646 10.0189 29.966C10.1991 29.9715 10.3524 29.8285 10.358 29.6463L10.4939 25.2223H11.9341L12.0701 29.6463C12.0714 29.6896 12.0812 29.7322 12.099 29.7717C12.1167 29.8113 12.1421 29.8469 12.1736 29.8766C12.2051 29.9062 12.2421 29.9294 12.2825 29.9448C12.3229 29.9601 12.366 29.9673 12.4092 29.966C12.4524 29.9646 12.4949 29.9548 12.5343 29.937C12.5737 29.9192 12.6093 29.8938 12.6389 29.8622C12.6685 29.8306 12.6916 29.7935 12.7069 29.753C12.7222 29.7125 12.7294 29.6693 12.7281 29.626L12.5825 24.8821Z" fill="#FDFCFF" fill-opacity="0.5"/>
</g>
<g clip-path="url(#clip1_390_1717)">
<path d="M175.427 13.4486L174.144 7.99946C174.124 7.91467 174.071 7.84143 173.996 7.79576C173.922 7.75009 173.833 7.7357 173.748 7.75574C173.664 7.77577 173.59 7.8286 173.544 7.90268C173.499 7.97675 173.484 8.06605 173.503 8.15105L174.786 13.6001C174.806 13.6853 174.859 13.759 174.933 13.805C175.008 13.851 175.097 13.8656 175.182 13.8456C175.224 13.8356 175.264 13.8174 175.299 13.7921C175.334 13.7668 175.364 13.7348 175.386 13.6979C175.409 13.661 175.424 13.62 175.431 13.5772C175.438 13.5345 175.437 13.4907 175.427 13.4486ZM179.219 29.5604L175.677 14.5103C175.657 14.4251 175.604 14.3514 175.529 14.3054C175.455 14.2594 175.366 14.2448 175.281 14.2649C175.196 14.285 175.122 14.3381 175.076 14.4125C175.03 14.487 175.016 14.5767 175.036 14.6619L178.579 29.7119C178.599 29.7971 178.652 29.8708 178.726 29.9168C178.8 29.9628 178.89 29.9774 178.975 29.9573C179.152 29.9155 179.261 29.7377 179.219 29.5604ZM161.31 27.1658C161.133 27.1241 160.955 27.2338 160.914 27.4112L160.408 29.5604C160.389 29.6451 160.404 29.7339 160.45 29.8074C160.496 29.881 160.569 29.9334 160.654 29.9533C160.738 29.9733 160.827 29.9591 160.9 29.9139C160.974 29.8688 161.028 29.7962 161.049 29.712L161.554 27.5628C161.564 27.5206 161.566 27.4769 161.559 27.4341C161.552 27.3914 161.537 27.3504 161.514 27.3135C161.491 27.2766 161.462 27.2446 161.427 27.2193C161.392 27.1939 161.352 27.1758 161.31 27.1658ZM165.879 7.75406C165.703 7.7122 165.525 7.82204 165.483 7.99946L161.241 26.0207C161.222 26.1057 161.236 26.195 161.282 26.2691C161.328 26.3432 161.402 26.396 161.486 26.416C161.571 26.4361 161.66 26.4217 161.734 26.376C161.808 26.3303 161.861 26.2571 161.882 26.1723L166.124 8.15105C166.144 8.06587 166.13 7.97618 166.084 7.90173C166.038 7.82728 165.964 7.77416 165.879 7.75406ZM181.015 29.5464L174.935 7.98545C174.923 7.94329 174.904 7.90381 174.877 7.8693C174.85 7.83478 174.817 7.80592 174.779 7.78439C174.741 7.76285 174.699 7.74906 174.656 7.74383C174.613 7.7386 174.569 7.74202 174.527 7.7539C174.485 7.76579 174.446 7.78589 174.412 7.81305C174.378 7.8402 174.35 7.87388 174.328 7.91212C174.307 7.95036 174.294 7.9924 174.289 8.03581C174.285 8.07922 174.289 8.12314 174.301 8.16502L180.382 29.7259C180.401 29.7951 180.443 29.8559 180.5 29.8993C180.557 29.9427 180.627 29.9662 180.698 29.9662C180.728 29.9662 180.758 29.9622 180.788 29.9537C180.83 29.9419 180.869 29.922 180.902 29.8952C180.936 29.8683 180.965 29.835 180.986 29.7972C181.007 29.7594 181.02 29.7177 181.025 29.6747C181.03 29.6317 181.027 29.5881 181.015 29.5464ZM165.099 7.7577C165.015 7.7339 164.925 7.74453 164.849 7.78725C164.773 7.82997 164.716 7.90128 164.693 7.98549L158.612 29.5464C158.6 29.5881 158.597 29.6317 158.602 29.6748C158.607 29.7178 158.62 29.7594 158.641 29.7973C158.663 29.8351 158.691 29.8684 158.725 29.8952C158.759 29.9221 158.798 29.942 158.839 29.9538C158.868 29.9621 158.899 29.9663 158.929 29.9663C159.001 29.9662 159.07 29.9427 159.127 29.8994C159.185 29.856 159.226 29.7951 159.246 29.726L165.326 8.16511C165.35 8.08087 165.339 7.99064 165.297 7.91424C165.254 7.83784 165.183 7.78153 165.099 7.7577ZM170.666 8.06507C170.665 8.02171 170.655 7.97901 170.637 7.93943C170.62 7.89986 170.594 7.86419 170.563 7.83447C170.531 7.80476 170.494 7.78159 170.454 7.76629C170.413 7.751 170.37 7.74389 170.327 7.74536C170.284 7.74668 170.241 7.75653 170.202 7.77433C170.162 7.79214 170.127 7.81755 170.097 7.84913C170.067 7.8807 170.044 7.91781 170.029 7.95835C170.014 7.99888 170.006 8.04204 170.008 8.08536L170.047 9.34815H169.581L169.62 8.08536C169.621 8.04204 169.614 7.99888 169.598 7.95835C169.583 7.91782 169.56 7.88071 169.53 7.84914C169.501 7.81757 169.465 7.79215 169.426 7.77435C169.386 7.75654 169.344 7.74669 169.301 7.74536C169.121 7.73978 168.967 7.8829 168.961 8.06507L168.912 9.66808C168.911 9.71225 168.918 9.75626 168.934 9.79748C168.95 9.8387 168.974 9.87629 169.005 9.90802C169.036 9.93975 169.072 9.96497 169.113 9.98219C169.154 9.99941 169.197 10.0083 169.241 10.0082H170.386C170.43 10.0082 170.474 9.99934 170.514 9.98211C170.555 9.96488 170.592 9.93966 170.622 9.90794C170.653 9.87621 170.677 9.83864 170.693 9.79743C170.709 9.75623 170.716 9.71224 170.715 9.66808L170.666 8.06507ZM170.74 10.497C170.738 10.4113 170.702 10.33 170.641 10.2703C170.579 10.2106 170.497 10.1772 170.411 10.1772H169.216C169.13 10.1772 169.048 10.2106 168.987 10.2703C168.925 10.33 168.889 10.4113 168.887 10.497L168.8 13.3114C168.799 13.3556 168.807 13.3996 168.822 13.4408C168.838 13.482 168.862 13.5196 168.893 13.5513C168.924 13.5831 168.96 13.6083 169.001 13.6255C169.042 13.6427 169.085 13.6516 169.129 13.6516H170.498C170.542 13.6516 170.586 13.6427 170.626 13.6255C170.667 13.6082 170.704 13.583 170.734 13.5513C170.765 13.5196 170.789 13.482 170.805 13.4408C170.821 13.3996 170.828 13.3556 170.827 13.3114L170.74 10.497ZM169.469 12.9916L169.535 10.8372H170.092L170.158 12.9916H169.469ZM170.859 14.3692C170.857 14.2835 170.821 14.2021 170.76 14.1424C170.698 14.0827 170.616 14.0494 170.53 14.0494H169.097C169.011 14.0494 168.929 14.0828 168.868 14.1425C168.806 14.2022 168.771 14.2835 168.768 14.3692L168.669 17.5813C168.668 17.6255 168.675 17.6695 168.691 17.7107C168.707 17.7519 168.731 17.7895 168.762 17.8212C168.793 17.853 168.829 17.8782 168.87 17.8954C168.91 17.9127 168.954 17.9215 168.998 17.9215H170.629C170.673 17.9215 170.717 17.9126 170.757 17.8954C170.798 17.8782 170.835 17.8529 170.865 17.8212C170.896 17.7895 170.92 17.7519 170.936 17.7107C170.952 17.6695 170.96 17.6255 170.958 17.5813L170.859 14.3692ZM169.338 17.2615L169.416 14.7094H170.211L170.29 17.2615H169.338ZM171.004 19.0743C171.001 18.9886 170.965 18.9072 170.904 18.8475C170.843 18.7878 170.76 18.7544 170.675 18.7544H168.953C168.867 18.7544 168.785 18.7878 168.723 18.8475C168.662 18.9072 168.626 18.9886 168.623 19.0743L168.503 22.9935C168.502 23.0377 168.509 23.0817 168.525 23.1229C168.541 23.1641 168.565 23.2017 168.596 23.2335C168.627 23.2652 168.663 23.2904 168.704 23.3077C168.745 23.3249 168.788 23.3338 168.832 23.3337H170.795C170.839 23.3337 170.883 23.3248 170.923 23.3076C170.964 23.2904 171.001 23.2652 171.031 23.2334C171.062 23.2017 171.086 23.1641 171.102 23.1229C171.118 23.0817 171.125 23.0377 171.124 22.9936L171.004 19.0743ZM169.172 22.6737L169.272 19.4145H170.356L170.456 22.6737H169.172ZM171.182 24.8821C171.179 24.7964 171.144 24.7151 171.082 24.6554C171.021 24.5957 170.939 24.5623 170.853 24.5623H168.774C168.689 24.5623 168.607 24.5957 168.545 24.6554C168.484 24.7151 168.448 24.7964 168.445 24.8821L168.3 29.626C168.298 29.6693 168.305 29.7124 168.321 29.753C168.336 29.7935 168.359 29.8306 168.389 29.8622C168.418 29.8938 168.454 29.9192 168.493 29.937C168.533 29.9548 168.575 29.9646 168.618 29.966C168.799 29.9715 168.952 29.8285 168.958 29.6463L169.094 25.2223H170.534L170.67 29.6463C170.671 29.6896 170.681 29.7322 170.699 29.7717C170.716 29.8113 170.742 29.8469 170.773 29.8766C170.805 29.9062 170.842 29.9294 170.882 29.9448C170.923 29.9601 170.966 29.9673 171.009 29.966C171.052 29.9646 171.095 29.9548 171.134 29.937C171.173 29.9192 171.209 29.8938 171.238 29.8622C171.268 29.8306 171.291 29.7935 171.307 29.753C171.322 29.7125 171.329 29.6693 171.328 29.626L171.182 24.8821Z" fill="#FDFCFF" fill-opacity="0.5"/>
</g>
<path d="M90.4519 27.5127C90.4942 27.3332 90.6739 27.2221 90.8526 27.2644C90.8952 27.2745 90.9354 27.2929 90.9709 27.3185C91.0063 27.3441 91.0364 27.3765 91.0594 27.4138C91.0824 27.4511 91.0979 27.4926 91.1049 27.5359C91.1119 27.5792 91.1103 27.6234 91.1003 27.6661L90.5884 29.8408C90.5672 29.926 90.5133 29.9994 90.4385 30.0451C90.3637 30.0908 90.2739 30.1052 90.1886 30.085C90.1034 30.0648 90.0295 30.0118 89.9829 29.9373C89.9364 29.8629 89.921 29.7731 89.94 29.6874L90.4519 27.5127Z" fill="#FDFCFF" fill-opacity="0.5"/>
<path d="M95.0757 7.87059C95.118 7.69107 95.2977 7.57993 95.4764 7.62228C95.5624 7.64262 95.6368 7.69638 95.6832 7.77171C95.7297 7.84704 95.7444 7.93779 95.7241 8.02399L91.4315 26.2591C91.4108 26.3449 91.3571 26.419 91.2821 26.4652C91.2071 26.5114 91.1169 26.526 91.0312 26.5057C90.9455 26.4854 90.8713 26.432 90.8248 26.357C90.7784 26.2821 90.7634 26.1917 90.7831 26.1057L95.0757 7.87059Z" fill="#FDFCFF" fill-opacity="0.5"/>
<path d="M94.4337 7.65587C94.5108 7.61264 94.6019 7.60189 94.6869 7.62597C94.7719 7.65009 94.8439 7.70706 94.887 7.78437C94.9301 7.86167 94.9408 7.95298 94.9168 8.03821L88.764 29.855C88.7442 29.9249 88.7023 29.9865 88.6444 30.0304C88.5866 30.0743 88.5161 30.0981 88.4436 30.0981C88.4129 30.0981 88.3823 30.0938 88.3528 30.0854C88.3107 30.0735 88.2714 30.0534 88.237 30.0262C88.2027 29.999 88.174 29.9653 88.1527 29.9271C88.1314 29.8888 88.1177 29.8467 88.1126 29.8031C88.1075 29.7596 88.111 29.7154 88.1229 29.6732L94.2758 7.85646C94.2998 7.77125 94.3566 7.69909 94.4337 7.65587Z" fill="#FDFCFF" fill-opacity="0.5"/>
<defs>
<clipPath id="clip0_390_1717">
<rect width="22.4282" height="22.4848" fill="white" transform="translate(0 7.61328)"/>
</clipPath>
<clipPath id="clip1_390_1717">
<rect width="22.4282" height="22.4848" fill="white" transform="translate(158.6 7.61328)"/>
</clipPath>
</defs>
</svg>
