<svg width="182" height="37" viewBox="0 0 182 37" fill="none" xmlns="http://www.w3.org/2000/svg">
<path d="M75.5333 5C71.5292 5 68.2715 8.51245 68.2715 12.8295V24.2727H67.7129C67.5648 24.2727 67.4227 24.3362 67.3179 24.4491C67.2132 24.5621 67.1543 24.7153 67.1543 24.875V26.9372C66.6569 27.1715 66.2336 27.5569 65.936 28.0463C65.6384 28.5357 65.4794 29.108 65.4785 29.6932V30.8977C65.4785 31.0575 65.5374 31.2107 65.6421 31.3236C65.7469 31.4365 65.889 31.5 66.0371 31.5H85.0294C85.1776 31.5 85.3197 31.4365 85.4244 31.3236C85.5292 31.2107 85.588 31.0575 85.588 30.8977V29.6932C85.5871 29.108 85.4281 28.5357 85.1305 28.0463C84.8329 27.5569 84.4096 27.1715 83.9122 26.9372V24.875C83.9122 24.7153 83.8534 24.5621 83.7486 24.4491C83.6439 24.3362 83.5018 24.2727 83.3536 24.2727H82.795V12.8295C82.795 8.51245 79.5373 5 75.5333 5ZM69.3887 12.8295C69.7255 4.04178 81.341 4.04178 81.6778 12.8295V24.2727H69.3887V12.8295ZM68.2715 25.4773H82.795V26.6818H68.2715V25.4773ZM84.4708 29.6932V30.2955H66.5957V29.6932C66.5957 28.697 67.3476 27.8864 68.2715 27.8864H82.795C83.719 27.8864 84.4708 28.697 84.4708 29.6932Z" fill="#FDFCFF" fill-opacity="0.5"/>
<path d="M77.7677 11.625H76.0919V9.81822C76.0919 9.65848 76.0331 9.50529 75.9283 9.39234C75.8236 9.2794 75.6815 9.21594 75.5334 9.21594C75.3852 9.21594 75.2431 9.2794 75.1384 9.39234C75.0336 9.50529 74.9748 9.65848 74.9748 9.81822V11.625H73.299C72.5694 11.6286 72.5672 12.826 73.299 12.8296H74.9748V18.25C74.977 19.0342 76.0892 19.0402 76.0919 18.25V12.8296H77.7677C78.4967 12.8266 78.4995 11.628 77.7677 11.625Z" fill="#FDFCFF" fill-opacity="0.5"/>
<g clip-path="url(#clip0_390_1769)">
<path d="M16.8271 14.4486L15.5444 8.99946C15.524 8.91467 15.4709 8.84143 15.3968 8.79576C15.3226 8.75009 15.2335 8.7357 15.1488 8.75574C15.0641 8.77577 14.9908 8.8286 14.9449 8.90268C14.8989 8.97675 14.8841 9.06605 14.9036 9.15105L16.1864 14.6001C16.2065 14.6853 16.2594 14.759 16.3337 14.805C16.4079 14.851 16.4973 14.8656 16.5823 14.8456C16.6244 14.8356 16.6641 14.8174 16.6992 14.7921C16.7342 14.7668 16.764 14.7348 16.7867 14.6979C16.8095 14.661 16.8247 14.62 16.8317 14.5772C16.8386 14.5345 16.837 14.4907 16.8271 14.4486ZM20.6199 30.5604L17.0771 15.5103C17.057 15.4251 17.004 15.3514 16.9298 15.3054C16.8555 15.2594 16.7661 15.2448 16.6811 15.2649C16.5961 15.285 16.5226 15.3381 16.4767 15.4125C16.4308 15.487 16.4163 15.5767 16.4363 15.6619L19.9791 30.7119C19.9992 30.7971 20.0522 30.8708 20.1264 30.9168C20.2007 30.9628 20.2901 30.9774 20.3751 30.9573C20.552 30.9155 20.6616 30.7377 20.6199 30.5604ZM2.71012 28.1658C2.53345 28.1241 2.35587 28.2338 2.31412 28.4112L1.80822 30.5604C1.78938 30.6451 1.80461 30.7339 1.8506 30.8074C1.89659 30.881 1.96964 30.9334 2.05392 30.9533C2.1382 30.9733 2.22692 30.9591 2.30086 30.9139C2.3748 30.8688 2.42801 30.7962 2.44895 30.712L2.95486 28.5628C2.96479 28.5206 2.96634 28.4769 2.95942 28.4341C2.9525 28.3914 2.93724 28.3504 2.91451 28.3135C2.89178 28.2766 2.86204 28.2446 2.82697 28.2193C2.7919 28.1939 2.75219 28.1758 2.71012 28.1658ZM7.27964 8.75406C7.10302 8.7122 6.92543 8.82204 6.88364 8.99946L2.64143 27.0207C2.62189 27.1057 2.63671 27.195 2.68266 27.2691C2.7286 27.3432 2.80193 27.396 2.88661 27.416C2.97129 27.4361 3.06044 27.4217 3.13457 27.376C3.2087 27.3303 3.26178 27.2571 3.28221 27.1723L7.52442 9.15105C7.54447 9.06587 7.52995 8.97618 7.48404 8.90173C7.43814 8.82728 7.36461 8.77416 7.27964 8.75406ZM22.4156 30.5464L16.335 8.98545C16.3236 8.94329 16.304 8.90381 16.2773 8.8693C16.2507 8.83478 16.2174 8.80592 16.1795 8.78439C16.1416 8.76285 16.0998 8.74906 16.0566 8.74383C16.0134 8.7386 15.9695 8.74202 15.9276 8.7539C15.8857 8.76579 15.8465 8.78589 15.8124 8.81305C15.7783 8.8402 15.7499 8.87388 15.7289 8.91212C15.7079 8.95036 15.6946 8.9924 15.6899 9.03581C15.6852 9.07922 15.6891 9.12314 15.7015 9.16502L21.7821 30.7259C21.8016 30.7951 21.8431 30.8559 21.9002 30.8993C21.9574 30.9427 22.027 30.9662 22.0987 30.9662C22.1284 30.9662 22.1585 30.9622 22.1885 30.9537C22.2301 30.9419 22.2689 30.922 22.3029 30.8952C22.3368 30.8683 22.3651 30.835 22.3862 30.7972C22.4073 30.7594 22.4208 30.7177 22.4258 30.6747C22.4309 30.6317 22.4274 30.5881 22.4156 30.5464ZM6.49943 8.7577C6.41542 8.7339 6.32542 8.74453 6.24923 8.78725C6.17304 8.82997 6.11689 8.90128 6.09314 8.98549L0.0124299 30.5464C0.000662269 30.5881 -0.00279617 30.6317 0.00225208 30.6748C0.00730033 30.7178 0.0207564 30.7594 0.0418518 30.7973C0.0629473 30.8351 0.0912688 30.8684 0.125199 30.8952C0.15913 30.9221 0.198004 30.942 0.239603 30.9538C0.268803 30.9621 0.299007 30.9663 0.329359 30.9663C0.40102 30.9662 0.470701 30.9427 0.527832 30.8994C0.584964 30.856 0.626429 30.7951 0.645938 30.726L6.72664 9.16511C6.75038 9.08087 6.73979 8.99064 6.69718 8.91424C6.65457 8.83784 6.58344 8.78153 6.49943 8.7577ZM12.0663 9.06507C12.0651 9.02171 12.0553 8.97901 12.0376 8.93943C12.0199 8.89986 11.9946 8.86419 11.963 8.83447C11.9315 8.80476 11.8944 8.78159 11.854 8.76629C11.8135 8.751 11.7704 8.74389 11.7271 8.74536C11.6839 8.74668 11.6414 8.75653 11.602 8.77433C11.5626 8.79214 11.527 8.81755 11.4974 8.84913C11.4678 8.8807 11.4447 8.91781 11.4294 8.95835C11.4141 8.99888 11.4069 9.04204 11.4082 9.08536L11.4469 10.3481H10.9812L11.0199 9.08536C11.0213 9.04204 11.0141 8.99888 10.9988 8.95835C10.9835 8.91782 10.9603 8.88071 10.9307 8.84914C10.9011 8.81757 10.8656 8.79215 10.8262 8.77435C10.7868 8.75654 10.7442 8.74669 10.701 8.74536C10.5215 8.73978 10.3675 8.8829 10.3619 9.06507L10.3127 10.6681C10.3114 10.7123 10.3189 10.7563 10.3348 10.7975C10.3507 10.8387 10.3747 10.8763 10.4054 10.908C10.4361 10.9397 10.4729 10.965 10.5135 10.9822C10.5541 10.9994 10.5977 11.0083 10.6418 11.0082H11.7865C11.8306 11.0082 11.8742 10.9993 11.9148 10.9821C11.9554 10.9649 11.9921 10.9397 12.0228 10.9079C12.0534 10.8762 12.0775 10.8386 12.0934 10.7974C12.1093 10.7562 12.1168 10.7122 12.1155 10.6681L12.0663 9.06507ZM12.1409 11.497C12.1382 11.4113 12.1024 11.33 12.041 11.2703C11.9796 11.2106 11.8974 11.1772 11.8118 11.1772H10.6163C10.5307 11.1772 10.4485 11.2106 10.3871 11.2703C10.3257 11.33 10.2899 11.4113 10.2872 11.497L10.2008 14.3114C10.1994 14.3556 10.2069 14.3996 10.2228 14.4408C10.2388 14.482 10.2628 14.5196 10.2935 14.5513C10.3242 14.5831 10.3609 14.6083 10.4015 14.6255C10.4421 14.6427 10.4857 14.6516 10.5298 14.6516H11.8983C11.9424 14.6516 11.986 14.6427 12.0266 14.6255C12.0672 14.6082 12.1039 14.583 12.1346 14.5513C12.1653 14.5196 12.1893 14.482 12.2052 14.4408C12.2212 14.3996 12.2287 14.3556 12.2273 14.3114L12.1409 11.497ZM10.8692 13.9916L10.9354 11.8372H11.4926L11.5588 13.9916H10.8692ZM12.2598 15.3692C12.2572 15.2835 12.2213 15.2021 12.1599 15.1424C12.0985 15.0827 12.0163 15.0494 11.9308 15.0494H10.4973C10.4117 15.0494 10.3296 15.0828 10.2681 15.1425C10.2067 15.2022 10.1709 15.2835 10.1683 15.3692L10.0695 18.5813C10.0682 18.6255 10.0757 18.6695 10.0916 18.7107C10.1075 18.7519 10.1315 18.7895 10.1622 18.8212C10.1929 18.853 10.2296 18.8782 10.2702 18.8954C10.3108 18.9127 10.3545 18.9215 10.3986 18.9215H12.0295C12.0736 18.9215 12.1173 18.9126 12.1578 18.8954C12.1984 18.8782 12.2352 18.8529 12.2658 18.8212C12.2965 18.7895 12.3205 18.7519 12.3365 18.7107C12.3524 18.6695 12.3599 18.6255 12.3586 18.5813L12.2598 15.3692ZM10.738 18.2615L10.8165 15.7094H11.6116L11.6901 18.2615H10.738ZM12.4042 20.0743C12.4016 19.9886 12.3658 19.9072 12.3044 19.8475C12.243 19.7878 12.1608 19.7544 12.0752 19.7544H10.3529C10.2674 19.7544 10.1852 19.7878 10.1238 19.8475C10.0623 19.9072 10.0265 19.9886 10.0239 20.0743L9.90365 23.9935C9.90227 24.0377 9.90976 24.0817 9.92567 24.1229C9.94158 24.1641 9.96559 24.2017 9.99628 24.2335C10.027 24.2652 10.0637 24.2904 10.1043 24.3077C10.1449 24.3249 10.1885 24.3338 10.2326 24.3337H12.1954C12.2395 24.3337 12.2831 24.3248 12.3237 24.3076C12.3643 24.2904 12.401 24.2652 12.4317 24.2334C12.4624 24.2017 12.4864 24.1641 12.5024 24.1229C12.5183 24.0817 12.5258 24.0377 12.5245 23.9936L12.4042 20.0743ZM10.5721 23.6737L10.6721 20.4145H11.756L11.8559 23.6737H10.5721ZM12.5825 25.8821C12.5798 25.7964 12.544 25.7151 12.4825 25.6554C12.4211 25.5957 12.3389 25.5623 12.2533 25.5623H10.1747C10.0892 25.5623 10.007 25.5957 9.94556 25.6554C9.88414 25.7151 9.84832 25.7964 9.84569 25.8821L9.69995 30.626C9.69862 30.6693 9.70581 30.7124 9.72112 30.753C9.73643 30.7935 9.75955 30.8306 9.78916 30.8622C9.81877 30.8938 9.8543 30.9192 9.89371 30.937C9.93312 30.9548 9.97565 30.9646 10.0189 30.966C10.1991 30.9715 10.3524 30.8285 10.358 30.6463L10.4939 26.2223H11.9341L12.0701 30.6463C12.0714 30.6896 12.0812 30.7322 12.099 30.7717C12.1167 30.8113 12.1421 30.8469 12.1736 30.8766C12.2051 30.9062 12.2421 30.9294 12.2825 30.9448C12.3229 30.9601 12.366 30.9673 12.4092 30.966C12.4524 30.9646 12.4949 30.9548 12.5343 30.937C12.5737 30.9192 12.6093 30.8938 12.6389 30.8622C12.6685 30.8306 12.6916 30.7935 12.7069 30.753C12.7222 30.7125 12.7294 30.6693 12.7281 30.626L12.5825 25.8821Z" fill="#FDFCFF" fill-opacity="0.5"/>
</g>
<g clip-path="url(#clip1_390_1769)">
<path d="M175.427 14.4486L174.144 8.99946C174.124 8.91467 174.071 8.84143 173.996 8.79576C173.922 8.75009 173.833 8.7357 173.748 8.75574C173.664 8.77577 173.59 8.8286 173.544 8.90268C173.499 8.97675 173.484 9.06605 173.503 9.15105L174.786 14.6001C174.806 14.6853 174.859 14.759 174.933 14.805C175.008 14.851 175.097 14.8656 175.182 14.8456C175.224 14.8356 175.264 14.8174 175.299 14.7921C175.334 14.7668 175.364 14.7348 175.386 14.6979C175.409 14.661 175.424 14.62 175.431 14.5772C175.438 14.5345 175.437 14.4907 175.427 14.4486ZM179.219 30.5604L175.677 15.5103C175.657 15.4251 175.604 15.3514 175.529 15.3054C175.455 15.2594 175.366 15.2448 175.281 15.2649C175.196 15.285 175.122 15.3381 175.076 15.4125C175.03 15.487 175.016 15.5767 175.036 15.6619L178.579 30.7119C178.599 30.7971 178.652 30.8708 178.726 30.9168C178.8 30.9628 178.89 30.9774 178.975 30.9573C179.152 30.9155 179.261 30.7377 179.219 30.5604ZM161.31 28.1658C161.133 28.1241 160.955 28.2338 160.914 28.4112L160.408 30.5604C160.389 30.6451 160.404 30.7339 160.45 30.8074C160.496 30.881 160.569 30.9334 160.654 30.9533C160.738 30.9733 160.827 30.9591 160.9 30.9139C160.974 30.8688 161.028 30.7962 161.049 30.712L161.554 28.5628C161.564 28.5206 161.566 28.4769 161.559 28.4341C161.552 28.3914 161.537 28.3504 161.514 28.3135C161.491 28.2766 161.462 28.2446 161.427 28.2193C161.392 28.1939 161.352 28.1758 161.31 28.1658ZM165.879 8.75406C165.703 8.7122 165.525 8.82204 165.483 8.99946L161.241 27.0207C161.222 27.1057 161.236 27.195 161.282 27.2691C161.328 27.3432 161.402 27.396 161.486 27.416C161.571 27.4361 161.66 27.4217 161.734 27.376C161.808 27.3303 161.861 27.2571 161.882 27.1723L166.124 9.15105C166.144 9.06587 166.13 8.97618 166.084 8.90173C166.038 8.82728 165.964 8.77416 165.879 8.75406ZM181.015 30.5464L174.935 8.98545C174.923 8.94329 174.904 8.90381 174.877 8.8693C174.85 8.83478 174.817 8.80592 174.779 8.78439C174.741 8.76285 174.699 8.74906 174.656 8.74383C174.613 8.7386 174.569 8.74202 174.527 8.7539C174.485 8.76579 174.446 8.78589 174.412 8.81305C174.378 8.8402 174.35 8.87388 174.328 8.91212C174.307 8.95036 174.294 8.9924 174.289 9.03581C174.285 9.07922 174.289 9.12314 174.301 9.16502L180.382 30.7259C180.401 30.7951 180.443 30.8559 180.5 30.8993C180.557 30.9427 180.627 30.9662 180.698 30.9662C180.728 30.9662 180.758 30.9622 180.788 30.9537C180.83 30.9419 180.869 30.922 180.902 30.8952C180.936 30.8683 180.965 30.835 180.986 30.7972C181.007 30.7594 181.02 30.7177 181.025 30.6747C181.03 30.6317 181.027 30.5881 181.015 30.5464ZM165.099 8.7577C165.015 8.7339 164.925 8.74453 164.849 8.78725C164.773 8.82997 164.716 8.90128 164.693 8.98549L158.612 30.5464C158.6 30.5881 158.597 30.6317 158.602 30.6748C158.607 30.7178 158.62 30.7594 158.641 30.7973C158.663 30.8351 158.691 30.8684 158.725 30.8952C158.759 30.9221 158.798 30.942 158.839 30.9538C158.868 30.9621 158.899 30.9663 158.929 30.9663C159.001 30.9662 159.07 30.9427 159.127 30.8994C159.185 30.856 159.226 30.7951 159.246 30.726L165.326 9.16511C165.35 9.08087 165.339 8.99064 165.297 8.91424C165.254 8.83784 165.183 8.78153 165.099 8.7577ZM170.666 9.06507C170.665 9.02171 170.655 8.97901 170.637 8.93943C170.62 8.89986 170.594 8.86419 170.563 8.83447C170.531 8.80476 170.494 8.78159 170.454 8.76629C170.413 8.751 170.37 8.74389 170.327 8.74536C170.284 8.74668 170.241 8.75653 170.202 8.77433C170.162 8.79214 170.127 8.81755 170.097 8.84913C170.067 8.8807 170.044 8.91781 170.029 8.95835C170.014 8.99888 170.006 9.04204 170.008 9.08536L170.047 10.3481H169.581L169.62 9.08536C169.621 9.04204 169.614 8.99888 169.598 8.95835C169.583 8.91782 169.56 8.88071 169.53 8.84914C169.501 8.81757 169.465 8.79215 169.426 8.77435C169.386 8.75654 169.344 8.74669 169.301 8.74536C169.121 8.73978 168.967 8.8829 168.961 9.06507L168.912 10.6681C168.911 10.7123 168.918 10.7563 168.934 10.7975C168.95 10.8387 168.974 10.8763 169.005 10.908C169.036 10.9397 169.072 10.965 169.113 10.9822C169.154 10.9994 169.197 11.0083 169.241 11.0082H170.386C170.43 11.0082 170.474 10.9993 170.514 10.9821C170.555 10.9649 170.592 10.9397 170.622 10.9079C170.653 10.8762 170.677 10.8386 170.693 10.7974C170.709 10.7562 170.716 10.7122 170.715 10.6681L170.666 9.06507ZM170.74 11.497C170.738 11.4113 170.702 11.33 170.641 11.2703C170.579 11.2106 170.497 11.1772 170.411 11.1772H169.216C169.13 11.1772 169.048 11.2106 168.987 11.2703C168.925 11.33 168.889 11.4113 168.887 11.497L168.8 14.3114C168.799 14.3556 168.807 14.3996 168.822 14.4408C168.838 14.482 168.862 14.5196 168.893 14.5513C168.924 14.5831 168.96 14.6083 169.001 14.6255C169.042 14.6427 169.085 14.6516 169.129 14.6516H170.498C170.542 14.6516 170.586 14.6427 170.626 14.6255C170.667 14.6082 170.704 14.583 170.734 14.5513C170.765 14.5196 170.789 14.482 170.805 14.4408C170.821 14.3996 170.828 14.3556 170.827 14.3114L170.74 11.497ZM169.469 13.9916L169.535 11.8372H170.092L170.158 13.9916H169.469ZM170.859 15.3692C170.857 15.2835 170.821 15.2021 170.76 15.1424C170.698 15.0827 170.616 15.0494 170.53 15.0494H169.097C169.011 15.0494 168.929 15.0828 168.868 15.1425C168.806 15.2022 168.771 15.2835 168.768 15.3692L168.669 18.5813C168.668 18.6255 168.675 18.6695 168.691 18.7107C168.707 18.7519 168.731 18.7895 168.762 18.8212C168.793 18.853 168.829 18.8782 168.87 18.8954C168.91 18.9127 168.954 18.9215 168.998 18.9215H170.629C170.673 18.9215 170.717 18.9126 170.757 18.8954C170.798 18.8782 170.835 18.8529 170.865 18.8212C170.896 18.7895 170.92 18.7519 170.936 18.7107C170.952 18.6695 170.96 18.6255 170.958 18.5813L170.859 15.3692ZM169.338 18.2615L169.416 15.7094H170.211L170.29 18.2615H169.338ZM171.004 20.0743C171.001 19.9886 170.965 19.9072 170.904 19.8475C170.843 19.7878 170.76 19.7544 170.675 19.7544H168.953C168.867 19.7544 168.785 19.7878 168.723 19.8475C168.662 19.9072 168.626 19.9886 168.623 20.0743L168.503 23.9935C168.502 24.0377 168.509 24.0817 168.525 24.1229C168.541 24.1641 168.565 24.2017 168.596 24.2335C168.627 24.2652 168.663 24.2904 168.704 24.3077C168.745 24.3249 168.788 24.3338 168.832 24.3337H170.795C170.839 24.3337 170.883 24.3248 170.923 24.3076C170.964 24.2904 171.001 24.2652 171.031 24.2334C171.062 24.2017 171.086 24.1641 171.102 24.1229C171.118 24.0817 171.125 24.0377 171.124 23.9936L171.004 20.0743ZM169.172 23.6737L169.272 20.4145H170.356L170.456 23.6737H169.172ZM171.182 25.8821C171.179 25.7964 171.144 25.7151 171.082 25.6554C171.021 25.5957 170.939 25.5623 170.853 25.5623H168.774C168.689 25.5623 168.607 25.5957 168.545 25.6554C168.484 25.7151 168.448 25.7964 168.445 25.8821L168.3 30.626C168.298 30.6693 168.305 30.7124 168.321 30.753C168.336 30.7935 168.359 30.8306 168.389 30.8622C168.418 30.8938 168.454 30.9192 168.493 30.937C168.533 30.9548 168.575 30.9646 168.618 30.966C168.799 30.9715 168.952 30.8285 168.958 30.6463L169.094 26.2223H170.534L170.67 30.6463C170.671 30.6896 170.681 30.7322 170.699 30.7717C170.716 30.8113 170.742 30.8469 170.773 30.8766C170.805 30.9062 170.842 30.9294 170.882 30.9448C170.923 30.9601 170.966 30.9673 171.009 30.966C171.052 30.9646 171.095 30.9548 171.134 30.937C171.173 30.9192 171.209 30.8938 171.238 30.8622C171.268 30.8306 171.291 30.7935 171.307 30.753C171.322 30.7125 171.329 30.6693 171.328 30.626L171.182 25.8821Z" fill="#FDFCFF" fill-opacity="0.5"/>
</g>
<path d="M98.3096 24.7727H98.8096V24.2727V12.8295C98.8096 8.75248 101.878 5.5 105.571 5.5C109.264 5.5 112.333 8.75248 112.333 12.8295V24.2727V24.7727H112.833H113.392C113.394 24.7727 113.397 24.7732 113.402 24.7751C113.406 24.7771 113.413 24.7812 113.42 24.7891C113.436 24.8059 113.45 24.8362 113.45 24.875V26.9372V27.2544L113.737 27.3895C114.142 27.5802 114.493 27.8967 114.741 28.3061C114.99 28.7157 115.125 29.198 115.126 29.694V30.8977C115.126 30.9365 115.111 30.9668 115.096 30.9836C115.089 30.9916 115.082 30.9956 115.077 30.9976C115.073 30.9996 115.07 31 115.068 31H96.0752C96.0729 31 96.0697 30.9996 96.0653 30.9976C96.0608 30.9956 96.0542 30.9916 96.0468 30.9836C96.0312 30.9668 96.0166 30.9365 96.0166 30.8977V29.6936C96.0175 29.1978 96.1523 28.7156 96.4013 28.3061C96.6502 27.8967 97.0006 27.5802 97.4055 27.3895L97.6924 27.2544V26.9372V24.875C97.6924 24.8362 97.707 24.8059 97.7226 24.7891C97.73 24.7812 97.7366 24.7771 97.7411 24.7751C97.7455 24.7732 97.7487 24.7727 97.751 24.7727H98.3096ZM98.9271 12.8104L98.9268 12.82V12.8295V24.2727V24.7727H99.4268H111.716H112.216V24.2727V12.8295V12.82L112.216 12.8104C112.037 8.14794 108.828 5.73872 105.571 5.73872C102.315 5.73872 99.1059 8.14794 98.9271 12.8104ZM98.3096 24.9773H97.8096V25.4773V26.6818V27.1818H98.3096H112.833H113.333V26.6818V25.4773V24.9773H112.833H98.3096ZM114.509 30.7955H115.009V30.2955V29.6932C115.009 28.457 114.068 27.3864 112.833 27.3864H98.3096C97.0747 27.3864 96.1338 28.457 96.1338 29.6932V30.2955V30.7955H96.6338H114.509Z" stroke="#FDFCFF" stroke-opacity="0.5"/>
<path d="M107.806 11.625H106.13V9.81822C106.13 9.65848 106.071 9.50529 105.966 9.39234C105.862 9.2794 105.72 9.21594 105.571 9.21594C105.423 9.21594 105.281 9.2794 105.176 9.39234C105.072 9.50529 105.013 9.65848 105.013 9.81822V11.625H103.337C102.608 11.6286 102.605 12.826 103.337 12.8296H105.013V18.25C105.015 19.0342 106.127 19.0402 106.13 18.25V12.8296H107.806C108.535 12.8266 108.538 11.628 107.806 11.625Z" fill="#FDFCFF" fill-opacity="0.5"/>
<path d="M105.63 11.625V12.125H106.13H107.804C107.817 12.1251 107.824 12.1266 107.827 12.1275C107.828 12.1278 107.828 12.1281 107.828 12.1285C107.836 12.1379 107.854 12.1714 107.854 12.2267C107.854 12.282 107.836 12.316 107.828 12.3259C107.827 12.3265 107.827 12.3269 107.827 12.3272C107.824 12.328 107.817 12.3295 107.804 12.3296H106.13H105.63V12.8296V18.249C105.63 18.288 105.623 18.309 105.62 18.3174C105.616 18.3256 105.613 18.3283 105.612 18.3292C105.61 18.3316 105.597 18.3405 105.573 18.3404C105.548 18.3403 105.534 18.3313 105.531 18.3279C105.529 18.3266 105.526 18.3237 105.523 18.3156C105.52 18.3074 105.513 18.2871 105.513 18.2492V12.8296V12.3296H105.013H103.339C103.326 12.3294 103.318 12.3279 103.315 12.327C103.315 12.3267 103.315 12.3263 103.314 12.3258C103.307 12.3163 103.289 12.2829 103.289 12.2278C103.289 12.1726 103.307 12.1389 103.315 12.1289C103.315 12.1283 103.316 12.1279 103.316 12.1275C103.319 12.1267 103.326 12.1252 103.339 12.125H105.013H105.513V11.625V9.81822C105.513 9.77945 105.527 9.74915 105.543 9.73236C105.55 9.72438 105.557 9.72033 105.562 9.71833C105.566 9.71637 105.569 9.71594 105.571 9.71594C105.574 9.71594 105.577 9.71636 105.581 9.71833C105.586 9.72033 105.592 9.72438 105.6 9.73236C105.615 9.74915 105.63 9.77945 105.63 9.81822V11.625Z" stroke="#FDFCFF" stroke-opacity="0.5"/>
<path d="M54.0675 5C49.7613 5 46.2577 8.51245 46.2577 12.8295V24.2727H45.6569C45.4976 24.2727 45.3448 24.3362 45.2321 24.4491C45.1195 24.5621 45.0562 24.7153 45.0562 24.875V26.9372C44.5213 27.1715 44.066 27.5569 43.7459 28.0463C43.4259 28.5357 43.2549 29.108 43.2539 29.6932V30.8977C43.2539 31.0575 43.3172 31.2107 43.4299 31.3236C43.5425 31.4365 43.6953 31.5 43.8547 31.5H64.2803C64.4397 31.5 64.5925 31.4365 64.7051 31.3236C64.8178 31.2107 64.8811 31.0575 64.8811 30.8977V29.6932C64.8801 29.108 64.7091 28.5357 64.3891 28.0463C64.069 27.5569 63.6138 27.1715 63.0788 26.9372V24.875C63.0788 24.7153 63.0155 24.5621 62.9029 24.4491C62.7902 24.3362 62.6374 24.2727 62.4781 24.2727H61.8773V12.8295C61.8773 8.51245 58.3737 5 54.0675 5ZM47.4592 12.8295C47.8215 4.04178 60.3136 4.04178 60.6758 12.8295V24.2727H47.4592V12.8295ZM46.2577 25.4773H61.8773V26.6818H46.2577V25.4773ZM63.6796 29.6932V30.2955H44.4554V29.6932C44.4554 28.697 45.264 27.8864 46.2577 27.8864H61.8773C62.871 27.8864 63.6796 28.697 63.6796 29.6932Z" fill="#FDFCFF" fill-opacity="0.5"/>
<path d="M46.2577 24.7727H46.7577V24.2727V12.8295C46.7577 8.78741 50.0386 5.5 54.0675 5.5C58.0964 5.5 61.3773 8.78741 61.3773 12.8295V24.2727V24.7727H61.8773H62.4781C62.5044 24.7727 62.5299 24.7832 62.5489 24.8022C62.5679 24.8213 62.5788 24.8475 62.5788 24.875V26.9372V27.264L62.8782 27.3952C63.324 27.5904 63.7037 27.9117 63.9706 28.3199C64.2376 28.7282 64.3803 29.2057 64.3811 29.694V30.8977C64.3811 30.9253 64.3702 30.9514 64.3512 30.9705C64.3322 30.9895 64.3067 31 64.2803 31H43.8547C43.8283 31 43.8029 30.9895 43.7839 30.9705C43.7648 30.9514 43.7539 30.9253 43.7539 30.8977V29.6936C43.7548 29.2054 43.8975 28.7281 44.1644 28.3199C44.4313 27.9117 44.811 27.5904 45.2568 27.3952L45.5562 27.264V26.9372V24.875C45.5562 24.8475 45.5671 24.8213 45.5861 24.8022C45.6051 24.7832 45.6306 24.7727 45.6569 24.7727H46.2577ZM46.9596 12.809L46.9592 12.8192V12.8295V24.2727V24.7727H47.4592H60.6758H61.1758V24.2727V12.8295V12.8192L61.1754 12.809C60.7868 3.38198 47.3482 3.38198 46.9596 12.809ZM46.2577 24.9773H45.7577V25.4773V26.6818V27.1818H46.2577H61.8773H62.3773V26.6818V25.4773V24.9773H61.8773H46.2577ZM63.6796 30.7955H64.1796V30.2955V29.6932C64.1796 28.4221 63.1483 27.3864 61.8773 27.3864H46.2577C44.9867 27.3864 43.9554 28.4221 43.9554 29.6932V30.2955V30.7955H44.4554H63.6796Z" stroke="#FDFCFF" stroke-opacity="0.5"/>
<path d="M56.4706 11.6239H54.6683V9.81712C54.6683 9.65738 54.605 9.50419 54.4924 9.39125C54.3797 9.2783 54.2269 9.21484 54.0676 9.21484C53.9082 9.21484 53.7554 9.2783 53.6428 9.39125C53.5301 9.50419 53.4668 9.65738 53.4668 9.81712V11.6239H51.6645C50.88 11.6275 50.8775 12.8249 51.6645 12.8285H53.4668V18.2489C53.4692 19.0331 54.6653 19.0391 54.6683 18.2489V12.8285H56.4706C57.2546 12.8255 57.2576 11.6269 56.4706 11.6239Z" fill="#FDFCFF" fill-opacity="0.5"/>
<path d="M54.1683 11.6239V12.1239H54.6683H56.4694C56.5028 12.1241 56.5189 12.1303 56.524 12.1326C56.5292 12.135 56.5323 12.1374 56.5356 12.1411C56.5441 12.1509 56.5598 12.1794 56.5597 12.2256C56.5596 12.2718 56.5438 12.3008 56.5349 12.3111C56.5314 12.3151 56.5282 12.3176 56.523 12.3199C56.5179 12.3222 56.5021 12.3283 56.4694 12.3285H54.6683H54.1683V12.8285V18.2477C54.1681 18.2819 54.1618 18.2987 54.1593 18.3042C54.1569 18.3097 54.1544 18.3128 54.1508 18.3159C54.1415 18.324 54.1138 18.3394 54.0686 18.3393C54.0233 18.3392 53.9947 18.3236 53.9845 18.3146C53.9805 18.3112 53.9779 18.3078 53.9754 18.3024C53.9731 18.2971 53.967 18.281 53.9668 18.248V12.8285V12.3285H53.4668H51.666C51.6326 12.3282 51.6164 12.322 51.6112 12.3197C51.6058 12.3173 51.6026 12.3148 51.5994 12.311C51.5908 12.3012 51.5751 12.2727 51.5752 12.2267C51.5752 12.1807 51.591 12.1518 51.5999 12.1416C51.6034 12.1376 51.6067 12.135 51.612 12.1326C51.6172 12.1303 51.6332 12.1242 51.666 12.1239H53.4668H53.9668V11.6239V9.81712C53.9668 9.78958 53.9777 9.76344 53.9968 9.74435C54.0158 9.72531 54.0412 9.71484 54.0676 9.71484C54.0939 9.71484 54.1194 9.72531 54.1384 9.74435C54.1574 9.76344 54.1683 9.78958 54.1683 9.81712V11.6239Z" stroke="#FDFCFF" stroke-opacity="0.5"/>
<path d="M33.3249 0C27.3937 0 22.5679 4.83791 22.5679 10.7841V26.5455H21.7405C21.521 26.5455 21.3106 26.6329 21.1554 26.7884C21.0002 26.944 20.913 27.155 20.913 27.375V30.2154C20.1763 30.5381 19.5492 31.0689 19.1083 31.743C18.6675 32.4171 18.432 33.2053 18.4307 34.0114V35.6705C18.4307 35.8905 18.5178 36.1015 18.673 36.257C18.8282 36.4126 19.0387 36.5 19.2581 36.5H47.3916C47.6111 36.5 47.8215 36.4126 47.9767 36.257C48.1319 36.1015 48.2191 35.8905 48.2191 35.6705V34.0114C48.2177 33.2053 47.9822 32.4171 47.5414 31.743C47.1006 31.0689 46.4735 30.5381 45.7367 30.2154V27.375C45.7367 27.155 45.6495 26.944 45.4943 26.7884C45.3392 26.6329 45.1287 26.5455 44.9092 26.5455H44.0818V10.7841C44.0818 4.83791 39.2561 0 33.3249 0ZM24.2229 10.7841C24.7218 -1.31981 41.9279 -1.31981 42.4269 10.7841V26.5455H24.2229V10.7841ZM22.5679 28.2045H44.0818V29.8636H22.5679V28.2045ZM46.5642 34.0114V34.8409H20.0856V34.0114C20.0856 32.6393 21.1993 31.5227 22.5679 31.5227H44.0818C45.4504 31.5227 46.5642 32.6393 46.5642 34.0114Z" fill="#FDFCFF"/>
<path d="M22.5679 27.0455H23.0679V26.5455V10.7841C23.0679 5.11286 27.671 0.5 33.3249 0.5C38.9787 0.5 43.5818 5.11286 43.5818 10.7841V26.5455V27.0455H44.0818H44.9092C44.9957 27.0455 45.0788 27.0799 45.1404 27.1415C45.2019 27.2032 45.2367 27.2872 45.2367 27.375V30.2154V30.5422L45.5361 30.6734C46.1838 30.957 46.7352 31.4237 47.1229 32.0167C47.5107 32.6096 47.7179 33.303 47.7191 34.0122V35.6705C47.7191 35.7583 47.6843 35.8422 47.6227 35.9039C47.5612 35.9656 47.4781 36 47.3916 36H19.2581C19.1717 36 19.0885 35.9656 19.027 35.9039C18.9655 35.8422 18.9307 35.7583 18.9307 35.6705V34.0118C18.932 33.3027 19.1391 32.6095 19.5268 32.0167C19.9145 31.4237 20.466 30.957 21.1136 30.6734L21.413 30.5422V30.2154V27.375C21.413 27.2872 21.4478 27.2032 21.5094 27.1415C21.5709 27.0799 21.654 27.0455 21.7405 27.0455H22.5679ZM23.7233 10.7635L23.7229 10.7738V10.7841V26.5455V27.0455H24.2229H42.4269H42.9269V26.5455V10.7841V10.7738L42.9265 10.7635C42.4012 -1.97961 24.2486 -1.97961 23.7233 10.7635ZM22.5679 27.7045H22.0679V28.2045V29.8636V30.3636H22.5679H44.0818H44.5818V29.8636V28.2045V27.7045H44.0818H22.5679ZM46.5642 35.3409H47.0642V34.8409V34.0114C47.0642 32.3643 45.7277 31.0227 44.0818 31.0227H22.5679C20.922 31.0227 19.5856 32.3643 19.5856 34.0114V34.8409V35.3409H20.0856H46.5642Z" stroke="#FDFCFF" stroke-opacity="0.5"/>
<path d="M36.6326 9.1247H34.1502V6.63606C34.1502 6.41605 34.063 6.20506 33.9078 6.04949C33.7527 5.89392 33.5422 5.80652 33.3227 5.80652C33.1033 5.80652 32.8928 5.89392 32.7376 6.04949C32.5825 6.20506 32.4953 6.41605 32.4953 6.63606V9.1247H30.0129C28.9322 9.12968 28.9289 10.7788 30.0129 10.7838H32.4953V18.2497C32.4986 19.3298 34.146 19.3381 34.1502 18.2497V10.7838H36.6326C37.7124 10.7796 37.7165 9.12885 36.6326 9.1247Z" fill="#FDFCFF"/>
<path d="M33.6502 9.1247V9.6247H34.1502H36.6314C36.7635 9.62539 36.8275 9.67078 36.8644 9.71324C36.91 9.76556 36.9441 9.85077 36.944 9.95362C36.9438 10.0565 36.9095 10.1422 36.8634 10.1951C36.826 10.2381 36.7619 10.2831 36.6315 10.2838H34.1502H33.6502V10.7838V18.2486C33.6495 18.3828 33.6035 18.4474 33.5615 18.4841C33.5097 18.5293 33.4255 18.5631 33.3237 18.5629C33.2219 18.5626 33.1367 18.5283 33.084 18.4822C33.0409 18.4445 32.9958 18.3799 32.9953 18.2488V10.7838V10.2838H32.4953H30.0142C29.8821 10.283 29.8179 10.2375 29.7808 10.1949C29.7352 10.1425 29.7011 10.0574 29.7012 9.95475C29.7013 9.85213 29.7356 9.76656 29.7816 9.71373C29.8191 9.67068 29.8834 9.62552 30.0142 9.6247H32.4953H32.9953V9.1247V6.63606C32.9953 6.54826 33.0301 6.4643 33.0916 6.40259C33.1531 6.34093 33.2363 6.30652 33.3227 6.30652C33.4092 6.30652 33.4923 6.34093 33.5538 6.40259C33.6154 6.4643 33.6502 6.54826 33.6502 6.63606V9.1247Z" stroke="#FDFCFF" stroke-opacity="0.5"/>
<path d="M118.349 24.7727H118.849V24.2727V12.8295C118.849 8.78741 122.13 5.5 126.159 5.5C130.188 5.5 133.469 8.78741 133.469 12.8295V24.2727V24.7727H133.969H134.57C134.596 24.7727 134.622 24.7832 134.641 24.8022C134.66 24.8213 134.671 24.8475 134.671 24.875V26.9372V27.264L134.97 27.3952C135.416 27.5904 135.795 27.9117 136.062 28.3199C136.329 28.7282 136.472 29.2057 136.473 29.694V30.8977C136.473 30.9253 136.462 30.9514 136.443 30.9705C136.424 30.9895 136.398 31 136.372 31H115.946C115.92 31 115.895 30.9895 115.876 30.9705C115.857 30.9514 115.846 30.9253 115.846 30.8977V29.6936C115.847 29.2054 115.989 28.7281 116.256 28.3199C116.523 27.9117 116.903 27.5904 117.349 27.3952L117.648 27.264V26.9372V24.875C117.648 24.8475 117.659 24.8213 117.678 24.8022C117.697 24.7832 117.722 24.7727 117.749 24.7727H118.349ZM119.051 12.809L119.051 12.8192V12.8295V24.2727V24.7727H119.551H132.768H133.268V24.2727V12.8295V12.8192L133.267 12.809C132.879 3.38198 119.44 3.38198 119.051 12.809ZM118.349 24.9773H117.849V25.4773V26.6818V27.1818H118.349H133.969H134.469V26.6818V25.4773V24.9773H133.969H118.349ZM135.771 30.7955H136.271V30.2955V29.6932C136.271 28.4221 135.24 27.3864 133.969 27.3864H118.349C117.079 27.3864 116.047 28.4221 116.047 29.6932V30.2955V30.7955H116.547H135.771Z" stroke="#FDFCFF" stroke-opacity="0.5"/>
<path d="M126.26 11.6239V12.1239H126.76H128.561C128.595 12.1241 128.611 12.1303 128.616 12.1326C128.621 12.135 128.624 12.1374 128.627 12.1411C128.636 12.1509 128.652 12.1794 128.651 12.2256C128.651 12.2718 128.636 12.3008 128.627 12.3111C128.623 12.3151 128.62 12.3176 128.615 12.3199C128.61 12.3222 128.594 12.3283 128.561 12.3285H126.76H126.26V12.8285V18.2477C126.26 18.2819 126.254 18.2987 126.251 18.3042C126.249 18.3097 126.246 18.3128 126.243 18.3159C126.233 18.324 126.206 18.3394 126.16 18.3393C126.115 18.3392 126.086 18.3236 126.076 18.3146C126.072 18.3112 126.07 18.3078 126.067 18.3024C126.065 18.2971 126.059 18.281 126.059 18.248V12.8285V12.3285H125.559H123.758C123.724 12.3282 123.708 12.322 123.703 12.3197C123.698 12.3173 123.694 12.3148 123.691 12.311C123.683 12.3012 123.667 12.2727 123.667 12.2267C123.667 12.1807 123.683 12.1518 123.692 12.1416C123.695 12.1376 123.698 12.135 123.704 12.1326C123.709 12.1303 123.725 12.1242 123.758 12.1239H125.559H126.059V11.6239V9.81712C126.059 9.78958 126.07 9.76344 126.089 9.74435C126.108 9.72531 126.133 9.71484 126.159 9.71484C126.186 9.71484 126.211 9.72531 126.23 9.74435C126.249 9.76344 126.26 9.78958 126.26 9.81712V11.6239Z" stroke="#FDFCFF" stroke-opacity="0.5"/>
<path d="M147.068 0C141.137 0 136.311 4.83791 136.311 10.7841V26.5455H135.484C135.264 26.5455 135.054 26.6329 134.899 26.7884C134.743 26.944 134.656 27.155 134.656 27.375V30.2154C133.919 30.5381 133.292 31.0689 132.852 31.743C132.411 32.4171 132.175 33.2053 132.174 34.0114V35.6705C132.174 35.8905 132.261 36.1015 132.416 36.257C132.571 36.4126 132.782 36.5 133.001 36.5H161.135C161.354 36.5 161.565 36.4126 161.72 36.257C161.875 36.1015 161.962 35.8905 161.962 35.6705V34.0114C161.961 33.2053 161.725 32.4171 161.285 31.743C160.844 31.0689 160.217 30.5381 159.48 30.2154V27.375C159.48 27.155 159.393 26.944 159.238 26.7884C159.082 26.6329 158.872 26.5455 158.652 26.5455H157.825V10.7841C157.825 4.83791 152.999 0 147.068 0ZM137.966 10.7841C138.465 -1.31981 155.671 -1.31981 156.17 10.7841V26.5455H137.966V10.7841ZM136.311 28.2045H157.825V29.8636H136.311V28.2045ZM160.307 34.0114V34.8409H133.829V34.0114C133.829 32.6393 134.942 31.5227 136.311 31.5227H157.825C159.194 31.5227 160.307 32.6393 160.307 34.0114Z" fill="#FDFCFF"/>
<path d="M150.376 9.1247H147.893V6.63606C147.893 6.41605 147.806 6.20506 147.651 6.04949C147.496 5.89392 147.285 5.80652 147.066 5.80652C146.846 5.80652 146.636 5.89392 146.481 6.04949C146.326 6.20506 146.238 6.41605 146.238 6.63606V9.1247H143.756C142.675 9.12968 142.672 10.7788 143.756 10.7838H146.238V18.2497C146.242 19.3298 147.889 19.3381 147.893 18.2497V10.7838H150.376C151.456 10.7796 151.46 9.12885 150.376 9.1247Z" fill="#FDFCFF"/>
<path d="M90.4519 28.5127C90.4942 28.3332 90.6739 28.2221 90.8526 28.2644C90.8952 28.2745 90.9354 28.2929 90.9709 28.3185C91.0063 28.3441 91.0364 28.3765 91.0594 28.4138C91.0824 28.4511 91.0979 28.4926 91.1049 28.5359C91.1119 28.5792 91.1103 28.6234 91.1003 28.6661L90.5884 30.8408C90.5672 30.926 90.5133 30.9994 90.4385 31.0451C90.3637 31.0908 90.2739 31.1052 90.1886 31.085C90.1034 31.0648 90.0295 31.0118 89.9829 30.9373C89.9364 30.8629 89.921 30.7731 89.94 30.6874L90.4519 28.5127Z" fill="#FDFCFF" fill-opacity="0.5"/>
<path d="M95.0757 8.87059C95.118 8.69107 95.2977 8.57993 95.4764 8.62228C95.5624 8.64262 95.6368 8.69638 95.6832 8.77171C95.7297 8.84704 95.7444 8.93779 95.7241 9.02399L91.4315 27.2591C91.4108 27.3449 91.3571 27.419 91.2821 27.4652C91.2071 27.5114 91.1169 27.526 91.0312 27.5057C90.9455 27.4854 90.8713 27.432 90.8248 27.357C90.7784 27.2821 90.7634 27.1917 90.7831 27.1057L95.0757 8.87059Z" fill="#FDFCFF" fill-opacity="0.5"/>
<path d="M94.4337 8.65587C94.5108 8.61264 94.6019 8.60189 94.6869 8.62597C94.7719 8.65009 94.8439 8.70706 94.887 8.78437C94.9301 8.86167 94.9408 8.95298 94.9168 9.03821L88.764 30.855C88.7442 30.9249 88.7023 30.9865 88.6444 31.0304C88.5866 31.0743 88.5161 31.0981 88.4436 31.0981C88.4129 31.0981 88.3823 31.0938 88.3528 31.0854C88.3107 31.0735 88.2714 31.0534 88.237 31.0262C88.2027 30.999 88.174 30.9653 88.1527 30.9271C88.1314 30.8888 88.1177 30.8467 88.1126 30.8031C88.1075 30.7596 88.111 30.7154 88.1229 30.6732L94.2758 8.85646C94.2998 8.77125 94.3566 8.69909 94.4337 8.65587Z" fill="#FDFCFF" fill-opacity="0.5"/>
<path d="M95.5624 8.98523C95.5623 8.98545 95.5623 8.98567 95.5622 8.98589L95.5624 8.98523ZM95.5624 8.98523L95.4293 8.9539M95.5624 8.98523L95.5624 8.98516L95.4293 8.95385C95.4294 8.94535 95.4294 8.93685 95.4292 8.92835C95.4285 8.90104 95.4266 8.87379 95.4233 8.8467C95.4233 8.84662 95.4233 8.84655 95.4233 8.84647C95.4136 8.76732 95.3926 8.68954 95.3606 8.61561C95.3983 8.61111 95.4374 8.61304 95.4764 8.62228L95.4293 8.9539M95.4293 8.9539C95.4293 8.95414 95.4293 8.95438 95.4293 8.95461L95.4293 8.9539ZM94.8343 8.81375L94.8343 8.81377L94.8343 8.81375ZM88.6042 30.8089L88.6042 30.8086C88.6042 30.8088 88.6042 30.8089 88.6041 30.809L88.6042 30.8089ZM95.4128 9.11294C95.4234 9.06055 95.4289 9.00753 95.4293 8.95462L95.4128 9.11294ZM90.7755 28.5889L90.7759 28.5886L90.7755 28.5889ZM90.6136 28.5515L90.6135 28.5518C90.6135 28.5517 90.6136 28.5516 90.6136 28.5515L90.6136 28.5515Z" stroke="#FDFCFF" stroke-opacity="0.5"/>
<defs>
<clipPath id="clip0_390_1769">
<rect width="22.4282" height="22.4848" fill="white" transform="translate(0 8.61328)"/>
</clipPath>
<clipPath id="clip1_390_1769">
<rect width="22.4282" height="22.4848" fill="white" transform="translate(158.6 8.61328)"/>
</clipPath>
</defs>
</svg>
