<svg width="182" height="29" viewBox="0 0 182 29" fill="none" xmlns="http://www.w3.org/2000/svg">
<path d="M75.7242 0C71.71 0 68.4441 3.51245 68.4441 7.82955V19.2727H67.8841C67.7356 19.2727 67.5931 19.3362 67.4881 19.4491C67.3831 19.5621 67.3241 19.7153 67.3241 19.875V21.9372C66.8254 22.1715 66.401 22.5569 66.1027 23.0463C65.8043 23.5357 65.645 24.108 65.644 24.6932V25.8977C65.644 26.0575 65.703 26.2107 65.8081 26.3236C65.9131 26.4365 66.0555 26.5 66.2041 26.5H85.2443C85.3928 26.5 85.5353 26.4365 85.6403 26.3236C85.7453 26.2107 85.8043 26.0575 85.8043 25.8977V24.6932C85.8034 24.108 85.644 23.5357 85.3457 23.0463C85.0473 22.5569 84.6229 22.1715 84.1243 21.9372V19.875C84.1243 19.7153 84.0653 19.5621 83.9603 19.4491C83.8553 19.3362 83.7128 19.2727 83.5643 19.2727H83.0043V7.82955C83.0043 3.51245 79.7383 0 75.7242 0ZM69.5641 7.82955C69.9018 -0.958216 81.5466 -0.958216 81.8843 7.82955V19.2727H69.5641V7.82955ZM68.4441 20.4773H83.0043V21.6818H68.4441V20.4773ZM84.6843 24.6932V25.2955H66.7641V24.6932C66.7641 23.697 67.5178 22.8864 68.4441 22.8864H83.0043C83.9305 22.8864 84.6843 23.697 84.6843 24.6932Z" fill="black"/>
<path d="M77.964 6.62491H76.284V4.81809C76.284 4.65836 76.225 4.50517 76.12 4.39222C76.0149 4.27927 75.8725 4.21582 75.724 4.21582C75.5754 4.21582 75.433 4.27927 75.328 4.39222C75.223 4.50517 75.164 4.65836 75.164 4.81809V6.62491H73.4839C72.7526 6.62853 72.7503 7.82584 73.4839 7.82946H75.164V13.2499C75.1662 14.0341 76.2812 14.0401 76.284 13.2499V7.82946H77.964C78.6948 7.82645 78.6976 6.62792 77.964 6.62491Z" fill="black"/>
<g clip-path="url(#clip0_119_933)">
<path d="M16.8696 9.44831L15.5837 3.99921C15.5632 3.91442 15.51 3.84119 15.4357 3.79552C15.3613 3.74985 15.272 3.73546 15.1871 3.75549C15.1022 3.77553 15.0287 3.82836 14.9826 3.90243C14.9365 3.97651 14.9217 4.06581 14.9413 4.15081L16.2273 9.59991C16.2474 9.68505 16.3005 9.75873 16.3749 9.80474C16.4494 9.85076 16.539 9.86535 16.6242 9.84531C16.6664 9.83536 16.7062 9.81719 16.7413 9.79186C16.7765 9.76652 16.8063 9.73451 16.8291 9.69764C16.8519 9.66078 16.8672 9.61978 16.8742 9.577C16.8811 9.53422 16.8796 9.49049 16.8696 9.44831ZM20.672 25.5601L17.1202 10.51C17.1001 10.4249 17.0469 10.3512 16.9725 10.3052C16.8981 10.2592 16.8084 10.2446 16.7232 10.2646C16.6381 10.2847 16.5643 10.3378 16.5183 10.4123C16.4723 10.4867 16.4577 10.5764 16.4778 10.6616L20.0296 25.7117C20.0497 25.7968 20.1028 25.8705 20.1772 25.9165C20.2517 25.9625 20.3413 25.9771 20.4265 25.9571C20.6039 25.9152 20.7138 25.7375 20.672 25.5601ZM2.71696 23.1656C2.53985 23.1238 2.36182 23.2336 2.31996 23.411L1.81278 25.5601C1.7939 25.6449 1.80917 25.7336 1.85528 25.8072C1.90138 25.8807 1.97461 25.9332 2.05911 25.9531C2.1436 25.973 2.23254 25.9589 2.30667 25.9137C2.3808 25.8685 2.43414 25.796 2.45514 25.7117L2.96232 23.5626C2.97228 23.5204 2.97383 23.4767 2.96689 23.4339C2.95995 23.3911 2.94465 23.3501 2.92187 23.3133C2.89909 23.2764 2.86926 23.2444 2.8341 23.219C2.79895 23.1937 2.75914 23.1755 2.71696 23.1656ZM7.29802 3.75381C7.12095 3.71196 6.94292 3.82179 6.90102 3.99921L2.6481 22.0205C2.62851 22.1055 2.64337 22.1948 2.68943 22.2689C2.73549 22.3429 2.809 22.3958 2.8939 22.4158C2.9788 22.4358 3.06817 22.4214 3.14249 22.3758C3.21681 22.3301 3.27002 22.2569 3.2905 22.1721L7.54342 4.15081C7.56352 4.06562 7.54896 3.97594 7.50294 3.90149C7.45692 3.82704 7.38321 3.77392 7.29802 3.75381ZM22.4722 25.5461L16.3762 3.9852C16.3648 3.94305 16.3452 3.90357 16.3184 3.86905C16.2917 3.83454 16.2584 3.80568 16.2204 3.78414C16.1824 3.7626 16.1405 3.74882 16.0971 3.74359C16.0538 3.73836 16.0098 3.74178 15.9678 3.75366C15.9258 3.76554 15.8865 3.78564 15.8524 3.8128C15.8182 3.83996 15.7897 3.87363 15.7686 3.91187C15.7475 3.95011 15.7342 3.99216 15.7295 4.03557C15.7248 4.07898 15.7287 4.1229 15.7411 4.16477L21.8371 25.7257C21.8567 25.7948 21.8982 25.8557 21.9555 25.899C22.0128 25.9424 22.0827 25.9659 22.1545 25.966C22.1842 25.966 22.2145 25.962 22.2445 25.9534C22.2862 25.9416 22.3252 25.9218 22.3592 25.8949C22.3932 25.8681 22.4216 25.8348 22.4427 25.7969C22.4639 25.7591 22.4774 25.7175 22.4824 25.6745C22.4875 25.6314 22.484 25.5878 22.4722 25.5461ZM6.51584 3.75746C6.43162 3.73366 6.34139 3.74429 6.26501 3.787C6.18863 3.82972 6.13234 3.90103 6.10852 3.98525L0.0124613 25.5462C0.000663942 25.5879 -0.00280323 25.6315 0.00225777 25.6745C0.00731877 25.7176 0.0208088 25.7592 0.0419575 25.797C0.0631062 25.8348 0.0914993 25.8681 0.125515 25.895C0.159531 25.9218 0.198504 25.9417 0.240208 25.9535C0.269482 25.9618 0.299762 25.966 0.330191 25.9661C0.402033 25.966 0.471889 25.9425 0.529165 25.8991C0.586441 25.8558 0.628011 25.7949 0.647569 25.7258L6.74363 4.16486C6.76743 4.08063 6.75681 3.99039 6.71409 3.914C6.67137 3.8376 6.60006 3.78129 6.51584 3.75746ZM12.0967 4.06482C12.0955 4.02146 12.0858 3.97876 12.068 3.93919C12.0503 3.89961 12.0249 3.86394 11.9933 3.83423C11.9617 3.80451 11.9245 3.78134 11.8839 3.76605C11.8433 3.75075 11.8001 3.74364 11.7567 3.74512C11.7134 3.74644 11.6708 3.75629 11.6313 3.77409C11.5918 3.79189 11.5561 3.81731 11.5264 3.84888C11.4968 3.88045 11.4736 3.91757 11.4582 3.9581C11.4429 3.99863 11.4357 4.04179 11.437 4.08511L11.4758 5.34791H11.0089L11.0478 4.08511C11.0491 4.04179 11.0419 3.99864 11.0265 3.95811C11.0112 3.91758 10.988 3.88047 10.9583 3.84889C10.9286 3.81732 10.893 3.79191 10.8535 3.7741C10.814 3.75629 10.7714 3.74645 10.7281 3.74512C10.5481 3.73954 10.3936 3.88266 10.3881 4.06482L10.3388 5.66783C10.3374 5.71201 10.3449 5.75602 10.3609 5.79723C10.3768 5.83845 10.4009 5.87604 10.4317 5.90777C10.4625 5.9395 10.4993 5.96473 10.54 5.98194C10.5807 5.99916 10.6245 6.00802 10.6687 6.008H11.8162C11.8604 6.00799 11.9042 5.9991 11.9449 5.98187C11.9855 5.96464 12.0224 5.93941 12.0531 5.90769C12.0839 5.87597 12.108 5.83839 12.1239 5.79719C12.1399 5.75599 12.1474 5.712 12.1461 5.66783L12.0967 4.06482ZM12.1715 6.49678C12.1689 6.41106 12.133 6.32972 12.0714 6.27001C12.0098 6.21031 11.9274 6.17693 11.8417 6.17694H10.6431C10.5573 6.17694 10.4749 6.21032 10.4133 6.27003C10.3518 6.32973 10.3159 6.41106 10.3132 6.49678L10.2265 9.31116C10.2252 9.35533 10.2327 9.39933 10.2487 9.44055C10.2646 9.48176 10.2887 9.51934 10.3195 9.55108C10.3502 9.58281 10.387 9.60803 10.4277 9.62526C10.4684 9.64249 10.5122 9.65137 10.5564 9.65137H11.9284C11.9725 9.65135 12.0163 9.64246 12.057 9.62523C12.0977 9.60799 12.1345 9.58276 12.1652 9.55104C12.196 9.51931 12.2201 9.48173 12.236 9.44053C12.252 9.39932 12.2596 9.35533 12.2582 9.31116L12.1715 6.49678ZM10.8967 8.99132L10.963 6.837H11.5217L11.588 8.99132H10.8967ZM12.2907 10.369C12.2881 10.2832 12.2522 10.2019 12.1906 10.1422C12.1291 10.0825 12.0467 10.0491 11.9609 10.0491H10.5238C10.438 10.0491 10.3556 10.0825 10.2941 10.1422C10.2325 10.2019 10.1966 10.2832 10.194 10.369L10.095 13.5811C10.0936 13.6253 10.1011 13.6693 10.1171 13.7105C10.133 13.7517 10.1571 13.7893 10.1879 13.821C10.2187 13.8527 10.2555 13.878 10.2962 13.8952C10.3369 13.9124 10.3806 13.9213 10.4248 13.9213H12.0599C12.1041 13.9213 12.1479 13.9124 12.1885 13.8951C12.2292 13.8779 12.2661 13.8527 12.2968 13.821C12.3276 13.7892 12.3516 13.7516 12.3676 13.7104C12.3836 13.6692 12.3911 13.6252 12.3898 13.5811L12.2907 10.369ZM10.7651 13.2612L10.8438 10.7091H11.6409L11.7196 13.2612H10.7651ZM12.4355 15.0741C12.4329 14.9883 12.397 14.907 12.3354 14.8473C12.2739 14.7876 12.1915 14.7542 12.1057 14.7542H10.3791C10.2933 14.7542 10.2109 14.7876 10.1493 14.8473C10.0877 14.907 10.0518 14.9883 10.0492 15.074L9.92866 18.9933C9.92727 19.0375 9.93478 19.0815 9.95073 19.1227C9.96669 19.1639 9.99076 19.2015 10.0215 19.2332C10.0523 19.265 10.0891 19.2902 10.1298 19.3074C10.1705 19.3246 10.2143 19.3335 10.2585 19.3335H12.2262C12.2704 19.3335 12.3142 19.3246 12.3548 19.3074C12.3955 19.2901 12.4324 19.2649 12.4631 19.2332C12.4939 19.2015 12.518 19.1639 12.5339 19.1227C12.5499 19.0815 12.5574 19.0375 12.5561 18.9933L12.4355 15.0741ZM10.5988 18.6734L10.6991 15.4142H11.7857L11.8858 18.6734H10.5988ZM12.6142 20.8819C12.6116 20.7961 12.5756 20.7148 12.5141 20.6551C12.4525 20.5954 12.3701 20.562 12.2843 20.562H10.2004C10.1146 20.562 10.0322 20.5954 9.97067 20.6551C9.9091 20.7148 9.87319 20.7962 9.87055 20.8819L9.72445 25.6257C9.72311 25.669 9.73032 25.7122 9.74567 25.7527C9.76101 25.7933 9.78419 25.8304 9.81388 25.8619C9.84357 25.8935 9.87918 25.9189 9.91869 25.9367C9.95821 25.9545 10.0008 25.9644 10.0442 25.9657C10.2249 25.9713 10.3786 25.8282 10.3841 25.6461L10.5204 21.2221H11.9643L12.1005 25.6461C12.1019 25.6894 12.1117 25.732 12.1295 25.7715C12.1473 25.811 12.1727 25.8466 12.2043 25.8763C12.2359 25.906 12.273 25.9292 12.3135 25.9445C12.354 25.9599 12.3972 25.9671 12.4405 25.9657C12.4838 25.9644 12.5265 25.9546 12.566 25.9368C12.6055 25.9189 12.6411 25.8935 12.6708 25.862C12.7005 25.8304 12.7237 25.7933 12.739 25.7527C12.7543 25.7122 12.7615 25.6691 12.7602 25.6257L12.6142 20.8819Z" fill="black"/>
</g>
<g clip-path="url(#clip1_119_933)">
<path d="M175.87 9.44831L174.584 3.99921C174.563 3.91442 174.51 3.84119 174.436 3.79552C174.361 3.74985 174.272 3.73546 174.187 3.75549C174.102 3.77553 174.029 3.82836 173.983 3.90243C173.937 3.97651 173.922 4.06581 173.941 4.15081L175.227 9.59991C175.247 9.68505 175.301 9.75873 175.375 9.80474C175.449 9.85076 175.539 9.86535 175.624 9.84531C175.666 9.83536 175.706 9.81719 175.741 9.79186C175.776 9.76652 175.806 9.73451 175.829 9.69764C175.852 9.66078 175.867 9.61978 175.874 9.577C175.881 9.53422 175.88 9.49049 175.87 9.44831ZM179.672 25.5601L176.12 10.51C176.1 10.4249 176.047 10.3512 175.973 10.3052C175.898 10.2592 175.808 10.2446 175.723 10.2646C175.638 10.2847 175.564 10.3378 175.518 10.4123C175.472 10.4867 175.458 10.5764 175.478 10.6616L179.03 25.7117C179.05 25.7968 179.103 25.8705 179.177 25.9165C179.252 25.9625 179.341 25.9771 179.427 25.9571C179.604 25.9152 179.714 25.7375 179.672 25.5601ZM161.717 23.1656C161.54 23.1238 161.362 23.2336 161.32 23.411L160.813 25.5601C160.794 25.6449 160.809 25.7336 160.855 25.8072C160.901 25.8807 160.975 25.9332 161.059 25.9531C161.144 25.973 161.233 25.9589 161.307 25.9137C161.381 25.8685 161.434 25.796 161.455 25.7117L161.962 23.5626C161.972 23.5204 161.974 23.4767 161.967 23.4339C161.96 23.3911 161.945 23.3501 161.922 23.3133C161.899 23.2764 161.869 23.2444 161.834 23.219C161.799 23.1937 161.759 23.1755 161.717 23.1656ZM166.298 3.75381C166.121 3.71196 165.943 3.82179 165.901 3.99921L161.648 22.0205C161.629 22.1055 161.643 22.1948 161.689 22.2689C161.735 22.3429 161.809 22.3958 161.894 22.4158C161.979 22.4358 162.068 22.4214 162.142 22.3758C162.217 22.3301 162.27 22.2569 162.291 22.1721L166.543 4.15081C166.564 4.06562 166.549 3.97594 166.503 3.90149C166.457 3.82704 166.383 3.77392 166.298 3.75381ZM181.472 25.5461L175.376 3.9852C175.365 3.94305 175.345 3.90357 175.318 3.86905C175.292 3.83454 175.258 3.80568 175.22 3.78414C175.182 3.7626 175.14 3.74882 175.097 3.74359C175.054 3.73836 175.01 3.74178 174.968 3.75366C174.926 3.76554 174.887 3.78564 174.852 3.8128C174.818 3.83996 174.79 3.87363 174.769 3.91187C174.748 3.95011 174.734 3.99216 174.73 4.03557C174.725 4.07898 174.729 4.1229 174.741 4.16477L180.837 25.7257C180.857 25.7948 180.898 25.8557 180.956 25.899C181.013 25.9424 181.083 25.9659 181.155 25.966C181.184 25.966 181.214 25.962 181.244 25.9534C181.286 25.9416 181.325 25.9218 181.359 25.8949C181.393 25.8681 181.422 25.8348 181.443 25.7969C181.464 25.7591 181.477 25.7175 181.482 25.6745C181.487 25.6314 181.484 25.5878 181.472 25.5461ZM165.516 3.75746C165.432 3.73366 165.341 3.74429 165.265 3.787C165.189 3.82972 165.132 3.90103 165.109 3.98525L159.012 25.5462C159.001 25.5879 158.997 25.6315 159.002 25.6745C159.007 25.7176 159.021 25.7592 159.042 25.797C159.063 25.8348 159.091 25.8681 159.126 25.895C159.16 25.9218 159.199 25.9417 159.24 25.9535C159.269 25.9618 159.3 25.966 159.33 25.9661C159.402 25.966 159.472 25.9425 159.529 25.8991C159.586 25.8558 159.628 25.7949 159.648 25.7258L165.744 4.16486C165.767 4.08063 165.757 3.99039 165.714 3.914C165.671 3.8376 165.6 3.78129 165.516 3.75746ZM171.097 4.06482C171.096 4.02146 171.086 3.97876 171.068 3.93919C171.05 3.89961 171.025 3.86394 170.993 3.83423C170.962 3.80451 170.924 3.78134 170.884 3.76605C170.843 3.75075 170.8 3.74364 170.757 3.74512C170.713 3.74644 170.671 3.75629 170.631 3.77409C170.592 3.79189 170.556 3.81731 170.526 3.84888C170.497 3.88045 170.474 3.91757 170.458 3.9581C170.443 3.99863 170.436 4.04179 170.437 4.08511L170.476 5.34791H170.009L170.048 4.08511C170.049 4.04179 170.042 3.99864 170.027 3.95811C170.011 3.91758 169.988 3.88047 169.958 3.84889C169.929 3.81732 169.893 3.79191 169.854 3.7741C169.814 3.75629 169.771 3.74645 169.728 3.74512C169.548 3.73954 169.394 3.88266 169.388 4.06482L169.339 5.66783C169.337 5.71201 169.345 5.75602 169.361 5.79723C169.377 5.83845 169.401 5.87604 169.432 5.90777C169.462 5.9395 169.499 5.96473 169.54 5.98194C169.581 5.99916 169.624 6.00802 169.669 6.008H170.816C170.86 6.00799 170.904 5.9991 170.945 5.98187C170.986 5.96464 171.022 5.93941 171.053 5.90769C171.084 5.87597 171.108 5.83839 171.124 5.79719C171.14 5.75599 171.147 5.712 171.146 5.66783L171.097 4.06482ZM171.172 6.49678C171.169 6.41106 171.133 6.32972 171.071 6.27001C171.01 6.21031 170.927 6.17693 170.842 6.17694H169.643C169.557 6.17694 169.475 6.21032 169.413 6.27003C169.352 6.32973 169.316 6.41106 169.313 6.49678L169.227 9.31116C169.225 9.35533 169.233 9.39933 169.249 9.44055C169.265 9.48176 169.289 9.51934 169.319 9.55108C169.35 9.58281 169.387 9.60803 169.428 9.62526C169.468 9.64249 169.512 9.65137 169.556 9.65137H170.928C170.973 9.65135 171.016 9.64246 171.057 9.62523C171.098 9.60799 171.134 9.58276 171.165 9.55104C171.196 9.51931 171.22 9.48173 171.236 9.44053C171.252 9.39932 171.26 9.35533 171.258 9.31116L171.172 6.49678ZM169.897 8.99132L169.963 6.837H170.522L170.588 8.99132H169.897ZM171.291 10.369C171.288 10.2832 171.252 10.2019 171.191 10.1422C171.129 10.0825 171.047 10.0491 170.961 10.0491H169.524C169.438 10.0491 169.356 10.0825 169.294 10.1422C169.233 10.2019 169.197 10.2832 169.194 10.369L169.095 13.5811C169.094 13.6253 169.101 13.6693 169.117 13.7105C169.133 13.7517 169.157 13.7893 169.188 13.821C169.219 13.8527 169.255 13.878 169.296 13.8952C169.337 13.9124 169.381 13.9213 169.425 13.9213H171.06C171.104 13.9213 171.148 13.9124 171.189 13.8951C171.229 13.8779 171.266 13.8527 171.297 13.821C171.328 13.7892 171.352 13.7516 171.368 13.7104C171.384 13.6692 171.391 13.6252 171.39 13.5811L171.291 10.369ZM169.765 13.2612L169.844 10.7091H170.641L170.72 13.2612H169.765ZM171.436 15.0741C171.433 14.9883 171.397 14.907 171.335 14.8473C171.274 14.7876 171.191 14.7542 171.106 14.7542H169.379C169.293 14.7542 169.211 14.7876 169.149 14.8473C169.088 14.907 169.052 14.9883 169.049 15.074L168.929 18.9933C168.927 19.0375 168.935 19.0815 168.951 19.1227C168.967 19.1639 168.991 19.2015 169.022 19.2332C169.052 19.265 169.089 19.2902 169.13 19.3074C169.171 19.3246 169.214 19.3335 169.258 19.3335H171.226C171.27 19.3335 171.314 19.3246 171.355 19.3074C171.396 19.2901 171.432 19.2649 171.463 19.2332C171.494 19.2015 171.518 19.1639 171.534 19.1227C171.55 19.0815 171.557 19.0375 171.556 18.9933L171.436 15.0741ZM169.599 18.6734L169.699 15.4142H170.786L170.886 18.6734H169.599ZM171.614 20.8819C171.612 20.7961 171.576 20.7148 171.514 20.6551C171.452 20.5954 171.37 20.562 171.284 20.562H169.2C169.115 20.562 169.032 20.5954 168.971 20.6551C168.909 20.7148 168.873 20.7962 168.871 20.8819L168.724 25.6257C168.723 25.669 168.73 25.7122 168.746 25.7527C168.761 25.7933 168.784 25.8304 168.814 25.8619C168.844 25.8935 168.879 25.9189 168.919 25.9367C168.958 25.9545 169.001 25.9644 169.044 25.9657C169.225 25.9713 169.379 25.8282 169.384 25.6461L169.52 21.2221H170.964L171.101 25.6461C171.102 25.6894 171.112 25.732 171.13 25.7715C171.147 25.811 171.173 25.8466 171.204 25.8763C171.236 25.906 171.273 25.9292 171.314 25.9445C171.354 25.9599 171.397 25.9671 171.44 25.9657C171.484 25.9644 171.526 25.9546 171.566 25.9368C171.605 25.9189 171.641 25.8935 171.671 25.862C171.7 25.8304 171.724 25.7933 171.739 25.7527C171.754 25.7122 171.762 25.6691 171.76 25.6257L171.614 20.8819Z" fill="black"/>
</g>
<path d="M105.838 0C101.824 0 98.5576 3.51245 98.5576 7.82955V19.2727H97.9976C97.8491 19.2727 97.7066 19.3362 97.6016 19.4491C97.4966 19.5621 97.4376 19.7153 97.4376 19.875V21.9372C96.939 22.1715 96.5146 22.5569 96.2162 23.0463C95.9179 23.5357 95.7585 24.108 95.7576 24.6932V25.8977C95.7576 26.0575 95.8166 26.2107 95.9216 26.3236C96.0266 26.4365 96.1691 26.5 96.3176 26.5H115.358C115.506 26.5 115.649 26.4365 115.754 26.3236C115.859 26.2107 115.918 26.0575 115.918 25.8977V24.6932C115.917 24.108 115.758 23.5357 115.459 23.0463C115.161 22.5569 114.736 22.1715 114.238 21.9372V19.875C114.238 19.7153 114.179 19.5621 114.074 19.4491C113.969 19.3362 113.826 19.2727 113.678 19.2727H113.118V7.82955C113.118 3.51245 109.852 0 105.838 0ZM99.6776 7.82955C100.015 -0.958216 111.66 -0.958216 111.998 7.82955V19.2727H99.6776V7.82955ZM98.5576 20.4773H113.118V21.6818H98.5576V20.4773ZM114.798 24.6932V25.2955H96.8776V24.6932C96.8776 23.697 97.6314 22.8864 98.5576 22.8864H113.118C114.044 22.8864 114.798 23.697 114.798 24.6932Z" fill="black"/>
<path d="M108.078 6.62491H106.398V4.81809C106.398 4.65836 106.339 4.50517 106.233 4.39222C106.128 4.27927 105.986 4.21582 105.837 4.21582C105.689 4.21582 105.547 4.27927 105.442 4.39222C105.336 4.50517 105.277 4.65836 105.277 4.81809V6.62491H103.597C102.866 6.62853 102.864 7.82584 103.597 7.82946H105.277V13.2499C105.28 14.0341 106.395 14.0401 106.398 13.2499V7.82946H108.078C108.808 7.82645 108.811 6.62792 108.078 6.62491Z" fill="black"/>
<path d="M54.2044 0C49.8873 0 46.3749 3.51245 46.3749 7.82955V19.2727H45.7726C45.6129 19.2727 45.4597 19.3362 45.3467 19.4491C45.2338 19.5621 45.1703 19.7153 45.1703 19.875V21.9372C44.6341 22.1715 44.1776 22.5569 43.8568 23.0463C43.5359 23.5357 43.3645 24.108 43.3635 24.6932V25.8977C43.3635 26.0575 43.427 26.2107 43.5399 26.3236C43.6529 26.4365 43.8061 26.5 43.9658 26.5H64.4431C64.6028 26.5 64.756 26.4365 64.8689 26.3236C64.9819 26.2107 65.0453 26.0575 65.0453 25.8977V24.6932C65.0443 24.108 64.8729 23.5357 64.5521 23.0463C64.2312 22.5569 63.7748 22.1715 63.2385 21.9372V19.875C63.2385 19.7153 63.1751 19.5621 63.0621 19.4491C62.9492 19.3362 62.796 19.2727 62.6363 19.2727H62.034V7.82955C62.034 3.51245 58.5215 0 54.2044 0ZM47.5794 7.82955C47.9426 -0.958216 60.4663 -0.958216 60.8294 7.82955V19.2727H47.5794V7.82955ZM46.3749 20.4773H62.034V21.6818H46.3749V20.4773ZM63.8408 24.6932V25.2955H44.5681V24.6932C44.5681 23.697 45.3787 22.8864 46.3749 22.8864H62.034C63.0301 22.8864 63.8408 23.697 63.8408 24.6932Z" fill="black"/>
<path d="M56.6136 6.62393H54.8068V4.81712C54.8068 4.65738 54.7433 4.50419 54.6304 4.39125C54.5174 4.2783 54.3642 4.21484 54.2045 4.21484C54.0448 4.21484 53.8916 4.2783 53.7786 4.39125C53.6657 4.50419 53.6022 4.65738 53.6022 4.81712V6.62393H51.7954C51.0089 6.62755 51.0064 7.82487 51.7954 7.82848H53.6022V13.2489C53.6046 14.0331 54.8038 14.0391 54.8068 13.2489V7.82848H56.6136C57.3996 7.82547 57.4026 6.62695 56.6136 6.62393Z" fill="black"/>
<path d="M33.144 0C28.501 0 24.7235 3.77755 24.7235 8.42045V20.7273H24.0758C23.904 20.7273 23.7392 20.7955 23.6178 20.917C23.4963 21.0385 23.428 21.2032 23.428 21.375V23.5928C22.8513 23.8448 22.3604 24.2593 22.0153 24.7856C21.6703 25.312 21.4859 25.9274 21.4849 26.5568V27.8523C21.4849 28.0241 21.5531 28.1888 21.6746 28.3103C21.7961 28.4318 21.9608 28.5 22.1326 28.5H44.1553C44.3271 28.5 44.4919 28.4318 44.6133 28.3103C44.7348 28.1888 44.803 28.0241 44.803 27.8523V26.5568C44.802 25.9274 44.6176 25.312 44.2726 24.7856C43.9275 24.2593 43.4366 23.8448 42.8599 23.5928V21.375C42.8599 21.2032 42.7916 21.0385 42.6701 20.917C42.5487 20.7955 42.3839 20.7273 42.2121 20.7273H41.5644V8.42045C41.5644 3.77755 37.7869 0 33.144 0ZM26.019 8.42045C26.4095 -1.03053 39.8784 -1.03053 40.269 8.42045V20.7273H26.019V8.42045ZM24.7235 22.0227H41.5644V23.3182H24.7235V22.0227ZM43.5076 26.5568V27.2045H22.7803V26.5568C22.7803 25.4855 23.6522 24.6136 24.7235 24.6136H41.5644C42.6357 24.6136 43.5076 25.4855 43.5076 26.5568Z" fill="#005FB0"/>
<path d="M35.7347 7.12509H33.7915V5.18191C33.7915 5.01012 33.7233 4.84537 33.6018 4.72389C33.4804 4.60242 33.3156 4.53418 33.1438 4.53418C32.972 4.53418 32.8073 4.60242 32.6858 4.72389C32.5643 4.84537 32.4961 5.01012 32.4961 5.18191V7.12509H30.5529C29.707 7.12898 29.7044 8.41666 30.5529 8.42054H32.4961V14.2501C32.4987 15.0934 33.7883 15.0999 33.7915 14.2501V8.42054H35.7347C36.58 8.4173 36.5832 7.12833 35.7347 7.12509Z" fill="#005FB0"/>
<path d="M126.477 0C122.16 0 118.648 3.51245 118.648 7.82955V19.2727H118.046C117.886 19.2727 117.733 19.3362 117.62 19.4491C117.507 19.5621 117.443 19.7153 117.443 19.875V21.9372C116.907 22.1715 116.451 22.5569 116.13 23.0463C115.809 23.5357 115.637 24.108 115.636 24.6932V25.8977C115.636 26.0575 115.7 26.2107 115.813 26.3236C115.926 26.4365 116.079 26.5 116.239 26.5H136.716C136.876 26.5 137.029 26.4365 137.142 26.3236C137.255 26.2107 137.318 26.0575 137.318 25.8977V24.6932C137.317 24.108 137.146 23.5357 136.825 23.0463C136.504 22.5569 136.048 22.1715 135.511 21.9372V19.875C135.511 19.7153 135.448 19.5621 135.335 19.4491C135.222 19.3362 135.069 19.2727 134.909 19.2727H134.307V7.82955C134.307 3.51245 130.794 0 126.477 0ZM119.852 7.82955C120.216 -0.958216 132.739 -0.958216 133.102 7.82955V19.2727H119.852V7.82955ZM118.648 20.4773H134.307V21.6818H118.648V20.4773ZM136.114 24.6932V25.2955H116.841V24.6932C116.841 23.697 117.652 22.8864 118.648 22.8864H134.307C135.303 22.8864 136.114 23.697 136.114 24.6932Z" fill="black"/>
<path d="M128.886 6.62393H127.079V4.81712C127.079 4.65738 127.016 4.50419 126.903 4.39125C126.79 4.2783 126.637 4.21484 126.477 4.21484C126.317 4.21484 126.164 4.2783 126.051 4.39125C125.938 4.50419 125.875 4.65738 125.875 4.81712V6.62393H124.068C123.281 6.62755 123.279 7.82487 124.068 7.82848H125.875V13.2489C125.877 14.0331 127.076 14.0391 127.079 13.2489V7.82848H128.886C129.672 7.82547 129.675 6.62695 128.886 6.62393Z" fill="black"/>
<path d="M147.174 0C142.531 0 138.754 3.77755 138.754 8.42045V20.7273H138.106C137.934 20.7273 137.77 20.7955 137.648 20.917C137.527 21.0385 137.458 21.2032 137.458 21.375V23.5928C136.882 23.8448 136.391 24.2593 136.046 24.7856C135.701 25.312 135.516 25.9274 135.515 26.5568V27.8523C135.515 28.0241 135.583 28.1888 135.705 28.3103C135.826 28.4318 135.991 28.5 136.163 28.5H158.186C158.357 28.5 158.522 28.4318 158.644 28.3103C158.765 28.1888 158.833 28.0241 158.833 27.8523V26.5568C158.832 25.9274 158.648 25.312 158.303 24.7856C157.958 24.2593 157.467 23.8448 156.89 23.5928V21.375C156.89 21.2032 156.822 21.0385 156.7 20.917C156.579 20.7955 156.414 20.7273 156.242 20.7273H155.595V8.42045C155.595 3.77755 151.817 0 147.174 0ZM140.049 8.42045C140.44 -1.03053 153.909 -1.03053 154.299 8.42045V20.7273H140.049V8.42045ZM138.754 22.0227H155.595V23.3182H138.754V22.0227ZM157.538 26.5568V27.2045H136.811V26.5568C136.811 25.4855 137.682 24.6136 138.754 24.6136H155.595C156.666 24.6136 157.538 25.4855 157.538 26.5568Z" fill="#005FB0"/>
<path d="M149.765 7.12509H147.822V5.18191C147.822 5.01012 147.754 4.84537 147.632 4.72389C147.511 4.60242 147.346 4.53418 147.174 4.53418C147.002 4.53418 146.838 4.60242 146.716 4.72389C146.595 4.84537 146.526 5.01012 146.526 5.18191V7.12509H144.583C143.737 7.12898 143.735 8.41666 144.583 8.42054H146.526V14.2501C146.529 15.0934 147.819 15.0999 147.822 14.2501V8.42054H149.765C150.61 8.4173 150.614 7.12833 149.765 7.12509Z" fill="#005FB0"/>
<mask id="path-15-inside-1_119_933" fill="white">
<path d="M90.6807 23.5127C90.7231 23.3332 90.9032 23.2221 91.0825 23.2644C91.1251 23.2745 91.1654 23.2929 91.201 23.3185C91.2366 23.3441 91.2667 23.3765 91.2898 23.4138C91.3128 23.4511 91.3283 23.4926 91.3354 23.5359C91.3424 23.5792 91.3408 23.6234 91.3307 23.6661L90.8175 25.8408C90.7963 25.926 90.7423 25.9994 90.6673 26.0451C90.5923 26.0908 90.5023 26.1052 90.4168 26.085C90.3313 26.0648 90.2572 26.0118 90.2105 25.9373C90.1639 25.8629 90.1484 25.7731 90.1675 25.6874L90.6807 23.5127Z"/>
<path d="M95.3162 3.87059C95.3586 3.69107 95.5387 3.57993 95.7179 3.62228C95.8041 3.64262 95.8787 3.69638 95.9252 3.77171C95.9718 3.84704 95.9865 3.93779 95.9662 4.02399L91.6628 22.2591C91.6421 22.3449 91.5882 22.419 91.513 22.4652C91.4378 22.5114 91.3474 22.526 91.2615 22.5057C91.1756 22.4854 91.1012 22.432 91.0546 22.357C91.008 22.2821 90.993 22.1917 91.0128 22.1057L95.3162 3.87059Z"/>
<path d="M94.6726 3.65587C94.7499 3.61264 94.8412 3.60189 94.9264 3.62597C95.0116 3.65009 95.0838 3.70706 95.127 3.78437C95.1702 3.86167 95.181 3.95298 95.1569 4.03821L88.9885 25.855C88.9687 25.9249 88.9267 25.9865 88.8687 26.0304C88.8107 26.0743 88.7401 26.0981 88.6674 26.0981C88.6366 26.0981 88.6059 26.0938 88.5763 26.0854C88.5341 26.0735 88.4947 26.0534 88.4603 26.0262C88.4258 25.999 88.3971 25.9653 88.3757 25.9271C88.3543 25.8888 88.3407 25.8467 88.3355 25.8031C88.3304 25.7596 88.3339 25.7154 88.3459 25.6732L94.5143 3.85646C94.5384 3.77125 94.5953 3.69909 94.6726 3.65587Z"/>
</mask>
<path d="M90.6807 23.5127C90.7231 23.3332 90.9032 23.2221 91.0825 23.2644C91.1251 23.2745 91.1654 23.2929 91.201 23.3185C91.2366 23.3441 91.2667 23.3765 91.2898 23.4138C91.3128 23.4511 91.3283 23.4926 91.3354 23.5359C91.3424 23.5792 91.3408 23.6234 91.3307 23.6661L90.8175 25.8408C90.7963 25.926 90.7423 25.9994 90.6673 26.0451C90.5923 26.0908 90.5023 26.1052 90.4168 26.085C90.3313 26.0648 90.2572 26.0118 90.2105 25.9373C90.1639 25.8629 90.1484 25.7731 90.1675 25.6874L90.6807 23.5127Z" fill="black"/>
<path d="M95.3162 3.87059C95.3586 3.69107 95.5387 3.57993 95.7179 3.62228C95.8041 3.64262 95.8787 3.69638 95.9252 3.77171C95.9718 3.84704 95.9865 3.93779 95.9662 4.02399L91.6628 22.2591C91.6421 22.3449 91.5882 22.419 91.513 22.4652C91.4378 22.5114 91.3474 22.526 91.2615 22.5057C91.1756 22.4854 91.1012 22.432 91.0546 22.357C91.008 22.2821 90.993 22.1917 91.0128 22.1057L95.3162 3.87059Z" fill="black"/>
<path d="M94.6726 3.65587C94.7499 3.61264 94.8412 3.60189 94.9264 3.62597C95.0116 3.65009 95.0838 3.70706 95.127 3.78437C95.1702 3.86167 95.181 3.95298 95.1569 4.03821L88.9885 25.855C88.9687 25.9249 88.9267 25.9865 88.8687 26.0304C88.8107 26.0743 88.7401 26.0981 88.6674 26.0981C88.6366 26.0981 88.6059 26.0938 88.5763 26.0854C88.5341 26.0735 88.4947 26.0534 88.4603 26.0262C88.4258 25.999 88.3971 25.9653 88.3757 25.9271C88.3543 25.8888 88.3407 25.8467 88.3355 25.8031C88.3304 25.7596 88.3339 25.7154 88.3459 25.6732L94.5143 3.85646C94.5384 3.77125 94.5953 3.69909 94.6726 3.65587Z" fill="black"/>
<path d="M91.0825 23.2644L91.3122 22.2911L91.312 22.2911L91.0825 23.2644ZM90.6807 23.5127L91.654 23.7424L91.654 23.7423L90.6807 23.5127ZM90.1675 25.6874L89.1942 25.4577L89.1915 25.4699L90.1675 25.6874ZM90.4168 26.085L90.6465 25.1117L90.6465 25.1117L90.4168 26.085ZM90.8175 25.8408L91.7879 26.0826L91.7908 26.0704L90.8175 25.8408ZM91.3307 23.6661L90.3575 23.4363L90.3575 23.4364L91.3307 23.6661ZM91.3354 23.5359L92.3224 23.3758L92.3224 23.3757L91.3354 23.5359ZM91.2898 23.4138L90.4391 23.9395L90.4391 23.9396L91.2898 23.4138ZM91.201 23.3185L91.7857 22.5072L91.7857 22.5072L91.201 23.3185ZM95.7179 3.62228L95.4879 4.59547L95.4882 4.59555L95.7179 3.62228ZM95.3162 3.87059L94.3429 3.64078L94.3429 3.64091L95.3162 3.87059ZM91.0128 22.1057L90.0395 21.876L90.0383 21.8811L91.0128 22.1057ZM91.0546 22.357L91.9038 21.829L91.9038 21.829L91.0546 22.357ZM91.6628 22.2591L92.6349 22.4939L92.6361 22.4888L91.6628 22.2591ZM95.9662 4.02399L96.9395 4.25368L96.9395 4.25366L95.9662 4.02399ZM95.9252 3.77171L96.7758 3.24591V3.24591L95.9252 3.77171ZM94.9264 3.62597L95.1987 2.66375L95.1983 2.66365L94.9264 3.62597ZM94.6726 3.65587L95.1607 4.52866L95.1607 4.52865L94.6726 3.65587ZM94.5143 3.85646L93.552 3.58437L93.552 3.58439L94.5143 3.85646ZM88.3459 25.6732L89.3081 25.9454L89.3081 25.9453L88.3459 25.6732ZM88.3355 25.8031L89.3287 25.6863L88.3355 25.8031ZM88.3757 25.9271L89.2486 25.4391H89.2486L88.3757 25.9271ZM88.5763 26.0854L88.8492 25.1234L88.8484 25.1231L88.5763 26.0854ZM88.6674 26.0981L88.6664 27.0981L88.6684 27.0981L88.6674 26.0981ZM88.8687 26.0304L88.2651 25.2331L88.265 25.2331L88.8687 26.0304ZM88.9885 25.855L89.9507 26.1272L89.9508 26.127L88.9885 25.855ZM95.1569 4.03821L96.1192 4.31028L96.1192 4.31013L95.1569 4.03821ZM95.127 3.78437L94.2542 4.27239V4.27239L95.127 3.78437ZM91.312 22.2911C90.5962 22.1223 89.8768 22.5651 89.7075 23.2831L91.654 23.7423C91.5694 24.1012 91.2103 24.322 90.8529 24.2377L91.312 22.2911ZM89.7075 23.283L89.1943 25.4577L91.1408 25.917L91.654 23.7424L89.7075 23.283ZM89.1915 25.4699C89.1152 25.8124 89.1769 26.1711 89.3632 26.4684L91.0578 25.4062C91.1509 25.5547 91.1817 25.7338 91.1436 25.9048L89.1915 25.4699ZM89.3632 26.4684C89.5496 26.7657 89.8456 26.9777 90.1871 27.0583L90.6465 25.1117C90.817 25.152 90.9648 25.2578 91.0578 25.4062L89.3632 26.4684ZM90.1871 27.0583C90.5286 27.1389 90.8881 27.0816 91.1877 26.899L90.1468 25.1912C90.2964 25.1001 90.4759 25.0715 90.6465 25.1117L90.1871 27.0583ZM91.1877 26.899C91.4873 26.7164 91.703 26.4231 91.7878 26.0826L89.8472 25.5989C89.8896 25.4289 89.9973 25.2824 90.1468 25.1912L91.1877 26.899ZM91.7908 26.0704L92.304 23.8958L90.3575 23.4364L89.8443 25.6111L91.7908 26.0704ZM92.304 23.8959C92.3442 23.7254 92.3505 23.5487 92.3224 23.3758L90.3483 23.696C90.3342 23.6097 90.3374 23.5214 90.3575 23.4363L92.304 23.8959ZM92.3224 23.3757C92.2944 23.2028 92.2325 23.0371 92.1404 22.8881L90.4391 23.9396C90.3931 23.8651 90.3623 23.7824 90.3483 23.696L92.3224 23.3757ZM92.1405 22.8881C92.0483 22.7391 91.9278 22.6097 91.7857 22.5072L90.6163 24.1297C90.5453 24.0786 90.4851 24.014 90.4391 23.9395L92.1405 22.8881ZM91.7857 22.5072C91.6435 22.4048 91.4827 22.3314 91.3122 22.2911L90.8528 24.2377C90.7676 24.2176 90.6873 24.1809 90.6163 24.1298L91.7857 22.5072ZM95.9479 2.6491C95.2312 2.4797 94.5123 2.92363 94.3429 3.64078L96.2894 4.10041C96.2048 4.45851 95.8462 4.68016 95.4879 4.59547L95.9479 2.6491ZM94.3429 3.64091L90.0395 21.876L91.986 22.3354L96.2894 4.10028L94.3429 3.64091ZM90.0383 21.8811C89.9591 22.2247 90.0192 22.5856 90.2054 22.8851L91.9038 21.829C91.9968 21.9785 92.0268 22.1587 91.9872 22.3303L90.0383 21.8811ZM90.2054 22.8851C90.3915 23.1845 90.6887 23.398 91.0318 23.479L91.4912 21.5324C91.6625 21.5729 91.8109 21.6795 91.9038 21.829L90.2054 22.8851ZM91.0318 23.479C91.375 23.56 91.7362 23.5018 92.0366 23.3172L90.9895 21.6132C91.1395 21.5211 91.3198 21.492 91.4912 21.5324L91.0318 23.479ZM92.0366 23.3172C92.337 23.1326 92.5521 22.8366 92.6348 22.4939L90.6907 22.0243C90.7321 21.8532 90.8395 21.7054 90.9895 21.6132L92.0366 23.3172ZM92.6361 22.4888L96.9395 4.25368L94.9929 3.7943L90.6895 22.0294L92.6361 22.4888ZM96.9395 4.25366C97.0207 3.90933 96.9619 3.54684 96.7758 3.24591L95.0746 4.29751C94.9817 4.14725 94.9523 3.96625 94.9929 3.79432L96.9395 4.25366ZM96.7758 3.24591C96.5898 2.94499 96.2919 2.73028 95.9476 2.64902L95.4882 4.59555C95.3163 4.55497 95.1675 4.44776 95.0746 4.29751L96.7758 3.24591ZM95.1983 2.66365C94.8579 2.56746 94.4932 2.61042 94.1845 2.78308L95.1607 4.52865C95.0065 4.61487 94.8245 4.63632 94.6545 4.58829L95.1983 2.66365ZM94.1845 2.78308C93.8758 2.95574 93.6482 3.24397 93.552 3.58437L95.4765 4.12856C95.4285 4.29853 95.3149 4.44244 95.1607 4.52866L94.1845 2.78308ZM93.552 3.58439L87.3836 25.4012L89.3081 25.9453L95.4765 4.12853L93.552 3.58439ZM87.3836 25.401C87.3359 25.5696 87.3219 25.7459 87.3424 25.9199L89.3287 25.6863C89.3389 25.7732 89.3319 25.8613 89.3081 25.9454L87.3836 25.401ZM87.3424 25.9199C87.3628 26.0939 87.4174 26.2621 87.5029 26.415L89.2486 25.4391C89.2912 25.5154 89.3185 25.5994 89.3287 25.6863L87.3424 25.9199ZM87.5029 26.415C87.5883 26.5679 87.7031 26.7025 87.8406 26.8111L89.0799 25.2413C89.1486 25.2955 89.2059 25.3627 89.2486 25.4391L87.5029 26.415ZM87.8406 26.8111C87.9781 26.9196 88.1357 27 88.3043 27.0477L88.8484 25.1231C88.9326 25.1469 89.0112 25.1871 89.0799 25.2413L87.8406 26.8111ZM88.3034 27.0475C88.4215 27.081 88.5436 27.098 88.6664 27.0981L88.6684 25.0981C88.7295 25.0982 88.7903 25.1067 88.8492 25.1234L88.3034 27.0475ZM88.6684 27.0981C88.9587 27.0978 89.2409 27.0029 89.4724 26.8276L88.265 25.2331C88.3806 25.1457 88.5214 25.0983 88.6663 25.0981L88.6684 27.0981ZM89.4723 26.8276C89.7038 26.6524 89.8717 26.4065 89.9507 26.1272L88.0263 25.5827C88.0657 25.4433 88.1495 25.3206 88.2651 25.2331L89.4723 26.8276ZM89.9508 26.127L96.1192 4.31028L94.1946 3.76614L88.0262 25.5829L89.9508 26.127ZM96.1192 4.31013C96.2154 3.96974 96.1725 3.60508 95.9998 3.29634L94.2542 4.27239C94.168 4.11826 94.1466 3.93622 94.1946 3.76629L96.1192 4.31013ZM95.9998 3.29634C95.8272 2.98761 95.5391 2.76007 95.1987 2.66375L94.6541 4.58819C94.4842 4.54011 94.3404 4.42651 94.2542 4.27239L95.9998 3.29634Z" fill="black" mask="url(#path-15-inside-1_119_933)"/>
<defs>
<clipPath id="clip0_119_933">
<rect width="22.4848" height="22.4848" fill="white" transform="translate(0 3.61328)"/>
</clipPath>
<clipPath id="clip1_119_933">
<rect width="22.4848" height="22.4848" fill="white" transform="translate(159 3.61328)"/>
</clipPath>
</defs>
</svg>
