<?xml version="1.0" encoding="UTF-8"?>
<svg version="1.1" viewBox="0 0 2048 2048" width="512" height="512" xmlns="http://www.w3.org/2000/svg">
<path transform="translate(81,465)" d="m0 0h1538l9 3 6 4 6 7 4 10v12l-4 9-7 8-7 5-12 2-1530 1-10 4-7 6-5 10-1 5v946l3 10 5 7 8 5 10 3 1306 1 11 4 7 6 5 8 2 6v11l-3 8-4 6-9 8-6 2-9 1h-1302l-16-2-15-5-13-7-14-11-8-9-9-14-6-14-4-14v-968l7-20 8-15 9-11 7-7 14-10 13-6 15-4z" fill="#FAFAFA"/>
<path transform="translate(975,899)" d="m0 0 417 1 9 3 8 6 6 9 2 8v173l-2 9-7 10-6 5-10 3h-1149l-10-4-7-6-6-12-1-6v-171l2-9 8-11 10-6 4-1h591l8 3 8 6 6 10 2 7v7l-3 10-7 9-7 5-6 2-13 1h-542v106l1076-1 1-105h-410l-10-2-9-5-7-9-3-7v-14l4-9 7-8 11-6z" fill="#F6F6F6"/>
<path transform="translate(1728,465)" d="m0 0h239l17 3 13 5 16 10 13 12 9 13 7 14 6 19v965l-6 20-7 14-8 11-7 8-12 9-15 8-16 5-18 2h-454l-9-2-10-7-6-10-2-6v-11l4-10 7-8 9-5 4-1 458-1 9-2 9-6 6-8 2-6 1-8v-938l-2-10-6-10-9-6-7-2-232-1-8-2-9-5-6-8-4-10v-10l4-11 7-8 10-5z" fill="#FBFBFB"/>
<path transform="translate(1670,726)" d="m0 0 13 2 8 5 5 5 5 9 1 4v22l16 4 15 6 13 7 14 10 7 9 4 10v8l-3 10-6 8-8 6-10 3h-7l-10-3-15-10-9-5v95l26 10 16 9 13 10 10 10 10 14 8 16 5 16 2 14v19l-3 18-7 21-10 18-12 16-10 10-16 11-15 8-17 6-1 27-4 10-7 8-9 5-5 1h-11l-10-4-8-7-5-9-1-4v-24l-14-2-17-4-21-9-19-11-10-9-5-10-1-10 2-9 5-8 5-5 6-4 6-2h12l10 4 22 12 14 5 5 1v-127l-5-2-21-11-15-10-13-11-9-12-8-15-5-17-1-7v-21l3-17 6-17 9-16 8-10 5-6 14-11 12-7 18-7h2v-24l3-8 4-6 8-7 6-3zm-30 116-7 8-6 12-2 8v12l4 11 7 7 6 3v-61zm62 154v96l5-2 11-10 6-9 5-10 3-10 1-15-3-14-6-11-8-8-11-7z" fill="#F8F8F8"/>
<path transform="translate(246,685)" d="m0 0h391l10 2 9 6 5 6 4 9v14l-4 9-7 8-10 5-6 1h-394l-11-4-5-4-6-9-3-10 1-11 5-10 7-7 8-4z" fill="#F9F9F9"/>
<path transform="translate(1485,1303)" d="m0 0h328l10 4 8 8 5 10v15l-5 10-5 6-7 4-6 2-63 1h-250l-15-1-9-4-8-7-5-11-1-4v-7l3-10 7-9 9-6z" fill="#F9F9F9"/>
<path transform="translate(563,1303)" d="m0 0h154l8 3 9 8 5 9 1 4v12l-6 12-7 7-11 4-84 1h-56l-16-2-9-6-6-8-4-11v-7l3-10 7-9 9-6z" fill="#F9F9F9"/>
<path transform="translate(242,1303)" d="m0 0h153l8 3 9 8 5 10 1 3v10l-4 11-8 9-8 4-4 1-90 1h-51l-12-1-10-5-7-8-4-8-1-11 2-9 7-10 5-4z" fill="#F9F9F9"/>
<path transform="translate(886,1303)" d="m0 0h154l10 5 7 7 5 11v13l-4 9-7 8-6 4-7 2-87 1h-52l-13-1-8-3-8-7-6-12v-15l5-10 5-6z" fill="#F8F8F8"/>
<path transform="translate(81,465)" d="m0 0h1538l7 2v1h-1558v-1z" fill="#161616"/>
<path transform="translate(1401,1578)" d="m0 0 2 1-7 3-9 1h-1302l-15-2v-1l1323-1z" fill="#1F1F1F"/>
<path transform="translate(1490,1576)" d="m0 0 10 3h480l-3 2-18 2h-454l-9-2-6-4z" fill="#282828"/>
<path transform="translate(246,685)" d="m0 0h391l10 2 5 3-3 1-4-2-407-1 2-2z" fill="#1E1E1E"/>
<path transform="translate(1473,1355)" d="m0 0 6 2 5 2h335l-2 2-4 1-63 1h-250l-15-1-9-4z" fill="#3A3A3A"/>
<path transform="translate(1728,465)" d="m0 0h239l13 2v1h-258l3-2z" fill="#161616"/>
<path transform="translate(548,1350)" d="m0 0 8 6 7 3 157 1-4 2-84 1h-56l-16-2-9-6-3-3z" fill="#2C2C2C"/>
<path transform="translate(402,1356)" d="m0 0 4 1-8 4-4 1-90 1h-51l-12-1-5-2 3-1h152l10-2z" fill="#2C2C2C"/>
<path transform="translate(1046,1356)" d="m0 0 4 1-8 4-4 1-87 1h-52l-13-1-3-2 152-1 10-2z" fill="#2C2C2C"/>
<path transform="translate(1357,960)" d="m0 0h3v100l-2 5-2-1z" fill="#181818"/>
<path transform="translate(1700,836)" d="m0 0h2l1 95 21 8-4 1-7-3-10-3-3-3z" fill="#171717"/>
<path transform="translate(1641,840)" d="m0 0h3v63l-1 1h-5l-7-6-4-6 1-3 4 6 7 6 2 1z" fill="#161616"/>
<path transform="translate(1643,747)" d="m0 0h1v28l-10 5-14 6-11 7-4 3-3-1 13-9 14-7 11-4h2v-24z" fill="#1A1A1A"/>
<path transform="translate(1568,898)" d="m0 0 3 4 4 11 8 15 14 14v2l4 2 3 4-4-2-12-10-9-12-8-15-3-9z" fill="#181818"/>
<path transform="translate(1579,1077)" d="m0 0h12l6 2v1l-23 1-6 4h-2l-2 5-3 4-4 9-1-4 5-10 4-5 8-5z" fill="#1D1D1D"/>
<path transform="translate(1735,945)" d="m0 0 5 2 12 8 12 11 8 9 3 4-1 2-12-13-2-1v-2h-2v-2h-2v-2l-4-2-7-6-9-6z" fill="#1F1F1F"/>
<path transform="translate(1567,854)" d="m0 0h1v44l-2-4-1-7v-21z" fill="#1A1A1A"/>
<path transform="translate(49,474)" d="m0 0 2 1-12 8-11 9-7 8-7 9v-3l8-11 9-9 14-10z" fill="#505050"/>
<path transform="translate(1763,805)" d="m0 0 4 4 4 10v8l-3 10-4 5 1-5 2-4v-18l-4-8z" fill="#1C1C1C"/>
<path transform="translate(1718,469)" d="m0 0 2 1-8 8-3 5-3 9v6l2 6-1 4-3-8v-10l4-11 7-8z" fill="#161616"/>
<path transform="translate(1699,745)" d="m0 0 2 2 1 4v22l10 2v1h-9l-3-1z" fill="#1C1C1C"/>
<path transform="translate(546,1316)" d="m0 0 1 3-2 4v18l3 6-1 3-5-10-1-4v-7l3-10z" fill="#1C1C1C"/>
<path transform="translate(31,1560)" d="m0 0 4 1 7 6 16 8 5 2 1 2-10-3-13-7-10-8z" fill="#161616"/>
<path transform="translate(220,1337)" d="m0 0 3 4 5 8 8 9h-3l-8-7-5-10z" fill="#1A1A1A"/>
<path transform="translate(0,1503)" d="m0 0 3 1 3 15 2 4v6l-2-3-5-15z" fill="#161616"/>
<path transform="translate(864,1337)" d="m0 0 3 4 5 8 3 3v2h2l3 5-5-2-7-8-4-9z" fill="#232323"/>
<path transform="translate(1481,1304)" d="m0 0 4 1-8 5-8 7-4 8-1-3 5-9 7-6z" fill="#232323"/>
<path transform="translate(1415,1100)" d="m0 0h1l-1 8-7 10-6 5-3-1 8-7 5-7z" fill="#1E1E1E"/>
<path transform="translate(234,689)" d="m0 0 2 1-8 8-4 6-3 7-1-4 5-10 7-7z" fill="#161616"/>
<path transform="translate(7,519)" d="m0 0h1l-1 8-4 16-3 1 1-7z" fill="#232323"/>
<path transform="translate(1834,1339)" d="m0 0 1 4-6 10-7 6-3-1 5-5 7-8z" fill="#1F1F1F"/>
<path transform="translate(220,1101)" d="m0 0 3 4 5 8 7 8h-3l-6-5-6-12z" fill="#1F1F1F"/>
<path transform="translate(2014,1560)" d="m0 0 3 1-9 7-15 8-3-1 17-9z" fill="#1A1A1A"/>
<path transform="translate(663,722)" d="m0 0 1 3-5 9-8 7-4 2-3-1 8-5 7-7z" fill="#1F1F1F"/>
<path transform="translate(1394,1524)" d="m0 0 6 1 9 6 5 6-1 2-10-9-9-5z" fill="#161616"/>
<path transform="translate(1628,469)" d="m0 0 5 2 7 8 3 6-1 3-7-11-5-5z" fill="#1F1F1F"/>
<path transform="translate(1498,1524)" d="m0 0 4 1-9 5-10 9v-3l6-7z" fill="#161616"/>
<path transform="translate(738,1339)" d="m0 0 1 3-5 9-7 7-4 1 12-14z" fill="#161616"/>
<path transform="translate(1697,1192)" d="m0 0 1 2-7 8-9 5-3-1 9-5 3-1 2-4z" fill="#1B1B1B"/>
<path transform="translate(1987,1496)" d="m0 0h1v10l-9 10-2-1 6-7z" fill="#161616"/>
<path transform="translate(1568,1082)" d="m0 0m-1 1 1 2h-2l-2 5-3 4-4 9-1-4 5-10 4-5z" fill="#161616"/>
<path transform="translate(2e3 475)" d="m0 0 6 2 11 8 4 4-6-2-10-8-5-3z" fill="#161616"/>
<path transform="translate(1622,1156)" d="m0 0h17l3 4-14-2-6-1z" fill="#161616"/>
<path transform="translate(49,474)" d="m0 0 2 1-12 8-6 5-3-1 12-9z" fill="#222"/>
<path transform="translate(1627,889)" d="m0 0 4 5 8 7 2 1v2l-4-1-6-5-4-6z" fill="#222"/>
<path transform="translate(401,1306)" d="m0 0 5 2 8 9-1 2-5-4v-2h-2v-2h-2z" fill="#232323"/>
<path transform="translate(1718,469)" d="m0 0 2 1-8 8-3 5h-2l2-5 6-7z" fill="#1C1C1C"/>
<path transform="translate(239,1304)" d="m0 0 3 1-9 5-5 4-4 4 2-5 7-6z" fill="#232323"/>
<path transform="translate(1657,730)" d="m0 0 2 1-12 12-1-2 7-8z" fill="#161616"/>
<path transform="translate(1684,729)" d="m0 0 6 3 5 5 3 4-1 2-5-6-8-6z" fill="#1D1D1D"/>
<path transform="translate(1981,535)" d="m0 0 6 5 1 2v9l-7-14z" fill="#161616"/>
<path transform="translate(1045,1306)" d="m0 0 5 2 7 7 1 4-7-6z" fill="#161616"/>
<path transform="translate(1617,785)" d="m0 0m-2 1h2v2l-11 7-4 1 5-5z" fill="#161616"/>
<path transform="translate(2043,528)" d="m0 0 2 3 3 10v3l-3-1-2-11z" fill="#1D1D1D"/>
<path transform="translate(60,1497)" d="m0 0h1l3 10 3 4-1 2-6-6z" fill="#1D1D1D"/>
<path transform="translate(31,1560)" d="m0 0 4 1 7 6 3 2-1 2-12-9z" fill="#1E1E1E"/>
<path transform="translate(2047,1503)" d="m0 0 1 3-3 10h-1v-10z" fill="#161616"/>
<path transform="translate(14,1540)" d="m0 0 5 4 5 7-1 2-7-8z" fill="#161616"/>
</svg>
