<?xml version="1.0" encoding="UTF-8"?>
<svg version="1.1" viewBox="0 0 2048 2048" width="512" height="512" xmlns="http://www.w3.org/2000/svg">
<path transform="translate(82)" d="m0 0h1347l14 8 8 9 5 10 2 9v150l10-1h135l14 2 9 5 8 7 6 10 3 10v440l-2 9-5 9-7 8-10 6-12 3h-10l-10-3-10-6-7-8-5-10-2-8-1-51v-65l1-278-1244 1-1 1702h1098l-12-12-8-7-15-15-7-8-11-13-13-18-10-15-11-19-14-29-9-23-8-27-6-26-4-28-1-12v-47l2-21 3-22-5-10-12-19-17-28-16-26-13-21-6-12-2-9 1-13 5-12 9-10 10-6 6-2 10-1 114-1 6-5 7-8 11-11 11-9 9-8 19-14 17-11 25-14 17-8 20-8 21-7 22-6h2l-1-214v-34l1-99 3-10 7-11 8-7 10-5 6-1h12l10 3 10 6 8 9 4 8 2 8 1 338 32 2 28 4 24 5 27 8 26 10 29 14 17 10 12 8 14 10 16 13 10 9 12 11 9 9 7 8 11 13 12 16 13 20 9 16 8 15 11 25 10 30 7 28 4 24 2 20 1 31-1 24-4 31-5 24-7 26-10 27-9 20-10 19-11 18-12 17-11 14-12 14-12 13-14 13-11 9-12 10-20 14-20 12-27 14-19 8-19 7-25 7-29 6-20 3-11 1h-1395l-15-8-8-8-6-12-2-11v-147l-138 1-16-1-10-4-10-7-6-9-4-9-1-6v-1793l3-10 7-11 8-7zm51 80v1703h104l1-1 1-1560 3-12 6-10 9-8 11-5 9-1h1099l2-7v-99zm1486 1339-23 3-23 5-20 6-21 8-21 10-20 12-14 10-13 10-13 12-18 18-9 11-9 7-9 4-4 1-56 1h-12l1 4 12 20 14 23 8 13 5 12 1 11-5 27-3 24v43l3 24 5 23 7 23 11 26 13 24 10 15 9 12 11 13 25 25 11 9 19 14 26 15 22 10 22 8 23 6 25 4 22 2h19l25-2 27-5 19-5 20-7 20-9 19-10 21-14 18-14 13-12 14-14 9-11 10-13 12-19 14-27 8-20 6-19 6-27 3-23 1-16v-14l-2-26-4-24-6-23-6-18-10-23-9-17-12-19-10-13-12-14-12-13-12-11-11-9-18-13-24-14-21-10-25-9-28-7-20-3-12-1z" fill="#005DAD"/>
<path transform="translate(621,1526)" d="m0 0 12 1 12 5 10 9 8 14 13 27 13 28 19 39 13 28 8 17h2l7-12 14-21 11-16 8-7 11-5 5-1h13l11 4 9 6 9 11 14 24 9 15 19 32 7 12 2 1 161 1 10 3 10 7 7 8 5 11 1 4v13l-3 10-6 9-5 5-5 4-9 4-15 2h-178l-10-2-10-5-8-7-10-16-16-27-7-12-3 3-12 19-20 30-7 8-11 6-11 3h-8l-12-3-10-6-8-9-12-24-13-28-13-27-13-28-15-31v-2h-3l-3 9-24 48-9 19-30 60-6 8-7 7-11 5-9 2-13-1-10-4-8-6-7-9-4-9-1-4v-14l4-12 8-16 9-19 59-118 10-21 19-38 7-9 7-6 12-5z" fill="#005DAD"/>
<path transform="translate(515,1136)" d="m0 0h849l10 2 10 5 5 4 8 11 3 7 1 5v13l-4 11-6 9-9 8-10 4-7 1h-853l-12-4-9-7-7-9-4-9-1-5v-10l3-12 7-11 12-9 9-3z" fill="#005DAD"/>
<path transform="translate(515,708)" d="m0 0h770l10 2 10 5 7 6 7 11 3 10v11l-2 9-5 9-8 9-14 7-8 1h-772l-13-4-9-7-7-9-4-9-1-5v-11l4-13 8-11 10-7 8-3z" fill="#005DAD"/>
<path transform="translate(512,867)" d="m0 0h590l13 4 9 7 7 9 4 9 1 4v13l-3 10-6 9-4 5-9 6-10 3-9 1h-578l-14-3-9-6-5-5-6-8-4-13v-10l2-9 5-9 8-9 8-5z" fill="#005DAD"/>
<path transform="translate(535,1297)" d="m0 0 569 1 11 4 6 4 8 8 5 10 2 7v13l-5 14-7 9-9 6-13 4h-591l-11-4-8-6-7-8-5-11-1-5v-10l3-12 7-10 9-8 8-4 4-1z" fill="#005DAD"/>
<path transform="translate(1774,1575)" d="m0 0 14 1 9 4 10 7 6 9 4 10 1 11-3 14-7 11-16 17-9 9h-2l-2 4-4 4h-2l-2 4-6 5-2 3h-2l-2 4h-2l-2 4h-2l-2 4h-2l-2 4h-2l-2 4-4 4h-2l-2 4-6 5-2 3h-2l-2 4-4 4h-2l-2 4h-2l-2 4h-2l-2 4h-2l-2 4h-2l-2 4h-2l-2 4-64 64h-2l-2 4-8 7-10 7-12 4h-12l-10-3-10-6-99-99-6-10-3-12 1-13 5-12 8-9 11-7 7-2h16l10 3 11 8 63 63 5-1 159-159 12-6z" fill="#005DAD"/>
<path transform="translate(515,428)" d="m0 0h159l10 2 12 6 8 8 6 12 2 8v8l-2 9-4 8-8 10-10 6-6 2-7 1h-162l-13-4-9-7-7-9-4-9-1-5v-10l3-12 7-11 10-8 10-4z" fill="#005DAD"/>
<path transform="translate(1597,790)" d="m0 0h11l13 4 10 7 7 9 4 9 1 4v12l-3 11-7 11-10 8-11 4-5 1h-8l-12-3-10-6-7-8-5-10-2-7v-11l4-13 7-10 10-8z" fill="#005DAD"/>
</svg>
