<svg width="51" height="42" viewBox="0 0 51 42" fill="none" xmlns="http://www.w3.org/2000/svg">
<path d="M27.1919 28.8901H40.7877C41.2975 28.8901 41.6374 28.5502 41.6374 28.0404V20.3927C41.6374 19.8829 41.2975 19.543 40.7877 19.543H27.1919C26.6821 19.543 26.3423 19.8829 26.3423 20.3927V28.0404C26.3421 28.5501 26.6821 28.8901 27.1919 28.8901ZM28.0417 21.2424H39.938V27.1906H28.0417V21.2424ZM4.24912 17.8434H11.047C11.5569 17.8434 11.8967 17.5036 11.8967 16.9937C11.8967 16.4839 11.5569 16.144 11.047 16.144H4.24912C3.73927 16.144 3.39941 16.4839 3.39941 16.9937C3.39941 17.5036 3.73927 17.8434 4.24912 17.8434ZM14.4459 17.8434H21.2438C21.7537 17.8434 22.0935 17.5036 22.0935 16.9937C22.0935 16.4839 21.7537 16.144 21.2438 16.144H14.4459C13.9361 16.144 13.5962 16.4839 13.5962 16.9937C13.5962 17.5036 13.9361 17.8434 14.4459 17.8434ZM4.24912 21.2424H15.2956C15.8055 21.2424 16.1453 20.9026 16.1453 20.3927C16.1453 19.8829 15.8055 19.543 15.2956 19.543H4.24912C3.73927 19.543 3.39941 19.8829 3.39941 20.3927C3.39941 20.9026 3.73927 21.2424 4.24912 21.2424ZM21.2437 19.5429H18.6945C18.1847 19.5429 17.8448 19.8828 17.8448 20.3927C17.8448 20.9025 18.1847 21.2424 18.6945 21.2424H21.2437C21.7536 21.2424 22.0934 20.9025 22.0934 20.3927C22.0934 19.8828 21.7536 19.5429 21.2437 19.5429Z" fill="#6E5676"/>
<path d="M50.2193 9.00716C49.6245 8.24239 48.8598 7.81749 47.925 7.73255L45.8857 7.4854V3.39891C45.8857 1.52952 44.3561 4.86195e-09 42.4868 4.86195e-09H3.39891C1.52952 -9.95735e-05 0 1.52942 0 3.39891V30.5905C0 32.1253 1.03133 33.4302 2.43499 33.8485C2.39217 35.5674 3.69276 37.0597 5.43837 37.2184L44.6961 41.637H45.036C46.7355 41.637 48.265 40.3624 48.4349 38.7479L50.9841 11.4714C51.069 10.6216 50.8141 9.68688 50.2193 9.00716ZM1.6995 5.94811H44.1863V11.0465H1.6995V5.94811ZM3.39891 1.6994H42.4867C43.4214 1.6994 44.1862 2.46416 44.1862 3.39891V4.24861H1.6995V3.39891C1.6995 2.46416 2.46426 1.6994 3.39891 1.6994ZM1.6995 30.5904V12.7459H44.1863V30.5904C44.1863 31.5251 43.4215 32.2899 42.4868 32.2899H3.399C2.46426 32.2899 1.6995 31.5251 1.6995 30.5904ZM49.2846 11.1315L46.7354 38.408C46.6504 39.3427 45.8006 40.0224 44.866 39.9375L5.69319 35.5189C4.84349 35.4339 4.24861 34.7541 4.16367 33.9894H42.4867C44.356 33.9894 45.8856 32.4598 45.8856 30.5905V9.0921L47.84 9.26208C48.2649 9.26208 48.6897 9.517 48.9446 9.85686C49.1996 10.1967 49.3696 10.7066 49.2846 11.1315Z" fill="#005FB0"/>
</svg>
