<?xml version="1.0" encoding="UTF-8"?>
<svg version="1.1" viewBox="0 0 2048 2048" width="512" height="512" xmlns="http://www.w3.org/2000/svg">
<path transform="translate(310,832)" d="m0 0h252l28 3 29 6 20 6 26 10 24 12 22 14 16 12 11 9 12 11 18 18 11 14 9 12 12 19 12 22 8 19 1 3 3 1 22-5 19-3 21-2 22-1h252l39 3 25 4 4-1 8-18 10-19 12-19 12-16 11-13 7-8 19-19 11-9 16-12 19-12 16-9 19-9 27-10 27-7 24-4 20-2h250l29 3 25 5 27 8 25 10 25 13 16 10 14 10 11 9 14 12 17 17 18 22 11 16 12 20 11 22 9 23 7 24 5 23 3 24 1 17v216l-2 11-6 10-12 10-19 13-19 12-18 10-23 12-19 9-27 11-36 12-24 7-29 7-36 7-35 5-41 4-35 2h-58l-38-2-46-4-1 122-6 12-8 8-18 13-15 10-17 11-26 15-29 15-24 11-28 11-35 12-37 10-39 8-39 6-41 4-41 2h-133l-34-2-39-4-39-6-39-8-23-5-41-14-24-9-30-13-24-12-27-16-17-11-17-12-16-13-7-6-5-8-2-6v-129l-28 4-41 4-35 2h-70l-44-3-43-5-45-8-38-9-31-9-29-10-26-11-20-9-28-15-16-10-16-11-13-10-10-9-5-8-2-6v-236l3-25 5-26 8-27 10-24 8-17 13-22 12-17 11-14 12-13 18-18 11-9 13-10 15-10 21-12 14-7 19-8 21-7 25-6 27-4zm0 64-27 4-20 5-20 7-16 7-15 8-18 12-13 10-12 11-7 6-9 11-9 10-9 13-11 18-11 23-10 30-4 19-3 24v106h121l3-1 1-128 4-10 7-8 8-5 13-2 11 2 9 6 6 7 3 7 1 6 1 306 35 6 42 5 42 3h66l42-3 36-4 23-3 2-1 1-77 4-32 6-28 8-27 11-28 12-24 13-21 11-16 11-14 12-14 5-5v-2h2l18-18 11-9 17-13 12-8 20-12 15-8-1-6-12-25-11-18-12-16-12-14-12-12-14-11-12-9-18-11-24-12-23-8-25-6-26-3zm1176 0-23 3-25 6-18 6-20 9-18 10-16 11-16 13-13 12-10 11-11 14-12 18-7 12-8 17 1 3 23 11 22 13 16 11 17 13 15 13 13 12 11 12 9 11 8 10 12 17 12 20 12 23 11 26 8 25 7 30 4 30 1 14 1 74 1 1 37 4 45 3h63l43-3 33-4 43-7 7-2 1-307 4-10 4-6 11-7 10-2 10 1 8 3 9 8 5 10 1 6 1 126h120l4-1v-97l-2-23-4-22-7-25-10-24-9-17-10-15-8-11-9-10-7-8-11-11-8-7-12-9-15-10-14-8-19-9-19-7-24-6-20-3-10-1zm-581 180-20 1-23 3-23 5-30 10-18 8-21 11-18 12-11 8-15 13-8 7-10 10-8 10-7 8-14 20-11 19-12 25-9 25-6 24-4 27-1 11v126h123l1-3v-30l1-78 6-12 8-7 9-4h15l9 4 7 5 6 10 2 10 1 306 6 2 31 6 35 5 44 4 18 1h142l42-3 32-4 35-6 29-6 2-2 1-306 4-11 6-8 10-6 4-1h14l10 4 8 7 5 10 1 4 1 109h124v-125l-3-28-6-28-9-27-8-18-8-16-12-20-12-16-9-11-14-15-7-7-22-18-15-10-13-8-23-12-25-10-25-7-22-4-18-2-23-1zm-809 208v39l9 7 14 9 23 13 27 13 28 11 22 8 1-1v-99zm1732 0v96l6-1 24-9 23-10 23-11 21-12 19-12 8-6v-35zm-1192 239v52l16 12 17 11 24 14 28 14 35 15h4v-117l-1-1zm669 0-1 5v109l5-1 21-9 22-10 19-10 27-16 30-20v-48z" fill="#FEFEFE"/>
<path transform="translate(1010,414)" d="m0 0h43l25 3 23 5 24 7 22 9 20 10 22 14 19 14 16 15 16 16 9 11 12 16 11 18 12 23 10 25 7 24 5 25 2 17 1 17v18l-3 32-6 28-6 20-10 25-13 25-9 14-11 15-9 11-12 13-12 12-11 9-10 8-13 9-15 9-21 11-25 10-24 7-25 5-29 3h-29l-20-2-23-4-23-6-23-8-31-15-16-10-17-12-15-13-10-9-10-10-9-11-10-12-10-15-8-13-11-21-10-25-7-24-5-25-3-29v-21l2-26 4-24 7-26 8-22 14-29 12-19 10-14 11-13 7-8 4-5 8-7 8-8 14-11 18-13 21-12 16-8 26-10 21-6 26-5zm3 64-26 4-19 5-19 7-16 8-16 9-14 10-13 11-21 21-14 19-11 19-10 21-7 21-5 22-2 15v42l4 25 7 24 8 20 9 17 12 18 8 10 12 13 5 6 11 9 14 11 18 11 17 9 24 9 25 6 24 3h28l23-3 22-5 25-9 17-8 21-13 14-11 10-9 7-6 7-8 10-12 11-16 7-12 10-22 7-21 5-22 2-14 1-26-1-17-4-25-7-24-8-20-10-19-10-15-7-9-9-10-7-8-13-12-13-10-14-9-23-12-20-8-21-6-27-4z" fill="#FEFEFE"/>
<path transform="translate(433,305)" d="m0 0 24 1 24 3 25 6 23 8 18 8 18 10 17 12 16 13 13 12 14 15 12 16 11 17 13 25 9 24 6 22 4 24 1 10v40l-3 23-6 25-8 24-13 27-10 16-10 14-9 11-12 13-8 8-11 9-13 10-16 10-16 9-23 10-26 8-25 5-17 2-23 1-25-2-24-4-21-6-19-7-16-7-21-12-12-8-14-11-13-12-15-15-9-11-11-15-10-17-8-16-7-16-7-21-5-22-3-22-1-20 1-24 4-27 7-26 9-24 14-27 8-12 9-12 9-11 11-12 9-9 14-11 13-10 20-12 16-8 22-9 21-6 21-4 16-2zm-1 64-23 2-26 6-21 8-19 10-13 9-10 8-10 9-9 9-11 14-9 14-11 21-7 20-4 15-3 20v34l4 24 6 20 9 21 8 14 12 17 14 15 7 7 14 11 15 10 22 11 24 8 20 4 9 1h33l20-3 25-7 18-8 17-9 11-8 10-8 10-9 10-10 10-13 12-19 10-22 6-19 4-20 1-9v-34l-4-24-7-23-7-16-9-16-12-17-11-12-13-13-19-14-22-12-20-8-19-5-19-3z" fill="#FEFEFE"/>
<path transform="translate(1590,306)" d="m0 0h42l23 3 26 6 23 8 29 14 21 14 13 10 10 9 12 11 7 8 13 16 12 18 14 27 8 20 7 24 4 22 2 19v32l-3 25-5 23-9 27-8 18-10 18-13 19-8 10-11 12-17 17-14 11-13 9-15 9-27 13-27 9-17 4-29 4-25 1-31-3-24-5-16-5-19-7-21-10-20-12-13-10-11-9-15-14-10-11-11-14-9-13-9-15-12-25-7-19-6-24-3-16-2-21v-23l2-23 5-25 6-21 10-25 9-17 12-19 10-13 12-14 16-16 11-9 15-11 18-11 16-8 11-5 16-6 22-6 23-4zm17 63-23 2-26 6-21 8-19 10-12 8-10 8-10 9-13 13-13 18-10 17-8 18-6 18-5 26-1 13v16l2 19 5 23 8 22 8 16 10 16 8 10 11 12 5 5 11 10 17 12 18 10 22 9 25 6 14 2h35l19-3 22-6 21-9 15-8 17-12 10-9 8-7 11-12 12-17 8-14 7-15 7-21 4-18 2-17v-25l-3-22-4-17-6-17-10-21-11-17-13-16-14-14-17-13-15-9-23-11-22-7-23-4z" fill="#FEFEFE"/>
</svg>
