<svg width="24" height="24" viewBox="0 0 24 24" fill="none" xmlns="http://www.w3.org/2000/svg">
<rect width="24" height="24" rx="3" fill="#005FB0"/>
<path d="M11.3238 5.85277H7.05892C5.64567 5.85277 4.5 6.9984 4.5 8.41161V16.9412C4.5 18.3544 5.64567 19.5 7.05892 19.5H15.5887C17.0019 19.5 18.1476 18.3544 18.1476 16.9412L18.1476 12.6764M8.76487 15.2352L11.8683 14.6099C12.033 14.5767 12.1843 14.4956 12.3031 14.3767L19.2503 7.42587C19.5834 7.09262 19.5832 6.55242 19.2498 6.21945L17.7782 4.74948C17.4449 4.41664 16.905 4.41687 16.572 4.74999L9.62407 11.7015C9.5055 11.8202 9.42454 11.9711 9.39131 12.1355L8.76487 15.2352Z" stroke="#FDFCFF" stroke-linecap="round" stroke-linejoin="round"/>
</svg>
