<?xml version="1.0" encoding="UTF-8"?>
<svg version="1.1" viewBox="0 0 2048 2048" width="512" height="512" xmlns="http://www.w3.org/2000/svg">
<path transform="translate(22,22)" d="m0 0h1501l1 809 3 5 9 9 20 25 13 18 13 20 14 24 17 34 11 27 12 35 8 31 5 28 4 33 1 14v59l-4 40-5 28-7 30-9 30-12 31-11 24-15 29-13 21-13 19-16 21-7 8v4l8 7 18 18v2l4-1 43-43 1-2h2l2-4h2l2-4h2l2-4h2l2-4h2l2-4 24-24h2l2-4 3-2 4 1 150 150-1 4-6 5-7 8-22 22 2 4 210 210 10 13 10 19 5 16 2 11v27l-3 16-8 20-8 13-7 9-14 15-17 17-11 9-10 7-10 6-21 8-15 3h-21l-17-4-15-6-15-8-13-10-213-213-4 1-34 34h-4l-151-151 2-5 11-10 2-3h2l2-4h2l2-4h2l2-4h2l2-4h2l2-4h2l2-4h2l2-4 16-16h2l2-4h2l2-4 24-24 5-4-2-4-24-24-1-2-4 2-10 8-16 12-19 13-19 12-29 16-30 14-30 11-29 9-30 7-36 6-30 3-17 1h-38l-32-2-28-3-31-6-23-6-38-13-30-13-21-10-23-13-21-13-17-12-20-15-9-8-11-9-5-4-814-1-1-1v-83l1-1 740-1-15-25-12-21-8-16-11-23-12-32-1-1-681-1-1-1v-81l1-3h660l-2-25-1-26v-18l1-28 2-22-661-1v-83l1-2 677-1 10-30 12-28 12-26 8-17h-717l-3-1v-902zm86 84-1 1-1 21v712h699l5-3 17-17 8-7 11-10 10-8 18-14 20-14 26-16 26-14 23-11 27-11 19-7 31-9 38-8 34-5 25-2h76l27 4 64 16 20 6 27 10 27 12 16 7 11 6 11 8 19 10h1v-656l-1-1zm1009 666-26 3-27 6-29 9-29 11-18 8-6 5-19 9-17 10-10 9-24 16-9 8-10 8-4 3v2l-4 2-30 30-12 16-16 24-9 15-14 27-7 15-11 29-8 26-7 31-4 27-2 25v43l3 31 5 28 6 25 9 29 10 25 14 29 13 23 14 24 11 14 10 11 9 11 13 15 12 11 11 9 12 10 19 14 18 12 18 11 18 10 26 12 27 10 25 7 29 6 30 4 32 2h15l24-1 27-3 28-5 25-6 26-8 21-8 21-9 19-10 16-9 21-14 14-10 17-14 10-9 15-14 9-10 11-13 10-13 13-19 12-19 15-28 13-30 12-35 7-28 5-27 3-26 1-35-1-21-4-31-7-37-6-23-9-27-11-26-12-23-12-20-15-22-13-16-8-10-7-7-7-8-8-8-5-6-8-7-9-9-8-7-18-13-20-12-16-9-27-14-25-11-34-12-29-8-35-7-25-3zm555 764-136 136 1 3 5 5 12 13 7 8 4 5 4-2 137-137-2-4-10-9-14-12-6-6zm56 128-12 11-52 52 6 7 12 12 8 7 12 12h2v2l8 7 21 21 8 7 19 19 8 7 17 17 8 7 9 9h2v2l8 7 25 25 8 7 17 17 8 7 8 8 11 5h10l10-4 5-4 6-7 2-1v-2l4-2 1-3 3-1 7-8 4-5 2-6v-13l-5-9-9-10-200-200z" fill="#FDFDFD"/>
<path transform="translate(730,217)" d="m0 0h64l21 1v42h29l19 3 16 6 11 6 12 9 9 9 10 14 7 14 4 13 2 12v41l-1 1h-84l-1-32-3-6-5-3-4-1h-123l-11 1-5 5v69l8 4 9 1 136 1 18 4 12 5 11 6 14 11 10 11 9 15 6 15 3 12 1 6v85l-4 18-5 13-6 11-11 14-11 10-13 8-11 5-13 4-12 2-25 1h-8v54l-1 1h-84l-1-4v-43h-30l-14-2-18-6-15-8-14-12-8-9-9-14-6-14-4-15-1-8v-40h85l1 1 1 34 7 6 4 1h130l7-3 2-3 1-5v-62l-4-8-3-2-5-1-141-1-18-4-15-6-14-9-10-9-9-10-7-11-6-12-5-19-1-8v-80l4-20 6-15 9-14 10-12 11-9 13-8 16-6 15-3 10-1h25v-45z" fill="#FCFCFC"/>
<path transform="translate(1153,865)" d="m0 0 36 2 27 4 27 7 27 10 24 11 18 10 21 13 16 12 15 13 14 12 22 22 13 17 10 15 9 15 18 36v3l-26 12-36 16-12 5-4-2-5-14-8-16-10-16-9-12-12-14-11-11-11-9-18-14-18-11-19-10-21-8-18-5-14-3-16-2-21-2-1-1-6-57-2-21v-6z" fill="#FBFBFB"/>
<path transform="translate(353,418)" d="m0 0h12l14 3 14 7 10 9 7 10 4 12v18l-3 14-7 14-10 11-11 7-10 4-12 2-15-1-13-5-11-8-7-7-8-13-4-13v-16l3-12 6-11 9-10 8-7 10-5z" fill="#FAFAFA"/>
<path transform="translate(1180,418)" d="m0 0h12l13 3 13 7 11 10 7 11 4 11 1 4v19l-3 10-7 13-7 8-8 6-12 6-15 3-15-1-13-5-10-7-5-4-9-13-5-12-2-13 2-14 4-11 6-9 8-9 10-7 14-5z" fill="#F9F9F9"/>
<path transform="translate(680,1207)" d="m0 0 4 2v25l-2 2-657 1v78l679 1 4 7 6 17 5 12 8 17 9 17 8 16 7 12 8 14 5 7 1 4-1 1-739 1v78h770l40 1 3 4-816-1-1-1v-83l1-1 740-1-15-25-12-21-8-16-11-23-12-32-1-1-681-1-1-1v-81l1-3h660z" fill="#0E0E0E"/>
<path transform="translate(22,22)" d="m0 0h1501l1 812-4-3-1-806h-1494v898h670l49 1-1 3-3-1h-716l-3-1v-902z" fill="#0E0E0E"/>
<path transform="translate(140,103)" d="m0 0 1303 1 1 1v660l-8-2-18-10-5-6 5 2 11 7 12 6v-655h-1333l-1 21v697l-1 15h-2v-732l3-4z" fill="#0E0E0E"/>
<path transform="translate(22,1028)" d="m0 0 3 1v82l659 1v24l-4 4 2-26-661-1v-83z" fill="#0E0E0E"/>
<path transform="translate(1727,1663)" d="m0 0 4 1 206 206 3 4-1 3-7-9-203-203-8 6-56 56 6 7 11 11 8 7 12 12 2 1v2l4 2 2 3-4-2-12-9-27-27v-2l-3-1-1-5 62-62z" fill="#0E0E0E"/>
<path transform="translate(1667,1409)" d="m0 0 4 1 150 150-1 4h-3l2-4-4-2-145-145-5 1-4 2-1 3-5 5-5 4-3 4h-2l-2 4-59 59-2-1 33-33 1-2h2l2-4h2l2-4h2l2-4h2l2-4h2l2-4 24-24h2l2-4z" fill="#0E0E0E"/>
<path transform="translate(1483,1537)" d="m0 0 7 6 22 22-2 4-3 3h-2l-2 4h-2l-2 4-83 83 2 4 147 147-1 2-151-151 2-5 11-10 2-3h2l2-4h2l2-4h2l2-4h2l2-4h2l2-4h2l2-4h2l2-4 16-16h2l2-4h2l2-4 24-24 5-4-2-4-24-24z" fill="#0E0E0E"/>
<path transform="translate(836,520)" d="m0 0h8l5 8 3 6v59l-6 12-4 3h-137l-3-4 6 1h130l7-3 2-3 1-5v-62l-4-8-3-2-5-1z" fill="#0E0E0E"/>
<path transform="translate(813,683)" d="m0 0h2v54l-1 1h-84l-1-4v-43l3 2 1 42h79v-51z" fill="#0E0E0E"/>
<path transform="translate(730,217)" d="m0 0h64l21 1v42h-3l-1-39h-78l-1 43h-3v-45z" fill="#0E0E0E"/>
<path transform="translate(1670,1535)" d="m0 0 4 1-8 7-130 130-1-3z" fill="#0E0E0E"/>
<path transform="translate(911,461)" d="m0 0 5 5 8 13 6 15 3 12 1 6v85l-4 18-5 13h-1l1-7 2-5 1-7 2-2 1-10v-89l-2-9-3-9-8-16-7-11z" fill="#0E0E0E"/>
<path transform="translate(1591,925)" d="m0 0 4 5 18 36 11 27 12 35 8 31 3 15v5l-3-3-2-15-2-4-3-15-4-14-4-13-2-6-4-11-5-13-3-7-5-13-10-19-8-16z" fill="#0E0E0E"/>
<path transform="translate(1102,1647)" d="m0 0h120v1l-39 3h-38l-32-2-11-1z" fill="#0E0E0E"/>
<path transform="translate(725,343)" d="m0 0h81l33 1 1 2h-127l-11 1-6 5 1-5 3-3z" fill="#0E0E0E"/>
<path transform="translate(954,1603)" d="m0 0 8 1 16 8 7 3 6 2 11 5 34 11 25 6 30 5 10 2v1l-16-1-31-6-23-6-38-13-30-13-9-4z" fill="#0E0E0E"/>
<path transform="translate(1190,772)" d="m0 0h18l31 6 28 7 25 8 12 4 10 3 11 6-3 1-20-8-33-11-28-7-32-6-19-2z" fill="#0E0E0E"/>
<path transform="translate(1733,1795)" d="m0 0 4 2 23 23 8 7 17 17 8 7 9 9 2 1v2l4 2 2 3-5-2-13-11-59-59z" fill="#0E0E0E"/>
<path transform="translate(1400,983)" d="m0 0 5 5 9 11 14 22 10 18 11 23 1 5-8 4-3-1 8-4-1-5-10-19-8-16-6-10-7-10-7-11-8-9z" fill="#0E0E0E"/>
<path transform="translate(610,563)" d="m0 0h85v1l-82 1-1 46h-1l-1-8z" fill="#0E0E0E"/>
<path transform="translate(1499,949)" d="m0 0 5 5 20 32 10 21 5 10 4 12 1 7-2-3-9-22-11-23-16-27-7-10z" fill="#0E0E0E"/>
<path transform="translate(376,421)" d="m0 0 6 1 11 6 10 9 7 10 4 12v18l-1 7h-1l-1-26-3-9-6-8-12-12-14-7z" fill="#0E0E0E"/>
<path transform="translate(1539,1323)" d="m0 0 1 3-6 15-16 32-7 11-6 10-5 5 2-5 11-18 14-26z" fill="#0E0E0E"/>
<path transform="translate(766,1123)" d="m0 0h1l-1 23v43l1 20-3-2v-82z" fill="#0E0E0E"/>
<path transform="translate(1346,1615)" d="m0 0 4 1-34 12-28 8-13 3-4-1 3-2 16-3 14-4 11-3 7-3 18-6z" fill="#0E0E0E"/>
<path transform="translate(1837,1895)" d="m0 0 4 2 21 21 8 7 8 8 11 5h10l6-1-3 3h-17l-5-3-4-2v-2l-4-2-35-35z" fill="#0E0E0E"/>
<path transform="translate(978,721)" d="m0 0 3 1-62 31-2-1 16-9 23-12z" fill="#0E0E0E"/>
<path transform="translate(727,956)" d="m0 0 1 4-5 11-10 23-8 23-3 8-2 1 3-11 6-18 12-28z" fill="#0E0E0E"/>
<path transform="translate(626,476)" d="m0 0 7 6 11 12 11 9 11 6 10 4 1 2-6-1-16-8-12-9-11-11-6-8z" fill="#0E0E0E"/>
<path transform="translate(846,802)" d="m0 0 2 1-13 13h-2l-1 3-6 5-7 8-7 7-6 1 21-21 8-7z" fill="#0E0E0E"/>
<path transform="translate(1427,868)" d="m0 0 4 1 10 9 16 16 3 4-1 3-11-11v-2l-4-2v-2l-4-2-13-13z" fill="#0E0E0E"/>
<path transform="translate(683,687)" d="m0 0 45 1 1 3h-30l-14-2z" fill="#0E0E0E"/>
<path transform="translate(996,803)" d="m0 0h6l-3 2-14 7-3 3-19 9-17 10h-3l8-6 16-9 14-7 7-5z" fill="#0E0E0E"/>
<path transform="translate(842,347)" d="m0 0 5 2 5 9 1 30h-4l-1-32-3-6z" fill="#0E0E0E"/>
<path transform="translate(1941,1879)" d="m0 0 3 2v17l-4 8-9 10-16 16-5 4-3-1 5-4h2l1-3 5-5h2v-2l7-6 7-8 4-5 2-6v-13z" fill="#0E0E0E"/>
<path transform="translate(1404,1587)" d="m0 0 3 1-26 14-26 12-3-1 16-8z" fill="#0E0E0E"/>
<path transform="translate(1545,1468)" d="m0 0v3l-3 3v4l8 7 18 18v2l5-1-2 4-4-2-23-23-5-6 1-4z" fill="#0E0E0E"/>
<path transform="translate(840,679)" d="m0 0h20v1l-12 2-25 1h-8l1-3z" fill="#0E0E0E"/>
<path transform="translate(1249,689)" d="m0 0 8 1 53 13v1h-10l-9-3-10-2-6-2-10-2-5-2-9-2z" fill="#0E0E0E"/>
<path transform="translate(1133,487)" d="m0 0 3 4 7 13 13 13 15 8-3 1-12-6-10-8-9-13-4-9z" fill="#0E0E0E"/>
<path transform="translate(1379,1513)" d="m0 0 2 1-8 6-16 8-19 9-5 3h-6l3-2 16-7 19-10z" fill="#0E0E0E"/>
<path transform="translate(1073,692)" d="m0 0h6l-4 2-7 2-12 2-4 2-12 2-5 2-11 3-9 1 4-2 27-8z" fill="#0E0E0E"/>
<path transform="translate(1955 2e3)" d="m0 0 4 1-13 9-10 6-21 8-4-1 5-3 7-1 2-2 11-4 8-5 5-3z" fill="#0E0E0E"/>
<path transform="translate(305,487)" d="m0 0 2 1 8 16 13 13 15 8-3 1-12-6-12-11-7-10-4-10z" fill="#0E0E0E"/>
<path transform="translate(915,753)" d="m0 0 2 1-8 6-14 8-22 16-4 1 5-5 20-14z" fill="#0E0E0E"/>
<path transform="translate(1234,497)" d="m0 0 1 2-6 9-5 6-8 6-12 6-5 1 2-3 9-4 6-3 15-15z" fill="#0E0E0E"/>
<path transform="translate(331,425)" d="m0 0 2 1-10 9-10 11-8 18-1-4 5-12 7-10 10-10z" fill="#0E0E0E"/>
<path transform="translate(704,264)" d="m0 0h5l-4 3-4 1-16 1-16 5-9 3 3-3 16-6 15-3z" fill="#0E0E0E"/>
<path transform="translate(844,261)" d="m0 0h9l16 4 12 5 10 6-2 1-19-9-8-3-16-1-2-1z" fill="#0E0E0E"/>
<path transform="translate(405,500)" d="m0 0v3l-7 9-8 7-14 7-5 1 2-3 11-4 10-9z" fill="#0E0E0E"/>
<path transform="translate(891,277)" d="m0 0 5 2 12 11 10 12-1 2-26-26z" fill="#0E0E0E"/>
<path transform="translate(1563,1237)" d="m0 0 2 1-1 12-2 3-2 15-5 15-2 2 1-8 6-25z" fill="#0E0E0E"/>
<path transform="translate(1359,721)" d="m0 0 5 1 20 9 16 7 9 5-2 1-19-9-13-5-16-8z" fill="#0E0E0E"/>
<path transform="translate(650,282)" d="m0 0 2 1-7 6-5 6-5 5-6 7-4 7-4 3 2-5 9-13 7-8z" fill="#0E0E0E"/>
<path transform="translate(870,1440)" d="m0 0 5 5 12 13 11 9 1 2-5-2-6-4v-2l-4-2-9-9-5-8z" fill="#0E0E0E"/>
<path transform="translate(1218,1568)" d="m0 0 3 1-1 2-4 1h-40v-1l22-1z" fill="#0E0E0E"/>
<path transform="translate(1114,1568)" d="m0 0 24 2 20 1v1h-40l-2-1v-2z" fill="#0E0E0E"/>
<path transform="translate(1872,2019)" d="m0 0h38l-4 2-6 1h-21l-7-2z" fill="#0E0E0E"/>
<path transform="translate(2e3 1817)" d="m0 0 5 5 8 13 6 13 1 5-3-3-8-16-8-14z" fill="#0E0E0E"/>
<path transform="translate(1823 2e3)" d="m0 0 5 1 7 6 21 10 3 3-5-1-17-8-14-10z" fill="#0E0E0E"/>
<path transform="translate(881,1559)" d="m0 0 7 2 7 6 7 4 5 4 6 3 3 4-5-2-16-10-14-10z" fill="#0E0E0E"/>
<path transform="translate(612,612)" d="m0 0 3 4 3 11 11 22-1 2-8-13-6-15-2-7z" fill="#0E0E0E"/>
<path transform="translate(819,1369)" d="m0 0 3 3 12 21 9 14v3l-7-8-7-14-9-14z" fill="#0E0E0E"/>
<path transform="translate(1562,880)" d="m0 0 5 5 15 23 3 5-1 2-7-10-7-11-7-10z" fill="#0E0E0E"/>
<path transform="translate(1682,1544)" d="m0 0 5 2 8 6 13 13-1 3-2-1-2-4-8-7-13-11z" fill="#0E0E0E"/>
<path transform="translate(916,1582)" d="m0 0 6 2 19 10 10 6 1 2-6-2-24-13-6-4z" fill="#0E0E0E"/>
<path transform="translate(779,1273)" d="m0 0 2 4 10 30-1 3-6-12-3-11-2-9z" fill="#0E0E0E"/>
<path transform="translate(1156,910)" d="m0 0 4 3v29h-1z" fill="#0E0E0E"/>
<path transform="translate(1152,871)" d="m0 0 4 2v30h-1z" fill="#0E0E0E"/>
<path transform="translate(1447,1461)" d="m0 0 2 1-17 17-6 5-5 1 5-5 14-12z" fill="#0E0E0E"/>
<path transform="translate(1153,865)" d="m0 0 36 2v1l-37 1z" fill="#0E0E0E"/>
<path transform="translate(1480,1425)" d="m0 0 1 2-3 5-9 10-9 9v-3l7-7 9-11z" fill="#0E0E0E"/>
<path transform="translate(846,1412)" d="m0 0 5 5 10 11 7 8-1 2-16-16-5-8z" fill="#0E0E0E"/>
<path transform="translate(1427,1075)" d="m0 0 3 1-33 15-3-1 17-8 9-4z" fill="#0E0E0E"/>
<path transform="translate(1050,783)" d="m0 0h7l-3 2-27 9-3-1 10-5 9-2z" fill="#0E0E0E"/>
<path transform="translate(1568,1164)" d="m0 0 4 5v10l-3 10h-1z" fill="#0E0E0E"/>
<path transform="translate(1180,418)" d="m0 0h12l13 3 4 3h-6l-6-3-23-1v-1z" fill="#0E0E0E"/>
<path transform="translate(1248,881)" d="m0 0 9 2 22 9-3 1-8-2v-2l-6-1-6-3-7-2z" fill="#0E0E0E"/>
<path transform="translate(1129,684)" d="m0 0 4 1-9 3-19 1-2-2z" fill="#0E0E0E"/>
<path transform="translate(1567,1204)" d="m0 0h1v24l-3 7h-1l1-12z" fill="#0E0E0E"/>
<path transform="translate(1009,1540)" d="m0 0 5 1 26 10v1h-6l-6-3-7-2-12-6z" fill="#0E0E0E"/>
<path transform="translate(1352,938)" d="m0 0 4 2 15 13 4 4-5-2-9-7-9-9z" fill="#0E0E0E"/>
<path transform="translate(1547,1685)" d="m0 0 5 5 11 12v2l-4-2-8-8-4-7z" fill="#0E0E0E"/>
<path transform="translate(842,1528)" d="m0 0 5 2 6 4 11 11h-3l-9-8-10-8z" fill="#0E0E0E"/>
<path transform="translate(1314,1012)" d="m0 0 5 1 9 8 3 5-1 2-13-13z" fill="#0E0E0E"/>
<path transform="translate(1220,873)" d="m0 0 9 1 19 6-4 1-13-4-9-1-2-1z" fill="#0E0E0E"/>
<path transform="translate(1357,1063)" d="m0 0 5 4 6 11v6l-3-4-7-14z" fill="#0E0E0E"/>
<path transform="translate(1323,917)" d="m0 0 5 2 12 8 5 5-5-1v-2l-12-6v-2l-4-2z" fill="#0E0E0E"/>
<path transform="translate(630,652)" d="m0 0 7 6 13 13h-3l-13-12-4-5z" fill="#0E0E0E"/>
<path transform="translate(1564,1122)" d="m0 0 4 3v23h-1z" fill="#0E0E0E"/>
<path transform="translate(1647,1080)" d="m0 0h1l3 21v6l-3-1z" fill="#0E0E0E"/>
<path transform="translate(871,433)" d="m0 0 5 1 15 8 8 6-2 1-9-6-17-9z" fill="#0E0E0E"/>
<path transform="translate(913,644)" d="m0 0v3l-11 12-5 4-2-1z" fill="#0E0E0E"/>
<path transform="translate(620,317)" d="m0 0 1 3-3 9-2 9-3 2 1-8z" fill="#0E0E0E"/>
<path transform="translate(1650,1219)" d="m0 0h1l-1 14-2 11h-1l1-23z" fill="#0E0E0E"/>
<path transform="translate(1170,420)" d="m0 0 4 1-6 3-7 2-7 6-4-1 10-7z" fill="#0E0E0E"/>
<path transform="translate(2018,1919)" d="m0 0 1 2-8 18-4 4 2-7z" fill="#0E0E0E"/>
<path transform="translate(1403,1497)" d="m0 0 2 1-10 8-12 7-2-1 21-14z" fill="#0E0E0E"/>
<path transform="translate(936,1498)" d="m0 0 4 2 19 12-3 1-13-8-7-6z" fill="#0E0E0E"/>
<path transform="translate(866,786)" d="m0 0 2 1-13 12-6 2 5-5z" fill="#0E0E0E"/>
<path transform="translate(1228,685)" d="m0 0 13 1 8 2v1l-20-1z" fill="#0E0E0E"/>
<path transform="translate(1549,1051)" d="m0 0 3 3 2 9 2 3v10h-1l-6-22z" fill="#0E0E0E"/>
<path transform="translate(1303,905)" d="m0 0 5 2 15 9-2 1-12-6-6-5z" fill="#0E0E0E"/>
<path transform="translate(1197,869)" d="m0 0h8l15 3v1l-19-1-4-2z" fill="#0E0E0E"/>
<path transform="translate(1293,995)" d="m0 0 7 2 11 11h-3l-12-10z" fill="#0E0E0E"/>
<path transform="translate(1372,1094)" d="m0 0 6 1h8l-3 2-9 3-2-2z" fill="#0E0E0E"/>
<path transform="translate(826,951)" d="m0 0v3l-10 17-1-2 6-13h2l2-4z" fill="#0E0E0E"/>
<path transform="translate(903,863)" d="m0 0 3 1-14 12h-3l10-10h2v-2z" fill="#0E0E0E"/>
<path transform="translate(798 1e3)" d="m0 0 1 3-7 17-1-4 2-6z" fill="#0E0E0E"/>
<path transform="translate(1148,433)" d="m0 0 1 2-5 8-5 5-2 1 2-5 8-10z" fill="#0E0E0E"/>
<path transform="translate(1239,1643)" d="m0 0h10v1l-22 3 2-3z" fill="#0E0E0E"/>
<path transform="translate(1243,1564)" d="m0 0 4 1-7 3h-15v-1z" fill="#0E0E0E"/>
<path transform="translate(865,1547)" d="m0 0 7 2 9 9h-3l-13-10z" fill="#0E0E0E"/>
<path transform="translate(1536,847)" d="m0 0 5 5 8 9-1 2-9-9-3-4z" fill="#0E0E0E"/>
<path transform="translate(1339,713)" d="m0 0 10 3 10 4-3 1-8-2v-2l-6-1z" fill="#0E0E0E"/>
<path transform="translate(1096,688)" d="m0 0h6v1l-11 3h-12v-1z" fill="#0E0E0E"/>
<path transform="translate(1261,1639)" d="m0 0h9l-4 2-10 2h-5l3-3z" fill="#0E0E0E"/>
<path transform="translate(854,911)" d="m0 0v3l-9 12h-1v-5z" fill="#0E0E0E"/>
<path transform="translate(1560,1098)" d="m0 0 4 4v15h-1z" fill="#0E0E0E"/>
<path transform="translate(1550,864)" d="m0 0 5 5 7 9-1 2-9-10z" fill="#0E0E0E"/>
<path transform="translate(901,1471)" d="m0 0 4 2 12 10-2 1-8-6z" fill="#0E0E0E"/>
<path transform="translate(771,1238)" d="m0 0h1l3 15-1 4-2-2-1-7z" fill="#0E0E0E"/>
<path transform="translate(770,1095)" d="m0 0h1l-1 12-1 6h-1v-16z" fill="#0E0E0E"/>
<path transform="translate(1233,963)" d="m0 0 9 1 11 6-2 1-18-7z" fill="#0E0E0E"/>
<path transform="translate(2022,1899)" d="m0 0h1v7l-2 9h-1v-14z" fill="#0E0E0E"/>
<path transform="translate(2020,1857)" d="m0 0 2 4 1 11-3-1z" fill="#0E0E0E"/>
<path transform="translate(1091,1565)" d="m0 0 12 1 7 1v1h-14l-5-2z" fill="#0E0E0E"/>
<path transform="translate(1492,1409)" d="m0 0 1 2-4 7-7 6 2-4z" fill="#0E0E0E"/>
<path transform="translate(1556,1077)" d="m0 0 4 5v13h-1l-3-15z" fill="#0E0E0E"/>
<path transform="translate(1263,1560)" d="m0 0 3 1-6 3h-11l4-2z" fill="#0E0E0E"/>
<path transform="translate(1622,1335)" d="m0 0 1 2-6 15h-1v-6z" fill="#0E0E0E"/>
<path transform="translate(791,1310)" d="m0 0 2 3 6 14-1 2-6-11z" fill="#0E0E0E"/>
<path transform="translate(768,1220)" d="m0 0h1l2 12v5l-3-2z" fill="#0E0E0E"/>
<path transform="translate(1320,1542)" d="m0 0 3 1-10 5h-7l3-2z" fill="#0E0E0E"/>
<path transform="translate(612,440)" d="m0 0 3 4 1 2v10l-2-4-2-7z" fill="#0E0E0E"/>
<path transform="translate(1278,1556)" d="m0 0 4 1-6 3h-9l4-2z" fill="#0E0E0E"/>
<path transform="translate(1463,1547)" d="m0 0 2 2-10 8-2-1 8-8z" fill="#0E0E0E"/>
<path transform="translate(774,1075)" d="m0 0h1l-1 10-2 4v-12z" fill="#0E0E0E"/>
</svg>
