<svg width="130" height="44" viewBox="0 0 130 44" fill="none" xmlns="http://www.w3.org/2000/svg">
<path d="M5.71591 12.7273L5.27273 29.0227H1.11364L0.659091 12.7273H5.71591ZM3.19318 36.2955C2.44318 36.2955 1.79924 36.0303 1.26136 35.5C0.723485 34.9621 0.458333 34.3182 0.465909 33.5682C0.458333 32.8258 0.723485 32.1894 1.26136 31.6591C1.79924 31.1288 2.44318 30.8636 3.19318 30.8636C3.91288 30.8636 4.54545 31.1288 5.09091 31.6591C5.63636 32.1894 5.91288 32.8258 5.92045 33.5682C5.91288 34.0682 5.7803 34.5265 5.52273 34.9432C5.27273 35.3523 4.94318 35.6818 4.53409 35.9318C4.125 36.1742 3.67803 36.2955 3.19318 36.2955ZM21.943 36.672L22.775 32.192C24.8017 32.2133 26.4337 32.16 27.671 32.032C28.9297 31.8827 29.879 31.616 30.519 31.232C31.1803 30.8267 31.607 30.2613 31.799 29.536C32.0123 28.7893 32.087 27.84 32.023 26.688L31.319 12.576H35.799L36.503 26.912C36.567 28.192 36.7163 29.1733 36.951 29.856C37.1857 30.5387 37.5377 31.0187 38.007 31.296C38.4763 31.552 39.095 31.68 39.863 31.68C40.6523 31.68 41.2177 31.8933 41.559 32.32C41.9217 32.7253 42.103 33.2373 42.103 33.856C42.103 34.5173 41.879 35.072 41.431 35.52C40.983 35.9467 40.3537 36.16 39.543 36.16C38.6043 36.16 37.7617 36.0427 37.015 35.808C36.2683 35.5733 35.6497 35.168 35.159 34.592C34.6683 33.9947 34.3377 33.1947 34.167 32.192H35.607C35.1163 33.2373 34.4443 34.0693 33.591 34.688C32.759 35.3067 31.7563 35.7547 30.583 36.032C29.431 36.3307 28.1297 36.512 26.679 36.576C25.2283 36.6613 23.6497 36.6933 21.943 36.672ZM20.407 29.088L19.575 25.92C20.3217 25.728 20.9297 25.5573 21.399 25.408C21.8897 25.2587 22.2523 25.1093 22.487 24.96C22.7217 24.8107 22.839 24.6613 22.839 24.512C22.839 24.32 22.743 24.1173 22.551 23.904C22.359 23.6907 22.1457 23.4453 21.911 23.168C21.6763 22.8907 21.463 22.5813 21.271 22.24C21.079 21.8987 20.983 21.504 20.983 21.056C20.983 20.5227 21.1323 20.0213 21.431 19.552C21.7297 19.0613 22.2097 18.592 22.871 18.144C23.5537 17.6747 24.4497 17.216 25.559 16.768L26.935 19.616C26.039 19.9787 25.431 20.2987 25.111 20.576C24.8123 20.832 24.663 21.0773 24.663 21.312C24.663 21.504 24.759 21.728 24.951 21.984C25.143 22.24 25.3563 22.528 25.591 22.848C25.847 23.1467 26.071 23.488 26.263 23.872C26.455 24.2347 26.551 24.6293 26.551 25.056C26.551 25.3973 26.4763 25.7493 26.327 26.112C26.199 26.4747 25.9217 26.8267 25.495 27.168C25.0897 27.5093 24.4817 27.84 23.671 28.16C22.8603 28.48 21.7723 28.7893 20.407 29.088ZM21.943 36.672C19.639 36.672 17.687 36.4907 16.087 36.128C14.5083 35.7867 13.2177 35.296 12.215 34.656C11.2337 33.9947 10.519 33.2267 10.071 32.352C9.623 31.4773 9.399 30.5173 9.399 29.472C9.399 28.7893 9.45233 28.1067 9.559 27.424C9.687 26.72 9.83633 26.0373 10.007 25.376C10.199 24.7147 10.3697 24.1173 10.519 23.584L14.519 24.512C14.4337 24.896 14.3377 25.312 14.231 25.76C14.1243 26.208 14.039 26.6453 13.975 27.072C13.911 27.4773 13.879 27.8507 13.879 28.192C13.879 28.9813 14.1563 29.6853 14.711 30.304C15.287 30.9013 16.2257 31.3707 17.527 31.712C18.8283 32.032 20.5777 32.192 22.775 32.192L23.415 35.648L21.943 36.672ZM39.5312 36.16L39.8513 31.68C40.7899 31.68 41.5259 31.616 42.0593 31.488C42.6139 31.36 43.0086 31.1253 43.2433 30.784C43.4779 30.4213 43.5953 29.9093 43.5953 29.248C43.5953 28.6507 43.5099 27.936 43.3393 27.104C43.1899 26.272 42.9873 25.408 42.7313 24.512C42.4753 23.616 42.2193 22.7947 41.9633 22.048L46.3793 20.832C46.6353 21.5573 46.8913 22.4 47.1473 23.36C47.4033 24.32 47.6166 25.312 47.7873 26.336C47.9793 27.3387 48.0753 28.3093 48.0753 29.248C48.0753 30.4213 47.9259 31.4133 47.6273 32.224C47.3286 33.0133 46.9126 33.6747 46.3793 34.208C45.8673 34.72 45.2486 35.1253 44.5233 35.424C43.8193 35.7013 43.0406 35.8933 42.1873 36C41.3339 36.1067 40.4486 36.16 39.5312 36.16ZM43.4673 43.52C42.8486 43.52 42.3153 43.3067 41.8673 42.88C41.4406 42.4533 41.2273 41.9307 41.2273 41.312C41.2273 40.6933 41.4406 40.1493 41.8673 39.68C42.3153 39.232 42.8486 39.008 43.4673 39.008C44.0859 39.008 44.6086 39.232 45.0353 39.68C45.4833 40.1493 45.7073 40.6933 45.7073 41.312C45.7073 41.9307 45.4833 42.4533 45.0353 42.88C44.6086 43.3067 44.0859 43.52 43.4673 43.52ZM57.4988 4.76V2.52L65.0508 0.279999V2.584L57.4988 4.76ZM57.4988 8.12V5.88L65.0508 3.64V5.944L57.4988 8.12ZM67.2378 36.16C65.2538 36.16 63.7178 35.9573 62.6298 35.552C61.5631 35.1467 60.8164 34.5173 60.3898 33.664C59.9631 32.7893 59.7178 31.6907 59.6538 30.368L58.9818 12.576H63.4618L64.1338 28.224C64.1764 29.2053 64.2831 29.9413 64.4538 30.432C64.6244 30.9227 64.9444 31.2533 65.4138 31.424C65.9044 31.5947 66.6191 31.68 67.5578 31.68C68.3684 31.68 68.9444 31.8933 69.2858 32.32C69.6484 32.7253 69.8298 33.2373 69.8298 33.856C69.8298 34.5173 69.6058 35.072 69.1578 35.52C68.7098 35.9467 68.0698 36.16 67.2378 36.16ZM67.2812 36.16L67.6013 31.68C68.4119 31.68 69.0519 31.6053 69.5213 31.456C70.0119 31.3067 70.3959 31.008 70.6733 30.56C70.9719 30.0907 71.2173 29.408 71.4093 28.512C71.6226 27.616 71.8359 26.4213 72.0493 24.928L76.2413 25.632C76.1986 25.952 76.1346 26.3253 76.0493 26.752C75.9853 27.1787 75.9213 27.616 75.8573 28.064C75.8146 28.4907 75.7933 28.896 75.7933 29.28C75.7933 29.792 75.8999 30.2293 76.1133 30.592C76.3479 30.9333 76.7533 31.2 77.3293 31.392C77.9266 31.584 78.7799 31.68 79.8893 31.68C80.6999 31.68 81.2759 31.8933 81.6173 32.32C81.9586 32.7253 82.1293 33.2373 82.1293 33.856C82.1293 34.5173 81.9053 35.072 81.4573 35.52C81.0306 35.9467 80.4013 36.16 79.5693 36.16C78.0973 36.16 76.9026 36.0213 75.9853 35.744C75.0679 35.4667 74.3853 34.9973 73.9373 34.336C73.4893 33.6747 73.2013 32.768 73.0733 31.616H74.6093C74.2253 32.64 73.7773 33.4613 73.2653 34.08C72.7533 34.6773 72.1773 35.1253 71.5373 35.424C70.8973 35.7227 70.2146 35.9147 69.4893 36C68.7853 36.1067 68.0493 36.16 67.2812 36.16ZM72.9773 43.52C72.3586 43.52 71.8253 43.3067 71.3773 42.88C70.9506 42.4533 70.7373 41.9307 70.7373 41.312C70.7373 40.6933 70.9506 40.1493 71.3773 39.68C71.8253 39.232 72.3586 39.008 72.9773 39.008C73.5959 39.008 74.1186 39.232 74.5453 39.68C74.9933 40.1493 75.2173 40.6933 75.2173 41.312C75.2173 41.9307 74.9933 42.4533 74.5453 42.88C74.1186 43.3067 73.5959 43.52 72.9773 43.52ZM79.5625 36.16L79.8825 31.68C81.0345 31.68 82.1758 31.616 83.3065 31.488C84.4372 31.36 85.5358 31.168 86.6025 30.912C87.6692 30.656 88.6825 30.3253 89.6425 29.92C90.6238 29.5147 91.5412 29.024 92.3945 28.448C91.7545 28.064 91.0612 27.7333 90.3145 27.456C89.5678 27.1787 88.7678 26.976 87.9145 26.848C87.0825 26.6987 86.1972 26.624 85.2585 26.624C84.9172 26.624 84.5545 26.6347 84.1705 26.656C83.8078 26.6773 83.4345 26.72 83.0505 26.784C82.6665 26.8267 82.2825 26.8907 81.8985 26.976L81.2585 22.592C81.8772 22.4213 82.5278 22.304 83.2105 22.24C83.9145 22.1547 84.5332 22.112 85.0665 22.112C86.2185 22.112 87.2745 22.24 88.2345 22.496C89.2158 22.752 90.1118 23.072 90.9225 23.456C91.7545 23.84 92.5225 24.224 93.2265 24.608C93.9518 24.992 94.6345 25.312 95.2745 25.568C95.9358 25.824 96.5758 25.952 97.1945 25.952H98.3785L98.8905 30.208C97.9732 30.2507 97.1092 30.432 96.2985 30.752C95.5092 31.0507 94.7198 31.4347 93.9305 31.904C93.1625 32.352 92.3305 32.8213 91.4345 33.312C90.5598 33.8027 89.5678 34.2613 88.4585 34.688C87.3492 35.1147 86.0692 35.4667 84.6185 35.744C83.1678 36.0213 81.4825 36.16 79.5625 36.16ZM98.9183 43.392L97.2862 39.424C98.4169 39.04 99.4516 38.592 100.39 38.08C101.35 37.568 102.182 37.0027 102.886 36.384C103.59 35.7653 104.134 35.0933 104.518 34.368C104.902 33.6213 105.094 32.8213 105.094 31.968C105.094 31.072 104.892 30.0907 104.486 29.024C104.081 27.9573 103.59 26.8693 103.014 25.76L107.206 23.744C107.59 24.4053 107.921 25.12 108.198 25.888C108.497 26.6347 108.742 27.3067 108.934 27.904C109.126 28.5013 109.254 28.9067 109.318 29.12C109.617 30.144 110.022 30.8267 110.534 31.168C111.068 31.5093 111.921 31.68 113.094 31.68C113.905 31.68 114.481 31.8933 114.822 32.32C115.185 32.7253 115.366 33.2373 115.366 33.856C115.366 34.5173 115.142 35.072 114.694 35.52C114.246 35.9467 113.606 36.16 112.774 36.16C111.9 36.16 111.132 36.032 110.47 35.776C109.809 35.52 109.276 35.1467 108.87 34.656C108.486 34.1653 108.241 33.5893 108.134 32.928L109.318 33.6C109.19 34.7307 108.817 35.7973 108.198 36.8C107.601 37.824 106.822 38.7627 105.862 39.616C104.902 40.4693 103.825 41.216 102.63 41.856C101.436 42.496 100.198 43.008 98.9183 43.392ZM112.812 36.16L113.133 31.68C113.623 31.68 114.039 31.5627 114.381 31.328C114.743 31.072 115.117 30.656 115.501 30.08C115.885 29.4827 116.333 28.6827 116.845 27.68C117.485 26.4 118.146 25.3973 118.829 24.672C119.533 23.9467 120.247 23.4347 120.973 23.136C121.719 22.816 122.466 22.656 123.213 22.656C124.151 22.656 125.026 22.8587 125.837 23.264C126.647 23.6693 127.351 24.224 127.949 24.928C128.546 25.6107 129.005 26.4 129.325 27.296C129.666 28.1707 129.837 29.0773 129.837 30.016C129.837 31.1467 129.591 32.1707 129.101 33.088C128.631 33.984 127.97 34.6987 127.117 35.232C126.285 35.744 125.325 36 124.237 36C123.319 36 122.253 35.84 121.036 35.52C119.821 35.2 118.541 34.528 117.197 33.504L118.829 29.632C119.789 30.2933 120.685 30.7733 121.517 31.072C122.37 31.3707 123.074 31.52 123.629 31.52C124.055 31.52 124.407 31.4773 124.685 31.392C124.962 31.3067 125.165 31.168 125.293 30.976C125.421 30.784 125.485 30.528 125.485 30.208C125.485 29.76 125.378 29.3013 125.165 28.832C124.951 28.3627 124.663 27.968 124.301 27.648C123.959 27.3067 123.554 27.136 123.085 27.136C122.637 27.136 122.253 27.3067 121.933 27.648C121.634 27.968 121.335 28.4373 121.036 29.056C120.759 29.6533 120.418 30.3573 120.013 31.168C119.522 32.1493 119.042 32.9707 118.573 33.632C118.103 34.272 117.602 34.784 117.069 35.168C116.557 35.5307 115.949 35.7867 115.245 35.936C114.562 36.0853 113.751 36.16 112.812 36.16Z" fill="#005FB0"/>
</svg>
