<?xml version="1.0" encoding="UTF-8"?>
<svg version="1.1" viewBox="0 0 1400 1400" width="350" height="350" xmlns="http://www.w3.org/2000/svg">
<path transform="translate(570,293)" d="m0 0h135l3 3 11 20 14 24 32 56 15 26 56 98 13 22 1 1h279l15-3 13-5 14-8 13-11 10-13 7-15 4-15v-15l-5-12-6-7-10-6-9-3-5-1-369-1 2-4 26-26 7-8 36-36 7-8 21-21 7-8 22-22h275l30 4 20 5 16 6 17 9 16 12 13 13 10 14 8 16 6 17 3 19v26l-3 21-6 24-9 25-8 18-12 21-11 16-8 10-12 14-15 15-11 9-14 11-21 14-18 10-23 11-25 9-28 7-19 3-26 2-226 1-21 64-14 43-6 18-2 1h-128l1-5 12-36 14-43 12-36 9-26v-2l-10 8-14 13-8 7-15 13-10 9-11 10-11 9-12 11-8 7-10 9-11 9-14 13-11 9-12 11-8 7-5 3h-135l2-4 10-8 13-12 11-9 15-14 11-9 12-11 8-7 10-9 11-9 13-12 8-7 14-12 13-12 11-9 12-11 8-7 10-9 11-9 14-13 8-7 14-12 12-11 11-9 13-12 11-9 6-5-2-5-13-23-14-24-14-25-14-24-13-23-14-24-14-25-14-24-14-25-13-22-3-5z" fill="#785399"/>
<path transform="translate(375,293)" d="m0 0h135l6 9 14 25 14 24 13 23 14 24 14 25 12 21 15 26 28 49 14 24-2 4-14 12-14 13-11 9-12 11-8 7-10 9-11 9-15 14-11 9-12 11-8 7-15 13-10 9-8 7-10 9-11 9-15 14-11 9-12 11-8 7-15 13-10 9-8 7-15 13-14 12-4 3h-136l6-7 11-9 11-10 8-7 10-9 14-12 10-9 8-7 10-9 11-9 13-12 8-7 14-12 12-11 14-12 10-9 8-7 10-9 11-9 13-12 8-7 15-13 20-18 11-9 14-13 11-9 1-4-10-17-13-23-15-26-44-77-15-26-28-49-14-24-3-6z" fill="#F18172"/>
<path transform="translate(570,293)" d="m0 0h135l3 3 11 20 14 24 32 56 15 26 56 98 13 22 1 2h-2l-2 4-10 9-3 1v2l-8 7-10 9-10 8-14 13-11 9-16 15-5 4h-2l-1 3-10 8-15 14-5 5-5 3-20 18-8 7-15 13-10 9-11 10-11 9-12 11-8 7-10 9-11 9-14 13-11 9-12 11-8 7-5 3h-135l2-4 10-8 13-12 11-9 15-14 11-9 12-11 8-7 10-9 11-9 13-12 8-7 14-12 13-12 11-9 12-11 8-7 10-9 11-9 14-13 8-7 14-12 12-11 11-9 13-12 11-9 6-5-2-5-13-23-14-24-14-25-14-24-13-23-14-24-14-25-14-24-14-25-13-22-3-5z" fill="#EA6B27"/>
<path transform="translate(154,481)" d="m0 0h129l-1 4-24 73-36 110-20 61-24 73-2 1h-128l1-5 12-36 30-91 14-43 46-140z" fill="#502671"/>
<path transform="translate(738,930)" d="m0 0h10l8 4 6 7 4 10 16 64 5 25 2-1 8-24 127-1 11-4 8-7 4-9 1-6-3-7-6-4-129-1 3-5 13-12 7-8 21-21h92l16 2 11 4 11 8 7 9 4 11v21l-5 17-6 12-8 11-13 13-13 9-14 7-17 5-8 1-84 1-12 36-3 7-1 1h-174l2-5 7-8h2l2-4 10-10 7-8 11-12h57l1-1-13-50-1-9-5 3-7 8-9 10-14 15-5 6h-2l-2 4-8 8-7 8-29 31-10 11-3 3h-53l1-4 9-10 14-15 9-10 6-7h2l2-4 9-9 7-8 9-10 12-13 14-15 11-12 7-8 12-13 14-15 12-12 10-6z" fill="#502671"/>
<path transform="translate(400,930)" d="m0 0h133l-12 14h-2l-2 4-21 21-6 7-106 1-4 4v6l1 1 79 1 16 2 12 6 5 4 7 11 3 10v10l-3 14-5 12-8 13-10 11-11 8-15 8-17 5-16 2h-128l1-4 14-14 7-8 20-20 104-1 9-2 7-4 5-6-1-7-4-3-4-1-89-1-13-4-9-6-6-7-4-9-1-4v-10l3-12 5-12 10-14 7-7 10-7 14-7 14-4z" fill="#512772"/>
<path transform="translate(1083,930)" d="m0 0h10l7 3 5 4 5 10 6 22 18 73 15 60-1 3h-166l2-5 11-11 7-8 15-16 6-7h59l-4-12-10-40-1-8-8 7-24 26-11 12-16 17-11 12-15 16-9 10-5 6-2 1h-53v-3l8-8 7-8 12-13 7-8 16-17 24-26 7-8 15-16 12-13 11-12 7-8 14-15 10-10 14-8z" fill="#795399"/>
<path transform="translate(188,930)" d="m0 0 9 1 8 5 6 7 16 25 17 26 10 15 8 13 2 1 21-64 9-28 1-1h44l1 2-5 13-12 36-6 20-12 36-14 43-5 11-6 8-8 6-3 1h-10l-11-7-10-14-15-23-14-22-18-27v-2h-3l-2 10-10 30-14 43-4 10-1 1h-41l-3-2 12-36 32-97 7-21 6-9 8-7z" fill="#502671"/>
<path transform="translate(854,930)" d="m0 0h92l16 2 11 4 11 8 7 9 4 11v21l-5 17-6 12-8 11-13 13-13 9-14 7-17 5-8 1-84 1-12 36-3 7-1 1h-174v-1h131l3-11 12-36 4-13v-4l2-1 8-24 127-1 11-4 8-7 4-9 1-6-3-7-6-4-129-1 3-5 13-12 7-8 17-17z" fill="#785399"/>
<path transform="translate(215,295)" d="m0 0h128l-1 7-21 64-18 55-3 6-1 1h-127l-1-3 6-16 14-43 21-64z" fill="#502671"/>
<path transform="translate(1128,930)" d="m0 0h56l7 14 19 45 4 10 5-3 33-33h2l2-4h2l2-4h2l1-3 8-7 14-14 2-1h56l-2 4-14 12-17 17-8 7-15 15-8 7-10 10-8 7-7 7-8 7-13 13-8 7-4 5-16 49-3 7-1 1h-41l-2-1 1-6 15-46 1-2v-7l-11-25-15-36-15-35-5-12z" fill="#795399"/>
<path transform="translate(542,930)" d="m0 0h145l-2 4-17 17-7 8-16 16-2 1h-42l-2 9-12 38-26 78-3 4h-43l1-7 5-14 30-91 5-17h-56l1-4 18-18 7-8 13-13z" fill="#512772"/>
<path transform="translate(105,930)" d="m0 0h44l-1 6-27 82-16 49-12 36-2 2h-40l-3-1 1-6 14-41 14-43 20-61 7-21z" fill="#512772"/>
</svg>
