<?xml version="1.0" encoding="UTF-8"?>
<svg version="1.1" viewBox="0 0 2048 2044" width="512" height="511" xmlns="http://www.w3.org/2000/svg">
<path transform="translate(1483,955)" d="m0 0h34l35 2 37 5 23 4 44 11 30 10 31 12 41 20 16 9 26 16 13 9 19 14 13 10 14 12 12 11 10 9 18 18 7 8 11 12 9 11 16 21 10 14 10 15 10 17 9 15 8 16 15 31 18 48 7 26 7 28 6 35 3 21 3 39v34l-3 40-5 35-7 36-10 37-11 31-10 25-17 35-10 18-14 23-7 11-14 19-13 17-9 11-22 24-12 13-10 9-13 12-10 9-13 10-12 9-18 13-19 12-30 18-46 22-38 14-22 7-44 11-26 5h-166l-24-5-26-6-30-8-39-14-19-8-43-21-18-11-26-16-10-8-11-8-12-9-13-11-11-10-8-7-10-10-6-5-7-8-8-8-7-8-9-10-13-17-10-13-12-17-13-21-13-22-8-16-15-31-14-38-6-18-10-38-5-26-5-33-3-50v-23l3-49 8-49 12-48 8-24 13-34 9-19 8-16 10-19 24-38 14-19 16-21 10-11 7-8 12-13 7-8 15-14 8-7 11-10 14-11 21-16 16-11 28-17 17-10 33-16 19-8 39-14 32-9 26-6 39-6 15-2zm1 131-29 2-33 5-26 6-22 6-30 11-20 9-24 12-20 12-18 12-13 10-16 12-15 14-12 11-9 9-7 8-10 11-12 16-14 19-12 20-9 16-8 16-10 21-12 33-9 34-7 39-2 24-1 17v25l2 29 4 28 5 25 8 29 11 31 11 24 8 16 10 18 14 22 10 13 13 17 11 12 7 8 22 22 8 7 4 2v2l36 27 20 12 17 10 31 15 37 14 30 8 23 5 27 4 25 2 26 1 43-3 38-6 35-9 21-7 25-10 25-12 17-9 26-16 17-13 12-9 10-9 8-7 13-12 11-11 7-8 9-10 13-17 14-19 13-22 9-16 9-19 6-13 7-19 8-24 8-31 6-37 2-27v-44l-2-26-5-32-7-30-8-26-11-28-13-28-8-14-12-20-9-13-14-19-9-11-11-12-16-17-10-9-7-7-14-11-17-13-16-11-25-15-23-12-22-10-27-10-37-10-27-5-21-3-28-2z" fill="#FCFCFC"/>
<path transform="translate(1658,2)" d="m0 0h41l27 3 26 5 26 7 24 9 25 12 24 14 18 13 10 8 10 9 8 7 67 67 7 8 11 13 13 18 11 18 9 16 12 27 9 27 7 30 5 32v49l-5 33-8 34-8 23-11 25-10 19-12 19-14 19-10 11-7 8-4 5h-2l-2 4-204 204h-2l-2 4h-2l-2 4h-2l-2 4h-2l-2 4h-2l-2 4h-2l-2 4h-2l-2 4h-2l-2 4h-2l-2 4h-2l-2 4h-2l-2 4h-2l-2 4h-2l-2 4h-2v2h-2v2h-2v2h-2v2h-2v2h-2v2h-2v2h-2v2h-2v2h-2v2h-2v2h-2v2h-2v2h-2v2h-2v2h-2v2h-2v2h-2l-2 4-4 4h-2l-2 4-8 7-10 7-13 6-15 3h-9l-13-2-13-5-9-6-10-9-8-11-6-13-2-8-1-13 2-15 5-13 7-11 12-13 303-303 9-11 11-14 8-14 8-15 6-17 6-23 2-17 1-18-3-31-4-16-7-21-11-22-7-11-11-14-9-10-7-8-49-49-11-9-14-11-13-8-21-11-26-8-15-3-19-2h-20l-25 3-25 7-15 6-21 11-12 9-11 9-13 11-379 379-9 11-6 7-10 15-9 16-8 20-6 22-3 24v40l-3 16-4 10-9 13-8 8-13 8-10 4-11 2h-16l-16-4-13-7-10-9-7-8-8-16-3-13-1-15v-35l3-30 6-29 9-29 10-25 13-25 10-16 10-14 10-13 11-12 7-8 5-6h2l2-4h2l2-4 364-364h2l1-3 8-7 16-15 20-15 10-7 22-13 24-12 27-10 13-4 32-7 21-3z" fill="#FCFCFC"/>
<path transform="translate(672,987)" d="m0 0h46l15 2 10 3 11 6 11 9 8 10 7 14 3 11v21l-3 12-8 16-11 12-10 7-13 6-9 2-52 1-24 4-21 6-18 8-15 8-14 10-13 11-10 9-377 377-8 10-10 12-7 10-15 29-8 26-2 8-3 29 1 23 3 21 7 24 6 15 12 22 11 14 12 14 14 15 8 8 6 5v2l4 2v2l4 2v2l4 2v2l4 2v2l4 2 12 12 11 9 13 10 32 17 30 9 24 3 10 1h9l27-3 23-6 15-5 27-14 11-8 17-14 12-11 302-302 13-9 11-5 8-2h24l14 4 11 6 10 9 8 9 8 16 3 14v13l-2 12-5 12-7 10-9 10-1 2h-2l-2 4-4 4h-2l-2 4h-2v2h-2v2h-2v2h-2v2h-2v2h-2v2h-2v2h-2v2h-2v2h-2v2h-2v2h-2v2h-2v2h-2v2h-2v2h-2v2h-2v2h-2v2h-2v2h-2v2h-2v2h-2v2h-2v2h-2v2h-2v2h-2v2h-2v2h-2v2h-2v2h-2v2h-2v2h-2v2h-2v2h-2l-2 4h-2l-2 4h-2l-2 4h-2l-2 4h-2l-2 4h-2l-2 4h-2l-2 4h-2l-2 4h-2l-2 4h-2l-2 4h-2l-2 4h-2l-2 4h-2l-2 4h-2l-2 4h-2l-2 4h-2l-2 4h-2l-2 4h-2l-2 4h-2l-2 4h-2l-2 4h-2l-2 4h-2l-2 4h-2l-2 4h-2l-2 4h-2l-2 4h-2l-2 4h-2l-2 4h-2l-2 4h-2l-2 4h-2l-2 4h-2l-2 4-98 98h-2v2l-8 7-13 12-13 10-17 12-22 13-16 8-18 8-23 8-28 8h-131l-19-6-33-11-27-12-27-16-19-14-10-8-24-22-56-56-7-8-10-11-12-16-12-18-13-23-12-27-9-27-7-30-5-29v-59l8-42 6-22 10-28 13-27 14-23 10-14 9-12 11-12 7-8 6-7 7-6 5-6 7-6 5-6 7-6 5-6 7-6 5-6 7-6 5-6 7-6 5-6 7-6 5-6 7-6 5-6 7-6 5-6 7-6 5-6 7-6 5-6 7-6 5-6 7-6 5-6 7-6 6-7 6-5 6-7 6-5 6-7 6-5 6-7 6-5 2-3h2l2-4h2l2-4h2l2-4h2l2-4h2l2-4h2l2-4h2l2-4h2l2-4h2l2-4h2l2-4h2l2-4h2l2-4h2l2-4h2l2-4h2l2-4 100-100 8-7 8-8 11-9 8-7 18-13 13-8 23-13 28-12 21-7 24-6 22-4z" fill="#FCFCFC"/>
<path transform="translate(1507,1115)" d="m0 0h11l16 3 16 8 10 9 8 9 7 14 3 12 1 17v31l16 3 20 7 21 9 20 11 14 9 10 8 11 9 12 11 7 8 11 13 15 24 9 21 5 17v20l-3 12-7 14-9 11-7 6-10 6-14 5-10 2-15-1-13-3-12-6-10-8-8-9-6-10-8-18-7-10-1-3-4-2-8-7-13-8-12-6-21-7-23-4-12-1h-29l-21 2-22 4-15 4-13 5-13 7-9 7-4 8v6l6 8 13 9 13 6 33 12 24 6 51 11 35 7 32 8 32 10 35 15 21 11 16 11 14 11 18 18 12 17 8 14 8 21 4 17 2 18v20l-3 20-4 15-6 15-9 16-10 14-11 12-9 9-12 9-16 10-24 13-21 8-24 8-38 8h-2v30l-1 14-4 14-8 14-9 10-11 8-14 6-10 2h-19l-12-3-14-7-13-11-9-13-5-12-2-9-1-24v-21l-13-2-24-5-38-12-17-7-28-14-17-12-14-10-11-10-8-7-9-10-13-18-10-18-6-15-5-19-1-5v-18l3-13 8-16 9-10 8-7 16-8 7-2 8-1h13l12 2 14 6 13 10 8 9 8 16 6 17 7 9 9 8 11 7 17 9 22 8 28 7 29 4 18 1h27l23-2 22-4 17-5 15-6 12-7 8-6 4-6 1-5-3-9-8-8-10-6-16-8-15-6-43-12-92-19-24-6-36-12-28-12-16-8-16-10-11-8-13-11-13-13-9-12-9-14-7-16-5-16-3-17-1-11v-13l3-24 5-16 8-20 10-16 8-11 12-14 10-9 18-13 17-10 16-8 24-9 26-7 31-6 1-27 2-20 5-14 7-11 12-12 10-6 12-5z" fill="#FBFBFB"/>
<path transform="translate(1386,594)" d="m0 0h9l16 3 16 8 10 9 7 8 6 10 5 16 1 7v9l-3 16-8 16-9 11-734 734-10 7-10 5-15 4h-20l-12-3-14-7-12-11-7-9-6-12-4-16v-13l3-14 4-10 8-12 12-13 725-725 12-9 13-6 8-2z" fill="#FCFCFC"/>
<path transform="translate(1468,83)" d="m0 0 2 1-401 401v-3l8-8 2-3h2l2-4h2l2-4 364-364h2l1-3 8-7z" fill="#6A6A6A"/>
<path transform="translate(483,1068)" d="m0 0 2 1-402 402v-3l10-10 5-6 7-6 5-6 7-6 5-6 7-6 5-6 7-6 5-6 7-6 5-6 7-6 5-6 7-6 5-6 7-6 5-6 7-6 5-6 7-6 5-6 7-6 5-6 7-6 5-6 7-6 6-7 6-5 6-7 6-5 6-7 6-5 6-7 6-5 6-7 4-4h2l2-4h2l2-4h2l2-4h2l2-4h2l2-4h2l2-4h2l2-4h2l2-4h2l2-4h2l2-4h2l2-4h2l2-4h2l2-4h2l2-4h2l2-4 100-100 8-7z" fill="#636363"/>
<path transform="translate(1866,495)" d="m0 0h2l-1 4-314 314-3 4-2-1 9-11 308-308z" fill="#3C3C3C"/>
<path transform="translate(812,1551)" d="m0 0 2 1-315 315-5 1 313-313z" fill="#3C3C3C"/>
<path transform="translate(1555,180)" d="m0 0 2 1-15 14-374 374-7 8-1-3 5-6 7-6 5-6 7-6 5-6 7-6 5-6 7-6 5-6 7-6 5-6 7-6 5-6 7-6 5-6 7-6 5-6 7-6 5-6 7-6 5-6 7-6 5-6 7-6 5-6 7-6 5-6 7-6 5-6 7-6 5-6 7-6 5-6 7-6 5-6 7-6 5-6 7-6 5-6 7-6 5-6 7-6 5-6 7-6 5-6 7-6 5-6 7-6 5-6 7-6 5-6 7-6 5-6 7-6 5-6 7-6 5-6 7-6 5-6 7-6 5-6 7-6 5-6 7-6 5-6z" fill="#3C3C3C"/>
<path transform="translate(573,1162)" d="m0 0 2 1-15 14-380 380 1-5 6-5 6-7 7-6 5-6 7-6 5-6 7-6 5-6 7-6 5-6 7-6 5-6 7-6 5-6 7-6 5-6 7-6 5-6 7-6 5-6 7-6 5-6 7-6 5-6 7-6 5-6 7-6 5-6 7-6 5-6 7-6 5-6 7-6 5-6 7-6 5-6 7-6 5-6 7-6 5-6 7-6 5-6 7-6 5-6 7-6 5-6 7-6 5-6 7-6 5-6 7-6 5-6 7-6 5-6 7-6 5-6 7-6 5-6 7-6 5-6 7-6 5-6 7-6 5-6z" fill="#3C3C3C"/>
<path transform="translate(1808,185)" d="m0 0 4 2 8 7 21 21 7 6 5 6 5 5 7 8 3 4-1 2-12-13-47-47z" fill="#3D3D3D"/>
<path transform="translate(1460,1916)" d="m0 0 37 2 25-1 18-1-1 3-6 1h-68l-5-2z" fill="#464646"/>
<path transform="translate(955,1459)" d="m0 0h1v87h-1l-2-33v-23z" fill="#454545"/>
<path transform="translate(987,657)" d="m0 0h1v75l-2-4-1-15v-35z" fill="#404040"/>
<path transform="translate(989,1695)" d="m0 0 2 1 5 13 5 12 25 50-1 2-9-15-11-23-11-24-5-14z" fill="#424242"/>
<path transform="translate(1576,1165)" d="m0 0h1l1 5 1 17v31l-3-3z" fill="#4F4F4F"/>
<path transform="translate(1476,1084)" d="m0 0h49l3 3h-55v-2z" fill="#424242"/>
<path transform="translate(2023,249)" d="m0 0 2 2 9 25 8 32 2 10-1 4-3-6-2-15-2-3-3-17-9-26z" fill="#4B4B4B"/>
<path transform="translate(673,1116)" d="m0 0h60l-4 2-57 1z" fill="#3D3D3D"/>
<path transform="translate(1577,1792)" d="m0 0 2 2v27l-1 14-2 4v-46z" fill="#464646"/>
<path transform="translate(2044,1449)" d="m0 0h1l2 22 1 13v11l-3-1-1-4z" fill="#494949"/>
<path transform="translate(47,1516)" d="m0 0 1 2-7 12-11 23-7 15-2 4-1-2 6-15 11-23z" fill="#474747"/>
<path transform="translate(2045,1510)" d="m0 0h3l-1 21-2 26h-1v-45z" fill="#454545"/>
<path transform="translate(184,1810)" d="m0 0 22 22 6 5v2l4 2v2l4 2v2l4 2-1 2-8-7-30-30z" fill="#595959"/>
<path transform="translate(780,1034)" d="m0 0 2 4 1 4v21l-2 9h-1z" fill="#404040"/>
<path transform="translate(1539,835)" d="m0 0h1v37l-2-3-2-14 2-18z" fill="#484848"/>
<path transform="translate(344,1917)" d="m0 0h10l10 1h9l9-1h10l-1 2-9 1h-34l-4-1z" fill="#404040"/>
<path transform="translate(3,1635)" d="m0 0h1v22l-1 10-3 1v-17z" fill="#454545"/>
<path transform="translate(1460,1916)" d="m0 0 37 2-3 2h-29l-5-2z" fill="#4C4C4C"/>
<path transform="translate(1235,1598)" d="m0 0h1v36l-2-4-1-5v-18z" fill="#3E3E3E"/>
<path transform="translate(0,1695)" d="m0 0 3 1 1 10v22h-1l-3-18z" fill="#434343"/>
<path transform="translate(2044,325)" d="m0 0h1l3 20v11l-3-1-1-2z" fill="#474747"/>
<path transform="translate(1764,1979)" d="m0 0 3 1-12 7-23 11-8 4-3-1 17-9 21-10z" fill="#474747"/>
<path transform="translate(1617,2035)" d="m0 0h5l-4 2-35 7h-3v-3l2-1 20-2z" fill="#525252"/>
<path transform="translate(1868,1306)" d="m0 0 3 3 10 21 4 9 3 7-1 4-11-25-8-16z" fill="#505050"/>
<path transform="translate(1807,1782)" d="m0 0v3l-6 8-14 14-5 1 22-22z" fill="#3E3E3E"/>
<path transform="translate(1535,957)" d="m0 0h17l16 2v1h-27l-6-1z" fill="#414141"/>
<path transform="translate(1951,1193)" d="m0 0 4 4 17 28 3 5-1 2-8-12-11-19-3-3z" fill="#4C4C4C"/>
<path transform="translate(2045,384)" d="m0 0h3v10l-3 21h-1v-16z" fill="#414141"/>
<path transform="translate(1240,1649)" d="m0 0 3 4 15 30v3l-6-9-8-15-4-10z" fill="#4A4A4A"/>
<path transform="translate(1586,916)" d="m0 0h32l-4 2-7 1h-9l-12-2z" fill="#474747"/>
<path transform="translate(1463,956)" d="m0 0h3l-1 3-15 1h-17v-1l14-2z" fill="#414141"/>
<path transform="translate(1277,1451)" d="m0 0 5 5 6 9 11 12 1 4-7-6-10-13-6-9z" fill="#424242"/>
<path transform="translate(1390,1375)" d="m0 0 1 3v6l6 8 11 8-2 1-8-5-9-9-1-2v-7z" fill="#424242"/>
<path transform="translate(1085,1452)" d="m0 0h2l-1 22-1 11h-1v-31z" fill="#454545"/>
<path transform="translate(1099,1614)" d="m0 0 2 3 10 30-1 2-5-10-4-12-1-1z" fill="#4C4C4C"/>
<path transform="translate(1993,1266)" d="m0 0 3 4 11 24-1 3-8-16-5-12z" fill="#464646"/>
<path transform="translate(457,1894)" d="m0 0 2 1-5 4-14 7-3 2h-7l3-2 21-10z" fill="#494949"/>
<path transform="translate(1628,1635)" d="m0 0 2 1-7 6-10 6-8 4h-6l3-2 16-8z" fill="#3F3F3F"/>
<path transform="translate(1102,1127)" d="m0 0v3l-4 6-15 15v-3l15-16z" fill="#434343"/>
<path transform="translate(1148,1083)" d="m0 0 2 1-17 17-5 3-2-1 13-12 8-7z" fill="#3F3F3F"/>
<path transform="translate(1084,1521)" d="m0 0h1l2 24v7l-3-2z" fill="#434343"/>
<path transform="translate(1688,1273)" d="m0 0 4 2 10 9 9 10-1 2-22-22z" fill="#4A4A4A"/>
<path transform="translate(1730,140)" d="m0 0 9 1 12 4 10 5v2l-6-2-12-5-13-4z" fill="#434343"/>
<path transform="translate(2007,1297)" d="m0 0 2 3 10 27-1 2-6-11-2-9-3-8z" fill="#3F3F3F"/>
<path transform="translate(2006,215)" d="m0 0 3 3 13 26-1 3-9-17-6-13z" fill="#4A4A4A"/>
<path transform="translate(1567,1858)" d="m0 0 1 2-7 9-9 8-5 2 5-5 6-5 3-5h2l2-4z" fill="#434343"/>
<path transform="translate(1630,1412)" d="m0 0 5 4 6 7 5 5 3 4-4-2-8-7-7-9z" fill="#3F3F3F"/>
<path transform="translate(1113,732)" d="m0 0h2l-1 8-4 10-5 8-1-3 7-13z" fill="#4A4A4A"/>
<path transform="translate(1076,1846)" d="m0 0 5 4v2h2l7 8 6 7-1 2-8-8-9-11z" fill="#434343"/>
<path transform="translate(1908,1138)" d="m0 0 5 5 10 11 4 5-1 2-16-17-2-3z" fill="#474747"/>
<path transform="translate(997,755)" d="m0 0 7 6 5 5v2l4 2 4 5-4-2-8-7-8-9z" fill="#3F3F3F"/>
<path transform="translate(1610,1376)" d="m0 0 6 5 4 5 3 7 1 7-3-4-6-12-5-6z" fill="#3F3F3F"/>
<path transform="translate(698,1441)" d="m0 0 2 1-8 6-10 5-9 2 4-3 9-4 6-3z" fill="#404040"/>
<path transform="translate(1702,2008)" d="m0 0h5l-2 2-24 9-3-1 11-5 12-4z" fill="#444"/>
<path transform="translate(1269,1699)" d="m0 0 7 6 1 3 4 2 8 8-1 2-12-11-7-8z" fill="#505050"/>
<path transform="translate(1471,1660)" d="m0 0 28 3v1h-22l-5-2z" fill="#404040"/>
<path transform="translate(1476,1425)" d="m0 0 9 1 21 5v1h-9l-9-3-11-2z" fill="#484848"/>
<path transform="translate(1562,1348)" d="m0 0 9 2 8 3 10 5v2l-6-2-13-6-8-3z" fill="#505050"/>
<path transform="translate(1313,1266)" d="m0 0 2 1-20 20v-3l11-12z" fill="#505050"/>
<path transform="translate(1764,1592)" d="m0 0 2 4 1 7v11l-2-1-1-3z" fill="#4C4C4C"/>
<path transform="translate(1856,57)" d="m0 0 5 2 17 13 1 2-5-2-9-7-9-6z" fill="#484848"/>
<path transform="translate(1126,1684)" d="m0 0 3 4 8 16 2 5-5-5-6-12-2-5z" fill="#4D4D4D"/>
<path transform="translate(1731,1324)" d="m0 0 4 4 8 18-1 3-6-11-3-9z" fill="#515151"/>
<path transform="translate(1844,1077)" d="m0 0 6 4 11 10 4 4-5-2-10-9-2-1v-2l-4-2z" fill="#404040"/>
<path transform="translate(1135,1908)" d="m0 0 4 1 8 7 5 5v3l-11-9z" fill="#454545"/>
<path transform="translate(1408,597)" d="m0 0 6 1 13 7 4 4-6-2-17-9z" fill="#4E4E4E"/>
<path transform="translate(1369,597)" d="m0 0 3 1-21 11-2-1 11-7z" fill="#454545"/>
<path transform="translate(452,2036)" d="m0 0h5l-3 2-22 6v-3l10-2z" fill="#494949"/>
<path transform="translate(344,1917)" d="m0 0h10l10 1v2h-16l-4-1z" fill="#494949"/>
<path transform="translate(486,2024)" d="m0 0h5l-4 3-20 7-3-1 21-8z" fill="#404040"/>
<path transform="translate(1913,1448)" d="m0 0 3 2v21h-1l-2-17z" fill="#454545"/>
<path transform="translate(1399,2039)" d="m0 0 18 1 3 2v2l-12-2-9-2z" fill="#4A4A4A"/>
<path transform="translate(1277,1553)" d="m0 0 3 1-19 10-3-1 14-8z" fill="#3C3C3C"/>
<path transform="translate(1291,996)" d="m0 0 3 1-5 3-13 5-5 1 4-3z" fill="#454545"/>
<path transform="translate(1636,1775)" d="m0 0 4 1-21 7-4-1 3-2 10-2z" fill="#4A4A4A"/>
<path transform="translate(619,1444)" d="m0 0 4 1 11 6 5 2 1 2-10-3-10-6z" fill="#454545"/>
<path transform="translate(651,989)" d="m0 0h10l-1 2-21 2 1-2z" fill="#404040"/>
<path transform="translate(965,1614)" d="m0 0 2 2 3 12 2 7v6l-2-4-5-20z" fill="#4B4B4B"/>
<path transform="translate(1367,1613)" d="m0 0 5 5 10 9-2 1-8-5-4-5z" fill="#4B4B4B"/>
<path transform="translate(595,1372)" d="m0 0h1v14l-4 3 2-14z" fill="#464646"/>
<path transform="translate(1423,1351)" d="m0 0 1 2-17 8h-3l6-5 8-4z" fill="#4B4B4B"/>
<path transform="translate(755 1e3)" d="m0 0 4 2 8 7 4 5-1 2-15-15z" fill="#4B4B4B"/>
<path transform="translate(963,1397)" d="m0 0h1v15l-3 6-1-3z" fill="#3C3C3C"/>
<path transform="translate(1263,1344)" d="m0 0h1v14l-4 3 2-14z" fill="#414141"/>
<path transform="translate(1912,330)" d="m0 0 3 2 1 4v14l-2-4z" fill="#505050"/>
<path transform="translate(1633,5)" d="m0 0h7v2l-2 1h-16l4-2z" fill="#464646"/>
<path transform="translate(1765,1636)" d="m0 0h2l-1 14-2 3v-15z" fill="#414141"/>
<path transform="translate(1657,1250)" d="m0 0 6 2 15 11-2 1-6-4-10-7z" fill="#515151"/>
<path transform="translate(1854,1917)" d="m0 0 2 1-10 9-5 4-2-1 12-11z" fill="#3C3C3C"/>
<path transform="translate(483,1876)" d="m0 0 2 1-9 9-6 3-2-1 13-10z" fill="#4C4C4C"/>
<path transform="translate(1887,1655)" d="m0 0 1 4-4 10-3 5-1-3z" fill="#474747"/>
<path transform="translate(142,1616)" d="m0 0 1 3-6 19h-1v-7l4-11z" fill="#414141"/>
<path transform="translate(59,1498)" d="m0 0 1 3-9 12-1 2-2-1 7-11z" fill="#4C4C4C"/>
<path transform="translate(1666,1440)" d="m0 0h14l3 3h-8l-9-2z" fill="#414141"/>
<path transform="translate(1908,1418)" d="m0 0 3 3 1 6v11l-2-4z" fill="#4C4C4C"/>
<path transform="translate(2040,1419)" d="m0 0h1l2 12v5h-3l-1-5z" fill="#414141"/>
<path transform="translate(592,1395)" d="m0 0 4 3v10l-2 1-2-10z" fill="#3C3C3C"/>
<path transform="translate(2039,302)" d="m0 0 2 2 3 14-1 4-3-6z" fill="#525252"/>
<path transform="translate(1582,2040)" d="m0 0h11v2l-13 2v-3z" fill="#414141"/>
<path transform="translate(2041,1568)" d="m0 0h2l-1 12-1 6h-1v-17z" fill="#414141"/>
<path transform="translate(2035,1390)" d="m0 0 2 4 2 11v6l-3-4z" fill="#474747"/>
<path transform="translate(1452,641)" d="m0 0 2 3 1 4v8l-3-1z" fill="#3C3C3C"/>
<path transform="translate(1885,472)" d="m0 0 1 2-4 6-9 10v-3z" fill="#414141"/>
<path transform="translate(1867,1698)" d="m0 0 1 3-6 11-5 5 2-5z" fill="#414141"/>
<path transform="translate(1303,1484)" d="m0 0 5 2 9 8v2l-4-2-10-9z" fill="#414141"/>
<path transform="translate(1446,1212)" d="m0 0h2v3l-2 1h-14v-1z" fill="#414141"/>
<path transform="translate(1951,1193)" d="m0 0 4 4 8 13-1 2-6-9-4-5z" fill="#414141"/>
<path transform="translate(579,1008)" d="m0 0 3 1-5 3-10 4-4-1z" fill="#474747"/>
<path transform="translate(1453,664)" d="m0 0h2v7l-2 8h-1v-14z" fill="#3C3C3C"/>
<path transform="translate(234,2019)" d="m0 0 8 1 4 3 7 3-3 1-16-7z" fill="#484848"/>
<path transform="translate(140,1738)" d="m0 0 2 4 5 12-1 3-6-12z" fill="#4E4E4E"/>
<path transform="translate(132,1701)" d="m0 0h1l2 14v5l-3-2z" fill="#484848"/>
<path transform="translate(1636,1238)" d="m0 0 6 2 12 7-3 1-11-6z" fill="#424242"/>
<path transform="translate(1217,1034)" d="m0 0 2 1-5 4-11 6-2-1z" fill="#424242"/>
<path transform="translate(1417,961)" d="m0 0h7l-1 2-5 1h-13v-1z" fill="#484848"/>
<path transform="translate(1547,818)" d="m0 0 1 3-3 5-2 5-3 3 1-6z" fill="#424242"/>
<path transform="translate(1988,187)" d="m0 0 5 5 7 11-1 2-3-3-5-9-3-4z" fill="#484848"/>
<path transform="translate(1432,1913)" d="m0 0 13 1 7 1v1h-15l-5-2z" fill="#424242"/>
<path transform="translate(1721,1854)" d="m0 0 2 1-5 4-9 5-3-1z" fill="#484848"/>
<path transform="translate(1416,1405)" d="m0 0 10 3 7 3v1h-7l-10-6z" fill="#424242"/>
<path transform="translate(1576,961)" d="m0 0 13 1 4 2h-13l-4-1z" fill="#484848"/>
<path transform="translate(1662,1885)" d="m0 0 2 1-12 6h-6l3-2z" fill="#484848"/>
<path transform="translate(1607,1783)" d="m0 0h2v2l-13 3h-5l4-2 6-2z" fill="#424242"/>
<path transform="translate(959,1424)" d="m0 0h1v14l-3 2 1-12z" fill="#424242"/>
<path transform="translate(1185,1228)" d="m0 0h2l-2 4-8 9-1-3 5-6z" fill="#3C3C3C"/>
<path transform="translate(1310,989)" d="m0 0 2 1-10 5-7 1 1-2z" fill="#424242"/>
<path transform="translate(1589,1908)" d="m0 0 4 1-2 2-10 1h-5l4-2z" fill="#494949"/>
<path transform="translate(1701,1866)" d="m0 0 2 1-5 4-8 3-3-1z" fill="#494949"/>
<path transform="translate(1700,993)" d="m0 0 10 3 7 3v1h-6l-11-6z" fill="#494949"/>
<path transform="translate(1118,662)" d="m0 0h1l-1 12-1 6h-1v-14z" fill="#494949"/>
<path transform="translate(1720,5)" d="m0 0 12 1 5 1v1h-13l-4-2z" fill="#494949"/>
<path transform="translate(1764,1979)" d="m0 0 3 1-12 7-3-1 5-3z" fill="#494949"/>
<path transform="translate(1821,1943)" d="m0 0 2 1-12 9-2-1 9-8z" fill="#424242"/>
<path transform="translate(169,1568)" d="m0 0 2 1-10 13-1-2 5-8z" fill="#424242"/>
<path transform="translate(1752,1557)" d="m0 0 3 3 4 10-1 3-5-10-1-1z" fill="#575757"/>
<path transform="translate(1574,164)" d="m0 0 3 1-12 10-2-1z" fill="#494949"/>
<path transform="translate(1032,1220)" d="m0 0 1 2-3 6-5 6v-3z" fill="#585858"/>
<path transform="translate(991,633)" d="m0 0h1v13l-3 2 1-10z" fill="#434343"/>
<path transform="translate(292,1902)" d="m0 0 6 2 8 3v1h-8l-6-5z" fill="#3C3C3C"/>
<path transform="translate(989,1695)" d="m0 0 2 1 5 13v2h-2l-5-14z" fill="#525252"/>
<path transform="translate(1731,1525)" d="m0 0 5 5 4 5-1 2-5-5-3-5z" fill="#434343"/>
<path transform="translate(1089,1428)" d="m0 0h2l-1 10-1 5h-1v-13z" fill="#3C3C3C"/>
<path transform="translate(2028,1361)" d="m0 0 2 4 2 7v5l-2-4-2-3z" fill="#4A4A4A"/>
<path transform="translate(1400,1363)" d="m0 0 2 1-7 6-3 3 1-5 5-4z" fill="#434343"/>
<path transform="translate(1451,1159)" d="m0 0h1v8l-2 5-2 1 2-11z" fill="#434343"/>
</svg>
