<?xml version="1.0" encoding="UTF-8"?>
<svg version="1.1" viewBox="0 0 2048 2048" width="512" height="512" xmlns="http://www.w3.org/2000/svg">
<path transform="translate(149)" d="m0 0h1007l28 6 19 5 19 7 23 11 19 12 13 10 11 9 17 17 9 11 12 16 9 15 9 17 8 20 6 20 5 23 2 22v404l-2 12-5 12-7 10-7 8-14 9-10 4-16 3-15-1-13-4-12-7-12-11-7-10-5-11-2-7-1-8-1-397-3-20-7-19-8-14-11-13-12-11-13-8-12-6-16-5-14-2-553-1v2l10 2 91 30 51 17 18 8 15 8 14 10 11 9 16 16 13 18 10 17 8 20 6 21 3 24v1334l282-1 17-2 17-5 16-8 13-9 10-9 11-14 10-19 5-17 2-15 1-399 4-16 5-10 10-13h2v-2l13-9 12-5 14-2 17 1 13 4 12 7 11 10 9 14 5 13 1 7v408l-3 25-6 25-7 21-8 18-10 18-11 16-11 14-14 15-4 4h-2v2l-11 9-13 10-21 13-25 12-24 8-22 5-21 3-16 1h-283v96l-3 24-6 21-6 15-8 16-8 12-11 14-5 6-8 7-10 9-13 9-16 9-16 7-15 5-23 5-6 1h-36l-27-6-28-9-40-13-38-13-43-14-360-120-24-9-16-8-16-10-14-12-11-10-9-11-9-12-10-17-7-16-6-18-5-24v-1577l8-32 8-20 10-18 14-19 7-7 1-2h2l2-4 8-7 13-10 18-11 18-8 18-6zm14 128-13 5-8 6-8 9-4 9-2 9v1546l3 12 7 11 8 7 12 6 50 17 198 66 40 13 41 14 177 59 13 3h10l11-3 8-4 10-9 6-10 3-12v-1547l-3-10-6-11-7-7-10-6-47-16-462-154-12-3z" fill="#FEFEFE"/>
<path transform="translate(1654,512)" d="m0 0h19l13 3 12 6 9 7 317 317 5 4 9 11 10 20v32l-5 11-6 10-11 12-319 319-10 7-13 6-16 3h-10l-15-3-16-8-12-11-9-14-4-10-2-8v-19l4-15 6-12 12-13 3-4h2l2-4h2l2-4 88-88h2l2-4h2l2-4h2l2-4h2l2-4h2l2-4h2l2-4h2l2-4h2l2-4h2l2-4h2l2-4h2l2-4h2l1-3 7-6 5-6 7-6 5-6 7-6 7-8 13-13 8-7 1-2h-660l-16-3-14-7-10-9-8-9-8-16-3-12v-15l3-14 7-14 8-10 9-8 15-8 13-3h664l-7-8-205-205-9-13-5-12-2-8v-19l4-15 6-12 9-11 12-9 11-5z" fill="#FEFEFE"/>
</svg>
