<svg width="160" height="23" viewBox="0 0 160 23" fill="none" xmlns="http://www.w3.org/2000/svg">
<path opacity="0.8" d="M0.6 15.02C0.6 14.7 0.626667 14.36 0.68 14C0.746667 13.6267 0.84 13.2333 0.96 12.82C1.09333 12.3933 1.25333 11.9467 1.44 11.48L2.88 12.04C2.74667 12.4133 2.62667 12.7667 2.52 13.1C2.42667 13.4333 2.35333 13.7467 2.3 14.04C2.26 14.3333 2.24 14.6133 2.24 14.88C2.24 15.52 2.40667 16.0733 2.74 16.54C3.08667 17.0067 3.56 17.3667 4.16 17.62C4.76 17.8733 5.46 18 6.26 18C7.23333 18 8.03333 17.86 8.66 17.58C9.3 17.3 9.79333 16.8733 10.14 16.3C10.5 15.7267 10.74 15 10.86 14.12C10.98 13.2267 11.02 12.18 10.98 10.98L10.6 0.719999H12.26L12.6 11.4C12.6267 12.2933 12.5867 13.1533 12.48 13.98C12.3867 14.7933 12.2 15.54 11.92 16.22C11.64 16.9133 11.2533 17.5133 10.76 18.02C10.2667 18.54 9.64667 18.94 8.9 19.22C8.15333 19.5 7.25333 19.64 6.2 19.64C5.49333 19.64 4.80667 19.5467 4.14 19.36C3.47333 19.1733 2.87333 18.8933 2.34 18.52C1.80667 18.1467 1.38 17.6667 1.06 17.08C0.753333 16.5067 0.6 15.82 0.6 15.02ZM15.0663 19.6L14.7063 17.96C15.5063 17.8533 16.2396 17.7 16.9063 17.5C17.5863 17.3133 18.1663 17.04 18.6463 16.68C19.1396 16.32 19.5196 15.8467 19.7862 15.26C20.0529 14.6733 20.1863 13.94 20.1863 13.06C20.1863 12.1533 20.0196 11.4 19.6863 10.8C19.3529 10.2 18.9196 9.9 18.3863 9.9C18.1063 9.9 17.8463 10.0067 17.6063 10.22C17.3663 10.4333 17.1663 10.72 17.0063 11.08C16.8596 11.44 16.7863 11.8333 16.7863 12.26C16.7863 12.5 16.8396 12.7 16.9463 12.86C17.0529 13.0067 17.2063 13.1267 17.4063 13.22C17.6196 13.3 17.8863 13.36 18.2063 13.4C18.5263 13.44 18.8996 13.46 19.3263 13.46H23.5463C23.8263 13.46 24.0263 13.54 24.1463 13.7C24.2796 13.8467 24.3463 14.0267 24.3463 14.24C24.3463 14.4533 24.2529 14.6533 24.0663 14.84C23.8796 15.0133 23.6396 15.1 23.3463 15.1H18.5663C17.9663 15.1 17.4063 15.0133 16.8863 14.84C16.3796 14.6667 15.9663 14.4 15.6463 14.04C15.3396 13.6667 15.1863 13.18 15.1863 12.58C15.1863 12.02 15.2729 11.4867 15.4463 10.98C15.6196 10.46 15.8529 10 16.1463 9.6C16.4529 9.18667 16.8063 8.86 17.2063 8.62C17.6196 8.38 18.0663 8.26 18.5463 8.26C19.1596 8.26 19.7063 8.44 20.1863 8.8C20.6663 9.16 21.0463 9.70667 21.3263 10.44C21.6063 11.16 21.7463 12.0733 21.7463 13.18C21.7463 14.42 21.4929 15.4867 20.9863 16.38C20.4929 17.2867 19.7463 18.0067 18.7463 18.54C17.7596 19.0733 16.5329 19.4267 15.0663 19.6ZM23.3398 15.1L23.5398 13.46C23.9132 13.46 24.2065 13.38 24.4198 13.22C24.6465 13.06 24.8598 12.7933 25.0598 12.42C25.2732 12.0467 25.5398 11.5467 25.8598 10.92C26.1798 10.28 26.4998 9.76 26.8198 9.36C27.1532 8.94667 27.4732 8.62667 27.7798 8.4C28.0998 8.16 28.3998 7.99333 28.6798 7.9C28.9598 7.80667 29.2198 7.76 29.4598 7.76C29.8998 7.76 30.2932 7.86 30.6398 8.06C30.9865 8.24667 31.3132 8.57333 31.6198 9.04C31.9265 9.49333 32.2398 10.12 32.5598 10.92C32.8665 11.6533 33.1398 12.2067 33.3798 12.58C33.6332 12.94 33.8932 13.18 34.1598 13.3C34.4398 13.4067 34.7532 13.46 35.0998 13.46C35.3798 13.46 35.5798 13.54 35.6998 13.7C35.8332 13.8467 35.8998 14.0267 35.8998 14.24C35.8998 14.4533 35.8065 14.6533 35.6198 14.84C35.4332 15.0133 35.1932 15.1 34.8998 15.1C34.3798 15.1 33.8998 15.0133 33.4598 14.84C33.0332 14.6667 32.6732 14.3933 32.3798 14.02L32.6598 13.6C32.5132 14.0133 32.3132 14.3533 32.0598 14.62C31.8198 14.8733 31.5465 15.06 31.2398 15.18C30.9332 15.3133 30.6065 15.38 30.2598 15.38C29.8198 15.38 29.3665 15.2867 28.8998 15.1C28.4465 14.9133 28.0065 14.6467 27.5798 14.3C27.1532 13.9533 26.7798 13.5467 26.4598 13.08C26.1132 13.6933 25.7798 14.1467 25.4598 14.44C25.1532 14.72 24.8332 14.9 24.4998 14.98C24.1665 15.06 23.7798 15.1 23.3398 15.1ZM27.2198 11.56C27.4465 11.9333 27.6865 12.26 27.9398 12.54C28.2065 12.82 28.4732 13.0533 28.7398 13.24C29.0065 13.4133 29.2665 13.5467 29.5198 13.64C29.7865 13.72 30.0265 13.76 30.2398 13.76C30.7065 13.76 31.0465 13.5933 31.2598 13.26C31.4865 12.9267 31.4798 12.46 31.2398 11.86C31.1198 11.5533 30.9932 11.2533 30.8598 10.96C30.7398 10.6667 30.6065 10.4 30.4598 10.16C30.3132 9.90667 30.1465 9.71333 29.9598 9.58C29.7732 9.43333 29.5665 9.36 29.3398 9.36C29.1398 9.36 28.9265 9.42667 28.6998 9.56C28.4865 9.69333 28.2532 9.92 27.9998 10.24C27.7598 10.56 27.4998 11 27.2198 11.56ZM47.6423 15.1C47.0823 15.1 46.569 15.0667 46.1023 15C45.6357 14.92 45.2157 14.78 44.8423 14.58C44.469 14.38 44.1557 14.0933 43.9023 13.72C43.649 13.3333 43.4557 12.8267 43.3223 12.2L44.5023 11.5C44.6757 12.0333 44.889 12.44 45.1423 12.72C45.3957 13 45.7357 13.1933 46.1623 13.3C46.6023 13.4067 47.1623 13.46 47.8423 13.46C48.1223 13.46 48.3223 13.54 48.4423 13.7C48.5757 13.8467 48.6423 14.0267 48.6423 14.24C48.6423 14.4533 48.549 14.6533 48.3623 14.84C48.1757 15.0133 47.9357 15.1 47.6423 15.1ZM34.9023 15.1L35.0823 13.46C35.7757 13.46 36.4557 13.4067 37.1223 13.3C37.789 13.1933 38.4423 13.04 39.0823 12.84C39.7223 12.64 40.3357 12.4 40.9223 12.12C41.5223 11.8267 42.089 11.4933 42.6223 11.12C42.2757 10.8133 41.8757 10.5467 41.4223 10.32C40.969 10.0933 40.469 9.92 39.9223 9.8C39.389 9.66667 38.8223 9.6 38.2223 9.6C38.009 9.6 37.809 9.60667 37.6223 9.62C37.4357 9.63333 37.249 9.66 37.0623 9.7C36.8757 9.72667 36.6623 9.76667 36.4223 9.82L36.1023 8.3C36.4623 8.19333 36.8223 8.11333 37.1823 8.06C37.5423 7.99333 37.889 7.96 38.2223 7.96C38.9157 7.96 39.5423 8.04667 40.1023 8.22C40.6623 8.38 41.169 8.58 41.6223 8.82C42.089 9.06 42.5223 9.3 42.9223 9.54C43.3357 9.78 43.7357 9.98667 44.1223 10.16C44.509 10.32 44.909 10.4 45.3223 10.4H45.7423L45.8823 11.84C45.309 11.84 44.7823 11.92 44.3023 12.08C43.8223 12.24 43.349 12.4467 42.8823 12.7C42.429 12.94 41.949 13.2 41.4423 13.48C40.9357 13.7467 40.3757 14.0067 39.7623 14.26C39.149 14.5 38.4423 14.7 37.6423 14.86C36.8557 15.02 35.9423 15.1 34.9023 15.1ZM47.6367 15.1L47.8367 13.46C48.2101 13.46 48.5034 13.38 48.7167 13.22C48.9434 13.06 49.1567 12.7933 49.3567 12.42C49.5701 12.0467 49.8367 11.5467 50.1567 10.92C50.4767 10.28 50.7967 9.76 51.1167 9.36C51.4501 8.94667 51.7701 8.62667 52.0767 8.4C52.3967 8.16 52.6967 7.99333 52.9767 7.9C53.2567 7.80667 53.5167 7.76 53.7567 7.76C54.1967 7.76 54.5901 7.86 54.9367 8.06C55.2834 8.24667 55.6101 8.57333 55.9167 9.04C56.2234 9.49333 56.5367 10.12 56.8567 10.92C57.1634 11.6533 57.4367 12.2067 57.6767 12.58C57.9301 12.94 58.1901 13.18 58.4567 13.3C58.7367 13.4067 59.0501 13.46 59.3967 13.46C59.6767 13.46 59.8767 13.54 59.9967 13.7C60.1301 13.8467 60.1967 14.0267 60.1967 14.24C60.1967 14.4533 60.1034 14.6533 59.9167 14.84C59.7301 15.0133 59.4901 15.1 59.1967 15.1C58.6767 15.1 58.1967 15.0133 57.7567 14.84C57.3301 14.6667 56.9701 14.3933 56.6767 14.02L56.9567 13.6C56.8101 14.0133 56.6101 14.3533 56.3567 14.62C56.1167 14.8733 55.8434 15.06 55.5367 15.18C55.2301 15.3133 54.9034 15.38 54.5567 15.38C54.1167 15.38 53.6634 15.2867 53.1967 15.1C52.7434 14.9133 52.3034 14.6467 51.8767 14.3C51.4501 13.9533 51.0767 13.5467 50.7567 13.08C50.4101 13.6933 50.0767 14.1467 49.7567 14.44C49.4501 14.72 49.1301 14.9 48.7967 14.98C48.4634 15.06 48.0767 15.1 47.6367 15.1ZM51.5167 11.56C51.7434 11.9333 51.9834 12.26 52.2367 12.54C52.5034 12.82 52.7701 13.0533 53.0367 13.24C53.3034 13.4133 53.5634 13.5467 53.8167 13.64C54.0834 13.72 54.3234 13.76 54.5367 13.76C55.0034 13.76 55.3434 13.5933 55.5567 13.26C55.7834 12.9267 55.7767 12.46 55.5367 11.86C55.4167 11.5533 55.2901 11.2533 55.1567 10.96C55.0367 10.6667 54.9034 10.4 54.7567 10.16C54.6101 9.90667 54.4434 9.71333 54.2567 9.58C54.0701 9.43333 53.8634 9.36 53.6367 9.36C53.4367 9.36 53.2234 9.42667 52.9967 9.56C52.7834 9.69333 52.5501 9.92 52.2967 10.24C52.0567 10.56 51.7967 11 51.5167 11.56ZM59.1992 15.1L59.3792 13.46C60.1392 13.46 60.6726 13.3867 60.9792 13.24C61.2859 13.0933 61.4592 12.8333 61.4992 12.46C61.5526 12.0867 61.5659 11.5667 61.5392 10.9L61.1592 0.719999H62.7792L63.1792 10.72C63.2059 11.4267 63.1792 12.0533 63.0992 12.6C63.0326 13.1467 62.8592 13.6067 62.5792 13.98C62.3126 14.3533 61.9059 14.6333 61.3592 14.82C60.8259 15.0067 60.1059 15.1 59.1992 15.1ZM66.2345 15L65.8345 0.719999H67.4545L67.8545 15H66.2345ZM82.5852 15.42L83.1052 13.78C84.0918 13.78 85.0052 13.76 85.8452 13.72C86.6852 13.68 87.4452 13.6267 88.1252 13.56C88.8052 13.4933 89.3852 13.4267 89.8652 13.36C90.3585 13.28 90.7318 13.2 90.9852 13.12C91.4518 12.9733 91.8785 12.7867 92.2652 12.56C92.6652 12.3333 92.9852 12.0533 93.2252 11.72C93.4785 11.3733 93.6052 10.9733 93.6052 10.52C93.6052 10.2933 93.5585 10.0533 93.4652 9.8C93.3852 9.54667 93.2652 9.31333 93.1052 9.1C92.9585 8.87333 92.7785 8.69333 92.5652 8.56C92.3652 8.41333 92.1452 8.34 91.9052 8.34C91.5852 8.34 91.2852 8.45333 91.0052 8.68C90.7385 8.90667 90.5185 9.19333 90.3452 9.54C90.1852 9.88667 90.1052 10.24 90.1052 10.6C90.1052 11.0267 90.2118 11.4 90.4252 11.72C90.6518 12.0267 90.9252 12.2933 91.2452 12.52C91.5652 12.7333 91.8852 12.9133 92.2052 13.06L90.3052 13.7C90.0918 13.54 89.8385 13.32 89.5452 13.04C89.2652 12.76 89.0118 12.4133 88.7852 12C88.5718 11.5867 88.4652 11.1067 88.4652 10.56C88.4652 10.0267 88.5585 9.52667 88.7452 9.06C88.9318 8.59333 89.1918 8.18667 89.5252 7.84C89.8585 7.48 90.2318 7.2 90.6452 7C91.0718 6.8 91.5118 6.7 91.9652 6.7C92.6185 6.7 93.1918 6.88667 93.6852 7.26C94.1785 7.62 94.5585 8.08667 94.8252 8.66C95.1052 9.22 95.2452 9.8 95.2452 10.4C95.2452 10.9733 95.1385 11.4867 94.9252 11.94C94.7118 12.3933 94.4185 12.7933 94.0452 13.14C93.6852 13.4867 93.2585 13.7867 92.7652 14.04C92.2852 14.2933 91.7718 14.5 91.2252 14.66C90.9185 14.7533 90.4785 14.8467 89.9052 14.94C89.3318 15.02 88.6585 15.0933 87.8852 15.16C87.1118 15.24 86.2718 15.3 85.3652 15.34C84.4718 15.3933 83.5452 15.42 82.5852 15.42ZM96.7452 15.1C96.0785 15.1 95.4118 15.0667 94.7452 15C94.0785 14.92 93.4318 14.8133 92.8052 14.68C92.1918 14.5333 91.6185 14.36 91.0852 14.16L92.4652 13.2C92.8652 13.2533 93.3385 13.3 93.8852 13.34C94.4318 13.38 94.9785 13.4133 95.5252 13.44C96.0718 13.4533 96.5452 13.46 96.9452 13.46C97.2252 13.46 97.4252 13.54 97.5452 13.7C97.6785 13.8467 97.7452 14.0267 97.7452 14.24C97.7452 14.4533 97.6518 14.6533 97.4652 14.84C97.2785 15.0133 97.0385 15.1 96.7452 15.1ZM82.5852 15.42C81.3985 15.42 80.3518 15.34 79.4452 15.18C78.5518 15.0333 77.8052 14.8 77.2052 14.48C76.6052 14.16 76.1518 13.7467 75.8452 13.24C75.5385 12.72 75.3852 12.0933 75.3852 11.36C75.3852 11.0267 75.4118 10.6867 75.4652 10.34C75.5185 9.98 75.5852 9.62 75.6652 9.26C75.7585 8.9 75.8518 8.55333 75.9452 8.22L77.4452 8.6C77.3918 8.8 77.3318 9.04 77.2652 9.32C77.1985 9.58667 77.1385 9.86 77.0852 10.14C77.0452 10.42 77.0252 10.6733 77.0252 10.9C77.0252 11.5933 77.1985 12.1533 77.5452 12.58C77.9052 12.9933 78.5252 13.3 79.4052 13.5C80.2852 13.6867 81.5185 13.78 83.1052 13.78L83.5052 14.78L82.5852 15.42ZM91.7852 4.64C91.5052 4.64 91.2652 4.54667 91.0652 4.36C90.8785 4.16 90.7852 3.92667 90.7852 3.66C90.7852 3.39333 90.8785 3.16 91.0652 2.96C91.2652 2.76 91.5052 2.66 91.7852 2.66C92.0518 2.66 92.2785 2.76 92.4652 2.96C92.6652 3.16 92.7652 3.39333 92.7652 3.66C92.7652 3.92667 92.6652 4.16 92.4652 4.36C92.2785 4.54667 92.0518 4.64 91.7852 4.64ZM96.7383 15.1L96.9383 13.46C97.7249 13.46 98.3383 13.4333 98.7783 13.38C99.2183 13.3133 99.5316 13.16 99.7183 12.92C99.9049 12.6667 99.9983 12.2733 99.9983 11.74C99.9983 11.4067 99.9449 11.0133 99.8383 10.56C99.7316 10.0933 99.5916 9.6 99.4183 9.08C99.2449 8.56 99.0583 8.04667 98.8583 7.54L100.478 6.94C100.652 7.36667 100.812 7.85333 100.958 8.4C101.118 8.94667 101.252 9.48667 101.358 10.02C101.465 10.5533 101.518 11.02 101.518 11.42C101.518 12.0867 101.425 12.6533 101.238 13.12C101.065 13.5867 100.785 13.9667 100.398 14.26C100.012 14.5533 99.5116 14.7667 98.8983 14.9C98.2983 15.0333 97.5783 15.1 96.7383 15.1ZM101.098 4.86C100.818 4.86 100.578 4.76667 100.378 4.58C100.192 4.38 100.098 4.14667 100.098 3.88C100.098 3.61333 100.192 3.38 100.378 3.18C100.578 2.98 100.818 2.88 101.098 2.88C101.365 2.88 101.592 2.98 101.778 3.18C101.978 3.38 102.078 3.61333 102.078 3.88C102.078 4.14667 101.978 4.38 101.778 4.58C101.592 4.76667 101.365 4.86 101.098 4.86ZM98.3583 4.86C98.0783 4.86 97.8383 4.76667 97.6383 4.58C97.4516 4.38 97.3583 4.14667 97.3583 3.88C97.3583 3.61333 97.4516 3.38 97.6383 3.18C97.8383 2.98 98.0783 2.88 98.3583 2.88C98.6249 2.88 98.8516 2.98 99.0383 3.18C99.2383 3.38 99.3383 3.61333 99.3383 3.88C99.3383 4.14667 99.2383 4.38 99.0383 4.58C98.8516 4.76667 98.6249 4.86 98.3583 4.86ZM108.535 15.1C107.468 15.1 106.648 14.98 106.075 14.74C105.515 14.5 105.128 14.1267 104.915 13.62C104.702 13.1133 104.582 12.46 104.555 11.66L104.155 0.719999H105.795L106.195 11.02C106.222 11.6733 106.282 12.18 106.375 12.54C106.482 12.8867 106.708 13.1267 107.055 13.26C107.415 13.3933 107.975 13.46 108.735 13.46C109.015 13.46 109.215 13.54 109.335 13.7C109.468 13.8467 109.535 14.0267 109.535 14.24C109.535 14.4533 109.442 14.6533 109.255 14.84C109.068 15.0133 108.828 15.1 108.535 15.1ZM114.675 19.34C113.835 19.34 113.075 19.1467 112.395 18.76C111.715 18.3733 111.175 17.7867 110.775 17C110.375 16.2267 110.175 15.2533 110.175 14.08C110.175 13 110.302 12.0067 110.555 11.1C110.808 10.1933 111.142 9.41333 111.555 8.76C111.982 8.09333 112.448 7.58 112.955 7.22C113.462 6.86 113.962 6.68 114.455 6.68C114.895 6.68 115.288 6.80667 115.635 7.06C115.982 7.31333 116.255 7.66667 116.455 8.12C116.655 8.57333 116.755 9.11333 116.755 9.74C116.755 10.3 116.668 10.86 116.495 11.42C116.322 11.98 115.995 12.4867 115.515 12.94C115.048 13.3933 114.375 13.74 113.495 13.98L114.795 12.88C115.222 12.9867 115.648 13.0867 116.075 13.18C116.515 13.26 116.962 13.3267 117.415 13.38C117.882 13.4333 118.368 13.46 118.875 13.46C119.155 13.46 119.355 13.54 119.475 13.7C119.608 13.8467 119.675 14.0267 119.675 14.24C119.675 14.4533 119.582 14.6533 119.395 14.84C119.208 15.0133 118.968 15.1 118.675 15.1C118.315 15.1 117.928 15.08 117.515 15.04C117.102 15 116.688 14.9533 116.275 14.9C115.862 14.8333 115.468 14.76 115.095 14.68L116.835 14.62C117.168 14.98 117.395 15.3667 117.515 15.78C117.648 16.2067 117.682 16.6267 117.615 17.04C117.562 17.4667 117.408 17.8533 117.155 18.2C116.915 18.5467 116.588 18.82 116.175 19.02C115.762 19.2333 115.262 19.34 114.675 19.34ZM108.535 15.1L108.735 13.46C109.015 13.46 109.295 13.46 109.575 13.46C109.855 13.46 110.122 13.4533 110.375 13.44L110.455 14.92C110.148 14.9733 109.828 15.0133 109.495 15.04C109.175 15.08 108.855 15.1 108.535 15.1ZM114.715 17.7C114.955 17.7 115.188 17.6533 115.415 17.56C115.655 17.48 115.848 17.3333 115.995 17.12C116.155 16.92 116.235 16.6467 116.235 16.3C116.235 15.9667 116.148 15.66 115.975 15.38C115.815 15.1133 115.528 14.8933 115.115 14.72C114.702 14.5467 114.115 14.46 113.355 14.46C113.195 14.46 113.015 14.4733 112.815 14.5C112.628 14.5133 112.435 14.54 112.235 14.58C112.035 14.6067 111.828 14.6467 111.615 14.7V13.34C112.122 13.2733 112.582 13.1733 112.995 13.04C113.422 12.8933 113.795 12.6933 114.115 12.44C114.435 12.1867 114.682 11.8533 114.855 11.44C115.028 11.0267 115.115 10.52 115.115 9.92C115.115 9.72 115.088 9.49333 115.035 9.24C114.995 8.98667 114.915 8.77333 114.795 8.6C114.675 8.41333 114.515 8.32 114.315 8.32C114.115 8.32 113.868 8.45333 113.575 8.72C113.295 8.98667 113.015 9.36 112.735 9.84C112.468 10.32 112.242 10.8933 112.055 11.56C111.882 12.2133 111.795 12.9333 111.795 13.72C111.795 14.5867 111.888 15.28 112.075 15.8C112.275 16.3333 112.528 16.7333 112.835 17C113.142 17.28 113.462 17.4667 113.795 17.56C114.128 17.6533 114.435 17.7 114.715 17.7ZM118.672 15.1L118.852 13.46C119.612 13.46 120.145 13.3867 120.452 13.24C120.759 13.0933 120.932 12.8333 120.972 12.46C121.025 12.0867 121.039 11.5667 121.012 10.9L120.632 0.719999H122.252L122.652 10.72C122.679 11.4267 122.652 12.0533 122.572 12.6C122.505 13.1467 122.332 13.6067 122.052 13.98C121.785 14.3533 121.379 14.6333 120.832 14.82C120.299 15.0067 119.579 15.1 118.672 15.1ZM125.707 15L125.307 0.719999H126.927L127.327 15H125.707ZM135.798 22.86C135.518 21.8333 135.278 20.8267 135.078 19.84C134.878 18.8667 134.724 17.9933 134.618 17.22C134.511 16.4467 134.458 15.8733 134.458 15.5C134.458 14.5133 134.618 13.6133 134.938 12.8C135.258 11.9867 135.671 11.2733 136.178 10.66C136.684 10.0333 137.231 9.50667 137.818 9.08C138.404 8.64 138.971 8.31333 139.518 8.1C140.078 7.87333 140.551 7.76 140.938 7.76C141.271 7.76 141.564 7.83333 141.818 7.98C142.071 8.12667 142.318 8.41333 142.558 8.84C142.798 9.26667 143.051 9.89333 143.318 10.72C143.571 11.48 143.811 12.06 144.038 12.46C144.264 12.8467 144.511 13.1133 144.778 13.26C145.044 13.3933 145.351 13.46 145.698 13.46C145.978 13.46 146.178 13.54 146.298 13.7C146.431 13.8467 146.498 14.0267 146.498 14.24C146.498 14.4533 146.404 14.6533 146.218 14.84C146.031 15.0133 145.791 15.1 145.498 15.1C144.978 15.1 144.531 15.0067 144.158 14.82C143.798 14.6333 143.484 14.38 143.218 14.06L143.678 13.68C143.518 14.0667 143.311 14.3867 143.058 14.64C142.818 14.88 142.544 15.06 142.238 15.18C141.944 15.3 141.631 15.36 141.298 15.36C140.911 15.36 140.511 15.2867 140.098 15.14C139.684 15.0067 139.278 14.8067 138.878 14.54C138.478 14.26 138.098 13.92 137.738 13.52C137.391 13.12 137.084 12.6667 136.818 12.16L137.018 12.2C136.644 12.72 136.398 13.2867 136.278 13.9C136.158 14.5 136.098 15.0333 136.098 15.5C136.098 15.8733 136.138 16.3467 136.218 16.92C136.298 17.5067 136.398 18.1267 136.518 18.78C136.651 19.4333 136.791 20.08 136.938 20.72C137.098 21.3733 137.244 21.96 137.378 22.48L135.798 22.86ZM141.458 13.72C141.698 13.72 141.891 13.6733 142.038 13.58C142.198 13.4867 142.304 13.3467 142.358 13.16C142.411 12.9733 142.391 12.74 142.298 12.46C142.138 11.98 141.991 11.56 141.858 11.2C141.724 10.8267 141.591 10.52 141.458 10.28C141.338 10.0267 141.211 9.84 141.078 9.72C140.944 9.6 140.804 9.54 140.658 9.54C140.511 9.54 140.324 9.57333 140.098 9.64C139.884 9.70667 139.651 9.80667 139.398 9.94C139.158 10.0733 138.911 10.24 138.658 10.44C138.404 10.64 138.164 10.8733 137.938 11.14L137.958 10.98C138.251 11.5933 138.604 12.1067 139.018 12.52C139.444 12.9333 139.871 13.24 140.298 13.44C140.738 13.6267 141.124 13.72 141.458 13.72ZM145.488 15.1L145.688 13.46C146.022 13.46 146.388 13.46 146.788 13.46C147.202 13.4467 147.615 13.4333 148.028 13.42C148.455 13.4067 148.848 13.38 149.208 13.34C149.568 13.2867 149.868 13.22 150.108 13.14C150.588 12.9667 150.962 12.7533 151.228 12.5C151.495 12.2333 151.682 11.8867 151.788 11.46C151.908 11.02 151.968 10.46 151.968 9.78C151.968 9.22 151.895 8.7 151.748 8.22C151.602 7.74 151.395 7.35333 151.128 7.06C150.862 6.76667 150.542 6.62 150.168 6.62C149.862 6.62 149.582 6.74 149.328 6.98C149.088 7.20667 148.895 7.5 148.748 7.86C148.615 8.22 148.548 8.58 148.548 8.94C148.548 9.22 148.602 9.46 148.708 9.66C148.828 9.86 149.022 10.02 149.288 10.14C149.555 10.2467 149.902 10.3 150.328 10.3C150.715 10.3 151.102 10.26 151.488 10.18C151.888 10.1 152.228 9.99333 152.508 9.86L152.588 11.26C152.375 11.4067 152.135 11.5267 151.868 11.62C151.602 11.7133 151.322 11.78 151.028 11.82C150.735 11.86 150.442 11.88 150.148 11.88C149.468 11.88 148.888 11.7733 148.408 11.56C147.942 11.3333 147.582 11.0333 147.328 10.66C147.088 10.2733 146.968 9.83333 146.968 9.34C146.968 8.83333 147.048 8.32667 147.208 7.82C147.368 7.3 147.595 6.82667 147.888 6.4C148.182 5.97333 148.535 5.63333 148.948 5.38C149.362 5.11333 149.822 4.98 150.328 4.98C151.048 4.98 151.642 5.21333 152.108 5.68C152.588 6.14667 152.942 6.76 153.168 7.52C153.408 8.26667 153.528 9.06 153.528 9.9C153.528 10.9 153.355 11.76 153.008 12.48C152.675 13.1867 152.115 13.7733 151.328 14.24C151.022 14.4133 150.648 14.56 150.208 14.68C149.782 14.7867 149.308 14.8733 148.788 14.94C148.282 15.0067 147.748 15.0467 147.188 15.06C146.628 15.0867 146.062 15.1 145.488 15.1ZM151.348 2.92C151.068 2.92 150.828 2.82667 150.628 2.64C150.442 2.44 150.348 2.20667 150.348 1.94C150.348 1.67333 150.442 1.44 150.628 1.24C150.828 1.04 151.068 0.94 151.348 0.94C151.615 0.94 151.842 1.04 152.028 1.24C152.228 1.44 152.328 1.67333 152.328 1.94C152.328 2.20667 152.228 2.44 152.028 2.64C151.842 2.82667 151.615 2.92 151.348 2.92ZM148.608 2.92C148.328 2.92 148.088 2.82667 147.888 2.64C147.702 2.44 147.608 2.20667 147.608 1.94C147.608 1.67333 147.702 1.44 147.888 1.24C148.088 1.04 148.328 0.94 148.608 0.94C148.875 0.94 149.102 1.04 149.288 1.24C149.488 1.44 149.588 1.67333 149.588 1.94C149.588 2.20667 149.488 2.44 149.288 2.64C149.102 2.82667 148.875 2.92 148.608 2.92ZM153.908 19.6L153.328 18.08C154.675 17.6533 155.708 17.14 156.428 16.54C157.161 15.9533 157.661 15.34 157.928 14.7C158.208 14.06 158.348 13.4467 158.348 12.86C158.348 12.4867 158.308 12.1267 158.228 11.78C158.148 11.4333 158.008 11.04 157.808 10.6C157.608 10.16 157.328 9.61333 156.968 8.96L158.428 8.22C158.935 9.08667 159.295 9.90667 159.508 10.68C159.735 11.4533 159.848 12.1333 159.848 12.72C159.848 13.56 159.708 14.32 159.428 15C159.161 15.68 158.801 16.28 158.348 16.8C157.908 17.3333 157.421 17.7867 156.888 18.16C156.368 18.5333 155.841 18.84 155.308 19.08C154.788 19.32 154.321 19.4933 153.908 19.6Z" fill="black"/>
</svg>
