<svg width="89" height="20" viewBox="0 0 89 20" fill="none" xmlns="http://www.w3.org/2000/svg">
<path opacity="0.8" d="M1.08 19.6L0.5 18.08C1.84667 17.6533 2.88 17.14 3.6 16.54C4.33333 15.9533 4.83333 15.34 5.1 14.7C5.38 14.06 5.52 13.4467 5.52 12.86C5.52 12.4867 5.48 12.1267 5.4 11.78C5.32 11.4333 5.18 11.04 4.98 10.6C4.78 10.16 4.5 9.61333 4.14 8.96L5.6 8.22C6.10667 9.08667 6.46667 9.90667 6.68 10.68C6.90667 11.4533 7.02 12.1333 7.02 12.72C7.02 13.56 6.88 14.32 6.6 15C6.33333 15.68 5.97333 16.28 5.52 16.8C5.08 17.3333 4.59333 17.7867 4.06 18.16C3.54 18.5333 3.01333 18.84 2.48 19.08C1.96 19.32 1.49333 19.4933 1.08 19.6ZM9.50375 19.6L9.14375 17.96C9.94375 17.8533 10.6771 17.7 11.3438 17.5C12.0238 17.3133 12.6038 17.04 13.0838 16.68C13.5771 16.32 13.9571 15.8467 14.2237 15.26C14.4904 14.6733 14.6238 13.94 14.6238 13.06C14.6238 12.6467 14.5838 12.2533 14.5038 11.88C14.4238 11.4933 14.3038 11.1533 14.1438 10.86C13.9838 10.5667 13.7904 10.3333 13.5638 10.16C13.3504 9.98667 13.1038 9.9 12.8238 9.9C12.5171 9.9 12.2371 10.02 11.9838 10.26C11.7438 10.4867 11.5504 10.78 11.4038 11.14C11.2704 11.5 11.2038 11.86 11.2038 12.22C11.2038 12.5 11.2571 12.7467 11.3638 12.96C11.4838 13.16 11.6771 13.3133 11.9438 13.42C12.2104 13.5267 12.5571 13.58 12.9838 13.58C13.3704 13.58 13.7571 13.54 14.1438 13.46C14.5438 13.38 14.8838 13.2733 15.1638 13.14L15.2438 14.54C14.9238 14.7667 14.5438 14.9267 14.1038 15.02C13.6771 15.1133 13.2438 15.16 12.8038 15.16C12.2971 15.16 11.8438 15.1067 11.4438 15C11.0571 14.8933 10.7238 14.74 10.4438 14.54C10.1771 14.3267 9.97042 14.06 9.82375 13.74C9.69042 13.42 9.62375 13.0467 9.62375 12.62C9.62375 12.1133 9.70375 11.6067 9.86375 11.1C10.0238 10.58 10.2504 10.1067 10.5438 9.68C10.8371 9.25333 11.1904 8.91333 11.6038 8.66C12.0171 8.39333 12.4771 8.26 12.9838 8.26C13.5171 8.26 13.9838 8.4 14.3838 8.68C14.7838 8.94667 15.1171 9.31333 15.3838 9.78C15.6504 10.2467 15.8504 10.7733 15.9838 11.36C16.1171 11.9467 16.1838 12.5533 16.1838 13.18C16.1838 14.42 15.9304 15.4867 15.4238 16.38C14.9304 17.2867 14.1838 18.0067 13.1838 18.54C12.1971 19.0733 10.9704 19.4267 9.50375 19.6ZM17.3691 19.64L16.7891 18.12C17.7624 17.8 18.5691 17.4333 19.2091 17.02C19.8624 16.6067 20.3757 16.1667 20.7491 15.7C21.1357 15.2333 21.4091 14.76 21.5691 14.28C21.7291 13.7867 21.8091 13.3133 21.8091 12.86C21.8091 12.2067 21.6624 11.5467 21.3691 10.88C21.0891 10.2 20.7757 9.56 20.4291 8.96L21.8891 8.22C22.1424 8.68667 22.3624 9.14667 22.5491 9.6C22.7491 10.0533 22.9224 10.48 23.0691 10.88C23.2291 11.28 23.3557 11.6467 23.4491 11.98C23.6357 12.5533 23.8757 12.9467 24.1691 13.16C24.4757 13.36 24.8891 13.46 25.4091 13.46C25.6891 13.46 25.8891 13.54 26.0091 13.7C26.1424 13.8467 26.2091 14.0267 26.2091 14.24C26.2091 14.4533 26.1157 14.6533 25.9291 14.84C25.7424 15.0133 25.5024 15.1 25.2091 15.1C24.6224 15.1 24.1424 15 23.7691 14.8C23.4091 14.5867 23.1357 14.3133 22.9491 13.98C22.7624 13.6333 22.6357 13.2733 22.5691 12.9L23.2091 13.26C23.2091 14.14 23.0091 14.94 22.6091 15.66C22.2224 16.3933 21.7224 17.0267 21.1091 17.56C20.4957 18.1067 19.8557 18.5533 19.1891 18.9C18.5224 19.2467 17.9157 19.4933 17.3691 19.64ZM25.2188 15.1L25.4188 13.46C25.7921 13.46 26.0854 13.38 26.2988 13.22C26.5254 13.06 26.7388 12.7933 26.9388 12.42C27.1521 12.0467 27.4188 11.5467 27.7388 10.92C28.0588 10.28 28.3788 9.76 28.6988 9.36C29.0321 8.94667 29.3521 8.62667 29.6588 8.4C29.9788 8.16 30.2788 7.99333 30.5588 7.9C30.8388 7.80667 31.0988 7.76 31.3388 7.76C31.7788 7.76 32.1721 7.86 32.5188 8.06C32.8654 8.24667 33.1921 8.57333 33.4988 9.04C33.8054 9.49333 34.1188 10.12 34.4388 10.92C34.7454 11.6533 35.0188 12.2067 35.2588 12.58C35.5121 12.94 35.7721 13.18 36.0388 13.3C36.3188 13.4067 36.6321 13.46 36.9787 13.46C37.2588 13.46 37.4588 13.54 37.5788 13.7C37.7121 13.8467 37.7788 14.0267 37.7788 14.24C37.7788 14.4533 37.6854 14.6533 37.4988 14.84C37.3121 15.0133 37.0721 15.1 36.7788 15.1C36.2588 15.1 35.7788 15.0133 35.3388 14.84C34.9121 14.6667 34.5521 14.3933 34.2588 14.02L34.5388 13.6C34.3921 14.0133 34.1921 14.3533 33.9388 14.62C33.6988 14.8733 33.4254 15.06 33.1188 15.18C32.8121 15.3133 32.4854 15.38 32.1388 15.38C31.6988 15.38 31.2454 15.2867 30.7788 15.1C30.3254 14.9133 29.8854 14.6467 29.4588 14.3C29.0321 13.9533 28.6588 13.5467 28.3388 13.08C27.9921 13.6933 27.6588 14.1467 27.3388 14.44C27.0321 14.72 26.7121 14.9 26.3788 14.98C26.0454 15.06 25.6587 15.1 25.2188 15.1ZM29.0988 11.56C29.3254 11.9333 29.5654 12.26 29.8188 12.54C30.0854 12.82 30.3521 13.0533 30.6188 13.24C30.8854 13.4133 31.1454 13.5467 31.3988 13.64C31.6654 13.72 31.9054 13.76 32.1188 13.76C32.5854 13.76 32.9254 13.5933 33.1388 13.26C33.3654 12.9267 33.3588 12.46 33.1188 11.86C32.9988 11.5533 32.8721 11.2533 32.7388 10.96C32.6188 10.6667 32.4854 10.4 32.3388 10.16C32.1921 9.90667 32.0254 9.71333 31.8388 9.58C31.6521 9.43333 31.4454 9.36 31.2188 9.36C31.0188 9.36 30.8054 9.42667 30.5788 9.56C30.3654 9.69333 30.1321 9.92 29.8788 10.24C29.6388 10.56 29.3788 11 29.0988 11.56ZM36.7812 15.1L36.9613 13.46C37.7212 13.46 38.2546 13.3867 38.5613 13.24C38.8679 13.0933 39.0413 12.8333 39.0813 12.46C39.1346 12.0867 39.1479 11.5667 39.1213 10.9L38.7413 0.719999H40.3613L40.7613 10.72C40.7879 11.4267 40.7613 12.0533 40.6813 12.6C40.6146 13.1467 40.4413 13.6067 40.1613 13.98C39.8946 14.3533 39.4879 14.6333 38.9413 14.82C38.4079 15.0067 37.6879 15.1 36.7812 15.1ZM43.8166 15L43.4166 0.719999H45.0366L45.4366 15H43.8166ZM62.0872 15.1C61.3672 15.1 60.7272 15 60.1672 14.8C59.6205 14.5867 59.1805 14.2333 58.8472 13.74C58.5272 13.2333 58.3472 12.5333 58.3072 11.64L57.9872 4.68H59.6072L59.9272 11.28C59.9672 11.9067 60.0805 12.38 60.2672 12.7C60.4539 13.0067 60.7139 13.2133 61.0472 13.32C61.3939 13.4133 61.8072 13.46 62.2872 13.46C62.5672 13.46 62.7672 13.54 62.8872 13.7C63.0205 13.8467 63.0872 14.0267 63.0872 14.24C63.0872 14.4533 62.9939 14.6533 62.8072 14.84C62.6205 15.0133 62.3805 15.1 62.0872 15.1ZM59.0672 12.9C58.3072 13.14 57.5672 13.26 56.8472 13.26C56.1272 13.26 55.4739 13.1533 54.8872 12.94C54.3005 12.7267 53.8339 12.42 53.4872 12.02C53.1405 11.6067 52.9672 11.1133 52.9672 10.54C52.9672 9.98 53.1072 9.45333 53.3872 8.96C53.6805 8.46667 54.0739 8.02667 54.5672 7.64C55.0739 7.25333 55.6539 6.93333 56.3072 6.68C56.9739 6.41333 57.6805 6.23333 58.4272 6.14L58.7072 7.82C58.0405 7.84667 57.4472 7.94 56.9272 8.1C56.4205 8.24667 55.9872 8.44 55.6272 8.68C55.2805 8.92 55.0139 9.18 54.8272 9.46C54.6405 9.74 54.5472 10.0133 54.5472 10.28C54.5472 10.5733 54.6539 10.8133 54.8672 11C55.0805 11.1867 55.3539 11.3333 55.6872 11.44C56.0205 11.5333 56.3872 11.5933 56.7872 11.62C57.1872 11.6333 57.5739 11.62 57.9472 11.58C58.3205 11.5267 58.6405 11.4533 58.9072 11.36L59.0672 12.9ZM58.6472 2.38C58.3672 2.38 58.1272 2.28667 57.9272 2.1C57.7405 1.9 57.6472 1.66667 57.6472 1.4C57.6472 1.13333 57.7405 0.899999 57.9272 0.699999C58.1272 0.5 58.3672 0.4 58.6472 0.4C58.9139 0.4 59.1405 0.5 59.3272 0.699999C59.5272 0.899999 59.6272 1.13333 59.6272 1.4C59.6272 1.66667 59.5272 1.9 59.3272 2.1C59.1405 2.28667 58.9139 2.38 58.6472 2.38ZM55.9072 2.38C55.6272 2.38 55.3872 2.28667 55.1872 2.1C55.0005 1.9 54.9072 1.66667 54.9072 1.4C54.9072 1.13333 55.0005 0.899999 55.1872 0.699999C55.3872 0.5 55.6272 0.4 55.9072 0.4C56.1739 0.4 56.4005 0.5 56.5872 0.699999C56.7872 0.899999 56.8872 1.13333 56.8872 1.4C56.8872 1.66667 56.7872 1.9 56.5872 2.1C56.4005 2.28667 56.1739 2.38 55.9072 2.38ZM62.0938 15.1L62.2938 13.46C62.6671 13.46 62.9604 13.38 63.1738 13.22C63.4004 13.06 63.6138 12.7933 63.8138 12.42C64.0271 12.0467 64.2938 11.5467 64.6138 10.92C64.9338 10.28 65.2538 9.76 65.5738 9.36C65.9071 8.94667 66.2271 8.62667 66.5338 8.4C66.8538 8.16 67.1538 7.99333 67.4338 7.9C67.7138 7.80667 67.9738 7.76 68.2138 7.76C68.6538 7.76 69.0471 7.86 69.3938 8.06C69.7404 8.24667 70.0671 8.57333 70.3738 9.04C70.6804 9.49333 70.9938 10.12 71.3138 10.92C71.6204 11.6533 71.8938 12.2067 72.1338 12.58C72.3871 12.94 72.6471 13.18 72.9138 13.3C73.1938 13.4067 73.5071 13.46 73.8537 13.46C74.1338 13.46 74.3338 13.54 74.4538 13.7C74.5871 13.8467 74.6538 14.0267 74.6538 14.24C74.6538 14.4533 74.5604 14.6533 74.3738 14.84C74.1871 15.0133 73.9471 15.1 73.6538 15.1C73.1338 15.1 72.6538 15.0133 72.2138 14.84C71.7871 14.6667 71.4271 14.3933 71.1338 14.02L71.4138 13.6C71.2671 14.0133 71.0671 14.3533 70.8138 14.62C70.5738 14.8733 70.3004 15.06 69.9938 15.18C69.6871 15.3133 69.3604 15.38 69.0138 15.38C68.5738 15.38 68.1204 15.2867 67.6538 15.1C67.2004 14.9133 66.7604 14.6467 66.3338 14.3C65.9071 13.9533 65.5338 13.5467 65.2138 13.08C64.8671 13.6933 64.5338 14.1467 64.2138 14.44C63.9071 14.72 63.5871 14.9 63.2538 14.98C62.9204 15.06 62.5337 15.1 62.0938 15.1ZM65.9738 11.56C66.2004 11.9333 66.4404 12.26 66.6938 12.54C66.9604 12.82 67.2271 13.0533 67.4938 13.24C67.7604 13.4133 68.0204 13.5467 68.2738 13.64C68.5404 13.72 68.7804 13.76 68.9938 13.76C69.4604 13.76 69.8004 13.5933 70.0138 13.26C70.2404 12.9267 70.2338 12.46 69.9938 11.86C69.8738 11.5533 69.7471 11.2533 69.6138 10.96C69.4938 10.6667 69.3604 10.4 69.2138 10.16C69.0671 9.90667 68.9004 9.71333 68.7138 9.58C68.5271 9.43333 68.3204 9.36 68.0938 9.36C67.8938 9.36 67.6804 9.42667 67.4538 9.56C67.2404 9.69333 67.0071 9.92 66.7538 10.24C66.5138 10.56 66.2538 11 65.9738 11.56ZM73.6562 15.1L73.8363 13.46C74.5962 13.46 75.1296 13.3867 75.4363 13.24C75.7429 13.0933 75.9163 12.8333 75.9563 12.46C76.0096 12.0867 76.0229 11.5667 75.9963 10.9L75.6563 0.719999H77.3163L77.6363 10.86C77.6629 11.54 77.7696 12.0733 77.9563 12.46C78.1563 12.8333 78.4229 13.0933 78.7563 13.24C79.0896 13.3867 79.4563 13.46 79.8563 13.46C80.1363 13.46 80.3363 13.54 80.4563 13.7C80.5896 13.8467 80.6563 14.0267 80.6563 14.24C80.6563 14.4533 80.5629 14.6533 80.3763 14.84C80.1896 15.0133 79.9496 15.1 79.6563 15.1C79.0963 15.1 78.6296 15.0133 78.2563 14.84C77.8963 14.6533 77.6096 14.42 77.3963 14.14C77.1963 13.8467 77.0629 13.54 76.9963 13.22L77.4163 13.26C77.2829 13.66 77.0629 14 76.7563 14.28C76.4629 14.5467 76.0629 14.7533 75.5563 14.9C75.0496 15.0333 74.4163 15.1 73.6562 15.1ZM79.6523 15.1L79.8523 13.46H81.7323C82.519 13.46 83.139 13.42 83.5923 13.34C84.059 13.2467 84.399 13.1333 84.6123 13C84.839 12.8533 84.9857 12.7 85.0523 12.54C85.1323 12.3667 85.1723 12.1933 85.1723 12.02C85.1723 11.7133 85.0523 11.3333 84.8123 10.88C84.5857 10.4267 84.1123 9.84 83.3923 9.12C83.019 8.74667 82.6457 8.40667 82.2723 8.1C81.899 7.78 81.5523 7.5 81.2323 7.26C80.9257 7.00667 80.679 6.79333 80.4923 6.62C80.3057 6.44667 80.2123 6.31333 80.2123 6.22C80.2123 6.02 80.2257 5.82667 80.2523 5.64C80.2923 5.45333 80.339 5.28 80.3923 5.12C80.459 4.96 80.539 4.83333 80.6323 4.74C80.899 4.46 81.239 4.18 81.6523 3.9C82.079 3.62 82.5723 3.32667 83.1323 3.02C83.7057 2.71333 84.3457 2.38667 85.0523 2.04C85.7723 1.68 86.559 1.28667 87.4123 0.86L88.0923 2.34C87.0257 2.84667 86.1323 3.28 85.4123 3.64C84.7057 3.98667 84.1057 4.3 83.6123 4.58C83.119 4.84667 82.6857 5.1 82.3123 5.34C81.939 5.58 81.559 5.84667 81.1723 6.14L81.4723 5.38C82.3123 6.04667 83.0523 6.67333 83.6923 7.26C84.3457 7.84667 84.8923 8.41333 85.3323 8.96C85.7723 9.49333 86.1057 10.02 86.3323 10.54C86.559 11.06 86.6723 11.5867 86.6723 12.12C86.6723 12.4133 86.619 12.7333 86.5123 13.08C86.4057 13.4267 86.179 13.7533 85.8323 14.06C85.4857 14.3667 84.9657 14.62 84.2723 14.82C83.579 15.0067 82.6457 15.1 81.4723 15.1H79.6523Z" fill="black"/>
</svg>
