<?xml version="1.0" encoding="UTF-8"?>
<svg version="1.1" viewBox="0 0 2048 2048" width="512" height="512" xmlns="http://www.w3.org/2000/svg">
<path transform="translate(625,84)" d="m0 0h16l11 4 27 14 18 10 30 16 18 10 23 12 18 10 24 13 30 16 22 12 28 15 22 12 18 10 12 8 13 11 8 9 8 15 5 15 1 11 15-5 37-10 39-8 38-6 41-4 17-1h72l40 3 40 5 38 7 30 7 32 9 36 12 31 12 20 9 9 7 6 7 5 12 1 4v10l-2 9-6 11-8 8-11 6-9 2h-9l-12-3-29-12-34-12-29-9-42-10-28-5-38-5-25-2-22-1h-45l-41 3-32 4-29 5-31 7-42 12-23 8-1 1-6 38-8 37-7 26-8 25-11 31-12 29-14 30-16 31-12 21-12 20-22 33-10 14-12 16-14 17-9 11-7 7-1 2h-2l-2 4-29 29-8 7-12 10-10 8-19 14-22 14-23 12-14 5-13 3h-17l-19-5-16-7-22-13-6-3-1 10-8 45-4 33-2 29-1 41 1 28 3 37 5 35 7 36 10 39 1 6h647l21 3 20 6 20 9 16 10 14 12 8 6 13-7 12-9 9-8 8-10 9-15 6-16 3-14 1-7v-13l-2-15-5-16-8-16-7-10-9-10-9-8-11-7-14-7-19-5-8-1-173-1-26-3-22-6-20-8-19-10-14-10-11-9-9-8-7-8-12-15-11-18-10-21-7-22-3-14-2-16v-30l3-20 5-20 8-21 9-17 8-12 10-13 12-13 11-10 18-13 17-10 19-8 21-6 17-3 9-1 51-1 1-100 3-11 5-10 8-8 8-5 12-3h9l12 3 10 6 7 8 5 10 2 8v103h186l10 3 9 6 8 8 5 10 1 4v18l-4 10-6 9-9 7-10 4-6 1-306 1-17 2-19 6-16 9-10 8-8 7-9 12-8 14-7 19-2 11v26l4 18 5 13 6 11 9 12 12 12 14 9 14 7 13 4 21 3h151l24 1 21 3 19 5 24 10 16 9 19 14 17 16 9 11 7 9 8 13 9 17 7 18 5 19 3 21v35l-3 20-5 19-8 20-10 19-11 16-12 14-10 10-14 11-13 9-20 11 1 10v18l-2 17-4 16-6 16-8 15-10 14-9 10-10 10-15 11-16 9-16 7-21 6-24 3-272 1-15 3-9 4-9 6-7 6-8 13-3 12v10l4 13 7 11 9 8 14 7 11 3 9 1 366 1h94l37-2 24-4 13-4 11-6 14-13h2l1-3 8-7 7-7 8-7 15-14 10-9 30-28 10-9 26-24 17-16 8-7 15-14 12-11 17-16 8-7 16-15 12-11 16-15 10-9 12-11 14-11 15-10 8-16 11-27 12-34 10-33 8-34 6-32 5-39 2-26 1-28v-26l-2-39-4-37-6-36-8-36-11-39-15-42-14-32-9-19-12-22-10-18-12-19-26-39-4-9-1-5v-11l3-10 6-10 7-7 11-6 10-2 14 1 9 4 8 6 9 10 11 16 15 23 15 25 10 18 15 29 14 30 13 33 13 38 11 39 8 37 7 41 4 36 2 30v75l-3 40-4 31-6 35-9 40-10 35-12 35-1 4 12 1 21 4 24 8 16 8 12 7 12 9 10 9 13 13 10 13 10 17 8 20 5 17 3 16v32l-5 23-7 21-10 19-7 10-9 11-9 10-17 16-13 12-14 13-8 7-7 7-8 7-16 15-13 12h-2v2l-8 7-16 15-12 11-8 8-8 7-10 9-15 14-12 11-7 7-8 7-10 9-15 14-13 12-7 7-8 7-10 9-13 12-4 4h-2v2l-8 7-15 14-8 7-16 15-13 12-16 15-8 7-31 29-15 13-17 12-22 12-15 6-16 5-17 4-28 4-26 2-23 1h-344l-61-1-99-1-70-2-54-3-43-4-28-4-26-5-23-6-21-7-27-12-31-14-36-16-89-40-40-18-25-11-9-4v11l-3 19-4 14-8 18-9 14-8 10-11 12-14 11-13 8-14 7-20 7-22 4-14 1h-118l-22-2-20-5-20-8-16-9-14-11-10-9-11-13-10-16-7-14-5-15-4-18v-572l6-22 7-17 9-16 11-14 14-14 12-9 13-8 19-9 22-6 14-2 77-1 66 1 23 4 17 6 17 8 15 10 11 9 13 13 9 12 9 15 6 15 3 9 1 6 5-1 16-10 23-12 27-11 24-7 1-2-10-40-7-38-5-37-3-34-1-15v-68l3-39 4-33 6-35 9-41 5-19v-6l-17-17-7-8-12-14-11-13-12-16-11-15-9-13-15-23-18-30-15-28-16-32-13-30-11-29-12-35-10-38-7-35-4-28-3-30-1-21v-20l1-17 3-17 4-12 7-13 8-10 11-10 19-12 28-15 18-10 32-17 22-12 26-14 22-12 30-16 22-12 30-16 22-12 24-13zm8 86-29 15-18 10-30 16-22 12-30 16-22 12-28 15-24 13-30 16-18 10-13 8-1 9v23l2 32 3 24 4 24 9 38 11 36 13 34 17 38 10 20 13 23 8 14 7 11 16 25 12 16 8 11 13 16 12 14 12 13 24 24 11 9 12 10 18 13 21 13 8 4 5-1 20-12 16-11 13-10 11-9 12-11 8-7 12-12 7-8 12-13 8-10 9-11 13-18 12-17 15-24 11-18 6-11 15-29 11-23 11-26 13-36 10-34 7-31 5-29 3-28 1-17v-34l-2-5-21-12-28-15-22-12-19-10-22-12-28-15-23-13-27-14-18-10-23-12-23-13zm-503 1054-13 4-11 6-11 9-9 13-4 9-1 5-1 55v487l1 14 4 11 7 11 6 7 14 9 12 5 11 2h126l14-3 12-5 10-7 5-4 8-11 4-9 2-8v-554l-3-10-6-11-13-13-12-7-16-5zm416 56-25 4-23 6-21 8-19 9-18 11-12 9-11 9-13 12-7 8v371l8 4 27 12 58 26 60 27 27 12 71 32 36 16 19 6 21 5 32 5 40 4 50 3 51 2 40 1 83 1h414l29-2 25-4 15-4 16-7 14-9 11-9 13-12 17-16 8-7 15-14 12-11 16-15 10-9 26-24 17-16 10-9 26-24 16-15 12-11 10-9 31-29 12-11 10-9 13-12 16-15 13-12 3-2v-2l4-2 8-7v-2l4-2 10-10 8-7 17-16 10-9 15-14 13-12 6-5 9-11 6-10 4-9 3-14v-17l-2-10-5-13-6-10-9-11-16-12-15-7-13-4-15-2h-11l-16 2-18 6-14 8-14 12-26 24-6 5v2l-4 2-10 10-8 7-10 9-15 14-5 4v2l-4 2-11 11-11 9-10 10-16 14v2l-4 2-11 11-8 7-10 9-16 15-13 12-14 13-8 7-7 7-8 7-16 15-13 12-11 9-14 9-15 7-19 6-25 5-25 3-15 1h-421l-71-1-20-3-16-5-16-7-14-8-10-8-10-9-11-12-10-15-7-15-6-18-3-21v-15l2-15 5-19 8-18 9-14 9-11 13-13 14-10 14-8 15-6 19-5 14-2 15-1 269-1 15-4 12-5 11-8 8-8 8-13 4-14v-16l-4-13-5-10-9-10-8-7-10-6-15-5-5-1z" fill="#FEFEFE"/>
<path transform="translate(755,354)" d="m0 0 13 1 10 4 10 9 6 8 3 7 1 5v13l-3 10-7 11-11 12-36 36-6 7h-2l-2 4-37 37-7 8-27 27-7 8-8 8-10 7-9 4-7 1h-8l-12-3-11-7-14-14-8-7-33-31-12-11-8-9-6-13-1-14 4-13 6-9 7-7 10-5 7-2h12l13 4 10 7 33 31 7 5 8-8 7-8 25-25 7-8 39-39 3-4h2l2-4 24-24 10-6 6-2z" fill="#FEFEFE"/>
<path transform="translate(1637,427)" d="m0 0 15 2 11 6 8 8 7 14 1 4v13l-4 12-8 11-10 7-8 3-6 1h-9l-12-3-10-6-6-7-6-12-2-7v-10l4-13 6-9 9-8 8-4z" fill="#FEFEFE"/>
</svg>
