<svg width="208" height="32" viewBox="0 0 208 32" fill="none" xmlns="http://www.w3.org/2000/svg">
<path d="M0.832 23.104C0.832 22.6133 0.874667 22.0373 0.96 21.376C1.04533 20.7147 1.20533 19.968 1.44 19.136C1.67467 18.2827 2.02667 17.3333 2.496 16.288L6.432 17.664C6.19733 18.3253 5.99467 18.9333 5.824 19.488C5.65333 20.0213 5.52533 20.5227 5.44 20.992C5.35467 21.44 5.312 21.888 5.312 22.336C5.312 23.424 5.54667 24.32 6.016 25.024C6.50667 25.728 7.18933 26.2507 8.064 26.592C8.93867 26.9333 9.952 27.104 11.104 27.104C12.64 27.104 13.856 26.848 14.752 26.336C15.648 25.824 16.2987 25.1093 16.704 24.192C17.1093 23.296 17.3547 22.2507 17.44 21.056C17.5467 19.84 17.5787 18.5493 17.536 17.184L16.928 0.575998H21.44L21.984 16.896C22.0267 18.2827 21.9733 19.6693 21.824 21.056C21.696 22.4427 21.408 23.7547 20.96 24.992C20.5333 26.2293 19.904 27.328 19.072 28.288C18.24 29.248 17.1627 30.0053 15.84 30.56C14.5387 31.1147 12.928 31.392 11.008 31.392C9.62133 31.392 8.30933 31.232 7.072 30.912C5.856 30.592 4.77867 30.0907 3.84 29.408C2.90133 28.7467 2.16533 27.8933 1.632 26.848C1.09867 25.8027 0.832 24.5547 0.832 23.104ZM25.5428 31.36L24.6148 26.88C26.1294 26.688 27.4521 26.4533 28.5828 26.176C29.7134 25.92 30.6628 25.5573 31.4308 25.088C32.1988 24.6187 32.7748 23.9787 33.1588 23.168C33.5428 22.336 33.7348 21.2693 33.7348 19.968C33.7348 18.7093 33.5428 17.7067 33.1588 16.96C32.7748 16.2133 32.2628 15.84 31.6228 15.84C31.1748 15.84 30.8014 16 30.5028 16.32C30.2041 16.6187 29.9801 16.9813 29.8308 17.408C29.7028 17.8133 29.6388 18.176 29.6388 18.496C29.6388 18.688 29.6921 18.8907 29.7988 19.104C29.9054 19.3173 30.1401 19.4987 30.5028 19.648C30.8654 19.7973 31.4308 19.8827 32.1988 19.904C32.9881 19.9253 34.0548 19.8507 35.3988 19.68H40.7748C41.5854 19.68 42.1614 19.8933 42.5028 20.32C42.8654 20.7253 43.0468 21.2373 43.0468 21.856C43.0468 22.5173 42.8228 23.072 42.3748 23.52C41.9268 23.9467 41.2868 24.16 40.4548 24.16H31.6548C30.3108 24.16 29.1588 24 28.1988 23.68C27.2388 23.36 26.5028 22.848 25.9908 22.144C25.4788 21.4187 25.2228 20.4587 25.2228 19.264C25.2228 18.304 25.3828 17.344 25.7028 16.384C26.0441 15.424 26.5134 14.5493 27.1108 13.76C27.7081 12.9493 28.4014 12.3093 29.1908 11.84C30.0014 11.3493 30.8761 11.104 31.8148 11.104C33.0948 11.104 34.2148 11.4987 35.1748 12.288C36.1348 13.0773 36.8814 14.1227 37.4148 15.424C37.9694 16.7253 38.2468 18.144 38.2468 19.68C38.2468 22.0907 37.7348 24.1387 36.7108 25.824C35.6868 27.5093 34.2254 28.8107 32.3268 29.728C30.4281 30.6667 28.1668 31.2107 25.5428 31.36ZM40.5 24.16L40.82 19.68C41.972 19.68 43.1133 19.616 44.244 19.488C45.3747 19.36 46.4733 19.168 47.54 18.912C48.6067 18.656 49.62 18.3253 50.58 17.92C51.5613 17.5147 52.4787 17.024 53.332 16.448C52.692 16.064 51.9987 15.7333 51.252 15.456C50.5053 15.1787 49.7053 14.976 48.852 14.848C48.02 14.6987 47.1347 14.624 46.196 14.624C45.8547 14.624 45.492 14.6347 45.108 14.656C44.7453 14.6773 44.372 14.72 43.988 14.784C43.604 14.8267 43.22 14.8907 42.836 14.976L42.196 10.592C42.8147 10.4213 43.4653 10.304 44.148 10.24C44.852 10.1547 45.4707 10.112 46.004 10.112C47.156 10.112 48.212 10.24 49.172 10.496C50.1533 10.752 51.0493 11.072 51.86 11.456C52.692 11.84 53.46 12.224 54.164 12.608C54.8893 12.992 55.572 13.312 56.212 13.568C56.8733 13.824 57.5133 13.952 58.132 13.952H59.316L59.828 18.208C58.9107 18.2507 58.0467 18.432 57.236 18.752C56.4467 19.0507 55.6573 19.4347 54.868 19.904C54.1 20.352 53.268 20.8213 52.372 21.312C51.4973 21.8027 50.5053 22.2613 49.396 22.688C48.2867 23.1147 47.0067 23.4667 45.556 23.744C44.1053 24.0213 42.42 24.16 40.5 24.16ZM46.036 7.136C45.3747 7.136 44.8093 6.912 44.34 6.464C43.892 6.016 43.668 5.46133 43.668 4.8C43.668 4.13867 43.892 3.57333 44.34 3.104C44.8093 2.63467 45.3747 2.4 46.036 2.4C46.676 2.4 47.22 2.63467 47.668 3.104C48.1373 3.57333 48.372 4.13867 48.372 4.8C48.372 5.46133 48.1373 6.016 47.668 6.464C47.22 6.912 46.676 7.136 46.036 7.136ZM67.601 19.68C68.561 19.68 69.297 19.5947 69.809 19.424C70.321 19.2533 70.673 19.0293 70.865 18.752C71.057 18.4747 71.153 18.176 71.153 17.856C71.153 17.344 71.0037 16.7467 70.705 16.064C70.4277 15.3813 70.0757 14.6667 69.649 13.92C69.2223 13.1733 68.7743 12.4587 68.305 11.776C67.857 11.0933 67.4517 10.496 67.089 9.984L70.897 7.456C71.8143 8.69333 72.6037 9.92 73.265 11.136C73.9263 12.3307 74.4597 13.44 74.865 14.464C75.2917 15.488 75.5903 16.3627 75.761 17.088C75.9317 17.7707 76.1877 18.304 76.529 18.688C76.8917 19.0507 77.3077 19.3067 77.777 19.456C78.2463 19.6053 78.7157 19.68 79.185 19.68C79.9957 19.68 80.5717 19.8933 80.913 20.32C81.2757 20.7253 81.457 21.2373 81.457 21.856C81.457 22.5173 81.233 23.072 80.785 23.52C80.3583 23.9467 79.7183 24.16 78.865 24.16C77.9263 24.16 77.105 24.032 76.401 23.776C75.697 23.52 75.0997 23.1147 74.609 22.56C74.1183 22.0053 73.7023 21.3013 73.361 20.448L75.313 20.864C75.1423 21.4613 74.7477 22.016 74.129 22.528C73.5317 23.0187 72.7317 23.424 71.729 23.744C70.7477 24.0427 69.585 24.192 68.241 24.192C67.601 24.192 66.8863 24.1387 66.097 24.032C65.329 23.9253 64.561 23.7653 63.793 23.552C63.0463 23.3387 62.3637 23.0613 61.745 22.72L63.313 18.656C64.1023 18.9973 64.8597 19.2533 65.585 19.424C66.3317 19.5947 67.0037 19.68 67.601 19.68ZM78.9062 24.16L79.2263 19.68C80.2076 19.68 80.9116 19.584 81.3383 19.392C81.7649 19.1787 82.0209 18.7947 82.1063 18.24C82.1916 17.664 82.2129 16.832 82.1703 15.744L81.5943 0.575998H86.1063L86.7463 16.064C86.7889 17.3013 86.7356 18.4213 86.5863 19.424C86.4583 20.4053 86.1276 21.248 85.5943 21.952C85.0823 22.656 84.2823 23.2 83.1943 23.584C82.1276 23.968 80.6983 24.16 78.9062 24.16ZM90.9663 24L90.2943 0.575998H94.7743L95.4463 24H90.9663ZM105.395 23.104C105.395 22.6133 105.437 22.0373 105.523 21.376C105.608 20.7147 105.768 19.968 106.003 19.136C106.237 18.2827 106.589 17.3333 107.059 16.288L110.995 17.664C110.76 18.3253 110.557 18.9333 110.387 19.488C110.216 20.0213 110.088 20.5227 110.003 20.992C109.917 21.44 109.875 21.888 109.875 22.336C109.875 23.296 110.109 24.128 110.579 24.832C111.069 25.5573 111.731 26.112 112.562 26.496C113.416 26.9013 114.397 27.104 115.507 27.104C117.32 27.104 118.707 26.8053 119.667 26.208C120.648 25.632 121.309 24.7147 121.651 23.456C122.013 22.176 122.152 20.5227 122.067 18.496L121.427 0.575998H125.939L126.419 15.712C126.461 16.7787 126.611 17.6 126.867 18.176C127.123 18.752 127.517 19.1467 128.051 19.36C128.605 19.5733 129.32 19.68 130.195 19.68C131.005 19.68 131.581 19.8933 131.923 20.32C132.264 20.7253 132.435 21.2373 132.435 21.856C132.435 22.5173 132.211 23.072 131.763 23.52C131.315 23.9467 130.685 24.16 129.875 24.16C129.405 24.16 128.904 24.096 128.371 23.968C127.837 23.84 127.325 23.6373 126.835 23.36C126.344 23.0827 125.917 22.72 125.555 22.272C125.192 21.8027 124.947 21.2267 124.819 20.544L126.547 19.68C126.547 21.8347 126.291 23.6587 125.779 25.152C125.288 26.6453 124.563 27.8507 123.603 28.768C122.664 29.6853 121.501 30.3467 120.115 30.752C118.749 31.1787 117.171 31.392 115.379 31.392C114.013 31.392 112.723 31.2213 111.507 30.88C110.312 30.5387 109.256 30.0267 108.339 29.344C107.421 28.6613 106.696 27.7973 106.163 26.752C105.651 25.728 105.395 24.512 105.395 23.104ZM129.875 24.16L130.195 19.68C130.963 19.68 131.624 19.6053 132.179 19.456C132.734 19.3067 133.203 19.008 133.587 18.56C133.971 18.0907 134.291 17.408 134.547 16.512C134.824 15.616 135.07 14.4213 135.283 12.928L139.475 13.632C139.432 13.952 139.368 14.3253 139.283 14.752C139.219 15.1787 139.155 15.616 139.091 16.064C139.048 16.4907 139.027 16.896 139.027 17.28C139.027 17.664 139.102 18.0053 139.251 18.304C139.4 18.6027 139.635 18.8587 139.955 19.072C140.296 19.264 140.734 19.4133 141.267 19.52C141.822 19.6267 142.494 19.68 143.283 19.68C144.094 19.68 144.67 19.8933 145.011 20.32C145.352 20.7253 145.523 21.2373 145.523 21.856C145.523 22.5173 145.299 23.072 144.851 23.52C144.424 23.9467 143.795 24.16 142.963 24.16C142.003 24.16 141.128 24.0853 140.339 23.936C139.571 23.7867 138.899 23.5413 138.323 23.2C137.768 22.8373 137.31 22.368 136.947 21.792C136.606 21.1947 136.392 20.4693 136.307 19.616H137.843C137.459 20.64 136.968 21.4613 136.371 22.08C135.795 22.6773 135.144 23.1253 134.419 23.424C133.694 23.7227 132.936 23.9147 132.147 24C131.379 24.1067 130.622 24.16 129.875 24.16ZM138.803 31.584C138.184 31.584 137.651 31.36 137.203 30.912C136.776 30.4853 136.563 29.9733 136.563 29.376C136.563 28.7573 136.776 28.224 137.203 27.776C137.651 27.328 138.184 27.104 138.803 27.104C139.4 27.104 139.912 27.328 140.339 27.776C140.766 28.224 140.979 28.7573 140.979 29.376C140.979 29.9733 140.766 30.4853 140.339 30.912C139.912 31.36 139.4 31.584 138.803 31.584ZM133.267 31.584C132.648 31.584 132.115 31.36 131.667 30.912C131.24 30.4853 131.027 29.9733 131.027 29.376C131.027 28.7573 131.24 28.224 131.667 27.776C132.115 27.328 132.648 27.104 133.267 27.104C133.864 27.104 134.376 27.328 134.803 27.776C135.23 28.224 135.443 28.7573 135.443 29.376C135.443 29.9733 135.23 30.4853 134.803 30.912C134.376 31.36 133.864 31.584 133.267 31.584ZM163.897 24.16C162.915 24.16 161.998 24.0853 161.145 23.936C160.313 23.7867 159.545 23.5307 158.841 23.168C158.137 22.784 157.507 22.2613 156.953 21.6C156.419 20.9387 155.971 20.1067 155.609 19.104L158.137 17.088C158.521 17.7707 158.99 18.304 159.545 18.688C160.099 19.0507 160.761 19.3067 161.529 19.456C162.297 19.6053 163.193 19.68 164.217 19.68C165.027 19.68 165.603 19.8933 165.945 20.32C166.286 20.7253 166.457 21.2373 166.457 21.856C166.457 22.5173 166.233 23.072 165.785 23.52C165.358 23.9467 164.729 24.16 163.897 24.16ZM142.969 24.16L143.289 19.68C144.441 19.68 145.582 19.616 146.713 19.488C147.843 19.36 148.942 19.168 150.009 18.912C151.075 18.656 152.089 18.3253 153.049 17.92C154.03 17.5147 154.947 17.024 155.801 16.448C155.161 16.064 154.467 15.7333 153.721 15.456C152.974 15.1787 152.174 14.976 151.321 14.848C150.489 14.6987 149.603 14.624 148.665 14.624C148.323 14.624 147.961 14.6347 147.577 14.656C147.214 14.6773 146.841 14.72 146.457 14.784C146.073 14.8267 145.689 14.8907 145.305 14.976L144.665 10.592C145.283 10.4213 145.934 10.304 146.617 10.24C147.321 10.1547 147.939 10.112 148.473 10.112C149.625 10.112 150.681 10.24 151.641 10.496C152.622 10.752 153.518 11.072 154.329 11.456C155.161 11.84 155.929 12.224 156.633 12.608C157.358 12.992 158.041 13.312 158.681 13.568C159.342 13.824 159.982 13.952 160.601 13.952H161.785L162.297 18.208C161.379 18.2507 160.515 18.432 159.705 18.752C158.915 19.0507 158.126 19.4347 157.337 19.904C156.569 20.352 155.737 20.8213 154.841 21.312C153.966 21.8027 152.974 22.2613 151.865 22.688C150.755 23.1147 149.475 23.4667 148.025 23.744C146.574 24.0213 144.889 24.16 142.969 24.16ZM152.025 31.36C151.406 31.36 150.873 31.1467 150.425 30.72C149.998 30.2933 149.785 29.7707 149.785 29.152C149.785 28.5333 149.998 27.9893 150.425 27.52C150.873 27.072 151.406 26.848 152.025 26.848C152.643 26.848 153.166 27.072 153.593 27.52C154.041 27.9893 154.265 28.5333 154.265 29.152C154.265 29.7707 154.041 30.2933 153.593 30.72C153.166 31.1467 152.643 31.36 152.025 31.36ZM163.906 24.16L164.226 19.68C164.93 19.68 165.506 19.6267 165.954 19.52C166.402 19.392 166.765 19.1253 167.042 18.72C167.341 18.2933 167.597 17.664 167.81 16.832C168.045 15.9787 168.301 14.8267 168.578 13.376L172.738 14.144C172.653 14.6133 172.536 15.2 172.386 15.904C172.258 16.608 172.194 17.216 172.194 17.728C172.194 18.1333 172.269 18.4853 172.418 18.784C172.589 19.0613 172.866 19.2853 173.25 19.456C173.656 19.6053 174.21 19.68 174.914 19.68C175.469 19.68 175.938 19.6267 176.322 19.52C176.728 19.392 177.069 19.1253 177.346 18.72C177.645 18.2933 177.901 17.6427 178.114 16.768C178.349 15.872 178.573 14.6667 178.786 13.152L183.01 13.824C182.925 14.3147 182.84 14.8373 182.754 15.392C182.669 15.9467 182.594 16.4587 182.53 16.928C182.466 17.3973 182.434 17.7813 182.434 18.08C182.434 18.3573 182.509 18.624 182.658 18.88C182.829 19.1147 183.128 19.3067 183.554 19.456C184.002 19.6053 184.621 19.68 185.41 19.68C186.37 19.68 187.074 19.4773 187.522 19.072C187.992 18.6453 188.226 18.0053 188.226 17.152C188.226 16.6613 188.216 16.1387 188.194 15.584C188.173 15.008 188.13 14.368 188.066 13.664C188.024 12.9387 187.938 12.1173 187.81 11.2L191.938 10.88C192.088 12.7147 192.258 14.208 192.45 15.36C192.642 16.512 192.898 17.408 193.218 18.048C193.56 18.6667 194.008 19.0933 194.562 19.328C195.138 19.5627 195.885 19.68 196.802 19.68C197.613 19.68 198.189 19.8933 198.53 20.32C198.893 20.7253 199.074 21.2373 199.074 21.856C199.074 22.5173 198.85 23.072 198.402 23.52C197.976 23.9467 197.336 24.16 196.482 24.16C195.906 24.16 195.309 24.1067 194.69 24C194.072 23.9147 193.474 23.7333 192.898 23.456C192.322 23.1573 191.81 22.7307 191.362 22.176C190.914 21.6213 190.562 20.8853 190.306 19.968L190.882 20.16C190.584 21.2267 190.178 22.048 189.666 22.624C189.154 23.2 188.525 23.6053 187.778 23.84C187.032 24.0533 186.136 24.16 185.09 24.16C184.13 24.16 183.277 24.032 182.53 23.776C181.784 23.52 181.186 23.104 180.738 22.528C180.312 21.9307 180.088 21.1307 180.066 20.128H181.154C180.728 21.3227 180.237 22.208 179.682 22.784C179.128 23.36 178.456 23.7333 177.666 23.904C176.877 24.0747 175.885 24.16 174.69 24.16C173.965 24.16 173.25 24.0853 172.546 23.936C171.842 23.7653 171.213 23.392 170.658 22.816C170.104 22.2187 169.698 21.28 169.442 20L171.17 19.936C170.722 21.1947 170.136 22.1227 169.41 22.72C168.706 23.3173 167.896 23.712 166.978 23.904C166.061 24.0747 165.037 24.16 163.906 24.16ZM196.5 24.16L196.82 19.68C198.1 19.68 199.081 19.616 199.764 19.488C200.447 19.36 200.916 19.1253 201.172 18.784C201.449 18.4213 201.588 17.9093 201.588 17.248C201.588 16.6507 201.503 15.936 201.332 15.104C201.183 14.272 200.98 13.408 200.724 12.512C200.489 11.616 200.233 10.7947 199.956 10.048L204.372 8.832C204.649 9.55733 204.916 10.4 205.172 11.36C205.428 12.32 205.641 13.312 205.812 14.336C205.983 15.3387 206.068 16.3093 206.068 17.248C206.068 18.6987 205.833 19.8827 205.364 20.8C204.895 21.696 204.233 22.3893 203.38 22.88C202.548 23.3707 201.545 23.712 200.372 23.904C199.199 24.0747 197.908 24.16 196.5 24.16ZM205.172 6.24C204.553 6.24 204.02 6.02667 203.572 5.6C203.145 5.152 202.932 4.62933 202.932 4.032C202.932 3.41333 203.145 2.88 203.572 2.432C204.02 1.984 204.553 1.76 205.172 1.76C205.769 1.76 206.281 1.984 206.708 2.432C207.135 2.88 207.348 3.41333 207.348 4.032C207.348 4.62933 207.135 5.152 206.708 5.6C206.281 6.02667 205.769 6.24 205.172 6.24ZM199.636 6.208C199.017 6.208 198.484 5.99467 198.036 5.568C197.609 5.12 197.396 4.59733 197.396 4C197.396 3.38133 197.609 2.848 198.036 2.4C198.484 1.952 199.017 1.728 199.636 1.728C200.233 1.728 200.745 1.952 201.172 2.4C201.599 2.848 201.812 3.38133 201.812 4C201.812 4.59733 201.599 5.12 201.172 5.568C200.745 5.99467 200.233 6.208 199.636 6.208Z" fill="#005FB0"/>
</svg>
