<svg width="537" height="57" viewBox="0 0 537 57" fill="none" xmlns="http://www.w3.org/2000/svg">
<path d="M0.727813 18.024C0.727813 17.64 0.759813 17.232 0.823813 16.8C0.903813 16.352 1.01581 15.88 1.15981 15.384C1.31981 14.872 1.51181 14.336 1.73581 13.776L3.46381 14.448C3.30381 14.896 3.15981 15.32 3.03181 15.72C2.91981 16.12 2.83181 16.496 2.76781 16.848C2.71981 17.2 2.69581 17.536 2.69581 17.856C2.69581 18.624 2.89581 19.288 3.29581 19.848C3.71181 20.408 4.27981 20.84 4.99981 21.144C5.71981 21.448 6.55981 21.6 7.51981 21.6C8.68781 21.6 9.64781 21.432 10.3998 21.096C11.1678 20.76 11.7598 20.248 12.1758 19.56C12.6078 18.872 12.8958 18 13.0398 16.944C13.1838 15.872 13.2318 14.616 13.1838 13.176L12.7278 0.863999H14.7198L15.1278 13.68C15.1598 14.752 15.1118 15.784 14.9838 16.776C14.8718 17.752 14.6478 18.648 14.3118 19.464C13.9758 20.296 13.5118 21.016 12.9198 21.624C12.3278 22.248 11.5838 22.728 10.6878 23.064C9.79181 23.4 8.71181 23.568 7.44781 23.568C6.59981 23.568 5.77581 23.456 4.97581 23.232C4.17581 23.008 3.45581 22.672 2.81581 22.224C2.17581 21.776 1.66381 21.2 1.27981 20.496C0.911813 19.808 0.727813 18.984 0.727813 18.024ZM23.6793 18.12C22.3993 18.12 21.4153 17.976 20.7273 17.688C20.0553 17.4 19.5913 16.952 19.3353 16.344C19.0793 15.736 18.9353 14.952 18.9033 13.992L18.4233 0.863999H20.3913L20.8713 13.224C20.9033 14.008 20.9753 14.616 21.0873 15.048C21.2153 15.464 21.4873 15.752 21.9033 15.912C22.3353 16.072 23.0073 16.152 23.9193 16.152C24.2553 16.152 24.4953 16.248 24.6393 16.44C24.7993 16.616 24.8793 16.832 24.8793 17.088C24.8793 17.344 24.7673 17.584 24.5433 17.808C24.3193 18.016 24.0313 18.12 23.6793 18.12ZM46.4557 18.12C46.0397 18.12 45.5117 18.08 44.8717 18C44.2477 17.904 43.6077 17.744 42.9517 17.52C42.3117 17.296 41.7677 16.984 41.3197 16.584L43.2877 15.6C43.8477 15.824 44.4237 15.976 45.0157 16.056C45.6237 16.12 46.1837 16.152 46.6957 16.152C47.0317 16.152 47.2717 16.248 47.4157 16.44C47.5757 16.616 47.6557 16.832 47.6557 17.088C47.6557 17.344 47.5437 17.584 47.3197 17.808C47.0957 18.016 46.8077 18.12 46.4557 18.12ZM35.2957 18.432C33.8877 18.432 32.7037 18.376 31.7437 18.264C30.7997 18.168 30.0317 18.016 29.4397 17.808C28.8477 17.6 28.3997 17.336 28.0957 17.016C27.7917 16.696 27.5837 16.312 27.4717 15.864L28.0237 15.672C27.6237 16.44 27.1917 17 26.7277 17.352C26.2637 17.688 25.7757 17.904 25.2637 18C24.7677 18.08 24.2397 18.12 23.6797 18.12L23.9197 16.152C24.4797 16.152 24.9357 16.072 25.2877 15.912C25.6557 15.752 25.9517 15.488 26.1757 15.12C26.4157 14.752 26.6237 14.264 26.7997 13.656C26.9757 13.048 27.1677 12.296 27.3757 11.4L29.1277 11.856C29.0317 12.224 28.9437 12.576 28.8637 12.912C28.7837 13.248 28.7197 13.544 28.6717 13.8C28.6397 14.04 28.6237 14.232 28.6237 14.376C28.6237 14.76 28.7117 15.088 28.8877 15.36C29.0637 15.616 29.3997 15.832 29.8957 16.008C30.3917 16.168 31.1037 16.288 32.0317 16.368C32.9757 16.432 34.2077 16.464 35.7277 16.464C36.7837 16.464 37.7277 16.4 38.5597 16.272C39.3917 16.144 40.0877 15.952 40.6477 15.696C41.2237 15.424 41.6637 15.096 41.9677 14.712C42.2717 14.328 42.4237 13.888 42.4237 13.392C42.4237 13.04 42.3357 12.696 42.1597 12.36C41.9837 12.008 41.7117 11.712 41.3437 11.472C40.9757 11.232 40.4877 11.112 39.8797 11.112C39.1117 11.112 38.3437 11.312 37.5757 11.712C36.8237 12.112 36.1037 12.616 35.4157 13.224C34.7437 13.816 34.1437 14.424 33.6157 15.048C33.0877 15.672 32.6637 16.216 32.3437 16.68L30.2557 16.608C30.7677 15.776 31.3757 14.928 32.0797 14.064C32.7997 13.184 33.5837 12.376 34.4317 11.64C35.2957 10.888 36.1997 10.288 37.1437 9.84C38.0877 9.376 39.0477 9.144 40.0237 9.144C40.9037 9.144 41.6557 9.328 42.2797 9.696C42.9197 10.048 43.4077 10.528 43.7437 11.136C44.0957 11.744 44.2717 12.432 44.2717 13.2C44.2717 14.144 43.9917 15.016 43.4317 15.816C42.8877 16.6 41.9597 17.232 40.6477 17.712C39.3357 18.192 37.5517 18.432 35.2957 18.432ZM46.4609 18.12L46.7009 16.152C47.6449 16.152 48.3809 16.12 48.9089 16.056C49.4369 15.976 49.8129 15.792 50.0369 15.504C50.2609 15.2 50.3729 14.728 50.3729 14.088C50.3729 13.688 50.3089 13.216 50.1809 12.672C50.0529 12.112 49.8849 11.52 49.6769 10.896C49.4689 10.272 49.2449 9.656 49.0049 9.048L50.9489 8.328C51.1569 8.84 51.3489 9.424 51.5249 10.08C51.7169 10.736 51.8769 11.384 52.0049 12.024C52.1329 12.664 52.1969 13.224 52.1969 13.704C52.1969 14.504 52.0849 15.184 51.8609 15.744C51.6529 16.304 51.3169 16.76 50.8529 17.112C50.3889 17.464 49.7889 17.72 49.0529 17.88C48.3329 18.04 47.4689 18.12 46.4609 18.12ZM51.6929 5.832C51.3569 5.832 51.0689 5.72 50.8289 5.496C50.6049 5.256 50.4929 4.976 50.4929 4.656C50.4929 4.336 50.6049 4.056 50.8289 3.816C51.0689 3.576 51.3569 3.456 51.6929 3.456C52.0129 3.456 52.2849 3.576 52.5089 3.816C52.7489 4.056 52.8689 4.336 52.8689 4.656C52.8689 4.976 52.7489 5.256 52.5089 5.496C52.2849 5.72 52.0129 5.832 51.6929 5.832ZM48.4049 5.832C48.0689 5.832 47.7809 5.72 47.5409 5.496C47.3169 5.256 47.2049 4.976 47.2049 4.656C47.2049 4.336 47.3169 4.056 47.5409 3.816C47.7809 3.576 48.0689 3.456 48.4049 3.456C48.7249 3.456 48.9969 3.576 49.2209 3.816C49.4609 4.056 49.5809 4.336 49.5809 4.656C49.5809 4.976 49.4609 5.256 49.2209 5.496C48.9969 5.72 48.7249 5.832 48.4049 5.832ZM63.0648 5.136C63.0648 4.784 63.0408 4.36 62.9928 3.864C62.9448 3.368 62.8888 2.872 62.8248 2.376C62.7608 1.88 62.6968 1.456 62.6328 1.104L64.6968 0.863999C64.7448 1.184 64.7928 1.608 64.8408 2.136C64.9048 2.648 64.9528 3.16 64.9848 3.672C65.0168 4.184 65.0328 4.608 65.0328 4.944C65.0328 5.712 64.9768 6.464 64.8648 7.2C64.7688 7.92 64.6088 8.632 64.3848 9.336C64.1608 10.024 63.8648 10.696 63.4968 11.352L63.2088 11.88C62.7608 12.632 62.2088 13.36 61.5528 14.064C60.8968 14.752 60.1288 15.408 59.2488 16.032H62.2728C62.8168 16.032 63.2328 15.968 63.5208 15.84C63.8088 15.696 64.0008 15.512 64.0968 15.288C64.2088 15.064 64.2648 14.824 64.2648 14.568C64.2648 14.136 64.0008 13.6 63.4728 12.96C62.9608 12.304 62.2488 11.584 61.3368 10.8C60.4248 10 59.3928 9.16 58.2408 8.28C57.0888 7.4 55.8728 6.504 54.5928 5.592L55.7208 4.008C57.1928 5.096 58.4888 6.08 59.6088 6.96C60.7448 7.84 61.7128 8.648 62.5128 9.384C63.3288 10.104 63.9928 10.776 64.5048 11.4C65.0328 12.008 65.4168 12.592 65.6568 13.152C65.9128 13.696 66.0408 14.232 66.0408 14.76C66.0408 15.112 65.9768 15.48 65.8488 15.864C65.7368 16.232 65.5288 16.584 65.2248 16.92C64.9368 17.24 64.5208 17.504 63.9768 17.712C63.4488 17.904 62.7608 18 61.9128 18H56.3928V16.056C58.0408 14.872 59.3448 13.72 60.3048 12.6C61.2808 11.48 61.9848 10.312 62.4168 9.096C62.8488 7.88 63.0648 6.56 63.0648 5.136ZM69.8096 18L69.3296 0.863999H71.2736L71.7536 18H69.8096ZM84.0543 16.872C83.7183 16.776 83.3903 16.632 83.0703 16.44C82.7663 16.232 82.4863 15.976 82.2303 15.672C81.9903 15.368 81.7983 15.024 81.6543 14.64C81.5103 14.24 81.4383 13.816 81.4383 13.368C81.4383 12.552 81.6223 11.856 81.9903 11.28C82.3743 10.688 82.8703 10.24 83.4783 9.936C84.1023 9.632 84.7823 9.48 85.5183 9.48C85.7903 9.48 86.0863 9.512 86.4063 9.576C86.7263 9.624 87.0303 9.688 87.3183 9.768L87.0063 11.568C86.7663 11.504 86.5103 11.456 86.2383 11.424C85.9663 11.376 85.7263 11.352 85.5183 11.352C85.0383 11.352 84.6303 11.448 84.2943 11.64C83.9743 11.816 83.7343 12.056 83.5743 12.36C83.4143 12.664 83.3343 13 83.3343 13.368C83.3343 13.88 83.4863 14.344 83.7903 14.76C84.0943 15.16 84.4623 15.48 84.8943 15.72C85.3263 15.96 85.7423 16.08 86.1423 16.08L84.0543 16.872ZM81.0303 19.392L80.4783 17.568C81.1183 17.424 81.8783 17.224 82.7583 16.968C83.6543 16.712 84.5903 16.424 85.5663 16.104C86.5423 15.768 87.4783 15.416 88.3743 15.048L89.0943 16.8C88.6303 16.992 88.0463 17.216 87.3423 17.472C86.6543 17.712 85.9183 17.952 85.1343 18.192C84.3663 18.448 83.6223 18.68 82.9023 18.888C82.1823 19.112 81.5583 19.28 81.0303 19.392ZM96.9215 18.12C95.6415 18.12 94.6575 17.976 93.9695 17.688C93.2975 17.4 92.8335 16.952 92.5775 16.344C92.3215 15.736 92.1775 14.952 92.1455 13.992L91.6655 0.863999H93.6335L94.1135 13.224C94.1455 14.008 94.2175 14.616 94.3295 15.048C94.4575 15.464 94.7295 15.752 95.1455 15.912C95.5775 16.072 96.2495 16.152 97.1615 16.152C97.4975 16.152 97.7375 16.248 97.8815 16.44C98.0415 16.616 98.1215 16.832 98.1215 17.088C98.1215 17.344 98.0095 17.584 97.7855 17.808C97.5615 18.016 97.2735 18.12 96.9215 18.12ZM96.9219 18.12L97.1379 16.152C97.9699 16.152 98.7859 16.088 99.5859 15.96C100.386 15.832 101.17 15.648 101.938 15.408C102.706 15.168 103.442 14.88 104.146 14.544C104.866 14.192 105.546 13.792 106.186 13.344C105.77 12.976 105.29 12.656 104.746 12.384C104.202 12.112 103.602 11.904 102.946 11.76C102.306 11.6 101.626 11.52 100.906 11.52C100.65 11.52 100.41 11.528 100.186 11.544C99.9619 11.56 99.7379 11.592 99.5139 11.64C99.2899 11.672 99.0339 11.72 98.7459 11.784L98.3619 9.96C98.7939 9.832 99.2259 9.736 99.6579 9.672C100.09 9.592 100.506 9.552 100.906 9.552C101.738 9.552 102.49 9.656 103.162 9.864C103.834 10.056 104.442 10.296 104.986 10.584C105.546 10.872 106.066 11.16 106.546 11.448C107.042 11.736 107.522 11.984 107.986 12.192C108.45 12.384 108.93 12.48 109.426 12.48H109.93L110.098 14.208C109.41 14.208 108.778 14.304 108.202 14.496C107.626 14.688 107.058 14.936 106.498 15.24C105.954 15.528 105.378 15.84 104.77 16.176C104.162 16.496 103.49 16.808 102.754 17.112C102.018 17.4 101.17 17.64 100.21 17.832C99.2659 18.024 98.1699 18.12 96.9219 18.12ZM103.618 22.464C103.282 22.464 102.994 22.344 102.754 22.104C102.53 21.88 102.418 21.608 102.418 21.288C102.418 20.968 102.53 20.688 102.754 20.448C102.994 20.208 103.282 20.088 103.618 20.088C103.938 20.088 104.21 20.208 104.434 20.448C104.674 20.688 104.794 20.968 104.794 21.288C104.794 21.608 104.674 21.88 104.434 22.104C104.21 22.344 103.938 22.464 103.618 22.464ZM111.151 23.568L110.455 21.744C111.623 21.36 112.591 20.92 113.359 20.424C114.143 19.928 114.759 19.4 115.207 18.84C115.671 18.28 115.999 17.712 116.191 17.136C116.383 16.544 116.479 15.976 116.479 15.432C116.479 14.648 116.303 13.856 115.951 13.056C115.615 12.24 115.239 11.472 114.823 10.752L116.575 9.864C116.879 10.424 117.143 10.976 117.367 11.52C117.607 12.064 117.815 12.576 117.991 13.056C118.183 13.536 118.335 13.976 118.447 14.376C118.671 15.064 118.959 15.536 119.311 15.792C119.679 16.032 120.175 16.152 120.799 16.152C121.135 16.152 121.375 16.248 121.519 16.44C121.679 16.616 121.759 16.832 121.759 17.088C121.759 17.344 121.647 17.584 121.423 17.808C121.199 18.016 120.911 18.12 120.559 18.12C119.855 18.12 119.279 18 118.831 17.76C118.399 17.504 118.071 17.176 117.847 16.776C117.623 16.36 117.471 15.928 117.391 15.48L118.159 15.912C118.159 16.968 117.919 17.928 117.439 18.792C116.975 19.672 116.375 20.432 115.639 21.072C114.903 21.728 114.135 22.264 113.335 22.68C112.535 23.096 111.807 23.392 111.151 23.568ZM120.57 18.12L120.81 16.152C121.482 16.152 122.01 16.096 122.394 15.984C122.778 15.856 123.066 15.624 123.258 15.288C123.466 14.936 123.642 14.432 123.786 13.776C123.93 13.12 124.106 12.264 124.314 11.208L126.186 11.568C126.122 11.856 126.05 12.176 125.97 12.528C125.89 12.88 125.818 13.232 125.754 13.584C125.706 13.92 125.682 14.216 125.682 14.472C125.682 14.792 125.754 15.08 125.898 15.336C126.042 15.592 126.354 15.792 126.834 15.936C127.314 16.08 128.05 16.152 129.042 16.152C129.378 16.152 129.618 16.248 129.762 16.44C129.922 16.616 130.002 16.832 130.002 17.088C130.002 17.344 129.89 17.584 129.666 17.808C129.442 18.016 129.154 18.12 128.802 18.12C127.762 18.12 126.946 18.032 126.354 17.856C125.762 17.664 125.33 17.384 125.058 17.016C124.786 16.632 124.602 16.168 124.506 15.624L125.226 15.672C124.97 16.184 124.69 16.6 124.386 16.92C124.098 17.24 123.778 17.488 123.426 17.664C123.074 17.84 122.666 17.96 122.202 18.024C121.738 18.088 121.194 18.12 120.57 18.12ZM124.65 22.584C124.314 22.584 124.026 22.464 123.786 22.224C123.562 22 123.45 21.728 123.45 21.408C123.45 21.088 123.562 20.808 123.786 20.568C124.026 20.328 124.314 20.208 124.65 20.208C124.97 20.208 125.242 20.328 125.466 20.568C125.706 20.808 125.826 21.088 125.826 21.408C125.826 21.728 125.706 22 125.466 22.224C125.242 22.464 124.97 22.584 124.65 22.584ZM128.797 18.12L129.037 16.152C129.437 16.152 129.877 16.152 130.357 16.152C130.853 16.136 131.349 16.12 131.845 16.104C132.357 16.088 132.829 16.056 133.261 16.008C133.693 15.944 134.053 15.864 134.341 15.768C134.917 15.56 135.365 15.304 135.685 15C136.005 14.68 136.229 14.264 136.357 13.752C136.501 13.224 136.573 12.552 136.573 11.736C136.573 11.064 136.485 10.44 136.309 9.864C136.133 9.288 135.885 8.824 135.565 8.472C135.245 8.12 134.861 7.944 134.413 7.944C134.045 7.944 133.709 8.088 133.405 8.376C133.117 8.648 132.885 9 132.709 9.432C132.549 9.864 132.469 10.296 132.469 10.728C132.469 11.064 132.533 11.352 132.661 11.592C132.805 11.832 133.037 12.024 133.357 12.168C133.677 12.296 134.093 12.36 134.605 12.36C135.069 12.36 135.533 12.312 135.997 12.216C136.477 12.12 136.885 11.992 137.221 11.832L137.317 13.512C137.061 13.688 136.773 13.832 136.453 13.944C136.133 14.056 135.797 14.136 135.445 14.184C135.093 14.232 134.741 14.256 134.389 14.256C133.573 14.256 132.877 14.128 132.301 13.872C131.741 13.6 131.309 13.24 131.005 12.792C130.717 12.328 130.573 11.8 130.573 11.208C130.573 10.6 130.669 9.992 130.861 9.384C131.053 8.76 131.325 8.192 131.677 7.68C132.029 7.168 132.453 6.76 132.949 6.456C133.445 6.136 133.997 5.976 134.605 5.976C135.469 5.976 136.181 6.256 136.741 6.816C137.317 7.376 137.741 8.112 138.013 9.024C138.301 9.92 138.445 10.872 138.445 11.88C138.445 13.08 138.237 14.112 137.821 14.976C137.421 15.824 136.749 16.528 135.805 17.088C135.437 17.296 134.989 17.472 134.461 17.616C133.949 17.744 133.381 17.848 132.757 17.928C132.149 18.008 131.509 18.056 130.837 18.072C130.165 18.104 129.485 18.12 128.797 18.12ZM134.149 3.504C133.813 3.504 133.525 3.392 133.285 3.168C133.061 2.928 132.949 2.648 132.949 2.328C132.949 2.008 133.061 1.728 133.285 1.488C133.525 1.248 133.813 1.128 134.149 1.128C134.469 1.128 134.741 1.248 134.965 1.488C135.205 1.728 135.325 2.008 135.325 2.328C135.325 2.648 135.205 2.928 134.965 3.168C134.741 3.392 134.469 3.504 134.149 3.504ZM146.377 23.52L145.681 21.696C147.297 21.184 148.537 20.568 149.401 19.848C150.281 19.144 150.881 18.408 151.201 17.64C151.537 16.872 151.705 16.136 151.705 15.432C151.705 14.984 151.657 14.552 151.561 14.136C151.465 13.72 151.297 13.248 151.057 12.72C150.817 12.192 150.481 11.536 150.049 10.752L151.801 9.864C152.409 10.904 152.841 11.888 153.097 12.816C153.369 13.744 153.505 14.56 153.505 15.264C153.505 16.272 153.337 17.184 153.001 18C152.681 18.816 152.249 19.536 151.705 20.16C151.177 20.8 150.593 21.344 149.953 21.792C149.329 22.24 148.697 22.608 148.057 22.896C147.433 23.184 146.873 23.392 146.377 23.52ZM156.486 23.52L156.054 21.552C157.014 21.424 157.894 21.24 158.694 21C159.51 20.776 160.206 20.448 160.782 20.016C161.374 19.584 161.83 19.016 162.15 18.312C162.47 17.608 162.63 16.728 162.63 15.672C162.63 15.176 162.582 14.704 162.486 14.256C162.39 13.792 162.246 13.384 162.054 13.032C161.862 12.68 161.63 12.4 161.358 12.192C161.102 11.984 160.806 11.88 160.47 11.88C160.102 11.88 159.766 12.024 159.462 12.312C159.174 12.584 158.942 12.936 158.766 13.368C158.606 13.8 158.526 14.232 158.526 14.664C158.526 15 158.59 15.296 158.718 15.552C158.862 15.792 159.094 15.976 159.414 16.104C159.734 16.232 160.15 16.296 160.662 16.296C161.126 16.296 161.59 16.248 162.054 16.152C162.534 16.056 162.942 15.928 163.278 15.768L163.374 17.448C162.99 17.72 162.534 17.912 162.006 18.024C161.494 18.136 160.974 18.192 160.446 18.192C159.838 18.192 159.294 18.128 158.814 18C158.35 17.872 157.95 17.688 157.614 17.448C157.294 17.192 157.046 16.872 156.87 16.488C156.71 16.104 156.63 15.656 156.63 15.144C156.63 14.536 156.726 13.928 156.918 13.32C157.11 12.696 157.382 12.128 157.734 11.616C158.086 11.104 158.51 10.696 159.006 10.392C159.502 10.072 160.054 9.912 160.662 9.912C161.302 9.912 161.862 10.08 162.342 10.416C162.822 10.736 163.222 11.176 163.542 11.736C163.862 12.296 164.102 12.928 164.262 13.632C164.422 14.336 164.502 15.064 164.502 15.816C164.502 17.304 164.198 18.584 163.59 19.656C162.998 20.744 162.102 21.608 160.902 22.248C159.718 22.888 158.246 23.312 156.486 23.52ZM165.924 23.568L165.228 21.744C166.396 21.36 167.364 20.92 168.132 20.424C168.916 19.928 169.532 19.4 169.98 18.84C170.444 18.28 170.772 17.712 170.964 17.136C171.156 16.544 171.252 15.976 171.252 15.432C171.252 14.648 171.076 13.856 170.724 13.056C170.388 12.24 170.012 11.472 169.596 10.752L171.348 9.864C171.652 10.424 171.916 10.976 172.14 11.52C172.38 12.064 172.588 12.576 172.764 13.056C172.956 13.536 173.108 13.976 173.22 14.376C173.444 15.064 173.732 15.536 174.084 15.792C174.452 16.032 174.948 16.152 175.572 16.152C175.908 16.152 176.148 16.248 176.292 16.44C176.452 16.616 176.532 16.832 176.532 17.088C176.532 17.344 176.42 17.584 176.196 17.808C175.972 18.016 175.684 18.12 175.332 18.12C174.628 18.12 174.052 18 173.604 17.76C173.172 17.504 172.844 17.176 172.62 16.776C172.396 16.36 172.244 15.928 172.164 15.48L172.932 15.912C172.932 16.968 172.692 17.928 172.212 18.792C171.748 19.672 171.148 20.432 170.412 21.072C169.676 21.728 168.908 22.264 168.108 22.68C167.308 23.096 166.58 23.392 165.924 23.568ZM175.344 18.12L175.584 16.152C176.032 16.152 176.408 16.056 176.712 15.864C177.016 15.672 177.312 15.352 177.6 14.904C177.888 14.456 178.2 13.856 178.536 13.104C179 12.08 179.456 11.304 179.904 10.776C180.368 10.248 180.824 9.888 181.272 9.696C181.736 9.504 182.192 9.408 182.64 9.408C183.184 9.408 183.688 9.552 184.152 9.84C184.616 10.112 185.024 10.48 185.376 10.944C185.728 11.408 186 11.92 186.192 12.48C186.4 13.024 186.504 13.568 186.504 14.112C186.504 15.072 186.336 15.84 186 16.416C185.664 16.976 185.232 17.384 184.704 17.64C184.192 17.88 183.656 18 183.096 18C182.6 18 181.96 17.904 181.176 17.712C180.408 17.52 179.432 17.032 178.248 16.248L179.184 14.736C179.968 15.232 180.672 15.576 181.296 15.768C181.936 15.944 182.464 16.032 182.88 16.032C183.344 16.032 183.712 15.968 183.984 15.84C184.256 15.696 184.456 15.496 184.584 15.24C184.712 14.984 184.776 14.696 184.776 14.376C184.776 13.912 184.664 13.448 184.44 12.984C184.216 12.52 183.928 12.136 183.576 11.832C183.24 11.528 182.88 11.376 182.496 11.376C182.208 11.376 181.928 11.456 181.656 11.616C181.384 11.776 181.104 12.072 180.816 12.504C180.528 12.936 180.2 13.56 179.832 14.376C179.448 15.24 179.08 15.928 178.728 16.44C178.392 16.936 178.048 17.304 177.696 17.544C177.344 17.784 176.976 17.936 176.592 18C176.224 18.08 175.808 18.12 175.344 18.12ZM206.367 18.12C205.503 18.12 204.735 18 204.063 17.76C203.407 17.504 202.879 17.08 202.479 16.488C202.095 15.88 201.879 15.04 201.831 13.968L201.447 5.616H203.391L203.775 13.536C203.823 14.288 203.959 14.856 204.183 15.24C204.407 15.608 204.719 15.856 205.119 15.984C205.535 16.096 206.031 16.152 206.607 16.152C206.943 16.152 207.183 16.248 207.327 16.44C207.487 16.616 207.567 16.832 207.567 17.088C207.567 17.344 207.455 17.584 207.231 17.808C207.007 18.016 206.719 18.12 206.367 18.12ZM202.743 15.48C201.831 15.768 200.943 15.912 200.079 15.912C199.215 15.912 198.431 15.784 197.727 15.528C197.023 15.272 196.463 14.904 196.047 14.424C195.631 13.928 195.423 13.336 195.423 12.648C195.423 11.976 195.591 11.344 195.927 10.752C196.279 10.16 196.751 9.632 197.343 9.168C197.951 8.704 198.647 8.32 199.431 8.016C200.231 7.696 201.079 7.48 201.975 7.368L202.311 9.384C201.511 9.416 200.799 9.528 200.175 9.72C199.567 9.896 199.047 10.128 198.615 10.416C198.199 10.704 197.879 11.016 197.655 11.352C197.431 11.688 197.319 12.016 197.319 12.336C197.319 12.688 197.447 12.976 197.703 13.2C197.959 13.424 198.287 13.6 198.687 13.728C199.087 13.84 199.527 13.912 200.007 13.944C200.487 13.96 200.951 13.944 201.399 13.896C201.847 13.832 202.231 13.744 202.551 13.632L202.743 15.48ZM202.239 2.856C201.903 2.856 201.615 2.744 201.375 2.52C201.151 2.28 201.039 2 201.039 1.68C201.039 1.36 201.151 1.08 201.375 0.839999C201.615 0.599999 201.903 0.48 202.239 0.48C202.559 0.48 202.831 0.599999 203.055 0.839999C203.295 1.08 203.415 1.36 203.415 1.68C203.415 2 203.295 2.28 203.055 2.52C202.831 2.744 202.559 2.856 202.239 2.856ZM198.951 2.856C198.615 2.856 198.327 2.744 198.087 2.52C197.863 2.28 197.751 2 197.751 1.68C197.751 1.36 197.863 1.08 198.087 0.839999C198.327 0.599999 198.615 0.48 198.951 0.48C199.271 0.48 199.543 0.599999 199.767 0.839999C200.007 1.08 200.127 1.36 200.127 1.68C200.127 2 200.007 2.28 199.767 2.52C199.543 2.744 199.271 2.856 198.951 2.856ZM206.375 18.12L206.615 16.152C207.063 16.152 207.415 16.056 207.671 15.864C207.943 15.672 208.199 15.352 208.439 14.904C208.695 14.456 209.015 13.856 209.399 13.104C209.783 12.336 210.167 11.712 210.551 11.232C210.951 10.736 211.335 10.352 211.703 10.08C212.087 9.792 212.447 9.592 212.783 9.48C213.119 9.368 213.431 9.312 213.719 9.312C214.247 9.312 214.719 9.432 215.135 9.672C215.551 9.896 215.943 10.288 216.311 10.848C216.679 11.392 217.055 12.144 217.439 13.104C217.807 13.984 218.135 14.648 218.423 15.096C218.727 15.528 219.039 15.816 219.359 15.96C219.695 16.088 220.071 16.152 220.487 16.152C220.823 16.152 221.063 16.248 221.207 16.44C221.367 16.616 221.447 16.832 221.447 17.088C221.447 17.344 221.335 17.584 221.111 17.808C220.887 18.016 220.599 18.12 220.247 18.12C219.623 18.12 219.047 18.016 218.519 17.808C218.007 17.6 217.575 17.272 217.223 16.824L217.559 16.32C217.383 16.816 217.143 17.224 216.839 17.544C216.551 17.848 216.223 18.072 215.855 18.216C215.487 18.376 215.095 18.456 214.679 18.456C214.151 18.456 213.607 18.344 213.047 18.12C212.503 17.896 211.975 17.576 211.463 17.16C210.951 16.744 210.503 16.256 210.119 15.696C209.703 16.432 209.303 16.976 208.919 17.328C208.551 17.664 208.167 17.88 207.767 17.976C207.367 18.072 206.903 18.12 206.375 18.12ZM211.031 13.872C211.303 14.32 211.591 14.712 211.895 15.048C212.215 15.384 212.535 15.664 212.855 15.888C213.175 16.096 213.487 16.256 213.791 16.368C214.111 16.464 214.399 16.512 214.655 16.512C215.215 16.512 215.623 16.312 215.879 15.912C216.151 15.512 216.143 14.952 215.855 14.232C215.711 13.864 215.559 13.504 215.399 13.152C215.255 12.8 215.095 12.48 214.919 12.192C214.743 11.888 214.543 11.656 214.319 11.496C214.095 11.32 213.847 11.232 213.575 11.232C213.335 11.232 213.079 11.312 212.807 11.472C212.551 11.632 212.271 11.904 211.967 12.288C211.679 12.672 211.367 13.2 211.031 13.872ZM220.25 18.12L220.466 16.152C221.378 16.152 222.018 16.064 222.386 15.888C222.754 15.712 222.962 15.4 223.01 14.952C223.074 14.504 223.09 13.88 223.058 13.08L222.65 0.863999H224.642L225.026 13.032C225.058 13.848 225.186 14.488 225.41 14.952C225.65 15.4 225.97 15.712 226.37 15.888C226.77 16.064 227.21 16.152 227.69 16.152C228.026 16.152 228.266 16.248 228.41 16.44C228.57 16.616 228.65 16.832 228.65 17.088C228.65 17.344 228.538 17.584 228.314 17.808C228.09 18.016 227.802 18.12 227.45 18.12C226.778 18.12 226.218 18.016 225.77 17.808C225.338 17.584 224.994 17.304 224.738 16.968C224.498 16.616 224.338 16.248 224.258 15.864L224.762 15.912C224.602 16.392 224.338 16.8 223.97 17.136C223.618 17.456 223.138 17.704 222.53 17.88C221.922 18.04 221.162 18.12 220.25 18.12ZM227.445 18.12L227.685 16.152H229.941C230.885 16.152 231.629 16.104 232.173 16.008C232.733 15.896 233.141 15.76 233.397 15.6C233.669 15.424 233.845 15.24 233.925 15.048C234.021 14.84 234.069 14.632 234.069 14.424C234.069 14.056 233.925 13.6 233.637 13.056C233.365 12.512 232.797 11.808 231.933 10.944C231.485 10.496 231.037 10.088 230.589 9.72C230.141 9.336 229.725 9 229.341 8.712C228.973 8.408 228.677 8.152 228.453 7.944C228.229 7.736 228.117 7.576 228.117 7.464C228.117 7.224 228.133 6.992 228.165 6.768C228.213 6.544 228.269 6.336 228.333 6.144C228.413 5.952 228.509 5.8 228.621 5.688C228.941 5.352 229.349 5.016 229.845 4.68C230.357 4.344 230.949 3.992 231.621 3.624C232.309 3.256 233.077 2.864 233.925 2.448C234.789 2.016 235.733 1.544 236.757 1.032L237.573 2.808C236.293 3.416 235.221 3.936 234.357 4.368C233.509 4.784 232.789 5.16 232.197 5.496C231.605 5.816 231.085 6.12 230.637 6.408C230.189 6.696 229.733 7.016 229.269 7.368L229.629 6.456C230.637 7.256 231.525 8.008 232.293 8.712C233.077 9.416 233.733 10.096 234.261 10.752C234.789 11.392 235.189 12.024 235.461 12.648C235.733 13.272 235.869 13.904 235.869 14.544C235.869 14.896 235.805 15.28 235.677 15.696C235.549 16.112 235.277 16.504 234.861 16.872C234.445 17.24 233.821 17.544 232.989 17.784C232.157 18.008 231.037 18.12 229.629 18.12H227.445ZM238.728 23.52L238.296 21.552C239.256 21.424 240.136 21.24 240.936 21C241.752 20.776 242.448 20.448 243.024 20.016C243.616 19.584 244.072 19.016 244.392 18.312C244.712 17.608 244.872 16.728 244.872 15.672C244.872 15.176 244.824 14.704 244.728 14.256C244.632 13.792 244.488 13.384 244.296 13.032C244.104 12.68 243.872 12.4 243.6 12.192C243.344 11.984 243.048 11.88 242.712 11.88C242.344 11.88 242.008 12.024 241.704 12.312C241.416 12.584 241.184 12.936 241.008 13.368C240.848 13.8 240.768 14.232 240.768 14.664C240.768 15 240.832 15.296 240.96 15.552C241.104 15.792 241.336 15.976 241.656 16.104C241.976 16.232 242.392 16.296 242.904 16.296C243.368 16.296 243.832 16.248 244.296 16.152C244.776 16.056 245.184 15.928 245.52 15.768L245.616 17.448C245.232 17.72 244.776 17.912 244.248 18.024C243.736 18.136 243.216 18.192 242.688 18.192C242.08 18.192 241.536 18.128 241.056 18C240.592 17.872 240.192 17.688 239.856 17.448C239.536 17.192 239.288 16.872 239.112 16.488C238.952 16.104 238.872 15.656 238.872 15.144C238.872 14.536 238.968 13.928 239.16 13.32C239.352 12.696 239.624 12.128 239.976 11.616C240.328 11.104 240.752 10.696 241.248 10.392C241.744 10.072 242.296 9.912 242.904 9.912C243.544 9.912 244.104 10.08 244.584 10.416C245.064 10.736 245.464 11.176 245.784 11.736C246.104 12.296 246.344 12.928 246.504 13.632C246.664 14.336 246.744 15.064 246.744 15.816C246.744 17.304 246.44 18.584 245.832 19.656C245.24 20.744 244.344 21.608 243.144 22.248C241.96 22.888 240.488 23.312 238.728 23.52ZM256.596 27.432C256.324 26.376 256.084 25.344 255.876 24.336C255.684 23.328 255.54 22.4 255.444 21.552C255.348 20.704 255.3 20.008 255.3 19.464C255.3 18.488 255.476 17.68 255.828 17.04C256.18 16.384 256.652 15.88 257.244 15.528C257.836 15.16 258.492 14.912 259.212 14.784C259.948 14.656 260.7 14.616 261.468 14.664C262.252 14.696 262.988 14.792 263.676 14.952C263.724 14.408 263.692 13.888 263.58 13.392C263.484 12.88 263.316 12.432 263.076 12.048C262.852 11.648 262.564 11.336 262.212 11.112C261.86 10.888 261.46 10.776 261.012 10.776C260.612 10.776 260.236 10.864 259.884 11.04C259.532 11.216 259.196 11.488 258.876 11.856C258.572 12.208 258.276 12.648 257.988 13.176L256.5 12.36C256.916 11.496 257.372 10.808 257.868 10.296C258.38 9.784 258.916 9.416 259.476 9.192C260.036 8.952 260.588 8.832 261.132 8.832C261.948 8.832 262.636 9.008 263.196 9.36C263.756 9.696 264.196 10.144 264.516 10.704C264.852 11.248 265.092 11.84 265.236 12.48C265.396 13.104 265.476 13.704 265.476 14.28C265.476 14.68 265.428 15.08 265.332 15.48C265.236 15.88 265.116 16.24 264.972 16.56C264.844 16.88 264.716 17.128 264.588 17.304C263.724 17.048 262.916 16.864 262.164 16.752C261.412 16.64 260.732 16.608 260.124 16.656C259.532 16.688 259.02 16.816 258.588 17.04C258.156 17.264 257.828 17.584 257.604 18C257.38 18.416 257.268 18.944 257.268 19.584C257.268 20.176 257.316 20.88 257.412 21.696C257.508 22.512 257.644 23.368 257.82 24.264C257.996 25.176 258.204 26.072 258.444 26.952L256.596 27.432ZM271.605 16.152C272.405 16.152 273.037 16.072 273.501 15.912C273.981 15.752 274.325 15.52 274.533 15.216C274.757 14.896 274.869 14.528 274.869 14.112C274.869 13.792 274.781 13.408 274.605 12.96C274.445 12.512 274.221 12.016 273.933 11.472C273.645 10.912 273.309 10.328 272.925 9.72C272.557 9.096 272.157 8.464 271.725 7.824L273.381 6.744C274.005 7.688 274.549 8.584 275.013 9.432C275.477 10.264 275.869 11.048 276.189 11.784C276.509 12.504 276.765 13.184 276.957 13.824C277.181 14.528 277.429 15.048 277.701 15.384C277.989 15.72 278.285 15.936 278.589 16.032C278.893 16.112 279.173 16.152 279.429 16.152C279.765 16.152 280.013 16.248 280.173 16.44C280.333 16.616 280.413 16.832 280.413 17.088C280.413 17.344 280.301 17.584 280.077 17.808C279.853 18.016 279.565 18.12 279.213 18.12C278.685 18.12 278.165 18.024 277.653 17.832C277.157 17.624 276.725 17.296 276.357 16.848C275.989 16.384 275.733 15.768 275.589 15L276.549 14.232C276.549 14.872 276.413 15.496 276.141 16.104C275.869 16.696 275.373 17.184 274.653 17.568C273.949 17.952 272.933 18.144 271.605 18.144C271.029 18.144 270.469 18.096 269.925 18C269.397 17.904 268.909 17.768 268.461 17.592C268.013 17.4 267.621 17.176 267.285 16.92L268.245 15.264C268.565 15.472 269.013 15.672 269.589 15.864C270.165 16.056 270.837 16.152 271.605 16.152ZM294.507 18.12C293.835 18.12 293.219 18.08 292.659 18C292.099 17.904 291.595 17.736 291.147 17.496C290.699 17.256 290.323 16.912 290.019 16.464C289.715 16 289.483 15.392 289.323 14.64L290.739 13.8C290.947 14.44 291.203 14.928 291.507 15.264C291.811 15.6 292.219 15.832 292.731 15.96C293.259 16.088 293.931 16.152 294.747 16.152C295.083 16.152 295.323 16.248 295.467 16.44C295.627 16.616 295.707 16.832 295.707 17.088C295.707 17.344 295.595 17.584 295.371 17.808C295.147 18.016 294.859 18.12 294.507 18.12ZM279.219 18.12L279.435 16.152C280.267 16.152 281.083 16.088 281.883 15.96C282.683 15.832 283.467 15.648 284.235 15.408C285.003 15.168 285.739 14.88 286.443 14.544C287.163 14.192 287.843 13.792 288.483 13.344C288.067 12.976 287.587 12.656 287.043 12.384C286.499 12.112 285.899 11.904 285.243 11.76C284.603 11.6 283.923 11.52 283.203 11.52C282.947 11.52 282.707 11.528 282.483 11.544C282.259 11.56 282.035 11.592 281.811 11.64C281.587 11.672 281.331 11.72 281.043 11.784L280.659 9.96C281.091 9.832 281.523 9.736 281.955 9.672C282.387 9.592 282.803 9.552 283.203 9.552C284.035 9.552 284.787 9.656 285.459 9.864C286.131 10.056 286.739 10.296 287.283 10.584C287.843 10.872 288.363 11.16 288.843 11.448C289.339 11.736 289.819 11.984 290.283 12.192C290.747 12.384 291.227 12.48 291.723 12.48H292.227L292.395 14.208C291.707 14.208 291.075 14.304 290.499 14.496C289.923 14.688 289.355 14.936 288.795 15.24C288.251 15.528 287.675 15.84 287.067 16.176C286.459 16.496 285.787 16.808 285.051 17.112C284.315 17.4 283.467 17.64 282.507 17.832C281.563 18.024 280.467 18.12 279.219 18.12ZM282.987 7.08C282.651 7.08 282.363 6.968 282.123 6.744C281.899 6.504 281.787 6.224 281.787 5.904C281.787 5.584 281.899 5.304 282.123 5.064C282.363 4.824 282.651 4.704 282.987 4.704C283.307 4.704 283.579 4.824 283.803 5.064C284.043 5.304 284.163 5.584 284.163 5.904C284.163 6.224 284.043 6.504 283.803 6.744C283.579 6.968 283.307 7.08 282.987 7.08ZM294.5 18.12L294.74 16.152C295.54 16.152 296.164 16.096 296.612 15.984C297.06 15.856 297.396 15.624 297.62 15.288C297.86 14.936 298.052 14.432 298.196 13.776C298.34 13.12 298.516 12.264 298.724 11.208L300.596 11.568C300.532 11.856 300.46 12.176 300.38 12.528C300.3 12.88 300.228 13.232 300.164 13.584C300.116 13.92 300.092 14.216 300.092 14.472C300.092 14.712 300.108 14.936 300.14 15.144C300.172 15.352 300.292 15.528 300.5 15.672C300.708 15.816 301.06 15.936 301.556 16.032C302.052 16.112 302.764 16.152 303.692 16.152C304.028 16.152 304.268 16.248 304.412 16.44C304.572 16.616 304.652 16.832 304.652 17.088C304.652 17.344 304.54 17.584 304.316 17.808C304.092 18.016 303.804 18.12 303.452 18.12C302.476 18.12 301.7 18.072 301.124 17.976C300.548 17.864 300.108 17.704 299.804 17.496C299.516 17.288 299.308 17.032 299.18 16.728C299.068 16.408 298.98 16.04 298.916 15.624L299.636 15.672C299.38 16.184 299.1 16.6 298.796 16.92C298.508 17.24 298.172 17.488 297.788 17.664C297.404 17.84 296.94 17.96 296.396 18.024C295.868 18.088 295.236 18.12 294.5 18.12ZM300.908 8.736C300.572 8.736 300.284 8.624 300.044 8.4C299.82 8.16 299.708 7.88 299.708 7.56C299.708 7.24 299.82 6.96 300.044 6.72C300.284 6.48 300.572 6.36 300.908 6.36C301.228 6.36 301.5 6.48 301.724 6.72C301.964 6.96 302.084 7.24 302.084 7.56C302.084 7.88 301.964 8.16 301.724 8.4C301.5 8.624 301.228 8.736 300.908 8.736ZM297.62 8.736C297.284 8.736 296.996 8.624 296.756 8.4C296.532 8.16 296.42 7.88 296.42 7.56C296.42 7.24 296.532 6.96 296.756 6.72C296.996 6.48 297.284 6.36 297.62 6.36C297.94 6.36 298.212 6.48 298.436 6.72C298.676 6.96 298.796 7.24 298.796 7.56C298.796 7.88 298.676 8.16 298.436 8.4C298.212 8.624 297.94 8.736 297.62 8.736ZM303.453 18.12L303.693 16.152C304.205 16.152 304.621 16.12 304.941 16.056C305.261 15.976 305.525 15.792 305.733 15.504C305.957 15.2 306.165 14.728 306.357 14.088C306.549 13.448 306.773 12.552 307.029 11.4L308.829 11.904C308.733 12.304 308.621 12.784 308.493 13.344C308.365 13.904 308.301 14.416 308.301 14.88C308.301 15.136 308.365 15.36 308.493 15.552C308.621 15.744 308.837 15.896 309.141 16.008C309.461 16.104 309.885 16.152 310.413 16.152C310.893 16.152 311.285 16.112 311.589 16.032C311.893 15.952 312.141 15.76 312.333 15.456C312.541 15.152 312.725 14.664 312.885 13.992C313.045 13.32 313.213 12.4 313.389 11.232L315.213 11.568C315.165 11.856 315.109 12.208 315.045 12.624C314.981 13.04 314.917 13.456 314.853 13.872C314.805 14.272 314.781 14.608 314.781 14.88C314.781 15.104 314.829 15.32 314.925 15.528C315.037 15.72 315.245 15.872 315.549 15.984C315.869 16.096 316.341 16.152 316.965 16.152C317.765 16.152 318.341 15.984 318.693 15.648C319.061 15.312 319.245 14.8 319.245 14.112C319.245 13.744 319.237 13.36 319.221 12.96C319.205 12.544 319.173 12.088 319.125 11.592C319.093 11.08 319.037 10.496 318.957 9.84L320.709 9.72C320.805 11.016 320.909 12.08 321.021 12.912C321.149 13.744 321.325 14.4 321.549 14.88C321.789 15.344 322.109 15.672 322.509 15.864C322.909 16.056 323.437 16.152 324.093 16.152C324.429 16.152 324.669 16.248 324.813 16.44C324.973 16.616 325.053 16.832 325.053 17.088C325.053 17.344 324.941 17.584 324.717 17.808C324.493 18.016 324.205 18.12 323.853 18.12C323.309 18.12 322.821 18.048 322.389 17.904C321.973 17.744 321.605 17.536 321.285 17.28C320.981 17.008 320.725 16.704 320.517 16.368C320.325 16.016 320.189 15.648 320.109 15.264L320.541 15.408C320.365 16.128 320.085 16.688 319.701 17.088C319.333 17.472 318.893 17.744 318.381 17.904C317.869 18.048 317.325 18.12 316.749 18.12C316.045 18.12 315.469 18.032 315.021 17.856C314.573 17.68 314.221 17.416 313.965 17.064C313.725 16.696 313.565 16.232 313.485 15.672H314.301C313.997 16.36 313.677 16.88 313.341 17.232C313.005 17.584 312.589 17.824 312.093 17.952C311.597 18.064 310.941 18.12 310.125 18.12C309.725 18.12 309.293 18.056 308.829 17.928C308.381 17.8 307.989 17.552 307.653 17.184C307.317 16.8 307.117 16.232 307.053 15.48L307.773 15.336C307.501 16.152 307.165 16.76 306.765 17.16C306.381 17.544 305.917 17.8 305.373 17.928C304.829 18.056 304.189 18.12 303.453 18.12ZM323.844 18.12L324.084 16.152C324.532 16.152 324.908 16.056 325.212 15.864C325.516 15.672 325.812 15.352 326.1 14.904C326.388 14.456 326.7 13.856 327.036 13.104C327.5 12.08 327.956 11.304 328.404 10.776C328.868 10.248 329.324 9.888 329.772 9.696C330.236 9.504 330.692 9.408 331.14 9.408C331.684 9.408 332.188 9.552 332.652 9.84C333.116 10.112 333.524 10.48 333.876 10.944C334.228 11.408 334.5 11.92 334.692 12.48C334.9 13.024 335.004 13.568 335.004 14.112C335.004 15.072 334.836 15.84 334.5 16.416C334.164 16.976 333.732 17.384 333.204 17.64C332.692 17.88 332.156 18 331.596 18C331.1 18 330.46 17.904 329.676 17.712C328.908 17.52 327.932 17.032 326.748 16.248L327.684 14.736C328.468 15.232 329.172 15.576 329.796 15.768C330.436 15.944 330.964 16.032 331.38 16.032C331.844 16.032 332.212 15.968 332.484 15.84C332.756 15.696 332.956 15.496 333.084 15.24C333.212 14.984 333.276 14.696 333.276 14.376C333.276 13.912 333.164 13.448 332.94 12.984C332.716 12.52 332.428 12.136 332.076 11.832C331.74 11.528 331.38 11.376 330.996 11.376C330.708 11.376 330.428 11.456 330.156 11.616C329.884 11.776 329.604 12.072 329.316 12.504C329.028 12.936 328.7 13.56 328.332 14.376C327.948 15.24 327.58 15.928 327.228 16.44C326.892 16.936 326.548 17.304 326.196 17.544C325.844 17.784 325.476 17.936 325.092 18C324.724 18.08 324.308 18.12 323.844 18.12ZM345.051 27.432C344.715 26.2 344.427 24.992 344.187 23.808C343.947 22.64 343.763 21.592 343.635 20.664C343.507 19.736 343.443 19.048 343.443 18.6C343.443 17.416 343.635 16.336 344.019 15.36C344.403 14.384 344.899 13.528 345.507 12.792C346.115 12.04 346.771 11.408 347.475 10.896C348.179 10.368 348.859 9.976 349.515 9.72C350.187 9.448 350.755 9.312 351.219 9.312C351.619 9.312 351.971 9.4 352.275 9.576C352.579 9.752 352.875 10.096 353.163 10.608C353.451 11.12 353.755 11.872 354.075 12.864C354.379 13.776 354.667 14.472 354.939 14.952C355.211 15.416 355.507 15.736 355.827 15.912C356.147 16.072 356.515 16.152 356.931 16.152C357.267 16.152 357.507 16.248 357.651 16.44C357.811 16.616 357.891 16.832 357.891 17.088C357.891 17.344 357.779 17.584 357.555 17.808C357.331 18.016 357.043 18.12 356.691 18.12C356.067 18.12 355.531 18.008 355.083 17.784C354.651 17.56 354.275 17.256 353.955 16.872L354.507 16.416C354.315 16.88 354.067 17.264 353.763 17.568C353.475 17.856 353.147 18.072 352.779 18.216C352.427 18.36 352.051 18.432 351.651 18.432C351.187 18.432 350.707 18.344 350.211 18.168C349.715 18.008 349.227 17.768 348.747 17.448C348.267 17.112 347.811 16.704 347.379 16.224C346.963 15.744 346.595 15.2 346.275 14.592L346.515 14.64C346.067 15.264 345.771 15.944 345.627 16.68C345.483 17.4 345.411 18.04 345.411 18.6C345.411 19.048 345.459 19.616 345.555 20.304C345.651 21.008 345.771 21.752 345.915 22.536C346.075 23.32 346.243 24.096 346.419 24.864C346.611 25.648 346.787 26.352 346.947 26.976L345.051 27.432ZM351.843 16.464C352.131 16.464 352.363 16.408 352.539 16.296C352.731 16.184 352.859 16.016 352.923 15.792C352.987 15.568 352.963 15.288 352.851 14.952C352.659 14.376 352.483 13.872 352.323 13.44C352.163 12.992 352.003 12.624 351.843 12.336C351.699 12.032 351.547 11.808 351.387 11.664C351.227 11.52 351.059 11.448 350.883 11.448C350.707 11.448 350.483 11.488 350.211 11.568C349.955 11.648 349.675 11.768 349.371 11.928C349.083 12.088 348.787 12.288 348.483 12.528C348.179 12.768 347.891 13.048 347.619 13.368L347.643 13.176C347.995 13.912 348.419 14.528 348.915 15.024C349.427 15.52 349.939 15.888 350.451 16.128C350.979 16.352 351.443 16.464 351.843 16.464ZM356.68 18.12L356.92 16.152C357.432 16.152 357.848 16.12 358.168 16.056C358.488 15.976 358.752 15.792 358.96 15.504C359.184 15.2 359.392 14.728 359.584 14.088C359.776 13.448 360 12.552 360.256 11.4L362.056 11.904C361.992 12.176 361.92 12.488 361.84 12.84C361.76 13.176 361.688 13.528 361.624 13.896C361.56 14.248 361.528 14.576 361.528 14.88C361.528 15.28 361.68 15.592 361.984 15.816C362.288 16.04 362.84 16.152 363.64 16.152C364.12 16.152 364.512 16.112 364.816 16.032C365.12 15.952 365.368 15.76 365.56 15.456C365.768 15.152 365.952 14.664 366.112 13.992C366.272 13.32 366.44 12.4 366.616 11.232L368.44 11.568C368.392 11.856 368.336 12.208 368.272 12.624C368.208 13.04 368.144 13.456 368.08 13.872C368.032 14.272 368.008 14.608 368.008 14.88C368.008 15.104 368.056 15.32 368.152 15.528C368.264 15.72 368.472 15.872 368.776 15.984C369.096 16.096 369.568 16.152 370.192 16.152C370.656 16.152 371.056 16.096 371.392 15.984C371.744 15.872 372.008 15.664 372.184 15.36C372.376 15.056 372.472 14.632 372.472 14.088C372.472 13.48 372.328 12.72 372.04 11.808C371.768 10.88 371.456 9.96 371.104 9.048L373.048 8.328C373.256 8.84 373.448 9.424 373.624 10.08C373.816 10.736 373.976 11.384 374.104 12.024C374.232 12.664 374.296 13.224 374.296 13.704C374.296 14.44 374.2 15.088 374.008 15.648C373.816 16.208 373.544 16.672 373.192 17.04C372.84 17.392 372.408 17.664 371.896 17.856C371.384 18.032 370.808 18.12 370.168 18.12C369.416 18.12 368.8 18.032 368.32 17.856C367.84 17.68 367.472 17.416 367.216 17.064C366.96 16.696 366.792 16.232 366.712 15.672H367.528C367.224 16.36 366.904 16.88 366.568 17.232C366.232 17.584 365.816 17.824 365.32 17.952C364.824 18.064 364.168 18.12 363.352 18.12C362.952 18.12 362.52 18.056 362.056 17.928C361.608 17.8 361.216 17.552 360.88 17.184C360.544 16.8 360.344 16.232 360.28 15.48L361 15.336C360.728 16.152 360.392 16.76 359.992 17.16C359.608 17.544 359.144 17.8 358.6 17.928C358.056 18.056 357.416 18.12 356.68 18.12ZM377.708 18L377.228 0.863999H379.172L379.652 18H377.708ZM397.329 18.504L397.953 16.536C399.521 16.536 400.817 16.48 401.841 16.368C402.865 16.24 403.657 16.048 404.217 15.792C404.793 15.52 405.193 15.176 405.417 14.76C405.641 14.328 405.737 13.808 405.705 13.2L405.249 0.863999H407.193L407.673 12.984C407.705 13.8 407.833 14.44 408.057 14.904C408.297 15.368 408.617 15.696 409.017 15.888C409.417 16.064 409.857 16.152 410.337 16.152C410.673 16.152 410.913 16.248 411.057 16.44C411.217 16.616 411.297 16.832 411.297 17.088C411.297 17.344 411.185 17.584 410.961 17.808C410.737 18.016 410.449 18.12 410.097 18.12C409.345 18.12 408.737 18.008 408.273 17.784C407.809 17.544 407.449 17.248 407.193 16.896C406.953 16.544 406.793 16.176 406.713 15.792L407.217 15.816C406.897 16.312 406.465 16.736 405.921 17.088C405.377 17.424 404.705 17.696 403.905 17.904C403.105 18.112 402.161 18.264 401.073 18.36C400.001 18.456 398.753 18.504 397.329 18.504ZM396.705 13.104L396.249 11.592C396.921 11.416 397.465 11.264 397.881 11.136C398.297 11.008 398.593 10.888 398.769 10.776C398.961 10.648 399.057 10.52 399.057 10.392C399.057 10.216 398.961 10.056 398.769 9.912C398.593 9.752 398.385 9.592 398.145 9.432C397.921 9.256 397.713 9.056 397.521 8.832C397.345 8.608 397.257 8.336 397.257 8.016C397.257 7.728 397.337 7.432 397.497 7.128C397.673 6.808 397.977 6.48 398.409 6.144C398.841 5.792 399.449 5.424 400.233 5.04L400.977 6.408C400.241 6.76 399.697 7.064 399.345 7.32C399.009 7.56 398.841 7.776 398.841 7.968C398.841 8.112 398.929 8.264 399.105 8.424C399.297 8.584 399.505 8.76 399.729 8.952C399.969 9.144 400.177 9.368 400.353 9.624C400.545 9.864 400.641 10.152 400.641 10.488C400.641 10.712 400.593 10.936 400.497 11.16C400.401 11.368 400.209 11.584 399.921 11.808C399.649 12.016 399.257 12.232 398.745 12.456C398.233 12.664 397.553 12.88 396.705 13.104ZM397.329 18.504C395.905 18.504 394.649 18.408 393.561 18.216C392.489 18.04 391.593 17.76 390.873 17.376C390.153 16.992 389.609 16.496 389.241 15.888C388.873 15.264 388.689 14.512 388.689 13.632C388.689 13.232 388.721 12.824 388.785 12.408C388.849 11.976 388.929 11.544 389.025 11.112C389.137 10.68 389.249 10.264 389.361 9.864L391.161 10.32C391.097 10.56 391.025 10.848 390.945 11.184C390.865 11.504 390.793 11.832 390.729 12.168C390.681 12.504 390.657 12.808 390.657 13.08C390.657 13.912 390.865 14.584 391.281 15.096C391.713 15.592 392.457 15.96 393.513 16.2C394.569 16.424 396.049 16.536 397.953 16.536L398.433 17.736L397.329 18.504ZM410.094 18.12L410.334 16.152C411.278 16.152 412.014 16.12 412.542 16.056C413.07 15.976 413.446 15.792 413.67 15.504C413.894 15.2 414.006 14.728 414.006 14.088C414.006 13.688 413.942 13.216 413.814 12.672C413.686 12.112 413.518 11.52 413.31 10.896C413.102 10.272 412.878 9.656 412.638 9.048L414.582 8.328C414.79 8.84 414.982 9.424 415.158 10.08C415.35 10.736 415.51 11.384 415.638 12.024C415.766 12.664 415.83 13.224 415.83 13.704C415.83 14.504 415.718 15.184 415.494 15.744C415.286 16.304 414.95 16.76 414.486 17.112C414.022 17.464 413.422 17.72 412.686 17.88C411.966 18.04 411.102 18.12 410.094 18.12ZM414.534 22.656C414.198 22.656 413.91 22.536 413.67 22.296C413.446 22.072 413.334 21.8 413.334 21.48C413.334 21.16 413.446 20.88 413.67 20.64C413.91 20.4 414.198 20.28 414.534 20.28C414.854 20.28 415.126 20.4 415.35 20.64C415.59 20.88 415.71 21.16 415.71 21.48C415.71 21.8 415.59 22.072 415.35 22.296C415.126 22.536 414.854 22.656 414.534 22.656ZM411.246 22.656C410.91 22.656 410.622 22.536 410.382 22.296C410.158 22.072 410.046 21.8 410.046 21.48C410.046 21.16 410.158 20.88 410.382 20.64C410.622 20.4 410.91 20.28 411.246 20.28C411.566 20.28 411.838 20.4 412.062 20.64C412.302 20.88 412.422 21.16 412.422 21.48C412.422 21.8 412.302 22.072 412.062 22.296C411.838 22.536 411.566 22.656 411.246 22.656ZM422.426 16.152C423.226 16.152 423.858 16.072 424.322 15.912C424.802 15.752 425.146 15.52 425.354 15.216C425.578 14.896 425.69 14.528 425.69 14.112C425.69 13.792 425.602 13.408 425.426 12.96C425.266 12.512 425.042 12.016 424.754 11.472C424.466 10.912 424.13 10.328 423.746 9.72C423.378 9.096 422.978 8.464 422.546 7.824L424.202 6.744C424.826 7.688 425.37 8.584 425.834 9.432C426.298 10.264 426.69 11.048 427.01 11.784C427.33 12.504 427.586 13.184 427.778 13.824C428.002 14.528 428.25 15.048 428.522 15.384C428.81 15.72 429.106 15.936 429.41 16.032C429.714 16.112 429.994 16.152 430.25 16.152C430.586 16.152 430.834 16.248 430.994 16.44C431.154 16.616 431.234 16.832 431.234 17.088C431.234 17.344 431.122 17.584 430.898 17.808C430.674 18.016 430.386 18.12 430.034 18.12C429.506 18.12 428.986 18.024 428.474 17.832C427.978 17.624 427.546 17.296 427.178 16.848C426.81 16.384 426.554 15.768 426.41 15L427.37 14.232C427.37 14.872 427.234 15.496 426.962 16.104C426.69 16.696 426.194 17.184 425.474 17.568C424.77 17.952 423.754 18.144 422.426 18.144C421.85 18.144 421.29 18.096 420.746 18C420.218 17.904 419.73 17.768 419.282 17.592C418.834 17.4 418.442 17.176 418.106 16.92L419.066 15.264C419.386 15.472 419.834 15.672 420.41 15.864C420.986 16.056 421.658 16.152 422.426 16.152ZM430.039 18.12L430.255 16.152C431.167 16.152 431.807 16.064 432.175 15.888C432.543 15.712 432.751 15.4 432.799 14.952C432.863 14.504 432.879 13.88 432.847 13.08L432.391 0.863999H434.335L434.815 12.864C434.847 13.712 434.815 14.464 434.719 15.12C434.639 15.776 434.431 16.328 434.095 16.776C433.775 17.224 433.287 17.56 432.631 17.784C431.991 18.008 431.127 18.12 430.039 18.12ZM443.743 18.024C443.743 17.448 443.823 16.808 443.983 16.104C444.143 15.4 444.399 14.624 444.751 13.776L446.479 14.448C446.223 15.12 446.031 15.736 445.903 16.296C445.775 16.856 445.711 17.376 445.711 17.856C445.711 18.736 445.927 19.448 446.359 19.992C446.807 20.552 447.399 20.96 448.135 21.216C448.887 21.472 449.711 21.6 450.607 21.6C451.695 21.6 452.607 21.48 453.343 21.24C454.079 21.016 454.663 20.704 455.095 20.304C455.527 19.904 455.831 19.448 456.007 18.936C456.199 18.44 456.295 17.92 456.295 17.376C456.295 16.672 456.239 16.008 456.127 15.384C456.031 14.76 455.895 14.152 455.719 13.56C455.559 12.952 455.383 12.336 455.191 11.712L457.135 11.184C457.311 11.792 457.447 12.288 457.543 12.672C457.639 13.04 457.711 13.336 457.759 13.56C457.823 13.784 457.879 13.984 457.927 14.16C458.103 14.752 458.335 15.192 458.623 15.48C458.911 15.752 459.239 15.936 459.607 16.032C459.991 16.112 460.383 16.152 460.783 16.152C461.119 16.152 461.359 16.248 461.503 16.44C461.663 16.616 461.743 16.832 461.743 17.088C461.743 17.344 461.631 17.584 461.407 17.808C461.183 18.016 460.895 18.12 460.543 18.12C459.871 18.12 459.311 18.008 458.863 17.784C458.415 17.544 458.063 17.248 457.807 16.896C457.567 16.544 457.407 16.176 457.327 15.792L458.311 17.016C458.263 17.832 458.103 18.624 457.831 19.392C457.575 20.176 457.159 20.88 456.583 21.504C456.007 22.144 455.223 22.648 454.231 23.016C453.255 23.384 452.023 23.568 450.535 23.568C449.623 23.568 448.759 23.456 447.943 23.232C447.127 23.008 446.399 22.664 445.759 22.2C445.135 21.752 444.639 21.176 444.271 20.472C443.919 19.784 443.743 18.968 443.743 18.024ZM450.991 8.448C450.655 8.448 450.367 8.336 450.127 8.112C449.903 7.872 449.791 7.592 449.791 7.272C449.791 6.952 449.903 6.672 450.127 6.432C450.367 6.192 450.655 6.072 450.991 6.072C451.311 6.072 451.583 6.192 451.807 6.432C452.047 6.672 452.167 6.952 452.167 7.272C452.167 7.592 452.047 7.872 451.807 8.112C451.583 8.336 451.311 8.448 450.991 8.448ZM460.555 18.12L460.795 16.152H462.643C463.971 16.152 464.955 16.08 465.595 15.936C466.235 15.792 466.651 15.6 466.843 15.36C467.051 15.12 467.155 14.872 467.155 14.616C467.155 14.232 467.011 13.808 466.723 13.344C466.435 12.88 466.067 12.408 465.619 11.928C465.171 11.432 464.691 10.944 464.179 10.464C463.683 9.984 463.211 9.544 462.763 9.144C462.315 8.744 461.947 8.4 461.659 8.112C461.371 7.808 461.227 7.592 461.227 7.464C461.227 7.224 461.243 6.992 461.275 6.768C461.323 6.544 461.379 6.336 461.443 6.144C461.523 5.952 461.619 5.8 461.731 5.688C462.051 5.352 462.491 5 463.051 4.632C463.611 4.248 464.259 3.864 464.995 3.48C465.731 3.08 466.515 2.68 467.347 2.28C468.179 1.864 469.019 1.448 469.867 1.032L470.683 2.808C469.915 3.192 469.147 3.576 468.379 3.96C467.611 4.328 466.867 4.696 466.147 5.064C465.427 5.432 464.747 5.808 464.107 6.192C463.483 6.56 462.915 6.936 462.403 7.32L462.547 6.504C463.267 7.112 463.947 7.696 464.587 8.256C465.227 8.816 465.835 9.392 466.411 9.984C466.987 10.56 467.523 11.184 468.019 11.856C468.515 12.528 468.979 13.272 469.411 14.088C469.747 14.712 470.139 15.168 470.587 15.456C471.035 15.744 471.475 15.936 471.907 16.032C472.355 16.112 472.715 16.152 472.987 16.152C473.323 16.152 473.563 16.248 473.707 16.44C473.867 16.616 473.947 16.832 473.947 17.088C473.947 17.344 473.835 17.584 473.611 17.808C473.387 18.016 473.099 18.12 472.747 18.12C472.315 18.12 471.803 18.056 471.211 17.928C470.635 17.784 470.067 17.512 469.507 17.112C468.947 16.712 468.483 16.104 468.115 15.288L468.835 15.576C468.595 16.008 468.315 16.384 467.995 16.704C467.691 17.008 467.299 17.272 466.819 17.496C466.339 17.704 465.755 17.864 465.067 17.976C464.379 18.072 463.539 18.12 462.547 18.12H460.555ZM472.742 18.12L472.982 16.152C473.926 16.152 474.662 16.12 475.19 16.056C475.718 15.976 476.094 15.792 476.318 15.504C476.542 15.2 476.654 14.728 476.654 14.088C476.654 13.688 476.59 13.216 476.462 12.672C476.334 12.112 476.166 11.52 475.958 10.896C475.75 10.272 475.526 9.656 475.286 9.048L477.23 8.328C477.438 8.84 477.63 9.424 477.806 10.08C477.998 10.736 478.158 11.384 478.286 12.024C478.414 12.664 478.478 13.224 478.478 13.704C478.478 14.504 478.366 15.184 478.142 15.744C477.934 16.304 477.598 16.76 477.134 17.112C476.67 17.464 476.07 17.72 475.334 17.88C474.614 18.04 473.75 18.12 472.742 18.12ZM477.182 22.656C476.846 22.656 476.558 22.536 476.318 22.296C476.094 22.072 475.982 21.8 475.982 21.48C475.982 21.16 476.094 20.88 476.318 20.64C476.558 20.4 476.846 20.28 477.182 20.28C477.502 20.28 477.774 20.4 477.998 20.64C478.238 20.88 478.358 21.16 478.358 21.48C478.358 21.8 478.238 22.072 477.998 22.296C477.774 22.536 477.502 22.656 477.182 22.656ZM473.894 22.656C473.558 22.656 473.27 22.536 473.03 22.296C472.806 22.072 472.694 21.8 472.694 21.48C472.694 21.16 472.806 20.88 473.03 20.64C473.27 20.4 473.558 20.28 473.894 20.28C474.214 20.28 474.486 20.4 474.71 20.64C474.95 20.88 475.07 21.16 475.07 21.48C475.07 21.8 474.95 22.072 474.71 22.296C474.486 22.536 474.214 22.656 473.894 22.656ZM488.512 27.432C488.176 26.2 487.888 24.992 487.648 23.808C487.408 22.64 487.224 21.592 487.096 20.664C486.968 19.736 486.904 19.048 486.904 18.6C486.904 17.416 487.096 16.336 487.48 15.36C487.864 14.384 488.36 13.528 488.968 12.792C489.576 12.04 490.232 11.408 490.936 10.896C491.64 10.368 492.32 9.976 492.976 9.72C493.648 9.448 494.216 9.312 494.68 9.312C495.08 9.312 495.432 9.4 495.736 9.576C496.04 9.752 496.336 10.096 496.624 10.608C496.912 11.12 497.216 11.872 497.536 12.864C497.84 13.776 498.128 14.472 498.4 14.952C498.672 15.416 498.968 15.736 499.288 15.912C499.608 16.072 499.976 16.152 500.392 16.152C500.728 16.152 500.968 16.248 501.112 16.44C501.272 16.616 501.352 16.832 501.352 17.088C501.352 17.344 501.24 17.584 501.016 17.808C500.792 18.016 500.504 18.12 500.152 18.12C499.528 18.12 498.992 18.008 498.544 17.784C498.112 17.56 497.736 17.256 497.416 16.872L497.968 16.416C497.776 16.88 497.528 17.264 497.224 17.568C496.936 17.856 496.608 18.072 496.24 18.216C495.888 18.36 495.512 18.432 495.112 18.432C494.648 18.432 494.168 18.344 493.672 18.168C493.176 18.008 492.688 17.768 492.208 17.448C491.728 17.112 491.272 16.704 490.84 16.224C490.424 15.744 490.056 15.2 489.736 14.592L489.976 14.64C489.528 15.264 489.232 15.944 489.088 16.68C488.944 17.4 488.872 18.04 488.872 18.6C488.872 19.048 488.92 19.616 489.016 20.304C489.112 21.008 489.232 21.752 489.376 22.536C489.536 23.32 489.704 24.096 489.88 24.864C490.072 25.648 490.248 26.352 490.408 26.976L488.512 27.432ZM495.304 16.464C495.592 16.464 495.824 16.408 496 16.296C496.192 16.184 496.32 16.016 496.384 15.792C496.448 15.568 496.424 15.288 496.312 14.952C496.12 14.376 495.944 13.872 495.784 13.44C495.624 12.992 495.464 12.624 495.304 12.336C495.16 12.032 495.008 11.808 494.848 11.664C494.688 11.52 494.52 11.448 494.344 11.448C494.168 11.448 493.944 11.488 493.672 11.568C493.416 11.648 493.136 11.768 492.832 11.928C492.544 12.088 492.248 12.288 491.944 12.528C491.64 12.768 491.352 13.048 491.08 13.368L491.104 13.176C491.456 13.912 491.88 14.528 492.376 15.024C492.888 15.52 493.4 15.888 493.912 16.128C494.44 16.352 494.904 16.464 495.304 16.464ZM500.141 18.12L500.357 16.152C501.269 16.152 501.909 16.064 502.277 15.888C502.645 15.712 502.853 15.4 502.901 14.952C502.965 14.504 502.981 13.88 502.949 13.08L502.493 0.863999H504.437L504.917 12.864C504.949 13.712 504.917 14.464 504.821 15.12C504.741 15.776 504.533 16.328 504.197 16.776C503.877 17.224 503.389 17.56 502.733 17.784C502.093 18.008 501.229 18.12 500.141 18.12ZM515.333 18L514.853 0.863999H516.797L517.277 18H515.333ZM519.684 16.92L520.644 15.264C520.964 15.472 521.412 15.672 521.988 15.864C522.564 16.056 523.236 16.152 524.004 16.152C524.804 16.152 525.436 16.072 525.9 15.912C526.38 15.752 526.724 15.52 526.932 15.216C527.156 14.896 527.268 14.528 527.268 14.112C527.268 13.792 527.196 13.4 527.052 12.936C526.924 12.456 526.636 11.816 526.188 11.016C525.74 10.2 525.052 9.136 524.124 7.824L525.78 6.744C526.628 7.912 527.3 8.968 527.796 9.912C528.308 10.856 528.668 11.688 528.876 12.408C529.1 13.112 529.212 13.72 529.212 14.232C529.212 14.872 529.052 15.496 528.732 16.104C528.412 16.696 527.876 17.184 527.124 17.568C526.372 17.952 525.332 18.144 524.004 18.144C523.428 18.144 522.868 18.096 522.324 18C521.796 17.904 521.308 17.768 520.86 17.592C520.412 17.4 520.02 17.176 519.684 16.92ZM524.028 4.56C523.692 4.56 523.404 4.448 523.164 4.224C522.94 3.984 522.828 3.704 522.828 3.384C522.828 3.064 522.94 2.784 523.164 2.544C523.404 2.304 523.692 2.184 524.028 2.184C524.348 2.184 524.62 2.304 524.844 2.544C525.084 2.784 525.204 3.064 525.204 3.384C525.204 3.704 525.084 3.984 524.844 4.224C524.62 4.448 524.348 4.56 524.028 4.56ZM532.489 18L532.009 0.863999H533.953L534.433 18H532.489ZM531.841 25.272L531.553 23.976C531.969 23.88 532.305 23.8 532.561 23.736C532.817 23.672 533.105 23.6 533.425 23.52L533.305 24.024C532.889 23.896 532.489 23.624 532.105 23.208C531.737 22.792 531.553 22.32 531.553 21.792C531.553 21.312 531.665 20.904 531.889 20.568C532.129 20.248 532.433 20.008 532.801 19.848C533.185 19.688 533.593 19.608 534.025 19.608C534.201 19.608 534.385 19.624 534.577 19.656C534.785 19.688 534.977 19.736 535.153 19.8L534.961 21C534.801 20.968 534.649 20.936 534.505 20.904C534.361 20.872 534.201 20.856 534.025 20.856C533.657 20.856 533.369 20.928 533.161 21.072C532.953 21.232 532.849 21.448 532.849 21.72C532.849 22.056 532.953 22.344 533.161 22.584C533.385 22.824 533.633 23.008 533.905 23.136C534.193 23.28 534.425 23.352 534.601 23.352L533.617 23.448C534.049 23.336 534.449 23.216 534.817 23.088C535.201 22.976 535.545 22.864 535.849 22.752L536.233 23.976C535.849 24.12 535.393 24.272 534.865 24.432C534.353 24.592 533.833 24.744 533.305 24.888C532.777 25.032 532.289 25.16 531.841 25.272ZM233.635 47.1364C233.214 47.1364 232.854 46.9858 232.553 46.6847C232.251 46.3835 232.101 46.0227 232.101 45.6023C232.101 45.1818 232.251 44.821 232.553 44.5199C232.854 44.2187 233.214 44.0682 233.635 44.0682C234.055 44.0682 234.416 44.2187 234.717 44.5199C235.018 44.821 235.169 45.1818 235.169 45.6023C235.169 45.8807 235.098 46.1364 234.956 46.3693C234.82 46.6023 234.635 46.7898 234.402 46.9318C234.175 47.0682 233.919 47.1364 233.635 47.1364ZM238.786 56.432C238.45 55.2 238.162 53.992 237.922 52.808C237.682 51.64 237.498 50.592 237.37 49.664C237.242 48.736 237.178 48.048 237.178 47.6C237.178 46.416 237.37 45.336 237.754 44.36C238.138 43.384 238.634 42.528 239.242 41.792C239.85 41.04 240.506 40.408 241.21 39.896C241.914 39.368 242.594 38.976 243.25 38.72C243.922 38.448 244.49 38.312 244.954 38.312C245.354 38.312 245.706 38.4 246.01 38.576C246.314 38.752 246.61 39.096 246.898 39.608C247.186 40.12 247.49 40.872 247.81 41.864C248.114 42.776 248.402 43.472 248.674 43.952C248.946 44.416 249.242 44.736 249.562 44.912C249.882 45.072 250.25 45.152 250.666 45.152C251.002 45.152 251.242 45.248 251.386 45.44C251.546 45.616 251.626 45.832 251.626 46.088C251.626 46.344 251.514 46.584 251.29 46.808C251.066 47.016 250.778 47.12 250.426 47.12C249.802 47.12 249.266 47.008 248.818 46.784C248.386 46.56 248.01 46.256 247.69 45.872L248.242 45.416C248.05 45.88 247.802 46.264 247.498 46.568C247.21 46.856 246.882 47.072 246.514 47.216C246.162 47.36 245.786 47.432 245.386 47.432C244.922 47.432 244.442 47.344 243.946 47.168C243.45 47.008 242.962 46.768 242.482 46.448C242.002 46.112 241.546 45.704 241.114 45.224C240.698 44.744 240.33 44.2 240.01 43.592L240.25 43.64C239.802 44.264 239.506 44.944 239.362 45.68C239.218 46.4 239.146 47.04 239.146 47.6C239.146 48.048 239.194 48.616 239.29 49.304C239.386 50.008 239.506 50.752 239.65 51.536C239.81 52.32 239.978 53.096 240.154 53.864C240.346 54.648 240.522 55.352 240.682 55.976L238.786 56.432ZM245.578 45.464C245.866 45.464 246.098 45.408 246.274 45.296C246.466 45.184 246.594 45.016 246.658 44.792C246.722 44.568 246.698 44.288 246.586 43.952C246.394 43.376 246.218 42.872 246.058 42.44C245.898 41.992 245.738 41.624 245.578 41.336C245.434 41.032 245.282 40.808 245.122 40.664C244.962 40.52 244.794 40.448 244.618 40.448C244.442 40.448 244.218 40.488 243.946 40.568C243.69 40.648 243.41 40.768 243.105 40.928C242.818 41.088 242.522 41.288 242.218 41.528C241.914 41.768 241.626 42.048 241.354 42.368L241.378 42.176C241.73 42.912 242.154 43.528 242.65 44.024C243.162 44.52 243.674 44.888 244.186 45.128C244.714 45.352 245.178 45.464 245.578 45.464ZM257.782 52.208C256.774 52.208 255.862 51.976 255.046 51.512C254.23 51.048 253.582 50.344 253.102 49.4C252.622 48.472 252.382 47.304 252.382 45.896C252.382 44.6 252.534 43.408 252.838 42.32C253.142 41.232 253.542 40.296 254.038 39.512C254.55 38.712 255.11 38.096 255.718 37.664C256.326 37.232 256.926 37.016 257.518 37.016C258.046 37.016 258.518 37.168 258.934 37.472C259.35 37.776 259.678 38.2 259.918 38.744C260.158 39.288 260.278 39.936 260.278 40.688C260.278 41.36 260.174 42.032 259.966 42.704C259.758 43.376 259.366 43.984 258.79 44.528C258.23 45.072 257.422 45.488 256.366 45.776L257.926 44.456C258.438 44.584 258.95 44.704 259.462 44.816C259.99 44.912 260.526 44.992 261.07 45.056C261.63 45.12 262.214 45.152 262.822 45.152C263.158 45.152 263.398 45.248 263.542 45.44C263.702 45.616 263.782 45.832 263.782 46.088C263.782 46.344 263.67 46.584 263.446 46.808C263.222 47.016 262.934 47.12 262.582 47.12C262.15 47.12 261.686 47.096 261.19 47.048C260.694 47 260.198 46.944 259.702 46.88C259.206 46.8 258.734 46.712 258.286 46.616L260.374 46.544C260.774 46.976 261.046 47.44 261.19 47.936C261.35 48.448 261.39 48.952 261.31 49.448C261.246 49.96 261.062 50.424 260.758 50.84C260.47 51.256 260.078 51.584 259.582 51.824C259.086 52.08 258.486 52.208 257.782 52.208ZM250.414 47.12L250.654 45.152C250.99 45.152 251.326 45.152 251.662 45.152C251.998 45.152 252.318 45.144 252.622 45.128L252.718 46.904C252.35 46.968 251.966 47.016 251.566 47.048C251.182 47.096 250.798 47.12 250.414 47.12ZM257.83 50.24C258.118 50.24 258.398 50.184 258.67 50.072C258.958 49.976 259.19 49.8 259.366 49.544C259.558 49.304 259.654 48.976 259.654 48.56C259.654 48.16 259.55 47.792 259.342 47.456C259.15 47.136 258.806 46.872 258.31 46.664C257.814 46.456 257.11 46.352 256.198 46.352C256.006 46.352 255.79 46.368 255.55 46.4C255.326 46.416 255.094 46.448 254.854 46.496C254.614 46.528 254.366 46.576 254.11 46.64V45.008C254.718 44.928 255.27 44.808 255.766 44.648C256.278 44.472 256.726 44.232 257.11 43.928C257.494 43.624 257.79 43.224 257.998 42.728C258.206 42.232 258.31 41.624 258.31 40.904C258.31 40.664 258.278 40.392 258.214 40.088C258.166 39.784 258.07 39.528 257.926 39.32C257.782 39.096 257.59 38.984 257.35 38.984C257.11 38.984 256.814 39.144 256.462 39.464C256.126 39.784 255.79 40.232 255.454 40.808C255.134 41.384 254.862 42.072 254.638 42.872C254.43 43.656 254.326 44.52 254.326 45.464C254.326 46.504 254.438 47.336 254.662 47.96C254.902 48.6 255.206 49.08 255.574 49.4C255.942 49.736 256.326 49.96 256.726 50.072C257.126 50.184 257.494 50.24 257.83 50.24ZM262.578 47.12L262.818 45.152C263.618 45.152 264.242 45.096 264.69 44.984C265.138 44.856 265.474 44.624 265.698 44.288C265.938 43.936 266.13 43.432 266.274 42.776C266.418 42.12 266.594 41.264 266.802 40.208L268.674 40.568C268.61 40.856 268.538 41.176 268.458 41.528C268.378 41.88 268.306 42.232 268.242 42.584C268.194 42.92 268.17 43.216 268.17 43.472C268.17 43.712 268.186 43.936 268.218 44.144C268.25 44.352 268.37 44.528 268.578 44.672C268.786 44.816 269.138 44.936 269.634 45.032C270.13 45.112 270.842 45.152 271.77 45.152C272.106 45.152 272.346 45.248 272.49 45.44C272.65 45.616 272.73 45.832 272.73 46.088C272.73 46.344 272.618 46.584 272.394 46.808C272.17 47.016 271.882 47.12 271.53 47.12C270.554 47.12 269.778 47.072 269.202 46.976C268.626 46.864 268.186 46.704 267.882 46.496C267.594 46.288 267.386 46.032 267.258 45.728C267.146 45.408 267.058 45.04 266.994 44.624L267.714 44.672C267.458 45.184 267.178 45.6 266.874 45.92C266.586 46.24 266.25 46.488 265.866 46.664C265.482 46.84 265.018 46.96 264.474 47.024C263.946 47.088 263.314 47.12 262.578 47.12ZM268.626 51.656C268.29 51.656 268.002 51.536 267.762 51.296C267.538 51.072 267.426 50.8 267.426 50.48C267.426 50.16 267.538 49.88 267.762 49.64C268.002 49.4 268.29 49.28 268.626 49.28C268.946 49.28 269.218 49.4 269.442 49.64C269.682 49.88 269.802 50.16 269.802 50.48C269.802 50.8 269.682 51.072 269.442 51.296C269.218 51.536 268.946 51.656 268.626 51.656ZM265.338 51.656C265.002 51.656 264.714 51.536 264.474 51.296C264.25 51.072 264.138 50.8 264.138 50.48C264.138 50.16 264.25 49.88 264.474 49.64C264.714 49.4 265.002 49.28 265.338 49.28C265.658 49.28 265.93 49.4 266.154 49.64C266.394 49.88 266.514 50.16 266.514 50.48C266.514 50.8 266.394 51.072 266.154 51.296C265.93 51.536 265.658 51.656 265.338 51.656ZM271.531 47.12L271.747 45.152C272.659 45.152 273.299 45.064 273.667 44.888C274.035 44.712 274.243 44.4 274.291 43.952C274.355 43.504 274.371 42.88 274.339 42.08L273.931 29.864H275.923L276.307 42.032C276.339 42.848 276.467 43.488 276.691 43.952C276.931 44.4 277.251 44.712 277.651 44.888C278.051 45.064 278.491 45.152 278.971 45.152C279.307 45.152 279.547 45.248 279.691 45.44C279.851 45.616 279.931 45.832 279.931 46.088C279.931 46.344 279.819 46.584 279.595 46.808C279.371 47.016 279.083 47.12 278.731 47.12C278.059 47.12 277.499 47.016 277.051 46.808C276.619 46.584 276.275 46.304 276.019 45.968C275.779 45.616 275.619 45.248 275.539 44.864L276.043 44.912C275.883 45.392 275.619 45.8 275.251 46.136C274.899 46.456 274.419 46.704 273.811 46.88C273.203 47.04 272.443 47.12 271.531 47.12ZM278.727 47.12L278.967 45.152C279.975 45.152 280.751 45.144 281.295 45.128C281.855 45.112 282.263 45.096 282.519 45.08C282.775 45.048 282.951 45.032 283.047 45.032C282.759 44.872 282.423 44.624 282.039 44.288C281.655 43.936 281.319 43.496 281.031 42.968C280.743 42.424 280.599 41.784 280.599 41.048C280.599 40.136 280.807 39.336 281.223 38.648C281.655 37.96 282.239 37.424 282.975 37.04C283.727 36.656 284.583 36.464 285.543 36.464C285.911 36.464 286.303 36.496 286.719 36.56C287.135 36.624 287.535 36.72 287.919 36.848L287.511 38.696C287.191 38.616 286.855 38.552 286.503 38.504C286.151 38.456 285.831 38.432 285.543 38.432C284.967 38.432 284.455 38.544 284.007 38.768C283.559 38.976 283.207 39.272 282.951 39.656C282.695 40.04 282.567 40.504 282.567 41.048C282.567 41.464 282.655 41.848 282.831 42.2C283.007 42.536 283.239 42.84 283.527 43.112C283.815 43.384 284.135 43.608 284.487 43.784C284.839 43.96 285.183 44.096 285.519 44.192C285.871 44.288 286.183 44.328 286.455 44.312C286.647 44.248 286.823 44.192 286.983 44.144C287.143 44.096 287.319 44.04 287.511 43.976C287.719 43.896 287.967 43.792 288.255 43.664C288.559 43.536 288.943 43.368 289.407 43.16L290.079 44.912C289.007 45.344 287.911 45.728 286.791 46.064C285.687 46.4 284.479 46.664 283.167 46.856C281.871 47.032 280.391 47.12 278.727 47.12ZM298.267 47.024C298.267 46.64 298.299 46.232 298.363 45.8C298.443 45.352 298.555 44.88 298.699 44.384C298.859 43.872 299.051 43.336 299.275 42.776L301.003 43.448C300.843 43.896 300.699 44.32 300.571 44.72C300.459 45.12 300.371 45.496 300.307 45.848C300.259 46.2 300.235 46.536 300.235 46.856C300.235 47.624 300.435 48.288 300.835 48.848C301.251 49.408 301.819 49.84 302.539 50.144C303.259 50.448 304.099 50.6 305.059 50.6C306.227 50.6 307.187 50.432 307.939 50.096C308.707 49.76 309.299 49.248 309.715 48.56C310.147 47.872 310.435 47 310.579 45.944C310.723 44.872 310.771 43.616 310.723 42.176L310.267 29.864H312.259L312.667 42.68C312.699 43.752 312.651 44.784 312.523 45.776C312.411 46.752 312.187 47.648 311.851 48.464C311.515 49.296 311.051 50.016 310.459 50.624C309.867 51.248 309.123 51.728 308.227 52.064C307.331 52.4 306.251 52.568 304.987 52.568C304.139 52.568 303.315 52.456 302.515 52.232C301.715 52.008 300.995 51.672 300.355 51.224C299.715 50.776 299.203 50.2 298.819 49.496C298.451 48.808 298.267 47.984 298.267 47.024ZM315.626 52.52L315.194 50.552C316.154 50.424 317.034 50.24 317.834 50C318.65 49.776 319.346 49.448 319.922 49.016C320.514 48.584 320.97 48.016 321.29 47.312C321.61 46.608 321.77 45.728 321.77 44.672C321.77 43.584 321.57 42.68 321.17 41.96C320.77 41.24 320.25 40.88 319.61 40.88C319.274 40.88 318.962 41.008 318.674 41.264C318.386 41.52 318.146 41.864 317.954 42.296C317.778 42.728 317.69 43.2 317.69 43.712C317.69 44 317.754 44.24 317.882 44.432C318.01 44.608 318.194 44.752 318.434 44.864C318.69 44.96 319.01 45.032 319.394 45.08C319.778 45.128 320.226 45.152 320.738 45.152H325.802C326.138 45.152 326.378 45.248 326.522 45.44C326.682 45.616 326.762 45.832 326.762 46.088C326.762 46.344 326.65 46.584 326.426 46.808C326.202 47.016 325.914 47.12 325.562 47.12H319.826C319.106 47.12 318.434 47.016 317.81 46.808C317.202 46.6 316.706 46.28 316.322 45.848C315.954 45.4 315.77 44.816 315.77 44.096C315.77 43.424 315.874 42.784 316.082 42.176C316.29 41.552 316.57 41 316.922 40.52C317.29 40.024 317.714 39.632 318.194 39.344C318.69 39.056 319.226 38.912 319.802 38.912C320.538 38.912 321.194 39.128 321.77 39.56C322.346 39.992 322.802 40.648 323.138 41.528C323.474 42.392 323.642 43.488 323.642 44.816C323.642 46.304 323.338 47.584 322.73 48.656C322.138 49.744 321.242 50.608 320.042 51.248C318.858 51.888 317.386 52.312 315.626 52.52ZM348.331 47.12C347.915 47.12 347.387 47.08 346.747 47C346.123 46.904 345.483 46.744 344.827 46.52C344.187 46.296 343.643 45.984 343.195 45.584L345.163 44.6C345.723 44.824 346.299 44.976 346.891 45.056C347.499 45.12 348.059 45.152 348.571 45.152C348.907 45.152 349.147 45.248 349.291 45.44C349.451 45.616 349.531 45.832 349.531 46.088C349.531 46.344 349.419 46.584 349.195 46.808C348.971 47.016 348.683 47.12 348.331 47.12ZM337.171 47.432C335.763 47.432 334.579 47.376 333.619 47.264C332.675 47.168 331.907 47.016 331.315 46.808C330.723 46.6 330.275 46.336 329.971 46.016C329.667 45.696 329.459 45.312 329.347 44.864L329.899 44.672C329.499 45.44 329.067 46 328.603 46.352C328.139 46.688 327.651 46.904 327.139 47C326.643 47.08 326.115 47.12 325.555 47.12L325.795 45.152C326.355 45.152 326.811 45.072 327.163 44.912C327.531 44.752 327.827 44.488 328.051 44.12C328.291 43.752 328.499 43.264 328.675 42.656C328.851 42.048 329.043 41.296 329.251 40.4L331.003 40.856C330.907 41.224 330.819 41.576 330.739 41.912C330.659 42.248 330.595 42.544 330.547 42.8C330.515 43.04 330.499 43.232 330.499 43.376C330.499 43.76 330.587 44.088 330.763 44.36C330.939 44.616 331.275 44.832 331.771 45.008C332.267 45.168 332.979 45.288 333.907 45.368C334.851 45.432 336.083 45.464 337.603 45.464C338.659 45.464 339.603 45.4 340.435 45.272C341.267 45.144 341.963 44.952 342.523 44.696C343.099 44.424 343.539 44.096 343.843 43.712C344.147 43.328 344.299 42.888 344.299 42.392C344.299 42.04 344.211 41.696 344.035 41.36C343.859 41.008 343.587 40.712 343.219 40.472C342.851 40.232 342.363 40.112 341.755 40.112C340.987 40.112 340.219 40.312 339.451 40.712C338.699 41.112 337.979 41.616 337.291 42.224C336.619 42.816 336.019 43.424 335.491 44.048C334.963 44.672 334.539 45.216 334.219 45.68L332.131 45.608C332.643 44.776 333.251 43.928 333.955 43.064C334.675 42.184 335.459 41.376 336.307 40.64C337.171 39.888 338.075 39.288 339.019 38.84C339.963 38.376 340.923 38.144 341.899 38.144C342.779 38.144 343.531 38.328 344.155 38.696C344.795 39.048 345.283 39.528 345.619 40.136C345.971 40.744 346.147 41.432 346.147 42.2C346.147 43.144 345.867 44.016 345.307 44.816C344.763 45.6 343.835 46.232 342.523 46.712C341.211 47.192 339.427 47.432 337.171 47.432ZM363.624 47.12C362.952 47.12 362.336 47.08 361.776 47C361.216 46.904 360.712 46.736 360.264 46.496C359.816 46.256 359.44 45.912 359.136 45.464C358.832 45 358.6 44.392 358.44 43.64L359.856 42.8C360.064 43.44 360.32 43.928 360.624 44.264C360.928 44.6 361.336 44.832 361.848 44.96C362.376 45.088 363.048 45.152 363.864 45.152C364.2 45.152 364.44 45.248 364.584 45.44C364.744 45.616 364.824 45.832 364.824 46.088C364.824 46.344 364.712 46.584 364.488 46.808C364.264 47.016 363.976 47.12 363.624 47.12ZM348.336 47.12L348.552 45.152C349.384 45.152 350.2 45.088 351 44.96C351.8 44.832 352.584 44.648 353.352 44.408C354.12 44.168 354.856 43.88 355.56 43.544C356.28 43.192 356.96 42.792 357.6 42.344C357.184 41.976 356.704 41.656 356.16 41.384C355.616 41.112 355.016 40.904 354.36 40.76C353.72 40.6 353.04 40.52 352.32 40.52C352.064 40.52 351.824 40.528 351.6 40.544C351.376 40.56 351.152 40.592 350.928 40.64C350.704 40.672 350.448 40.72 350.16 40.784L349.776 38.96C350.208 38.832 350.64 38.736 351.072 38.672C351.504 38.592 351.92 38.552 352.32 38.552C353.152 38.552 353.904 38.656 354.576 38.864C355.248 39.056 355.856 39.296 356.4 39.584C356.96 39.872 357.48 40.16 357.96 40.448C358.456 40.736 358.936 40.984 359.4 41.192C359.864 41.384 360.344 41.48 360.84 41.48H361.344L361.512 43.208C360.824 43.208 360.192 43.304 359.616 43.496C359.04 43.688 358.472 43.936 357.912 44.24C357.368 44.528 356.792 44.84 356.184 45.176C355.576 45.496 354.904 45.808 354.168 46.112C353.432 46.4 352.584 46.64 351.624 46.832C350.68 47.024 349.584 47.12 348.336 47.12ZM363.617 47.12L363.833 45.152C364.745 45.152 365.385 45.064 365.753 44.888C366.121 44.712 366.329 44.4 366.377 43.952C366.441 43.504 366.457 42.88 366.425 42.08L366.017 29.864H368.009L368.393 42.032C368.425 42.848 368.553 43.488 368.777 43.952C369.017 44.4 369.337 44.712 369.737 44.888C370.137 45.064 370.577 45.152 371.057 45.152C371.393 45.152 371.633 45.248 371.777 45.44C371.937 45.616 372.017 45.832 372.017 46.088C372.017 46.344 371.905 46.584 371.681 46.808C371.457 47.016 371.169 47.12 370.817 47.12C370.145 47.12 369.585 47.016 369.137 46.808C368.705 46.584 368.361 46.304 368.105 45.968C367.865 45.616 367.705 45.248 367.625 44.864L368.129 44.912C367.969 45.392 367.705 45.8 367.337 46.136C366.985 46.456 366.505 46.704 365.897 46.88C365.289 47.04 364.529 47.12 363.617 47.12ZM370.812 47.12L371.029 45.152C371.94 45.152 372.581 45.064 372.949 44.888C373.317 44.712 373.525 44.4 373.573 43.952C373.637 43.504 373.653 42.88 373.621 42.08L373.165 29.864H375.109L375.589 41.864C375.621 42.712 375.589 43.464 375.493 44.12C375.413 44.776 375.205 45.328 374.869 45.776C374.549 46.224 374.061 46.56 373.405 46.784C372.765 47.008 371.901 47.12 370.812 47.12ZM384.517 47.024C384.517 46.64 384.549 46.232 384.613 45.8C384.693 45.352 384.805 44.88 384.949 44.384C385.109 43.872 385.301 43.336 385.525 42.776L387.253 43.448C387.093 43.896 386.949 44.32 386.821 44.72C386.709 45.12 386.621 45.496 386.557 45.848C386.509 46.2 386.485 46.536 386.485 46.856C386.485 47.624 386.685 48.288 387.085 48.848C387.501 49.408 388.069 49.84 388.789 50.144C389.509 50.448 390.349 50.6 391.309 50.6C392.477 50.6 393.437 50.432 394.189 50.096C394.957 49.76 395.549 49.248 395.965 48.56C396.397 47.872 396.685 47 396.829 45.944C396.973 44.872 397.021 43.616 396.973 42.176L396.517 29.864H398.509L398.917 42.68C398.949 43.752 398.901 44.784 398.773 45.776C398.661 46.752 398.437 47.648 398.101 48.464C397.765 49.296 397.301 50.016 396.709 50.624C396.117 51.248 395.373 51.728 394.477 52.064C393.581 52.4 392.501 52.568 391.237 52.568C390.389 52.568 389.565 52.456 388.765 52.232C387.965 52.008 387.245 51.672 386.605 51.224C385.965 50.776 385.453 50.2 385.069 49.496C384.701 48.808 384.517 47.984 384.517 47.024ZM401.876 52.52L401.444 50.552C402.404 50.424 403.284 50.24 404.084 50C404.9 49.776 405.596 49.448 406.172 49.016C406.764 48.584 407.22 48.016 407.54 47.312C407.86 46.608 408.02 45.728 408.02 44.672C408.02 43.584 407.82 42.68 407.42 41.96C407.02 41.24 406.5 40.88 405.86 40.88C405.524 40.88 405.212 41.008 404.924 41.264C404.636 41.52 404.396 41.864 404.204 42.296C404.028 42.728 403.94 43.2 403.94 43.712C403.94 44 404.004 44.24 404.132 44.432C404.26 44.608 404.444 44.752 404.684 44.864C404.94 44.96 405.26 45.032 405.644 45.08C406.028 45.128 406.476 45.152 406.988 45.152H412.052C412.388 45.152 412.628 45.248 412.772 45.44C412.932 45.616 413.012 45.832 413.012 46.088C413.012 46.344 412.9 46.584 412.676 46.808C412.452 47.016 412.164 47.12 411.812 47.12H406.076C405.356 47.12 404.684 47.016 404.06 46.808C403.452 46.6 402.956 46.28 402.572 45.848C402.204 45.4 402.02 44.816 402.02 44.096C402.02 43.424 402.124 42.784 402.332 42.176C402.54 41.552 402.82 41 403.172 40.52C403.54 40.024 403.964 39.632 404.444 39.344C404.94 39.056 405.476 38.912 406.052 38.912C406.788 38.912 407.444 39.128 408.02 39.56C408.596 39.992 409.052 40.648 409.388 41.528C409.724 42.392 409.892 43.488 409.892 44.816C409.892 46.304 409.588 47.584 408.98 48.656C408.388 49.744 407.492 50.608 406.292 51.248C405.108 51.888 403.636 52.312 401.876 52.52ZM411.805 47.12L412.045 45.152C412.717 45.152 413.245 45.096 413.629 44.984C414.013 44.856 414.301 44.624 414.493 44.288C414.701 43.936 414.877 43.432 415.021 42.776C415.165 42.12 415.341 41.264 415.549 40.208L417.421 40.568C417.357 40.856 417.285 41.176 417.205 41.528C417.125 41.88 417.053 42.232 416.989 42.584C416.941 42.92 416.917 43.216 416.917 43.472C416.917 43.792 416.989 44.08 417.133 44.336C417.277 44.592 417.589 44.792 418.069 44.936C418.549 45.08 419.285 45.152 420.277 45.152C420.613 45.152 420.853 45.248 420.997 45.44C421.157 45.616 421.237 45.832 421.237 46.088C421.237 46.344 421.125 46.584 420.901 46.808C420.677 47.016 420.389 47.12 420.037 47.12C418.997 47.12 418.181 47.032 417.589 46.856C416.997 46.664 416.565 46.384 416.293 46.016C416.021 45.632 415.837 45.168 415.741 44.624L416.461 44.672C416.205 45.184 415.925 45.6 415.621 45.92C415.333 46.24 415.013 46.488 414.661 46.664C414.309 46.84 413.901 46.96 413.437 47.024C412.973 47.088 412.429 47.12 411.805 47.12ZM413.365 37.568L413.077 36.272C413.493 36.176 413.829 36.096 414.085 36.032C414.341 35.968 414.629 35.896 414.949 35.816L414.829 36.32C414.413 36.192 414.013 35.92 413.629 35.504C413.261 35.088 413.077 34.616 413.077 34.088C413.077 33.608 413.189 33.208 413.413 32.888C413.653 32.552 413.957 32.304 414.325 32.144C414.709 31.984 415.117 31.904 415.549 31.904C415.725 31.904 415.909 31.92 416.101 31.952C416.309 31.984 416.501 32.032 416.677 32.096L416.485 33.296C416.325 33.264 416.173 33.232 416.029 33.2C415.885 33.168 415.725 33.152 415.549 33.152C415.181 33.152 414.893 33.232 414.685 33.392C414.477 33.536 414.373 33.744 414.373 34.016C414.373 34.352 414.477 34.64 414.685 34.88C414.909 35.12 415.157 35.312 415.429 35.456C415.717 35.584 415.949 35.648 416.125 35.648L415.141 35.744C415.573 35.632 415.973 35.52 416.341 35.408C416.725 35.28 417.069 35.16 417.373 35.048L417.757 36.272C417.373 36.416 416.917 36.568 416.389 36.728C415.877 36.888 415.357 37.04 414.829 37.184C414.301 37.328 413.813 37.456 413.365 37.568ZM420.031 47.12L420.271 45.152C420.783 45.152 421.199 45.12 421.519 45.056C421.839 44.976 422.103 44.792 422.311 44.504C422.535 44.2 422.743 43.728 422.935 43.088C423.127 42.448 423.351 41.552 423.607 40.4L425.407 40.904C425.311 41.304 425.199 41.784 425.071 42.344C424.943 42.904 424.879 43.416 424.879 43.88C424.879 44.136 424.943 44.36 425.071 44.552C425.199 44.744 425.415 44.896 425.719 45.008C426.039 45.104 426.463 45.152 426.991 45.152C427.471 45.152 427.863 45.112 428.167 45.032C428.471 44.952 428.719 44.76 428.911 44.456C429.119 44.152 429.303 43.664 429.463 42.992C429.623 42.32 429.791 41.4 429.967 40.232L431.791 40.568C431.743 40.856 431.687 41.208 431.623 41.624C431.559 42.04 431.495 42.456 431.431 42.872C431.383 43.272 431.359 43.608 431.359 43.88C431.359 44.104 431.407 44.32 431.503 44.528C431.615 44.72 431.823 44.872 432.127 44.984C432.447 45.096 432.919 45.152 433.543 45.152C434.343 45.152 434.919 44.984 435.271 44.648C435.639 44.312 435.823 43.8 435.823 43.112C435.823 42.744 435.815 42.36 435.799 41.96C435.783 41.544 435.751 41.088 435.703 40.592C435.671 40.08 435.615 39.496 435.535 38.84L437.287 38.72C437.383 40.016 437.487 41.08 437.599 41.912C437.727 42.744 437.903 43.4 438.127 43.88C438.367 44.344 438.687 44.672 439.087 44.864C439.487 45.056 440.015 45.152 440.671 45.152C441.007 45.152 441.247 45.248 441.391 45.44C441.551 45.616 441.631 45.832 441.631 46.088C441.631 46.344 441.519 46.584 441.295 46.808C441.071 47.016 440.783 47.12 440.431 47.12C439.887 47.12 439.399 47.048 438.967 46.904C438.551 46.744 438.183 46.536 437.863 46.28C437.559 46.008 437.303 45.704 437.095 45.368C436.903 45.016 436.767 44.648 436.687 44.264L437.119 44.408C436.943 45.128 436.663 45.688 436.279 46.088C435.911 46.472 435.471 46.744 434.959 46.904C434.447 47.048 433.903 47.12 433.327 47.12C432.623 47.12 432.047 47.032 431.599 46.856C431.151 46.68 430.799 46.416 430.543 46.064C430.303 45.696 430.143 45.232 430.063 44.672H430.879C430.575 45.36 430.255 45.88 429.919 46.232C429.583 46.584 429.167 46.824 428.671 46.952C428.175 47.064 427.519 47.12 426.703 47.12C426.303 47.12 425.871 47.056 425.407 46.928C424.959 46.8 424.567 46.552 424.231 46.184C423.895 45.8 423.695 45.232 423.631 44.48L424.351 44.336C424.079 45.152 423.743 45.76 423.343 46.16C422.959 46.544 422.495 46.8 421.951 46.928C421.407 47.056 420.767 47.12 420.031 47.12ZM440.422 47.12L440.662 45.152C441.11 45.152 441.462 45.056 441.718 44.864C441.99 44.672 442.246 44.352 442.486 43.904C442.742 43.456 443.062 42.856 443.446 42.104C443.83 41.336 444.214 40.712 444.598 40.232C444.998 39.736 445.382 39.352 445.75 39.08C446.134 38.792 446.494 38.592 446.83 38.48C447.166 38.368 447.478 38.312 447.766 38.312C448.294 38.312 448.766 38.432 449.182 38.672C449.598 38.896 449.99 39.288 450.358 39.848C450.726 40.392 451.102 41.144 451.486 42.104C451.854 42.984 452.182 43.648 452.47 44.096C452.774 44.528 453.086 44.816 453.406 44.96C453.742 45.088 454.118 45.152 454.534 45.152C454.87 45.152 455.11 45.248 455.254 45.44C455.414 45.616 455.494 45.832 455.494 46.088C455.494 46.344 455.382 46.584 455.158 46.808C454.934 47.016 454.646 47.12 454.294 47.12C453.67 47.12 453.094 47.016 452.566 46.808C452.054 46.6 451.622 46.272 451.27 45.824L451.606 45.32C451.43 45.816 451.19 46.224 450.886 46.544C450.598 46.848 450.27 47.072 449.902 47.216C449.534 47.376 449.142 47.456 448.726 47.456C448.198 47.456 447.654 47.344 447.094 47.12C446.55 46.896 446.022 46.576 445.51 46.16C444.998 45.744 444.55 45.256 444.166 44.696C443.75 45.432 443.35 45.976 442.966 46.328C442.598 46.664 442.214 46.88 441.814 46.976C441.414 47.072 440.95 47.12 440.422 47.12ZM445.078 42.872C445.35 43.32 445.638 43.712 445.942 44.048C446.262 44.384 446.582 44.664 446.902 44.888C447.222 45.096 447.534 45.256 447.838 45.368C448.158 45.464 448.446 45.512 448.702 45.512C449.262 45.512 449.67 45.312 449.926 44.912C450.198 44.512 450.19 43.952 449.902 43.232C449.758 42.864 449.606 42.504 449.446 42.152C449.302 41.8 449.142 41.48 448.966 41.192C448.79 40.888 448.59 40.656 448.366 40.496C448.142 40.32 447.894 40.232 447.622 40.232C447.382 40.232 447.126 40.312 446.854 40.472C446.598 40.632 446.318 40.904 446.014 41.288C445.726 41.672 445.414 42.2 445.078 42.872ZM454.297 47.12L454.513 45.152C455.425 45.152 456.065 45.064 456.433 44.888C456.801 44.712 457.009 44.4 457.057 43.952C457.121 43.504 457.137 42.88 457.105 42.08L456.649 29.864H458.593L459.073 41.864C459.105 42.712 459.073 43.464 458.977 44.12C458.897 44.776 458.689 45.328 458.353 45.776C458.033 46.224 457.545 46.56 456.889 46.784C456.249 47.008 455.385 47.12 454.297 47.12ZM462.739 47L462.259 29.864H464.203L464.683 47H462.739ZM473.096 52.568L472.4 50.744C473.568 50.36 474.536 49.92 475.304 49.424C476.088 48.928 476.704 48.4 477.152 47.84C477.616 47.28 477.944 46.712 478.136 46.136C478.328 45.544 478.424 44.976 478.424 44.432C478.424 43.648 478.248 42.856 477.896 42.056C477.56 41.24 477.184 40.472 476.768 39.752L478.52 38.864C478.824 39.424 479.088 39.976 479.312 40.52C479.552 41.064 479.76 41.576 479.936 42.056C480.128 42.536 480.28 42.976 480.392 43.376C480.616 44.064 480.904 44.536 481.256 44.792C481.624 45.032 482.12 45.152 482.744 45.152C483.08 45.152 483.32 45.248 483.464 45.44C483.624 45.616 483.704 45.832 483.704 46.088C483.704 46.344 483.592 46.584 483.368 46.808C483.144 47.016 482.856 47.12 482.504 47.12C481.8 47.12 481.224 47 480.776 46.76C480.344 46.504 480.016 46.176 479.792 45.776C479.568 45.36 479.416 44.928 479.336 44.48L480.104 44.912C480.104 45.968 479.864 46.928 479.384 47.792C478.92 48.672 478.32 49.432 477.584 50.072C476.848 50.728 476.08 51.264 475.28 51.68C474.48 52.096 473.752 52.392 473.096 52.568ZM482.516 47.12L482.756 45.152C483.7 45.152 484.436 45.12 484.964 45.056C485.492 44.976 485.868 44.792 486.092 44.504C486.316 44.2 486.428 43.728 486.428 43.088C486.428 42.688 486.364 42.216 486.236 41.672C486.108 41.112 485.94 40.52 485.732 39.896C485.524 39.272 485.3 38.656 485.06 38.048L487.004 37.328C487.212 37.84 487.404 38.424 487.58 39.08C487.772 39.736 487.932 40.384 488.06 41.024C488.188 41.664 488.252 42.224 488.252 42.704C488.252 43.504 488.14 44.184 487.916 44.744C487.708 45.304 487.372 45.76 486.908 46.112C486.444 46.464 485.844 46.72 485.108 46.88C484.388 47.04 483.524 47.12 482.516 47.12ZM486.956 51.656C486.62 51.656 486.332 51.536 486.092 51.296C485.868 51.072 485.756 50.8 485.756 50.48C485.756 50.16 485.868 49.88 486.092 49.64C486.332 49.4 486.62 49.28 486.956 49.28C487.276 49.28 487.548 49.4 487.772 49.64C488.012 49.88 488.132 50.16 488.132 50.48C488.132 50.8 488.012 51.072 487.772 51.296C487.548 51.536 487.276 51.656 486.956 51.656ZM483.668 51.656C483.332 51.656 483.044 51.536 482.804 51.296C482.58 51.072 482.468 50.8 482.468 50.48C482.468 50.16 482.58 49.88 482.804 49.64C483.044 49.4 483.332 49.28 483.668 49.28C483.988 49.28 484.26 49.4 484.484 49.64C484.724 49.88 484.844 50.16 484.844 50.48C484.844 50.8 484.724 51.072 484.484 51.296C484.26 51.536 483.988 51.656 483.668 51.656ZM494.848 45.152C495.648 45.152 496.28 45.072 496.743 44.912C497.224 44.752 497.568 44.52 497.776 44.216C498 43.896 498.112 43.528 498.112 43.112C498.112 42.792 498.024 42.408 497.848 41.96C497.688 41.512 497.464 41.016 497.176 40.472C496.888 39.912 496.552 39.328 496.168 38.72C495.8 38.096 495.4 37.464 494.968 36.824L496.624 35.744C497.248 36.688 497.792 37.584 498.256 38.432C498.72 39.264 499.112 40.048 499.432 40.784C499.752 41.504 500.008 42.184 500.2 42.824C500.424 43.528 500.672 44.048 500.944 44.384C501.232 44.72 501.528 44.936 501.832 45.032C502.136 45.112 502.416 45.152 502.672 45.152C503.008 45.152 503.256 45.248 503.416 45.44C503.576 45.616 503.656 45.832 503.656 46.088C503.656 46.344 503.544 46.584 503.32 46.808C503.096 47.016 502.808 47.12 502.456 47.12C501.928 47.12 501.408 47.024 500.896 46.832C500.4 46.624 499.968 46.296 499.6 45.848C499.232 45.384 498.976 44.768 498.832 44L499.792 43.232C499.792 43.872 499.656 44.496 499.384 45.104C499.112 45.696 498.616 46.184 497.896 46.568C497.192 46.952 496.176 47.144 494.848 47.144C494.272 47.144 493.712 47.096 493.168 47C492.64 46.904 492.152 46.768 491.704 46.592C491.256 46.4 490.864 46.176 490.528 45.92L491.488 44.264C491.808 44.472 492.256 44.672 492.832 44.864C493.408 45.056 494.08 45.152 494.848 45.152ZM502.461 47.12L502.701 45.152C503.149 45.152 503.501 45.056 503.757 44.864C504.029 44.672 504.285 44.352 504.525 43.904C504.781 43.456 505.101 42.856 505.485 42.104C505.869 41.336 506.253 40.712 506.637 40.232C507.037 39.736 507.421 39.352 507.789 39.08C508.173 38.792 508.533 38.592 508.869 38.48C509.205 38.368 509.517 38.312 509.805 38.312C510.333 38.312 510.805 38.432 511.221 38.672C511.637 38.896 512.029 39.288 512.397 39.848C512.765 40.392 513.141 41.144 513.525 42.104C513.893 42.984 514.221 43.648 514.509 44.096C514.813 44.528 515.125 44.816 515.445 44.96C515.781 45.088 516.157 45.152 516.573 45.152C516.909 45.152 517.149 45.248 517.293 45.44C517.453 45.616 517.533 45.832 517.533 46.088C517.533 46.344 517.421 46.584 517.197 46.808C516.973 47.016 516.685 47.12 516.333 47.12C515.709 47.12 515.133 47.016 514.605 46.808C514.093 46.6 513.661 46.272 513.309 45.824L513.645 45.32C513.469 45.816 513.229 46.224 512.925 46.544C512.637 46.848 512.309 47.072 511.941 47.216C511.573 47.376 511.181 47.456 510.765 47.456C510.237 47.456 509.693 47.344 509.133 47.12C508.589 46.896 508.061 46.576 507.549 46.16C507.037 45.744 506.589 45.256 506.205 44.696C505.789 45.432 505.389 45.976 505.005 46.328C504.637 46.664 504.253 46.88 503.853 46.976C503.453 47.072 502.989 47.12 502.461 47.12ZM507.117 42.872C507.389 43.32 507.677 43.712 507.981 44.048C508.301 44.384 508.621 44.664 508.941 44.888C509.261 45.096 509.573 45.256 509.877 45.368C510.197 45.464 510.485 45.512 510.741 45.512C511.301 45.512 511.709 45.312 511.965 44.912C512.237 44.512 512.229 43.952 511.941 43.232C511.797 42.864 511.645 42.504 511.485 42.152C511.341 41.8 511.181 41.48 511.005 41.192C510.829 40.888 510.629 40.656 510.405 40.496C510.181 40.32 509.933 40.232 509.661 40.232C509.421 40.232 509.165 40.312 508.893 40.472C508.637 40.632 508.357 40.904 508.053 41.288C507.765 41.672 507.453 42.2 507.117 42.872ZM516.336 47.12L516.552 45.152C517.464 45.152 518.104 45.064 518.472 44.888C518.84 44.712 519.048 44.4 519.096 43.952C519.16 43.504 519.176 42.88 519.144 42.08L518.688 29.864H520.632L521.112 41.864C521.144 42.712 521.112 43.464 521.016 44.12C520.936 44.776 520.728 45.328 520.392 45.776C520.072 46.224 519.584 46.56 518.928 46.784C518.288 47.008 517.424 47.12 516.336 47.12ZM529.554 47.12C528.274 47.12 527.29 46.976 526.602 46.688C525.93 46.4 525.466 45.952 525.21 45.344C524.954 44.736 524.81 43.952 524.778 42.992L524.298 29.864H526.266L526.746 42.224C526.778 43.008 526.85 43.616 526.962 44.048C527.09 44.464 527.362 44.752 527.778 44.912C528.21 45.072 528.882 45.152 529.794 45.152C530.13 45.152 530.37 45.248 530.514 45.44C530.674 45.616 530.754 45.832 530.754 46.088C530.754 46.344 530.642 46.584 530.418 46.808C530.194 47.016 529.906 47.12 529.554 47.12ZM529.555 47.12L529.795 45.152C530.579 45.152 531.203 45.104 531.667 45.008C532.131 44.912 532.467 44.72 532.675 44.432C532.883 44.128 532.987 43.68 532.987 43.088C532.987 42.688 532.923 42.216 532.795 41.672C532.667 41.112 532.499 40.52 532.291 39.896C532.083 39.272 531.859 38.656 531.619 38.048L533.563 37.328C533.771 37.84 533.963 38.424 534.139 39.08C534.331 39.736 534.491 40.384 534.619 41.024C534.747 41.664 534.811 42.224 534.811 42.704C534.811 43.344 534.739 43.912 534.595 44.408C534.467 44.888 534.267 45.304 533.995 45.656C533.723 45.992 533.371 46.272 532.939 46.496C532.523 46.704 532.035 46.864 531.475 46.976C530.915 47.072 530.275 47.12 529.555 47.12ZM532.123 51.584C531.787 51.584 531.499 51.464 531.259 51.224C531.035 51 530.923 50.728 530.923 50.408C530.923 50.088 531.035 49.808 531.259 49.568C531.499 49.328 531.787 49.208 532.123 49.208C532.443 49.208 532.715 49.328 532.939 49.568C533.179 49.808 533.299 50.088 533.299 50.408C533.299 50.728 533.179 51 532.939 51.224C532.715 51.464 532.443 51.584 532.123 51.584Z" fill="black"/>
</svg>
