<svg width="562" height="58" viewBox="0 0 562 58" fill="none" xmlns="http://www.w3.org/2000/svg">
<path d="M0.37625 18.024C0.37625 17.64 0.40825 17.232 0.47225 16.8C0.55225 16.352 0.66425 15.88 0.80825 15.384C0.96825 14.872 1.16025 14.336 1.38425 13.776L3.11225 14.448C2.95225 14.896 2.80825 15.32 2.68025 15.72C2.56825 16.12 2.48025 16.496 2.41625 16.848C2.36825 17.2 2.34425 17.536 2.34425 17.856C2.34425 18.528 2.48825 19.096 2.77625 19.56C3.08025 20.04 3.49625 20.432 4.02425 20.736C4.55225 21.04 5.15225 21.264 5.82425 21.408C6.51225 21.552 7.24025 21.624 8.00825 21.624C8.93625 21.624 9.80025 21.544 10.6003 21.384C11.4163 21.224 12.1283 20.992 12.7363 20.688C13.3603 20.4 13.8483 20.064 14.2003 19.68C14.5523 19.312 14.7283 18.912 14.7283 18.48C14.7283 18.272 14.6483 18.08 14.4883 17.904C14.3283 17.728 14.0883 17.56 13.7682 17.4C13.4483 17.24 13.0643 17.088 12.6163 16.944C12.1683 16.784 11.6563 16.624 11.0803 16.464L11.5363 14.472C12.3683 14.792 13.1043 15.064 13.7443 15.288C14.3843 15.496 14.9443 15.664 15.4243 15.792C15.9043 15.92 16.3203 16.016 16.6723 16.08C17.0243 16.128 17.3203 16.152 17.5603 16.152C17.8963 16.152 18.1363 16.248 18.2803 16.44C18.4403 16.616 18.5203 16.832 18.5203 17.088C18.5203 17.344 18.4083 17.584 18.1843 17.808C17.9603 18.016 17.6723 18.12 17.3203 18.12C17.2243 18.12 17.1283 18.12 17.0323 18.12C16.9363 18.12 16.8323 18.12 16.7203 18.12C16.6243 18.12 16.5283 18.12 16.4323 18.12C16.4643 18.264 16.4883 18.376 16.5043 18.456C16.5203 18.552 16.5283 18.672 16.5283 18.816C16.5283 19.408 16.3203 19.984 15.9043 20.544C15.5043 21.104 14.9123 21.608 14.1283 22.056C13.3443 22.52 12.3923 22.888 11.2723 23.16C10.1683 23.432 8.90425 23.568 7.48025 23.568C6.21625 23.568 5.04025 23.36 3.95225 22.944C2.88025 22.544 2.01625 21.936 1.36025 21.12C0.70425 20.304 0.37625 19.272 0.37625 18.024ZM9.20825 28.104C8.87225 28.104 8.58425 27.984 8.34425 27.744C8.12025 27.52 8.00825 27.248 8.00825 26.928C8.00825 26.608 8.12025 26.328 8.34425 26.088C8.58425 25.848 8.87225 25.728 9.20825 25.728C9.52825 25.728 9.80025 25.848 10.0243 26.088C10.2643 26.328 10.3843 26.608 10.3843 26.928C10.3843 27.248 10.2643 27.52 10.0243 27.744C9.80025 27.984 9.52825 28.104 9.20825 28.104ZM5.92025 28.104C5.58425 28.104 5.29625 27.984 5.05625 27.744C4.83225 27.52 4.72025 27.248 4.72025 26.928C4.72025 26.608 4.83225 26.328 5.05625 26.088C5.29625 25.848 5.58425 25.728 5.92025 25.728C6.24025 25.728 6.51225 25.848 6.73625 26.088C6.97625 26.328 7.09625 26.608 7.09625 26.928C7.09625 27.248 6.97625 27.52 6.73625 27.744C6.51225 27.984 6.24025 28.104 5.92025 28.104ZM34.3681 18.12C33.9521 18.12 33.4241 18.08 32.7841 18C32.1601 17.904 31.5201 17.744 30.8641 17.52C30.2241 17.296 29.6801 16.984 29.2321 16.584L31.2001 15.6C31.7601 15.824 32.3361 15.976 32.9281 16.056C33.5361 16.12 34.0961 16.152 34.6081 16.152C34.9441 16.152 35.1841 16.248 35.3281 16.44C35.4881 16.616 35.5681 16.832 35.5681 17.088C35.5681 17.344 35.4561 17.584 35.2321 17.808C35.0081 18.016 34.7201 18.12 34.3681 18.12ZM17.3281 18.12L17.5681 16.152H22.5841C23.9761 16.152 25.1761 16.096 26.1841 15.984C27.2081 15.856 28.0481 15.672 28.7041 15.432C29.3601 15.192 29.8481 14.888 30.1681 14.52C30.4881 14.136 30.6481 13.688 30.6481 13.176C30.6481 12.904 30.5601 12.608 30.3841 12.288C30.2081 11.968 29.9361 11.696 29.5681 11.472C29.2001 11.232 28.7121 11.112 28.1041 11.112C27.3361 11.112 26.5681 11.312 25.8001 11.712C25.0481 12.112 24.3281 12.616 23.6401 13.224C22.9681 13.816 22.3681 14.424 21.8401 15.048C21.3121 15.672 20.8881 16.216 20.5681 16.68L18.4801 16.608C18.9921 15.776 19.6001 14.928 20.3041 14.064C21.0241 13.184 21.8081 12.376 22.6561 11.64C23.5201 10.888 24.4241 10.288 25.3681 9.84C26.3121 9.376 27.2721 9.144 28.2481 9.144C29.1281 9.144 29.8801 9.328 30.5041 9.696C31.1441 10.048 31.6321 10.528 31.9681 11.136C32.3201 11.744 32.4961 12.432 32.4961 13.2C32.4961 13.952 32.2241 14.712 31.6801 15.48C31.1361 16.232 30.2001 16.824 28.8721 17.256C28.2001 17.48 27.4321 17.656 26.5681 17.784C25.7041 17.912 24.7201 18 23.6161 18.048C22.5121 18.096 21.2561 18.12 19.8481 18.12H17.3281ZM19.6081 15.744L19.1281 0.863999H21.0721L21.5521 14.064L19.6081 15.744ZM34.3672 18.12L34.6072 16.152C35.2792 16.152 35.8072 16.096 36.1912 15.984C36.5752 15.856 36.8632 15.624 37.0552 15.288C37.2632 14.936 37.4392 14.432 37.5832 13.776C37.7272 13.12 37.9032 12.264 38.1112 11.208L39.9832 11.568C39.9192 11.856 39.8472 12.176 39.7672 12.528C39.6872 12.88 39.6152 13.232 39.5512 13.584C39.5032 13.92 39.4792 14.216 39.4792 14.472C39.4792 14.792 39.5512 15.08 39.6952 15.336C39.8392 15.592 40.1512 15.792 40.6312 15.936C41.1112 16.08 41.8472 16.152 42.8392 16.152C43.1752 16.152 43.4152 16.248 43.5592 16.44C43.7192 16.616 43.7992 16.832 43.7992 17.088C43.7992 17.344 43.6872 17.584 43.4632 17.808C43.2392 18.016 42.9512 18.12 42.5992 18.12C41.5592 18.12 40.7432 18.032 40.1512 17.856C39.5592 17.664 39.1272 17.384 38.8552 17.016C38.5832 16.632 38.3992 16.168 38.3032 15.624L39.0232 15.672C38.7672 16.184 38.4872 16.6 38.1832 16.92C37.8952 17.24 37.5752 17.488 37.2232 17.664C36.8712 17.84 36.4632 17.96 35.9992 18.024C35.5352 18.088 34.9912 18.12 34.3672 18.12ZM38.4472 22.584C38.1112 22.584 37.8232 22.464 37.5832 22.224C37.3592 22 37.2472 21.728 37.2472 21.408C37.2472 21.088 37.3592 20.808 37.5832 20.568C37.8232 20.328 38.1112 20.208 38.4472 20.208C38.7672 20.208 39.0392 20.328 39.2632 20.568C39.5032 20.808 39.6232 21.088 39.6232 21.408C39.6232 21.728 39.5032 22 39.2632 22.224C39.0392 22.464 38.7672 22.584 38.4472 22.584ZM42.5938 18.12L42.8338 16.152C43.2338 16.152 43.6418 16.152 44.0578 16.152C44.4898 16.136 44.9138 16.112 45.3298 16.08C45.7458 16.048 46.1458 16.008 46.5298 15.96C46.9138 15.912 47.2578 15.84 47.5618 15.744C48.1218 15.568 48.6338 15.336 49.0978 15.048C49.5778 14.76 49.9618 14.408 50.2498 13.992C50.5538 13.576 50.7058 13.096 50.7058 12.552C50.7058 12.184 50.6178 11.808 50.4418 11.424C50.2658 11.024 50.0258 10.688 49.7218 10.416C49.4178 10.144 49.0658 10.008 48.6658 10.008C48.2818 10.008 47.9218 10.136 47.5858 10.392C47.2658 10.648 47.0018 10.984 46.7938 11.4C46.6018 11.8 46.5058 12.216 46.5058 12.648C46.5058 13.16 46.6338 13.624 46.8898 14.04C47.1618 14.44 47.4898 14.784 47.8738 15.072C48.2578 15.36 48.6418 15.592 49.0258 15.768L46.7458 16.44C46.4898 16.248 46.1858 15.984 45.8338 15.648C45.4978 15.296 45.1938 14.864 44.9218 14.352C44.6658 13.84 44.5378 13.256 44.5378 12.6C44.5378 11.96 44.6498 11.368 44.8738 10.824C45.1138 10.264 45.4258 9.776 45.8098 9.36C46.2098 8.944 46.6578 8.624 47.1538 8.4C47.6658 8.16 48.1938 8.04 48.7378 8.04C49.5218 8.04 50.2098 8.256 50.8018 8.688C51.3938 9.12 51.8498 9.672 52.1698 10.344C52.5058 11 52.6738 11.688 52.6738 12.408C52.6738 13.096 52.5458 13.72 52.2898 14.28C52.0338 14.824 51.6818 15.312 51.2338 15.744C50.8018 16.176 50.2898 16.544 49.6978 16.848C49.1218 17.152 48.5058 17.4 47.8498 17.592C47.4818 17.704 47.0818 17.792 46.6498 17.856C46.2338 17.92 45.7938 17.968 45.3298 18C44.8658 18.048 44.4018 18.08 43.9378 18.096C43.4738 18.112 43.0258 18.12 42.5938 18.12ZM54.4738 18.12C53.6738 18.12 52.8418 18.072 51.9778 17.976C51.1298 17.864 50.3218 17.728 49.5538 17.568C48.8018 17.392 48.1778 17.2 47.6818 16.992L49.3378 15.792C49.8178 15.856 50.3858 15.92 51.0418 15.984C51.6978 16.032 52.3538 16.072 53.0098 16.104C53.6658 16.136 54.2338 16.152 54.7137 16.152C55.0498 16.152 55.2898 16.248 55.4338 16.44C55.5938 16.616 55.6738 16.832 55.6738 17.088C55.6738 17.344 55.5618 17.584 55.3378 17.808C55.1138 18.016 54.8258 18.12 54.4738 18.12ZM50.2018 5.568C49.8658 5.568 49.5778 5.456 49.3378 5.232C49.1138 4.992 49.0018 4.712 49.0018 4.392C49.0018 4.072 49.1138 3.792 49.3378 3.552C49.5778 3.312 49.8658 3.192 50.2018 3.192C50.5218 3.192 50.7938 3.312 51.0178 3.552C51.2578 3.792 51.3778 4.072 51.3778 4.392C51.3778 4.712 51.2578 4.992 51.0178 5.232C50.7938 5.456 50.5218 5.568 50.2018 5.568ZM46.9138 5.568C46.5778 5.568 46.2898 5.456 46.0498 5.232C45.8258 4.992 45.7138 4.712 45.7138 4.392C45.7138 4.072 45.8258 3.792 46.0498 3.552C46.2898 3.312 46.5778 3.192 46.9138 3.192C47.2338 3.192 47.5058 3.312 47.7298 3.552C47.9698 3.792 48.0898 4.072 48.0898 4.392C48.0898 4.712 47.9698 4.992 47.7298 5.232C47.5058 5.456 47.2338 5.568 46.9138 5.568ZM54.4766 18.12L54.6926 16.152C55.6046 16.152 56.2446 16.064 56.6126 15.888C56.9806 15.712 57.1886 15.4 57.2366 14.952C57.3006 14.504 57.3166 13.88 57.2846 13.08L56.8286 0.863999H58.7726L59.2526 12.864C59.2846 13.712 59.2526 14.464 59.1566 15.12C59.0766 15.776 58.8686 16.328 58.5326 16.776C58.2126 17.224 57.7246 17.56 57.0686 17.784C56.4286 18.008 55.5646 18.12 54.4766 18.12ZM62.9189 18L62.4389 0.863999H64.3829L64.8629 18H62.9189ZM82.5397 18.504L83.1637 16.536C84.1397 16.536 85.1717 16.48 86.2597 16.368C87.3477 16.24 88.4277 16.024 89.4997 15.72C90.5877 15.4 91.6197 14.968 92.5957 14.424C93.5717 13.88 94.4277 13.192 95.1637 12.36L96.6757 13.248C96.5317 13.616 96.4357 13.912 96.3877 14.136C96.3397 14.344 96.3157 14.536 96.3157 14.712C96.3157 14.952 96.4037 15.184 96.5797 15.408C96.7557 15.616 97.0837 15.792 97.5637 15.936C98.0597 16.08 98.7557 16.152 99.6517 16.152C99.9877 16.152 100.228 16.248 100.372 16.44C100.532 16.616 100.612 16.832 100.612 17.088C100.612 17.344 100.5 17.584 100.276 17.808C100.052 18.016 99.7637 18.12 99.4117 18.12C98.3877 18.12 97.4837 18.016 96.6997 17.808C95.9317 17.584 95.3557 17.24 94.9717 16.776C94.6037 16.296 94.4837 15.68 94.6117 14.928L95.0437 15.072C94.4037 15.648 93.6357 16.152 92.7397 16.584C91.8597 17 90.8757 17.352 89.7877 17.64C88.7157 17.928 87.5637 18.144 86.3317 18.288C85.1157 18.432 83.8517 18.504 82.5397 18.504ZM82.5397 18.504C81.1157 18.504 79.8597 18.408 78.7717 18.216C77.6997 18.04 76.8037 17.76 76.0837 17.376C75.3637 16.992 74.8197 16.496 74.4517 15.888C74.0837 15.264 73.8997 14.512 73.8997 13.632C73.8997 13.232 73.9317 12.824 73.9957 12.408C74.0597 11.976 74.1397 11.544 74.2357 11.112C74.3477 10.68 74.4597 10.264 74.5717 9.864L76.3717 10.32C76.3077 10.56 76.2357 10.848 76.1557 11.184C76.0757 11.504 76.0037 11.832 75.9397 12.168C75.8917 12.504 75.8677 12.808 75.8677 13.08C75.8677 13.912 76.0757 14.584 76.4917 15.096C76.9237 15.592 77.6677 15.96 78.7237 16.2C79.7797 16.424 81.2597 16.536 83.1637 16.536L83.6437 17.736L82.5397 18.504ZM84.2917 23.064C83.9557 23.064 83.6677 22.944 83.4277 22.704C83.2037 22.48 83.0917 22.208 83.0917 21.888C83.0917 21.568 83.2037 21.288 83.4277 21.048C83.6677 20.808 83.9557 20.688 84.2917 20.688C84.6117 20.688 84.8837 20.808 85.1077 21.048C85.3477 21.288 85.4677 21.568 85.4677 21.888C85.4677 22.208 85.3477 22.48 85.1077 22.704C84.8837 22.944 84.6117 23.064 84.2917 23.064ZM99.4062 18.12L99.6463 16.152C100.446 16.152 101.07 16.096 101.518 15.984C101.966 15.856 102.302 15.624 102.526 15.288C102.766 14.936 102.958 14.432 103.102 13.776C103.246 13.12 103.422 12.264 103.63 11.208L105.502 11.568C105.438 11.856 105.366 12.176 105.286 12.528C105.206 12.88 105.134 13.232 105.07 13.584C105.022 13.92 104.998 14.216 104.998 14.472C104.998 14.712 105.014 14.936 105.046 15.144C105.078 15.352 105.198 15.528 105.406 15.672C105.614 15.816 105.966 15.936 106.462 16.032C106.958 16.112 107.67 16.152 108.598 16.152C108.934 16.152 109.174 16.248 109.318 16.44C109.478 16.616 109.558 16.832 109.558 17.088C109.558 17.344 109.446 17.584 109.222 17.808C108.998 18.016 108.71 18.12 108.358 18.12C107.382 18.12 106.606 18.072 106.03 17.976C105.454 17.864 105.014 17.704 104.71 17.496C104.422 17.288 104.214 17.032 104.086 16.728C103.974 16.408 103.886 16.04 103.822 15.624L104.542 15.672C104.286 16.184 104.006 16.6 103.702 16.92C103.414 17.24 103.078 17.488 102.694 17.664C102.31 17.84 101.846 17.96 101.302 18.024C100.774 18.088 100.142 18.12 99.4062 18.12ZM105.814 8.736C105.478 8.736 105.19 8.624 104.95 8.4C104.726 8.16 104.614 7.88 104.614 7.56C104.614 7.24 104.726 6.96 104.95 6.72C105.19 6.48 105.478 6.36 105.814 6.36C106.134 6.36 106.406 6.48 106.63 6.72C106.87 6.96 106.99 7.24 106.99 7.56C106.99 7.88 106.87 8.16 106.63 8.4C106.406 8.624 106.134 8.736 105.814 8.736ZM102.526 8.736C102.19 8.736 101.902 8.624 101.662 8.4C101.438 8.16 101.326 7.88 101.326 7.56C101.326 7.24 101.438 6.96 101.662 6.72C101.902 6.48 102.19 6.36 102.526 6.36C102.846 6.36 103.118 6.48 103.342 6.72C103.582 6.96 103.702 7.24 103.702 7.56C103.702 7.88 103.582 8.16 103.342 8.4C103.118 8.624 102.846 8.736 102.526 8.736ZM108.359 18.12L108.599 16.152H110.447C111.775 16.152 112.759 16.08 113.399 15.936C114.039 15.792 114.455 15.6 114.647 15.36C114.855 15.12 114.959 14.872 114.959 14.616C114.959 14.232 114.815 13.808 114.527 13.344C114.239 12.88 113.871 12.408 113.423 11.928C112.975 11.432 112.495 10.944 111.983 10.464C111.487 9.984 111.015 9.544 110.567 9.144C110.119 8.744 109.751 8.4 109.463 8.112C109.175 7.808 109.031 7.592 109.031 7.464C109.031 7.224 109.047 6.992 109.079 6.768C109.127 6.544 109.183 6.336 109.247 6.144C109.327 5.952 109.423 5.8 109.535 5.688C109.855 5.352 110.295 5 110.855 4.632C111.415 4.248 112.063 3.864 112.799 3.48C113.535 3.08 114.319 2.68 115.151 2.28C115.983 1.864 116.823 1.448 117.671 1.032L118.487 2.808C117.719 3.192 116.951 3.576 116.183 3.96C115.415 4.328 114.671 4.696 113.951 5.064C113.231 5.432 112.551 5.808 111.911 6.192C111.287 6.56 110.719 6.936 110.207 7.32L110.351 6.504C111.071 7.112 111.751 7.696 112.391 8.256C113.031 8.816 113.639 9.392 114.215 9.984C114.791 10.56 115.327 11.184 115.823 11.856C116.319 12.528 116.783 13.272 117.215 14.088C117.551 14.712 117.943 15.168 118.391 15.456C118.839 15.744 119.279 15.936 119.711 16.032C120.159 16.112 120.519 16.152 120.791 16.152C121.127 16.152 121.367 16.248 121.511 16.44C121.671 16.616 121.751 16.832 121.751 17.088C121.751 17.344 121.639 17.584 121.415 17.808C121.191 18.016 120.903 18.12 120.551 18.12C120.119 18.12 119.607 18.056 119.015 17.928C118.439 17.784 117.871 17.512 117.311 17.112C116.751 16.712 116.287 16.104 115.919 15.288L116.639 15.576C116.399 16.008 116.119 16.384 115.799 16.704C115.495 17.008 115.103 17.272 114.623 17.496C114.143 17.704 113.559 17.864 112.871 17.976C112.183 18.072 111.343 18.12 110.351 18.12H108.359ZM120.547 18.12L120.787 16.152C121.235 16.152 121.587 16.056 121.843 15.864C122.115 15.672 122.371 15.352 122.611 14.904C122.867 14.456 123.187 13.856 123.571 13.104C123.955 12.336 124.339 11.712 124.723 11.232C125.123 10.736 125.507 10.352 125.875 10.08C126.259 9.792 126.619 9.592 126.955 9.48C127.291 9.368 127.603 9.312 127.891 9.312C128.419 9.312 128.891 9.432 129.307 9.672C129.723 9.896 130.115 10.288 130.483 10.848C130.851 11.392 131.227 12.144 131.611 13.104C131.979 13.984 132.307 14.648 132.595 15.096C132.899 15.528 133.211 15.816 133.531 15.96C133.867 16.088 134.243 16.152 134.659 16.152C134.995 16.152 135.235 16.248 135.379 16.44C135.539 16.616 135.619 16.832 135.619 17.088C135.619 17.344 135.507 17.584 135.283 17.808C135.059 18.016 134.771 18.12 134.419 18.12C133.795 18.12 133.219 18.016 132.691 17.808C132.179 17.6 131.747 17.272 131.395 16.824L131.731 16.32C131.555 16.816 131.315 17.224 131.011 17.544C130.723 17.848 130.395 18.072 130.027 18.216C129.659 18.376 129.267 18.456 128.851 18.456C128.323 18.456 127.779 18.344 127.219 18.12C126.675 17.896 126.147 17.576 125.635 17.16C125.123 16.744 124.675 16.256 124.291 15.696C123.875 16.432 123.475 16.976 123.091 17.328C122.723 17.664 122.339 17.88 121.939 17.976C121.539 18.072 121.075 18.12 120.547 18.12ZM125.203 13.872C125.475 14.32 125.763 14.712 126.067 15.048C126.387 15.384 126.707 15.664 127.027 15.888C127.347 16.096 127.659 16.256 127.963 16.368C128.283 16.464 128.571 16.512 128.827 16.512C129.387 16.512 129.795 16.312 130.051 15.912C130.323 15.512 130.315 14.952 130.027 14.232C129.883 13.864 129.731 13.504 129.571 13.152C129.427 12.8 129.267 12.48 129.091 12.192C128.915 11.888 128.715 11.656 128.491 11.496C128.267 11.32 128.019 11.232 127.747 11.232C127.507 11.232 127.251 11.312 126.979 11.472C126.723 11.632 126.443 11.904 126.139 12.288C125.851 12.672 125.539 13.2 125.203 13.872ZM134.422 18.12L134.638 16.152C135.55 16.152 136.19 16.064 136.558 15.888C136.926 15.712 137.134 15.4 137.182 14.952C137.246 14.504 137.262 13.88 137.23 13.08L136.774 0.863999H138.718L139.198 12.864C139.23 13.712 139.198 14.464 139.102 15.12C139.022 15.776 138.814 16.328 138.478 16.776C138.158 17.224 137.67 17.56 137.014 17.784C136.374 18.008 135.51 18.12 134.422 18.12ZM142.864 18L142.384 0.863999H144.328L144.808 18H142.864ZM153.845 18.024C153.845 17.64 153.877 17.232 153.941 16.8C154.021 16.352 154.133 15.88 154.277 15.384C154.437 14.872 154.629 14.336 154.853 13.776L156.581 14.448C156.421 14.896 156.277 15.32 156.149 15.72C156.037 16.12 155.949 16.496 155.885 16.848C155.837 17.2 155.813 17.536 155.813 17.856C155.813 18.528 155.957 19.096 156.245 19.56C156.549 20.04 156.965 20.432 157.493 20.736C158.021 21.04 158.621 21.264 159.293 21.408C159.981 21.552 160.709 21.624 161.477 21.624C162.405 21.624 163.269 21.544 164.069 21.384C164.885 21.224 165.597 20.992 166.205 20.688C166.829 20.4 167.317 20.064 167.669 19.68C168.021 19.312 168.197 18.912 168.197 18.48C168.197 18.272 168.117 18.08 167.957 17.904C167.797 17.728 167.557 17.56 167.237 17.4C166.917 17.24 166.533 17.088 166.085 16.944C165.637 16.784 165.125 16.624 164.549 16.464L165.005 14.472C165.837 14.792 166.573 15.064 167.213 15.288C167.853 15.496 168.413 15.664 168.893 15.792C169.373 15.92 169.789 16.016 170.141 16.08C170.493 16.128 170.789 16.152 171.029 16.152C171.365 16.152 171.605 16.248 171.749 16.44C171.909 16.616 171.989 16.832 171.989 17.088C171.989 17.344 171.877 17.584 171.653 17.808C171.429 18.016 171.141 18.12 170.789 18.12C170.693 18.12 170.597 18.12 170.501 18.12C170.405 18.12 170.301 18.12 170.189 18.12C170.093 18.12 169.997 18.12 169.901 18.12C169.933 18.264 169.957 18.376 169.973 18.456C169.989 18.552 169.997 18.672 169.997 18.816C169.997 19.408 169.789 19.984 169.373 20.544C168.973 21.104 168.381 21.608 167.597 22.056C166.813 22.52 165.861 22.888 164.741 23.16C163.637 23.432 162.373 23.568 160.949 23.568C159.685 23.568 158.509 23.36 157.421 22.944C156.349 22.544 155.485 21.936 154.829 21.12C154.173 20.304 153.845 19.272 153.845 18.024ZM162.677 28.104C162.341 28.104 162.053 27.984 161.813 27.744C161.589 27.52 161.477 27.248 161.477 26.928C161.477 26.608 161.589 26.328 161.813 26.088C162.053 25.848 162.341 25.728 162.677 25.728C162.997 25.728 163.269 25.848 163.493 26.088C163.733 26.328 163.853 26.608 163.853 26.928C163.853 27.248 163.733 27.52 163.493 27.744C163.269 27.984 162.997 28.104 162.677 28.104ZM159.389 28.104C159.053 28.104 158.765 27.984 158.525 27.744C158.301 27.52 158.189 27.248 158.189 26.928C158.189 26.608 158.301 26.328 158.525 26.088C158.765 25.848 159.053 25.728 159.389 25.728C159.709 25.728 159.981 25.848 160.205 26.088C160.445 26.328 160.565 26.608 160.565 26.928C160.565 27.248 160.445 27.52 160.205 27.744C159.981 27.984 159.709 28.104 159.389 28.104ZM170.797 18.12L171.037 16.152C171.437 16.152 171.877 16.152 172.357 16.152C172.853 16.136 173.349 16.12 173.845 16.104C174.357 16.088 174.829 16.056 175.261 16.008C175.693 15.944 176.053 15.864 176.341 15.768C176.917 15.56 177.365 15.304 177.685 15C178.005 14.68 178.229 14.264 178.357 13.752C178.501 13.224 178.573 12.552 178.573 11.736C178.573 11.064 178.485 10.44 178.309 9.864C178.133 9.288 177.885 8.824 177.565 8.472C177.245 8.12 176.861 7.944 176.413 7.944C176.045 7.944 175.709 8.088 175.405 8.376C175.117 8.648 174.885 9 174.709 9.432C174.549 9.864 174.469 10.296 174.469 10.728C174.469 11.064 174.533 11.352 174.661 11.592C174.805 11.832 175.037 12.024 175.357 12.168C175.677 12.296 176.093 12.36 176.605 12.36C177.069 12.36 177.533 12.312 177.997 12.216C178.477 12.12 178.885 11.992 179.221 11.832L179.317 13.512C179.061 13.688 178.773 13.832 178.453 13.944C178.133 14.056 177.797 14.136 177.445 14.184C177.093 14.232 176.741 14.256 176.389 14.256C175.573 14.256 174.877 14.128 174.301 13.872C173.741 13.6 173.309 13.24 173.005 12.792C172.717 12.328 172.573 11.8 172.573 11.208C172.573 10.6 172.669 9.992 172.861 9.384C173.053 8.76 173.325 8.192 173.677 7.68C174.029 7.168 174.453 6.76 174.949 6.456C175.445 6.136 175.997 5.976 176.605 5.976C177.469 5.976 178.181 6.256 178.741 6.816C179.317 7.376 179.741 8.112 180.013 9.024C180.301 9.92 180.445 10.872 180.445 11.88C180.445 13.08 180.237 14.112 179.821 14.976C179.421 15.824 178.749 16.528 177.805 17.088C177.437 17.296 176.989 17.472 176.461 17.616C175.949 17.744 175.381 17.848 174.757 17.928C174.149 18.008 173.509 18.056 172.837 18.072C172.165 18.104 171.485 18.12 170.797 18.12ZM176.149 3.504C175.813 3.504 175.525 3.392 175.285 3.168C175.061 2.928 174.949 2.648 174.949 2.328C174.949 2.008 175.061 1.728 175.285 1.488C175.525 1.248 175.813 1.128 176.149 1.128C176.469 1.128 176.741 1.248 176.965 1.488C177.205 1.728 177.325 2.008 177.325 2.328C177.325 2.648 177.205 2.928 176.965 3.168C176.741 3.392 176.469 3.504 176.149 3.504ZM189.001 18.024C189.001 17.448 189.081 16.808 189.241 16.104C189.401 15.4 189.657 14.624 190.009 13.776L191.737 14.448C191.481 15.12 191.289 15.736 191.161 16.296C191.033 16.856 190.969 17.376 190.969 17.856C190.969 18.736 191.185 19.448 191.617 19.992C192.065 20.552 192.657 20.96 193.393 21.216C194.145 21.472 194.969 21.6 195.865 21.6C196.953 21.6 197.865 21.48 198.601 21.24C199.337 21.016 199.921 20.704 200.353 20.304C200.785 19.904 201.089 19.448 201.265 18.936C201.457 18.44 201.553 17.92 201.553 17.376C201.553 16.672 201.497 16.008 201.385 15.384C201.289 14.76 201.153 14.152 200.977 13.56C200.817 12.952 200.641 12.336 200.449 11.712L202.393 11.184C202.569 11.792 202.705 12.288 202.801 12.672C202.897 13.04 202.969 13.336 203.017 13.56C203.081 13.784 203.137 13.984 203.185 14.16C203.361 14.752 203.593 15.192 203.881 15.48C204.169 15.752 204.497 15.936 204.865 16.032C205.249 16.112 205.641 16.152 206.041 16.152C206.377 16.152 206.617 16.248 206.761 16.44C206.921 16.616 207.001 16.832 207.001 17.088C207.001 17.344 206.889 17.584 206.665 17.808C206.441 18.016 206.153 18.12 205.801 18.12C205.129 18.12 204.569 18.008 204.121 17.784C203.673 17.544 203.321 17.248 203.065 16.896C202.825 16.544 202.665 16.176 202.585 15.792L203.569 17.016C203.521 17.832 203.361 18.624 203.089 19.392C202.833 20.176 202.417 20.88 201.841 21.504C201.265 22.144 200.481 22.648 199.489 23.016C198.513 23.384 197.281 23.568 195.793 23.568C194.881 23.568 194.017 23.456 193.201 23.232C192.385 23.008 191.657 22.664 191.017 22.2C190.393 21.752 189.897 21.176 189.529 20.472C189.177 19.784 189.001 18.968 189.001 18.024ZM196.249 8.448C195.913 8.448 195.625 8.336 195.385 8.112C195.161 7.872 195.049 7.592 195.049 7.272C195.049 6.952 195.161 6.672 195.385 6.432C195.625 6.192 195.913 6.072 196.249 6.072C196.569 6.072 196.841 6.192 197.065 6.432C197.305 6.672 197.425 6.952 197.425 7.272C197.425 7.592 197.305 7.872 197.065 8.112C196.841 8.336 196.569 8.448 196.249 8.448ZM205.812 18.12L206.053 16.152C206.853 16.152 207.477 16.096 207.925 15.984C208.373 15.856 208.709 15.624 208.933 15.288C209.173 14.936 209.365 14.432 209.509 13.776C209.653 13.12 209.829 12.264 210.037 11.208L211.909 11.568C211.845 11.856 211.773 12.176 211.693 12.528C211.613 12.88 211.541 13.232 211.477 13.584C211.429 13.92 211.405 14.216 211.405 14.472C211.405 14.712 211.421 14.936 211.453 15.144C211.485 15.352 211.605 15.528 211.812 15.672C212.021 15.816 212.373 15.936 212.868 16.032C213.365 16.112 214.077 16.152 215.005 16.152C215.341 16.152 215.581 16.248 215.725 16.44C215.885 16.616 215.965 16.832 215.965 17.088C215.965 17.344 215.853 17.584 215.629 17.808C215.405 18.016 215.117 18.12 214.765 18.12C213.789 18.12 213.013 18.072 212.437 17.976C211.861 17.864 211.421 17.704 211.117 17.496C210.829 17.288 210.621 17.032 210.493 16.728C210.381 16.408 210.293 16.04 210.229 15.624L210.949 15.672C210.693 16.184 210.413 16.6 210.109 16.92C209.821 17.24 209.485 17.488 209.101 17.664C208.717 17.84 208.253 17.96 207.709 18.024C207.181 18.088 206.549 18.12 205.812 18.12ZM211.861 22.656C211.525 22.656 211.237 22.536 210.997 22.296C210.773 22.072 210.661 21.8 210.661 21.48C210.661 21.16 210.773 20.88 210.997 20.64C211.237 20.4 211.525 20.28 211.861 20.28C212.181 20.28 212.453 20.4 212.677 20.64C212.917 20.88 213.037 21.16 213.037 21.48C213.037 21.8 212.917 22.072 212.677 22.296C212.453 22.536 212.181 22.656 211.861 22.656ZM208.573 22.656C208.237 22.656 207.949 22.536 207.709 22.296C207.485 22.072 207.373 21.8 207.373 21.48C207.373 21.16 207.485 20.88 207.709 20.64C207.949 20.4 208.237 20.28 208.573 20.28C208.893 20.28 209.165 20.4 209.389 20.64C209.629 20.88 209.749 21.16 209.749 21.48C209.749 21.8 209.629 22.072 209.389 22.296C209.165 22.536 208.893 22.656 208.573 22.656ZM214.766 18.12L214.982 16.152C215.894 16.152 216.534 16.064 216.902 15.888C217.27 15.712 217.478 15.4 217.526 14.952C217.59 14.504 217.606 13.88 217.574 13.08L217.166 0.863999H219.158L219.542 13.032C219.574 13.848 219.702 14.488 219.926 14.952C220.166 15.4 220.486 15.712 220.886 15.888C221.286 16.064 221.726 16.152 222.206 16.152C222.542 16.152 222.782 16.248 222.926 16.44C223.086 16.616 223.166 16.832 223.166 17.088C223.166 17.344 223.054 17.584 222.83 17.808C222.606 18.016 222.318 18.12 221.966 18.12C221.294 18.12 220.734 18.016 220.286 17.808C219.854 17.584 219.51 17.304 219.254 16.968C219.014 16.616 218.854 16.248 218.774 15.864L219.278 15.912C219.118 16.392 218.854 16.8 218.486 17.136C218.134 17.456 217.654 17.704 217.046 17.88C216.438 18.04 215.678 18.12 214.766 18.12ZM221.961 18.12L222.201 16.152C222.649 16.152 223.025 16.056 223.329 15.864C223.633 15.672 223.929 15.352 224.217 14.904C224.505 14.456 224.817 13.856 225.153 13.104C225.617 12.08 226.073 11.304 226.521 10.776C226.985 10.248 227.441 9.888 227.889 9.696C228.353 9.504 228.809 9.408 229.257 9.408C229.801 9.408 230.305 9.552 230.769 9.84C231.233 10.112 231.641 10.48 231.993 10.944C232.345 11.408 232.617 11.92 232.809 12.48C233.017 13.024 233.121 13.568 233.121 14.112C233.121 15.072 232.953 15.84 232.617 16.416C232.281 16.976 231.849 17.384 231.321 17.64C230.809 17.88 230.273 18 229.713 18C229.217 18 228.577 17.904 227.793 17.712C227.025 17.52 226.049 17.032 224.865 16.248L225.801 14.736C226.585 15.232 227.289 15.576 227.913 15.768C228.553 15.944 229.081 16.032 229.497 16.032C229.961 16.032 230.329 15.968 230.601 15.84C230.873 15.696 231.073 15.496 231.201 15.24C231.329 14.984 231.393 14.696 231.393 14.376C231.393 13.912 231.281 13.448 231.057 12.984C230.833 12.52 230.545 12.136 230.193 11.832C229.857 11.528 229.497 11.376 229.113 11.376C228.825 11.376 228.545 11.456 228.273 11.616C228.001 11.776 227.721 12.072 227.433 12.504C227.145 12.936 226.817 13.56 226.449 14.376C226.065 15.24 225.697 15.928 225.345 16.44C225.009 16.936 224.665 17.304 224.313 17.544C223.961 17.784 223.593 17.936 223.209 18C222.841 18.08 222.425 18.12 221.961 18.12ZM241.554 18.12C240.274 18.12 239.29 17.976 238.602 17.688C237.93 17.4 237.466 16.952 237.21 16.344C236.954 15.736 236.81 14.952 236.778 13.992L236.298 0.863999H238.266L238.746 13.224C238.778 14.008 238.85 14.616 238.962 15.048C239.09 15.464 239.362 15.752 239.778 15.912C240.21 16.072 240.882 16.152 241.794 16.152C242.13 16.152 242.37 16.248 242.514 16.44C242.674 16.616 242.754 16.832 242.754 17.088C242.754 17.344 242.642 17.584 242.418 17.808C242.194 18.016 241.906 18.12 241.554 18.12ZM241.555 18.12L241.795 16.152C242.755 16.152 243.659 16.064 244.507 15.888C245.355 15.696 246.131 15.448 246.835 15.144C247.555 14.824 248.171 14.464 248.683 14.064C249.195 13.648 249.587 13.224 249.859 12.792C250.147 12.344 250.291 11.904 250.291 11.472C250.291 11.264 250.219 11.056 250.075 10.848C249.931 10.624 249.683 10.44 249.331 10.296C248.995 10.152 248.539 10.08 247.963 10.08C247.611 10.08 247.219 10.128 246.787 10.224C246.355 10.32 245.939 10.456 245.539 10.632C245.155 10.792 244.835 10.976 244.579 11.184C245.011 11.536 245.411 11.88 245.779 12.216C246.163 12.552 246.555 12.92 246.955 13.32C247.355 13.704 247.787 14.144 248.251 14.64C248.619 14.912 249.027 15.144 249.475 15.336C249.939 15.528 250.435 15.688 250.963 15.816C251.507 15.928 252.059 16.016 252.619 16.08C253.179 16.128 253.739 16.152 254.299 16.152C254.635 16.152 254.875 16.248 255.019 16.44C255.179 16.616 255.259 16.832 255.259 17.088C255.259 17.344 255.147 17.584 254.923 17.808C254.699 18.016 254.411 18.12 254.059 18.12C253.179 18.12 252.275 18.04 251.347 17.88C250.435 17.704 249.579 17.448 248.779 17.112C247.979 16.76 247.299 16.32 246.739 15.792C246.467 15.44 246.163 15.088 245.827 14.736C245.491 14.384 245.123 14.032 244.723 13.68C244.339 13.312 243.923 12.968 243.475 12.648C243.379 12.568 243.283 12.424 243.187 12.216C243.091 12.008 243.011 11.792 242.947 11.568C242.883 11.344 242.851 11.176 242.851 11.064C242.851 10.824 243.003 10.536 243.307 10.2C243.611 9.864 244.019 9.544 244.531 9.24C245.043 8.92 245.627 8.656 246.283 8.448C246.939 8.24 247.619 8.136 248.323 8.136C249.235 8.136 249.971 8.272 250.531 8.544C251.107 8.816 251.523 9.168 251.779 9.6C252.051 10.016 252.187 10.464 252.187 10.944C252.187 11.648 252.011 12.352 251.659 13.056C251.307 13.744 250.803 14.392 250.147 15C249.491 15.608 248.723 16.152 247.843 16.632C246.963 17.096 245.987 17.464 244.915 17.736C243.859 17.992 242.739 18.12 241.555 18.12ZM254.07 18.12L254.286 16.152C255.198 16.152 255.838 16.064 256.206 15.888C256.574 15.712 256.782 15.4 256.83 14.952C256.894 14.504 256.91 13.88 256.878 13.08L256.422 0.863999H258.366L258.846 12.864C258.878 13.712 258.846 14.464 258.75 15.12C258.67 15.776 258.462 16.328 258.126 16.776C257.806 17.224 257.318 17.56 256.662 17.784C256.022 18.008 255.158 18.12 254.07 18.12ZM262.513 18L262.033 0.863999H263.977L264.457 18H262.513ZM273.493 18.024C273.493 17.448 273.573 16.808 273.733 16.104C273.893 15.4 274.149 14.624 274.501 13.776L276.229 14.448C275.973 15.12 275.781 15.736 275.653 16.296C275.525 16.856 275.461 17.376 275.461 17.856C275.461 18.736 275.677 19.448 276.109 19.992C276.557 20.552 277.149 20.96 277.885 21.216C278.637 21.472 279.461 21.6 280.357 21.6C281.445 21.6 282.357 21.48 283.093 21.24C283.829 21.016 284.413 20.704 284.845 20.304C285.277 19.904 285.581 19.448 285.757 18.936C285.949 18.44 286.045 17.92 286.045 17.376C286.045 16.672 285.989 16.008 285.877 15.384C285.781 14.76 285.645 14.152 285.469 13.56C285.309 12.952 285.133 12.336 284.941 11.712L286.885 11.184C287.061 11.792 287.197 12.288 287.293 12.672C287.389 13.04 287.461 13.336 287.509 13.56C287.573 13.784 287.629 13.984 287.677 14.16C287.853 14.752 288.085 15.192 288.373 15.48C288.661 15.752 288.989 15.936 289.357 16.032C289.741 16.112 290.133 16.152 290.533 16.152C290.869 16.152 291.109 16.248 291.253 16.44C291.413 16.616 291.493 16.832 291.493 17.088C291.493 17.344 291.381 17.584 291.157 17.808C290.933 18.016 290.645 18.12 290.293 18.12C289.621 18.12 289.061 18.008 288.613 17.784C288.165 17.544 287.813 17.248 287.557 16.896C287.317 16.544 287.157 16.176 287.077 15.792L288.061 17.016C288.013 17.832 287.853 18.624 287.581 19.392C287.325 20.176 286.909 20.88 286.333 21.504C285.757 22.144 284.973 22.648 283.981 23.016C283.005 23.384 281.773 23.568 280.285 23.568C279.373 23.568 278.509 23.456 277.693 23.232C276.877 23.008 276.149 22.664 275.509 22.2C274.885 21.752 274.389 21.176 274.021 20.472C273.669 19.784 273.493 18.968 273.493 18.024ZM280.741 8.448C280.405 8.448 280.117 8.336 279.877 8.112C279.653 7.872 279.541 7.592 279.541 7.272C279.541 6.952 279.653 6.672 279.877 6.432C280.117 6.192 280.405 6.072 280.741 6.072C281.061 6.072 281.333 6.192 281.557 6.432C281.797 6.672 281.917 6.952 281.917 7.272C281.917 7.592 281.797 7.872 281.557 8.112C281.333 8.336 281.061 8.448 280.741 8.448ZM290.305 18.12L290.545 16.152C291.345 16.152 291.969 16.096 292.417 15.984C292.865 15.856 293.201 15.624 293.425 15.288C293.665 14.936 293.857 14.432 294.001 13.776C294.145 13.12 294.321 12.264 294.529 11.208L296.401 11.568C296.337 11.856 296.265 12.176 296.185 12.528C296.105 12.88 296.033 13.232 295.969 13.584C295.921 13.92 295.897 14.216 295.897 14.472C295.897 14.712 295.913 14.936 295.945 15.144C295.977 15.352 296.097 15.528 296.305 15.672C296.513 15.816 296.865 15.936 297.361 16.032C297.857 16.112 298.569 16.152 299.497 16.152C299.833 16.152 300.073 16.248 300.217 16.44C300.377 16.616 300.457 16.832 300.457 17.088C300.457 17.344 300.345 17.584 300.121 17.808C299.897 18.016 299.609 18.12 299.257 18.12C298.281 18.12 297.505 18.072 296.929 17.976C296.353 17.864 295.913 17.704 295.609 17.496C295.321 17.288 295.113 17.032 294.985 16.728C294.873 16.408 294.785 16.04 294.721 15.624L295.441 15.672C295.185 16.184 294.905 16.6 294.601 16.92C294.313 17.24 293.977 17.488 293.593 17.664C293.209 17.84 292.745 17.96 292.201 18.024C291.673 18.088 291.041 18.12 290.305 18.12ZM296.353 22.656C296.017 22.656 295.729 22.536 295.489 22.296C295.265 22.072 295.153 21.8 295.153 21.48C295.153 21.16 295.265 20.88 295.489 20.64C295.729 20.4 296.017 20.28 296.353 20.28C296.673 20.28 296.945 20.4 297.169 20.64C297.409 20.88 297.529 21.16 297.529 21.48C297.529 21.8 297.409 22.072 297.169 22.296C296.945 22.536 296.673 22.656 296.353 22.656ZM293.065 22.656C292.729 22.656 292.441 22.536 292.201 22.296C291.977 22.072 291.865 21.8 291.865 21.48C291.865 21.16 291.977 20.88 292.201 20.64C292.441 20.4 292.729 20.28 293.065 20.28C293.385 20.28 293.657 20.4 293.881 20.64C294.121 20.88 294.241 21.16 294.241 21.48C294.241 21.8 294.121 22.072 293.881 22.296C293.657 22.536 293.385 22.656 293.065 22.656ZM299.258 18.12L299.498 16.152C299.898 16.152 300.306 16.152 300.722 16.152C301.154 16.136 301.578 16.112 301.994 16.08C302.41 16.048 302.81 16.008 303.194 15.96C303.578 15.912 303.922 15.84 304.226 15.744C304.786 15.568 305.298 15.336 305.762 15.048C306.242 14.76 306.626 14.408 306.914 13.992C307.218 13.576 307.37 13.096 307.37 12.552C307.37 12.184 307.282 11.808 307.106 11.424C306.93 11.024 306.69 10.688 306.386 10.416C306.082 10.144 305.73 10.008 305.33 10.008C304.946 10.008 304.586 10.136 304.25 10.392C303.93 10.648 303.666 10.984 303.458 11.4C303.266 11.8 303.17 12.216 303.17 12.648C303.17 13.16 303.298 13.624 303.554 14.04C303.826 14.44 304.154 14.784 304.538 15.072C304.922 15.36 305.306 15.592 305.69 15.768L303.41 16.44C303.154 16.248 302.85 15.984 302.498 15.648C302.162 15.296 301.858 14.864 301.586 14.352C301.33 13.84 301.202 13.256 301.202 12.6C301.202 11.96 301.314 11.368 301.538 10.824C301.778 10.264 302.09 9.776 302.474 9.36C302.874 8.944 303.322 8.624 303.818 8.4C304.33 8.16 304.858 8.04 305.402 8.04C306.186 8.04 306.874 8.256 307.466 8.688C308.058 9.12 308.514 9.672 308.834 10.344C309.17 11 309.338 11.688 309.338 12.408C309.338 13.096 309.21 13.72 308.954 14.28C308.698 14.824 308.346 15.312 307.898 15.744C307.466 16.176 306.954 16.544 306.362 16.848C305.786 17.152 305.17 17.4 304.514 17.592C304.146 17.704 303.746 17.792 303.314 17.856C302.898 17.92 302.458 17.968 301.994 18C301.53 18.048 301.066 18.08 300.602 18.096C300.138 18.112 299.69 18.12 299.258 18.12ZM311.138 18.12C310.338 18.12 309.506 18.072 308.642 17.976C307.794 17.864 306.986 17.728 306.218 17.568C305.466 17.392 304.842 17.2 304.346 16.992L306.002 15.792C306.482 15.856 307.05 15.92 307.706 15.984C308.362 16.032 309.018 16.072 309.674 16.104C310.33 16.136 310.898 16.152 311.378 16.152C311.714 16.152 311.954 16.248 312.098 16.44C312.258 16.616 312.338 16.832 312.338 17.088C312.338 17.344 312.226 17.584 312.002 17.808C311.778 18.016 311.49 18.12 311.138 18.12ZM305.186 5.568C304.85 5.568 304.562 5.456 304.322 5.232C304.098 4.992 303.986 4.712 303.986 4.392C303.986 4.072 304.098 3.792 304.322 3.552C304.562 3.312 304.85 3.192 305.186 3.192C305.506 3.192 305.778 3.312 306.002 3.552C306.242 3.792 306.362 4.072 306.362 4.392C306.362 4.712 306.242 4.992 306.002 5.232C305.778 5.456 305.506 5.568 305.186 5.568ZM311.141 18.12L311.381 16.152H316.397C317.789 16.152 318.989 16.096 319.997 15.984C321.021 15.856 321.861 15.672 322.517 15.432C323.173 15.192 323.661 14.888 323.981 14.52C324.301 14.136 324.461 13.688 324.461 13.176C324.461 12.904 324.373 12.608 324.197 12.288C324.021 11.968 323.749 11.696 323.381 11.472C323.013 11.232 322.525 11.112 321.917 11.112C321.149 11.112 320.381 11.312 319.613 11.712C318.861 12.112 318.141 12.616 317.453 13.224C316.781 13.816 316.181 14.424 315.653 15.048C315.125 15.672 314.701 16.216 314.381 16.68L312.293 16.608C312.805 15.776 313.413 14.928 314.117 14.064C314.837 13.184 315.621 12.376 316.469 11.64C317.333 10.888 318.237 10.288 319.181 9.84C320.125 9.376 321.085 9.144 322.061 9.144C322.941 9.144 323.693 9.328 324.317 9.696C324.957 10.048 325.445 10.528 325.781 11.136C326.133 11.744 326.309 12.432 326.309 13.2C326.309 13.952 326.037 14.712 325.493 15.48C324.949 16.232 324.013 16.824 322.685 17.256C322.013 17.48 321.245 17.656 320.381 17.784C319.517 17.912 318.533 18 317.429 18.048C316.325 18.096 315.069 18.12 313.661 18.12H311.141ZM313.421 15.744L312.941 0.863999H314.885L315.365 14.064L313.421 15.744ZM320.885 6.672C320.549 6.672 320.261 6.56 320.021 6.336C319.797 6.096 319.685 5.816 319.685 5.496C319.685 5.176 319.797 4.896 320.021 4.656C320.261 4.416 320.549 4.296 320.885 4.296C321.205 4.296 321.477 4.416 321.701 4.656C321.941 4.896 322.061 5.176 322.061 5.496C322.061 5.816 321.941 6.096 321.701 6.336C321.477 6.56 321.205 6.672 320.885 6.672ZM328.775 23.52L328.343 21.552C329.303 21.424 330.183 21.24 330.983 21C331.799 20.776 332.495 20.448 333.071 20.016C333.663 19.584 334.119 19.016 334.439 18.312C334.759 17.608 334.919 16.728 334.919 15.672C334.919 14.584 334.719 13.68 334.319 12.96C333.919 12.24 333.399 11.88 332.759 11.88C332.423 11.88 332.111 12.008 331.823 12.264C331.535 12.52 331.295 12.864 331.103 13.296C330.927 13.728 330.839 14.2 330.839 14.712C330.839 15 330.903 15.24 331.031 15.432C331.159 15.608 331.343 15.752 331.583 15.864C331.839 15.96 332.159 16.032 332.543 16.08C332.927 16.128 333.375 16.152 333.887 16.152H338.951C339.287 16.152 339.527 16.248 339.671 16.44C339.831 16.616 339.911 16.832 339.911 17.088C339.911 17.344 339.799 17.584 339.575 17.808C339.351 18.016 339.063 18.12 338.711 18.12H332.975C332.255 18.12 331.583 18.016 330.959 17.808C330.351 17.6 329.855 17.28 329.471 16.848C329.103 16.4 328.919 15.816 328.919 15.096C328.919 14.424 329.023 13.784 329.231 13.176C329.439 12.552 329.719 12 330.071 11.52C330.439 11.024 330.863 10.632 331.343 10.344C331.839 10.056 332.375 9.912 332.951 9.912C333.687 9.912 334.343 10.128 334.919 10.56C335.495 10.992 335.951 11.648 336.287 12.528C336.623 13.392 336.791 14.488 336.791 15.816C336.791 17.304 336.487 18.584 335.879 19.656C335.287 20.744 334.391 21.608 333.191 22.248C332.007 22.888 330.535 23.312 328.775 23.52ZM338.703 18.12L338.943 16.152C339.391 16.152 339.743 16.056 339.999 15.864C340.271 15.672 340.527 15.352 340.767 14.904C341.023 14.456 341.343 13.856 341.727 13.104C342.111 12.336 342.495 11.712 342.879 11.232C343.279 10.736 343.663 10.352 344.031 10.08C344.415 9.792 344.775 9.592 345.111 9.48C345.447 9.368 345.759 9.312 346.047 9.312C346.575 9.312 347.047 9.432 347.463 9.672C347.879 9.896 348.271 10.288 348.639 10.848C349.007 11.392 349.383 12.144 349.767 13.104C350.135 13.984 350.463 14.648 350.751 15.096C351.055 15.528 351.367 15.816 351.687 15.96C352.023 16.088 352.399 16.152 352.815 16.152C353.151 16.152 353.391 16.248 353.535 16.44C353.695 16.616 353.775 16.832 353.775 17.088C353.775 17.344 353.663 17.584 353.439 17.808C353.215 18.016 352.927 18.12 352.575 18.12C351.951 18.12 351.375 18.016 350.847 17.808C350.335 17.6 349.903 17.272 349.551 16.824L349.887 16.32C349.711 16.816 349.471 17.224 349.167 17.544C348.879 17.848 348.551 18.072 348.183 18.216C347.815 18.376 347.423 18.456 347.007 18.456C346.479 18.456 345.935 18.344 345.375 18.12C344.831 17.896 344.303 17.576 343.791 17.16C343.279 16.744 342.831 16.256 342.447 15.696C342.031 16.432 341.631 16.976 341.247 17.328C340.879 17.664 340.495 17.88 340.095 17.976C339.695 18.072 339.231 18.12 338.703 18.12ZM343.359 13.872C343.631 14.32 343.919 14.712 344.223 15.048C344.543 15.384 344.863 15.664 345.183 15.888C345.503 16.096 345.815 16.256 346.119 16.368C346.439 16.464 346.727 16.512 346.983 16.512C347.543 16.512 347.951 16.312 348.207 15.912C348.479 15.512 348.471 14.952 348.183 14.232C348.039 13.864 347.887 13.504 347.727 13.152C347.583 12.8 347.423 12.48 347.247 12.192C347.071 11.888 346.871 11.656 346.647 11.496C346.423 11.32 346.175 11.232 345.903 11.232C345.663 11.232 345.407 11.312 345.135 11.472C344.879 11.632 344.599 11.904 344.295 12.288C344.007 12.672 343.695 13.2 343.359 13.872ZM352.578 18.12L352.794 16.152C353.706 16.152 354.346 16.064 354.714 15.888C355.082 15.712 355.29 15.4 355.338 14.952C355.402 14.504 355.418 13.88 355.386 13.08L354.978 0.863999H356.97L357.354 13.032C357.386 13.848 357.514 14.488 357.738 14.952C357.978 15.4 358.298 15.712 358.698 15.888C359.098 16.064 359.538 16.152 360.018 16.152C360.354 16.152 360.594 16.248 360.738 16.44C360.898 16.616 360.978 16.832 360.978 17.088C360.978 17.344 360.866 17.584 360.642 17.808C360.418 18.016 360.13 18.12 359.778 18.12C359.106 18.12 358.546 18.016 358.098 17.808C357.666 17.584 357.322 17.304 357.066 16.968C356.826 16.616 356.666 16.248 356.586 15.864L357.09 15.912C356.93 16.392 356.666 16.8 356.298 17.136C355.946 17.456 355.466 17.704 354.858 17.88C354.25 18.04 353.49 18.12 352.578 18.12ZM359.773 18.12L359.989 16.152C360.901 16.152 361.541 16.064 361.909 15.888C362.277 15.712 362.485 15.4 362.533 14.952C362.597 14.504 362.613 13.88 362.581 13.08L362.125 0.863999H364.069L364.549 12.864C364.581 13.712 364.549 14.464 364.453 15.12C364.373 15.776 364.165 16.328 363.829 16.776C363.509 17.224 363.021 17.56 362.365 17.784C361.725 18.008 360.861 18.12 359.773 18.12ZM384.422 18.12C383.558 18.12 382.79 18 382.118 17.76C381.462 17.504 380.934 17.08 380.534 16.488C380.15 15.88 379.934 15.04 379.886 13.968L379.502 5.616H381.446L381.83 13.536C381.878 14.288 382.014 14.856 382.238 15.24C382.462 15.608 382.774 15.856 383.174 15.984C383.59 16.096 384.086 16.152 384.662 16.152C384.998 16.152 385.238 16.248 385.382 16.44C385.542 16.616 385.622 16.832 385.622 17.088C385.622 17.344 385.51 17.584 385.286 17.808C385.062 18.016 384.774 18.12 384.422 18.12ZM380.798 15.48C379.886 15.768 378.998 15.912 378.134 15.912C377.27 15.912 376.486 15.784 375.782 15.528C375.078 15.272 374.518 14.904 374.102 14.424C373.686 13.928 373.478 13.336 373.478 12.648C373.478 11.976 373.646 11.344 373.982 10.752C374.334 10.16 374.806 9.632 375.398 9.168C376.006 8.704 376.702 8.32 377.486 8.016C378.286 7.696 379.134 7.48 380.03 7.368L380.366 9.384C379.566 9.416 378.854 9.528 378.23 9.72C377.622 9.896 377.102 10.128 376.67 10.416C376.254 10.704 375.934 11.016 375.71 11.352C375.486 11.688 375.374 12.016 375.374 12.336C375.374 12.688 375.502 12.976 375.758 13.2C376.014 13.424 376.342 13.6 376.742 13.728C377.142 13.84 377.582 13.912 378.062 13.944C378.542 13.96 379.006 13.944 379.454 13.896C379.902 13.832 380.286 13.744 380.606 13.632L380.798 15.48ZM380.294 2.856C379.958 2.856 379.67 2.744 379.43 2.52C379.206 2.28 379.094 2 379.094 1.68C379.094 1.36 379.206 1.08 379.43 0.839999C379.67 0.599999 379.958 0.48 380.294 0.48C380.614 0.48 380.886 0.599999 381.11 0.839999C381.35 1.08 381.47 1.36 381.47 1.68C381.47 2 381.35 2.28 381.11 2.52C380.886 2.744 380.614 2.856 380.294 2.856ZM377.006 2.856C376.67 2.856 376.382 2.744 376.142 2.52C375.918 2.28 375.806 2 375.806 1.68C375.806 1.36 375.918 1.08 376.142 0.839999C376.382 0.599999 376.67 0.48 377.006 0.48C377.326 0.48 377.598 0.599999 377.822 0.839999C378.062 1.08 378.182 1.36 378.182 1.68C378.182 2 378.062 2.28 377.822 2.52C377.598 2.744 377.326 2.856 377.006 2.856ZM407.206 18.12C406.79 18.12 406.262 18.08 405.622 18C404.998 17.904 404.358 17.744 403.702 17.52C403.062 17.296 402.518 16.984 402.07 16.584L404.038 15.6C404.598 15.824 405.174 15.976 405.766 16.056C406.374 16.12 406.934 16.152 407.446 16.152C407.782 16.152 408.022 16.248 408.166 16.44C408.326 16.616 408.406 16.832 408.406 17.088C408.406 17.344 408.294 17.584 408.07 17.808C407.846 18.016 407.558 18.12 407.206 18.12ZM396.046 18.432C394.638 18.432 393.454 18.376 392.494 18.264C391.55 18.168 390.782 18.016 390.19 17.808C389.598 17.6 389.15 17.336 388.846 17.016C388.542 16.696 388.334 16.312 388.222 15.864L388.774 15.672C388.374 16.44 387.942 17 387.478 17.352C387.014 17.688 386.526 17.904 386.014 18C385.518 18.08 384.99 18.12 384.43 18.12L384.67 16.152C385.23 16.152 385.686 16.072 386.038 15.912C386.406 15.752 386.702 15.488 386.926 15.12C387.166 14.752 387.374 14.264 387.55 13.656C387.726 13.048 387.918 12.296 388.126 11.4L389.878 11.856C389.782 12.224 389.694 12.576 389.614 12.912C389.534 13.248 389.47 13.544 389.422 13.8C389.39 14.04 389.374 14.232 389.374 14.376C389.374 14.76 389.462 15.088 389.638 15.36C389.814 15.616 390.15 15.832 390.646 16.008C391.142 16.168 391.854 16.288 392.782 16.368C393.726 16.432 394.958 16.464 396.478 16.464C397.534 16.464 398.478 16.4 399.31 16.272C400.142 16.144 400.838 15.952 401.398 15.696C401.974 15.424 402.414 15.096 402.718 14.712C403.022 14.328 403.174 13.888 403.174 13.392C403.174 13.04 403.086 12.696 402.91 12.36C402.734 12.008 402.462 11.712 402.094 11.472C401.726 11.232 401.238 11.112 400.63 11.112C399.862 11.112 399.094 11.312 398.326 11.712C397.574 12.112 396.854 12.616 396.166 13.224C395.494 13.816 394.894 14.424 394.366 15.048C393.838 15.672 393.414 16.216 393.094 16.68L391.006 16.608C391.518 15.776 392.126 14.928 392.83 14.064C393.55 13.184 394.334 12.376 395.182 11.64C396.046 10.888 396.95 10.288 397.894 9.84C398.838 9.376 399.798 9.144 400.774 9.144C401.654 9.144 402.406 9.328 403.03 9.696C403.67 10.048 404.158 10.528 404.494 11.136C404.846 11.744 405.022 12.432 405.022 13.2C405.022 14.144 404.742 15.016 404.182 15.816C403.638 16.6 402.71 17.232 401.398 17.712C400.086 18.192 398.302 18.432 396.046 18.432ZM429.987 18.12C429.571 18.12 429.043 18.08 428.403 18C427.779 17.904 427.139 17.744 426.483 17.52C425.843 17.296 425.299 16.984 424.851 16.584L426.819 15.6C427.379 15.824 427.955 15.976 428.547 16.056C429.155 16.12 429.715 16.152 430.227 16.152C430.563 16.152 430.803 16.248 430.947 16.44C431.107 16.616 431.187 16.832 431.187 17.088C431.187 17.344 431.075 17.584 430.851 17.808C430.627 18.016 430.339 18.12 429.987 18.12ZM418.827 18.432C417.419 18.432 416.235 18.376 415.275 18.264C414.331 18.168 413.563 18.016 412.971 17.808C412.379 17.6 411.931 17.336 411.627 17.016C411.323 16.696 411.115 16.312 411.003 15.864L411.555 15.672C411.155 16.44 410.723 17 410.259 17.352C409.795 17.688 409.307 17.904 408.795 18C408.299 18.08 407.771 18.12 407.211 18.12L407.451 16.152C408.011 16.152 408.467 16.072 408.819 15.912C409.187 15.752 409.483 15.488 409.707 15.12C409.947 14.752 410.155 14.264 410.331 13.656C410.507 13.048 410.699 12.296 410.907 11.4L412.659 11.856C412.563 12.224 412.475 12.576 412.395 12.912C412.315 13.248 412.251 13.544 412.203 13.8C412.171 14.04 412.155 14.232 412.155 14.376C412.155 14.76 412.243 15.088 412.419 15.36C412.595 15.616 412.931 15.832 413.427 16.008C413.923 16.168 414.635 16.288 415.563 16.368C416.507 16.432 417.739 16.464 419.259 16.464C420.315 16.464 421.259 16.4 422.091 16.272C422.923 16.144 423.619 15.952 424.179 15.696C424.755 15.424 425.195 15.096 425.499 14.712C425.803 14.328 425.955 13.888 425.955 13.392C425.955 13.04 425.867 12.696 425.691 12.36C425.515 12.008 425.243 11.712 424.875 11.472C424.507 11.232 424.019 11.112 423.411 11.112C422.643 11.112 421.875 11.312 421.107 11.712C420.355 12.112 419.635 12.616 418.947 13.224C418.275 13.816 417.675 14.424 417.147 15.048C416.619 15.672 416.195 16.216 415.875 16.68L413.787 16.608C414.299 15.776 414.907 14.928 415.611 14.064C416.331 13.184 417.115 12.376 417.963 11.64C418.827 10.888 419.731 10.288 420.675 9.84C421.619 9.376 422.579 9.144 423.555 9.144C424.435 9.144 425.187 9.328 425.811 9.696C426.451 10.048 426.939 10.528 427.275 11.136C427.627 11.744 427.803 12.432 427.803 13.2C427.803 14.144 427.523 15.016 426.963 15.816C426.419 16.6 425.491 17.232 424.179 17.712C422.867 18.192 421.083 18.432 418.827 18.432ZM445.28 18.12C444.608 18.12 443.992 18.08 443.432 18C442.872 17.904 442.368 17.736 441.92 17.496C441.472 17.256 441.096 16.912 440.792 16.464C440.488 16 440.256 15.392 440.096 14.64L441.512 13.8C441.72 14.44 441.976 14.928 442.28 15.264C442.584 15.6 442.992 15.832 443.504 15.96C444.032 16.088 444.704 16.152 445.52 16.152C445.856 16.152 446.096 16.248 446.24 16.44C446.4 16.616 446.48 16.832 446.48 17.088C446.48 17.344 446.368 17.584 446.144 17.808C445.92 18.016 445.632 18.12 445.28 18.12ZM429.992 18.12L430.208 16.152C431.04 16.152 431.856 16.088 432.656 15.96C433.456 15.832 434.24 15.648 435.008 15.408C435.776 15.168 436.512 14.88 437.216 14.544C437.936 14.192 438.616 13.792 439.256 13.344C438.84 12.976 438.36 12.656 437.816 12.384C437.272 12.112 436.672 11.904 436.016 11.76C435.376 11.6 434.696 11.52 433.976 11.52C433.72 11.52 433.48 11.528 433.256 11.544C433.032 11.56 432.808 11.592 432.584 11.64C432.36 11.672 432.104 11.72 431.816 11.784L431.432 9.96C431.864 9.832 432.296 9.736 432.728 9.672C433.16 9.592 433.576 9.552 433.976 9.552C434.808 9.552 435.56 9.656 436.232 9.864C436.904 10.056 437.512 10.296 438.056 10.584C438.616 10.872 439.136 11.16 439.616 11.448C440.112 11.736 440.592 11.984 441.056 12.192C441.52 12.384 442 12.48 442.496 12.48H443L443.168 14.208C442.48 14.208 441.848 14.304 441.272 14.496C440.696 14.688 440.128 14.936 439.568 15.24C439.024 15.528 438.448 15.84 437.84 16.176C437.232 16.496 436.56 16.808 435.824 17.112C435.088 17.4 434.24 17.64 433.28 17.832C432.336 18.024 431.24 18.12 429.992 18.12ZM433.76 7.08C433.424 7.08 433.136 6.968 432.896 6.744C432.672 6.504 432.56 6.224 432.56 5.904C432.56 5.584 432.672 5.304 432.896 5.064C433.136 4.824 433.424 4.704 433.76 4.704C434.08 4.704 434.352 4.824 434.576 5.064C434.816 5.304 434.936 5.584 434.936 5.904C434.936 6.224 434.816 6.504 434.576 6.744C434.352 6.968 434.08 7.08 433.76 7.08ZM445.273 18.12L445.513 16.152C445.961 16.152 446.337 16.056 446.641 15.864C446.945 15.672 447.241 15.352 447.529 14.904C447.817 14.456 448.129 13.856 448.465 13.104C448.929 12.08 449.385 11.304 449.833 10.776C450.297 10.248 450.753 9.888 451.201 9.696C451.665 9.504 452.121 9.408 452.569 9.408C453.113 9.408 453.617 9.552 454.081 9.84C454.545 10.112 454.953 10.48 455.305 10.944C455.657 11.408 455.929 11.92 456.121 12.48C456.329 13.024 456.433 13.568 456.433 14.112C456.433 15.072 456.265 15.84 455.929 16.416C455.593 16.976 455.161 17.384 454.633 17.64C454.121 17.88 453.585 18 453.025 18C452.529 18 451.889 17.904 451.105 17.712C450.337 17.52 449.361 17.032 448.177 16.248L449.113 14.736C449.897 15.232 450.601 15.576 451.225 15.768C451.865 15.944 452.393 16.032 452.809 16.032C453.273 16.032 453.641 15.968 453.913 15.84C454.185 15.696 454.385 15.496 454.513 15.24C454.641 14.984 454.705 14.696 454.705 14.376C454.705 13.912 454.593 13.448 454.369 12.984C454.145 12.52 453.857 12.136 453.505 11.832C453.169 11.528 452.809 11.376 452.425 11.376C452.137 11.376 451.857 11.456 451.585 11.616C451.313 11.776 451.033 12.072 450.745 12.504C450.457 12.936 450.129 13.56 449.761 14.376C449.377 15.24 449.009 15.928 448.657 16.44C448.321 16.936 447.977 17.304 447.625 17.544C447.273 17.784 446.905 17.936 446.521 18C446.153 18.08 445.737 18.12 445.273 18.12ZM476.297 18.12C475.433 18.12 474.665 18 473.993 17.76C473.337 17.504 472.809 17.08 472.409 16.488C472.025 15.88 471.809 15.04 471.761 13.968L471.377 5.616H473.321L473.705 13.536C473.753 14.288 473.889 14.856 474.113 15.24C474.337 15.608 474.649 15.856 475.049 15.984C475.465 16.096 475.961 16.152 476.537 16.152C476.873 16.152 477.113 16.248 477.257 16.44C477.417 16.616 477.497 16.832 477.497 17.088C477.497 17.344 477.385 17.584 477.161 17.808C476.937 18.016 476.649 18.12 476.297 18.12ZM472.673 15.48C471.761 15.768 470.873 15.912 470.009 15.912C469.145 15.912 468.361 15.784 467.657 15.528C466.953 15.272 466.393 14.904 465.977 14.424C465.561 13.928 465.353 13.336 465.353 12.648C465.353 11.976 465.521 11.344 465.857 10.752C466.209 10.16 466.681 9.632 467.273 9.168C467.881 8.704 468.577 8.32 469.361 8.016C470.161 7.696 471.009 7.48 471.905 7.368L472.241 9.384C471.441 9.416 470.729 9.528 470.105 9.72C469.497 9.896 468.977 10.128 468.545 10.416C468.129 10.704 467.809 11.016 467.585 11.352C467.361 11.688 467.249 12.016 467.249 12.336C467.249 12.688 467.377 12.976 467.633 13.2C467.889 13.424 468.217 13.6 468.617 13.728C469.017 13.84 469.457 13.912 469.937 13.944C470.417 13.96 470.881 13.944 471.329 13.896C471.777 13.832 472.161 13.744 472.481 13.632L472.673 15.48ZM472.169 2.856C471.833 2.856 471.545 2.744 471.305 2.52C471.081 2.28 470.969 2 470.969 1.68C470.969 1.36 471.081 1.08 471.305 0.839999C471.545 0.599999 471.833 0.48 472.169 0.48C472.489 0.48 472.761 0.599999 472.985 0.839999C473.225 1.08 473.345 1.36 473.345 1.68C473.345 2 473.225 2.28 472.985 2.52C472.761 2.744 472.489 2.856 472.169 2.856ZM468.881 2.856C468.545 2.856 468.257 2.744 468.017 2.52C467.793 2.28 467.681 2 467.681 1.68C467.681 1.36 467.793 1.08 468.017 0.839999C468.257 0.599999 468.545 0.48 468.881 0.48C469.201 0.48 469.473 0.599999 469.697 0.839999C469.937 1.08 470.057 1.36 470.057 1.68C470.057 2 469.937 2.28 469.697 2.52C469.473 2.744 469.201 2.856 468.881 2.856ZM476.305 18.12L476.545 16.152C477.329 16.152 477.953 16.104 478.417 16.008C478.881 15.912 479.217 15.72 479.425 15.432C479.633 15.128 479.737 14.68 479.737 14.088C479.737 13.688 479.673 13.216 479.545 12.672C479.417 12.112 479.249 11.52 479.041 10.896C478.833 10.272 478.609 9.656 478.369 9.048L480.313 8.328C480.521 8.84 480.713 9.424 480.889 10.08C481.081 10.736 481.241 11.384 481.369 12.024C481.497 12.664 481.561 13.224 481.561 13.704C481.561 14.344 481.489 14.912 481.345 15.408C481.217 15.888 481.017 16.304 480.745 16.656C480.473 16.992 480.121 17.272 479.689 17.496C479.273 17.704 478.785 17.864 478.225 17.976C477.665 18.072 477.025 18.12 476.305 18.12ZM478.873 22.584C478.537 22.584 478.249 22.464 478.009 22.224C477.785 22 477.673 21.728 477.673 21.408C477.673 21.088 477.785 20.808 478.009 20.568C478.249 20.328 478.537 20.208 478.873 20.208C479.193 20.208 479.465 20.328 479.689 20.568C479.929 20.808 480.049 21.088 480.049 21.408C480.049 21.728 479.929 22 479.689 22.224C479.465 22.464 479.193 22.584 478.873 22.584ZM484.958 18L484.478 0.863999H486.422L486.902 18H484.958ZM489.861 23.52L489.429 21.552C490.389 21.424 491.269 21.24 492.069 21C492.885 20.776 493.581 20.448 494.157 20.016C494.749 19.584 495.205 19.016 495.525 18.312C495.845 17.608 496.005 16.728 496.005 15.672C496.005 14.584 495.805 13.68 495.405 12.96C495.005 12.24 494.485 11.88 493.845 11.88C493.509 11.88 493.197 12.008 492.909 12.264C492.621 12.52 492.381 12.864 492.189 13.296C492.013 13.728 491.925 14.2 491.925 14.712C491.925 15 491.989 15.24 492.117 15.432C492.245 15.608 492.429 15.752 492.669 15.864C492.925 15.96 493.245 16.032 493.629 16.08C494.013 16.128 494.461 16.152 494.973 16.152H500.037C500.373 16.152 500.613 16.248 500.757 16.44C500.917 16.616 500.997 16.832 500.997 17.088C500.997 17.344 500.885 17.584 500.661 17.808C500.437 18.016 500.149 18.12 499.797 18.12H494.061C493.341 18.12 492.669 18.016 492.045 17.808C491.437 17.6 490.941 17.28 490.557 16.848C490.189 16.4 490.005 15.816 490.005 15.096C490.005 14.424 490.109 13.784 490.317 13.176C490.525 12.552 490.805 12 491.157 11.52C491.525 11.024 491.949 10.632 492.429 10.344C492.925 10.056 493.461 9.912 494.037 9.912C494.773 9.912 495.429 10.128 496.005 10.56C496.581 10.992 497.037 11.648 497.373 12.528C497.709 13.392 497.877 14.488 497.877 15.816C497.877 17.304 497.573 18.584 496.965 19.656C496.373 20.744 495.477 21.608 494.277 22.248C493.093 22.888 491.621 23.312 489.861 23.52ZM499.789 18.12L500.029 16.152C500.701 16.152 501.229 16.096 501.613 15.984C501.997 15.856 502.285 15.624 502.477 15.288C502.685 14.936 502.861 14.432 503.005 13.776C503.149 13.12 503.325 12.264 503.533 11.208L505.405 11.568C505.341 11.856 505.269 12.176 505.189 12.528C505.109 12.88 505.037 13.232 504.973 13.584C504.925 13.92 504.901 14.216 504.901 14.472C504.901 14.792 504.973 15.08 505.117 15.336C505.261 15.592 505.573 15.792 506.053 15.936C506.533 16.08 507.269 16.152 508.261 16.152C508.597 16.152 508.837 16.248 508.981 16.44C509.141 16.616 509.221 16.832 509.221 17.088C509.221 17.344 509.109 17.584 508.885 17.808C508.661 18.016 508.373 18.12 508.021 18.12C506.981 18.12 506.165 18.032 505.573 17.856C504.981 17.664 504.549 17.384 504.277 17.016C504.005 16.632 503.821 16.168 503.725 15.624L504.445 15.672C504.189 16.184 503.909 16.6 503.605 16.92C503.317 17.24 502.997 17.488 502.645 17.664C502.293 17.84 501.885 17.96 501.421 18.024C500.957 18.088 500.413 18.12 499.789 18.12ZM503.869 22.584C503.533 22.584 503.245 22.464 503.005 22.224C502.781 22 502.669 21.728 502.669 21.408C502.669 21.088 502.781 20.808 503.005 20.568C503.245 20.328 503.533 20.208 503.869 20.208C504.189 20.208 504.461 20.328 504.685 20.568C504.925 20.808 505.045 21.088 505.045 21.408C505.045 21.728 504.925 22 504.685 22.224C504.461 22.464 504.189 22.584 503.869 22.584ZM508.016 18.12L508.232 16.152C509.144 16.152 509.784 16.064 510.152 15.888C510.52 15.712 510.728 15.4 510.776 14.952C510.84 14.504 510.856 13.88 510.824 13.08L510.368 0.863999H512.312L512.792 12.864C512.824 13.712 512.792 14.464 512.696 15.12C512.616 15.776 512.408 16.328 512.072 16.776C511.752 17.224 511.264 17.56 510.608 17.784C509.968 18.008 509.104 18.12 508.016 18.12ZM516.458 18L515.978 0.863999H517.922L518.402 18H516.458ZM531.567 18C530.783 18 530.079 17.864 529.455 17.592C528.831 17.32 528.335 16.904 527.967 16.344C527.615 15.784 527.439 15.072 527.439 14.208C527.439 13.52 527.703 12.664 528.231 11.64C528.759 10.6 529.679 9.504 530.991 8.352L531.447 9.648L529.815 8.184L531.063 6.696C531.895 7.352 532.663 8.056 533.367 8.808C534.071 9.56 534.639 10.36 535.071 11.208C535.503 12.056 535.719 12.952 535.719 13.896C535.719 14.264 535.655 14.68 535.527 15.144C535.399 15.608 535.183 16.064 534.879 16.512C534.575 16.944 534.151 17.304 533.607 17.592C533.063 17.864 532.383 18 531.567 18ZM531.567 16.032C532.111 16.032 532.559 15.944 532.911 15.768C533.279 15.576 533.551 15.312 533.727 14.976C533.919 14.64 534.015 14.248 534.015 13.8C534.015 13.4 533.943 12.984 533.799 12.552C533.671 12.104 533.399 11.624 532.983 11.112C532.583 10.584 531.967 9.992 531.135 9.336L532.191 9.288C531.599 9.8 531.087 10.344 530.655 10.92C530.223 11.48 529.895 12.032 529.671 12.576C529.447 13.104 529.335 13.584 529.335 14.016C529.335 14.688 529.543 15.192 529.959 15.528C530.391 15.864 530.927 16.032 531.567 16.032ZM541.605 16.152C542.405 16.152 543.037 16.072 543.501 15.912C543.981 15.752 544.325 15.52 544.533 15.216C544.757 14.896 544.869 14.528 544.869 14.112C544.869 13.792 544.781 13.408 544.605 12.96C544.445 12.512 544.221 12.016 543.933 11.472C543.645 10.912 543.309 10.328 542.925 9.72C542.557 9.096 542.157 8.464 541.725 7.824L543.381 6.744C544.005 7.688 544.549 8.584 545.013 9.432C545.477 10.264 545.869 11.048 546.189 11.784C546.509 12.504 546.765 13.184 546.957 13.824C547.181 14.528 547.429 15.048 547.701 15.384C547.989 15.72 548.285 15.936 548.589 16.032C548.893 16.112 549.173 16.152 549.429 16.152C549.765 16.152 550.013 16.248 550.173 16.44C550.333 16.616 550.413 16.832 550.413 17.088C550.413 17.344 550.301 17.584 550.077 17.808C549.853 18.016 549.565 18.12 549.213 18.12C548.685 18.12 548.165 18.024 547.653 17.832C547.157 17.624 546.725 17.296 546.357 16.848C545.989 16.384 545.733 15.768 545.589 15L546.549 14.232C546.549 14.872 546.413 15.496 546.141 16.104C545.869 16.696 545.373 17.184 544.653 17.568C543.949 17.952 542.933 18.144 541.605 18.144C541.029 18.144 540.469 18.096 539.925 18C539.397 17.904 538.909 17.768 538.461 17.592C538.013 17.4 537.621 17.176 537.285 16.92L538.245 15.264C538.565 15.472 539.013 15.672 539.589 15.864C540.165 16.056 540.837 16.152 541.605 16.152ZM541.749 4.56C541.413 4.56 541.125 4.448 540.885 4.224C540.661 3.984 540.549 3.704 540.549 3.384C540.549 3.064 540.661 2.784 540.885 2.544C541.125 2.304 541.413 2.184 541.749 2.184C542.069 2.184 542.341 2.304 542.565 2.544C542.805 2.784 542.925 3.064 542.925 3.384C542.925 3.704 542.805 3.984 542.565 4.224C542.341 4.448 542.069 4.56 541.749 4.56ZM558.459 18.192C557.803 18.192 557.131 18.104 556.443 17.928C555.755 17.736 555.091 17.472 554.451 17.136C553.827 16.8 553.259 16.392 552.747 15.912C552.251 15.416 551.851 14.864 551.547 14.256C551.259 13.648 551.115 12.992 551.115 12.288C551.115 11.568 551.259 10.904 551.547 10.296C551.851 9.688 552.275 9.2 552.819 8.832C553.379 8.448 554.027 8.256 554.763 8.256C555.483 8.256 556.099 8.456 556.611 8.856C557.123 9.24 557.515 9.744 557.787 10.368C558.075 10.976 558.219 11.616 558.219 12.288C558.219 13.216 557.955 14.048 557.427 14.784C556.915 15.504 556.219 16.112 555.339 16.608C554.459 17.104 553.491 17.48 552.435 17.736C551.379 17.992 550.307 18.12 549.219 18.12L549.459 16.152C550.323 16.152 551.091 16.096 551.763 15.984C552.451 15.856 553.043 15.688 553.539 15.48C554.275 15.192 554.851 14.848 555.267 14.448C555.699 14.032 556.003 13.608 556.179 13.176C556.355 12.744 556.443 12.352 556.443 12C556.443 11.664 556.371 11.344 556.227 11.04C556.099 10.72 555.907 10.464 555.651 10.272C555.411 10.064 555.115 9.96 554.763 9.96C554.411 9.96 554.091 10.064 553.803 10.272C553.531 10.464 553.315 10.72 553.155 11.04C552.995 11.36 552.915 11.696 552.915 12.048C552.915 12.72 553.083 13.32 553.419 13.848C553.771 14.36 554.219 14.8 554.763 15.168C555.323 15.536 555.915 15.816 556.539 16.008C557.179 16.2 557.787 16.296 558.363 16.296C558.907 16.296 559.307 16.208 559.563 16.032C559.819 15.84 559.947 15.528 559.947 15.096C559.947 15.016 559.923 14.872 559.875 14.664C559.843 14.44 559.715 14.136 559.491 13.752C559.283 13.368 558.923 12.896 558.411 12.336C557.899 11.76 557.179 11.08 556.251 10.296C555.323 9.496 554.123 8.568 552.651 7.512L553.779 6.024C555.315 7.144 556.579 8.136 557.571 9C558.579 9.848 559.371 10.592 559.947 11.232C560.539 11.856 560.971 12.408 561.243 12.888C561.531 13.352 561.715 13.768 561.795 14.136C561.875 14.488 561.915 14.824 561.915 15.144C561.915 15.672 561.795 16.168 561.555 16.632C561.331 17.096 560.963 17.472 560.451 17.76C559.955 18.048 559.291 18.192 558.459 18.192ZM509.963 47.1364C509.543 47.1364 509.182 46.9858 508.881 46.6847C508.58 46.3835 508.429 46.0227 508.429 45.6023C508.429 45.1818 508.58 44.821 508.881 44.5199C509.182 44.2187 509.543 44.0682 509.963 44.0682C510.384 44.0682 510.744 44.2187 511.045 44.5199C511.347 44.821 511.497 45.1818 511.497 45.6023C511.497 45.8807 511.426 46.1364 511.284 46.3693C511.148 46.6023 510.963 46.7898 510.73 46.9318C510.503 47.0682 510.247 47.1364 509.963 47.1364ZM513.986 47.024C513.986 46.64 514.018 46.232 514.082 45.8C514.162 45.352 514.274 44.88 514.418 44.384C514.578 43.872 514.77 43.336 514.994 42.776L516.722 43.448C516.562 43.896 516.418 44.32 516.29 44.72C516.178 45.12 516.09 45.496 516.026 45.848C515.978 46.2 515.954 46.536 515.954 46.856C515.954 47.528 516.098 48.096 516.386 48.56C516.69 49.04 517.106 49.432 517.634 49.736C518.162 50.04 518.762 50.264 519.434 50.408C520.122 50.552 520.85 50.624 521.618 50.624C522.546 50.624 523.41 50.544 524.21 50.384C525.026 50.224 525.738 49.992 526.346 49.688C526.97 49.4 527.458 49.064 527.81 48.68C528.162 48.312 528.338 47.912 528.338 47.48C528.338 47.272 528.258 47.08 528.098 46.904C527.938 46.728 527.698 46.56 527.378 46.4C527.058 46.24 526.674 46.088 526.226 45.944C525.778 45.784 525.266 45.624 524.69 45.464L525.146 43.472C525.978 43.792 526.714 44.064 527.354 44.288C527.994 44.496 528.554 44.664 529.034 44.792C529.514 44.92 529.93 45.016 530.282 45.08C530.634 45.128 530.93 45.152 531.17 45.152C531.506 45.152 531.746 45.248 531.89 45.44C532.05 45.616 532.13 45.832 532.13 46.088C532.13 46.344 532.018 46.584 531.794 46.808C531.57 47.016 531.282 47.12 530.93 47.12C530.834 47.12 530.738 47.12 530.642 47.12C530.546 47.12 530.442 47.12 530.33 47.12C530.234 47.12 530.138 47.12 530.042 47.12C530.074 47.264 530.098 47.376 530.114 47.456C530.13 47.552 530.138 47.672 530.138 47.816C530.138 48.408 529.93 48.984 529.514 49.544C529.114 50.104 528.522 50.608 527.738 51.056C526.954 51.52 526.002 51.888 524.882 52.16C523.778 52.432 522.514 52.568 521.09 52.568C519.826 52.568 518.65 52.36 517.562 51.944C516.49 51.544 515.626 50.936 514.97 50.12C514.314 49.304 513.986 48.272 513.986 47.024ZM522.818 57.104C522.482 57.104 522.194 56.984 521.954 56.744C521.73 56.52 521.618 56.248 521.618 55.928C521.618 55.608 521.73 55.328 521.954 55.088C522.194 54.848 522.482 54.728 522.818 54.728C523.138 54.728 523.41 54.848 523.634 55.088C523.874 55.328 523.994 55.608 523.994 55.928C523.994 56.248 523.874 56.52 523.634 56.744C523.41 56.984 523.138 57.104 522.818 57.104ZM519.53 57.104C519.194 57.104 518.906 56.984 518.666 56.744C518.442 56.52 518.33 56.248 518.33 55.928C518.33 55.608 518.442 55.328 518.666 55.088C518.906 54.848 519.194 54.728 519.53 54.728C519.85 54.728 520.122 54.848 520.346 55.088C520.586 55.328 520.706 55.608 520.706 55.928C520.706 56.248 520.586 56.52 520.346 56.744C520.122 56.984 519.85 57.104 519.53 57.104ZM530.938 47.12L531.178 45.152C531.85 45.152 532.378 45.096 532.762 44.984C533.146 44.856 533.434 44.624 533.626 44.288C533.834 43.936 534.01 43.432 534.154 42.776C534.298 42.12 534.474 41.264 534.682 40.208L536.554 40.568C536.49 40.856 536.418 41.176 536.338 41.528C536.258 41.88 536.186 42.232 536.122 42.584C536.074 42.92 536.05 43.216 536.05 43.472C536.05 43.792 536.122 44.08 536.266 44.336C536.41 44.592 536.722 44.792 537.202 44.936C537.682 45.08 538.418 45.152 539.41 45.152C539.746 45.152 539.986 45.248 540.13 45.44C540.29 45.616 540.37 45.832 540.37 46.088C540.37 46.344 540.258 46.584 540.034 46.808C539.81 47.016 539.522 47.12 539.17 47.12C538.13 47.12 537.314 47.032 536.722 46.856C536.13 46.664 535.698 46.384 535.426 46.016C535.154 45.632 534.97 45.168 534.874 44.624L535.594 44.672C535.338 45.184 535.058 45.6 534.754 45.92C534.466 46.24 534.146 46.488 533.794 46.664C533.442 46.84 533.034 46.96 532.57 47.024C532.106 47.088 531.562 47.12 530.938 47.12ZM534.682 37.736C534.346 37.736 534.058 37.624 533.818 37.4C533.594 37.16 533.482 36.88 533.482 36.56C533.482 36.24 533.594 35.96 533.818 35.72C534.058 35.48 534.346 35.36 534.682 35.36C535.002 35.36 535.274 35.48 535.498 35.72C535.738 35.96 535.858 36.24 535.858 36.56C535.858 36.88 535.738 37.16 535.498 37.4C535.274 37.624 535.002 37.736 534.682 37.736ZM539.164 47.12L539.404 45.152C539.804 45.152 540.212 45.152 540.628 45.152C541.06 45.136 541.484 45.112 541.9 45.08C542.316 45.048 542.716 45.008 543.1 44.96C543.484 44.912 543.828 44.84 544.132 44.744C544.692 44.568 545.204 44.336 545.668 44.048C546.148 43.76 546.532 43.408 546.82 42.992C547.124 42.576 547.276 42.096 547.276 41.552C547.276 41.184 547.188 40.808 547.012 40.424C546.836 40.024 546.596 39.688 546.292 39.416C545.988 39.144 545.636 39.008 545.236 39.008C544.852 39.008 544.492 39.136 544.156 39.392C543.836 39.648 543.572 39.984 543.364 40.4C543.172 40.8 543.076 41.216 543.076 41.648C543.076 42.16 543.204 42.624 543.46 43.04C543.732 43.44 544.06 43.784 544.444 44.072C544.828 44.36 545.212 44.592 545.596 44.768L543.316 45.44C543.06 45.248 542.756 44.984 542.404 44.648C542.068 44.296 541.764 43.864 541.492 43.352C541.236 42.84 541.108 42.256 541.108 41.6C541.108 40.96 541.22 40.368 541.444 39.824C541.684 39.264 541.996 38.776 542.38 38.36C542.78 37.944 543.228 37.624 543.724 37.4C544.236 37.16 544.764 37.04 545.308 37.04C546.092 37.04 546.78 37.256 547.372 37.688C547.964 38.12 548.42 38.672 548.74 39.344C549.076 40 549.244 40.688 549.244 41.408C549.244 42.096 549.116 42.72 548.86 43.28C548.604 43.824 548.252 44.312 547.804 44.744C547.372 45.176 546.86 45.544 546.268 45.848C545.692 46.152 545.076 46.4 544.42 46.592C544.052 46.704 543.652 46.792 543.22 46.856C542.804 46.92 542.364 46.968 541.9 47C541.436 47.048 540.972 47.08 540.508 47.096C540.044 47.112 539.596 47.12 539.164 47.12ZM551.044 47.12C550.244 47.12 549.412 47.072 548.548 46.976C547.7 46.864 546.892 46.728 546.124 46.568C545.372 46.392 544.748 46.2 544.252 45.992L545.908 44.792C546.388 44.856 546.956 44.92 547.612 44.984C548.268 45.032 548.924 45.072 549.58 45.104C550.236 45.136 550.804 45.152 551.284 45.152C551.62 45.152 551.86 45.248 552.004 45.44C552.164 45.616 552.244 45.832 552.244 46.088C552.244 46.344 552.132 46.584 551.908 46.808C551.684 47.016 551.396 47.12 551.044 47.12ZM545.092 34.568C544.756 34.568 544.468 34.456 544.228 34.232C544.004 33.992 543.892 33.712 543.892 33.392C543.892 33.072 544.004 32.792 544.228 32.552C544.468 32.312 544.756 32.192 545.092 32.192C545.412 32.192 545.684 32.312 545.908 32.552C546.148 32.792 546.268 33.072 546.268 33.392C546.268 33.712 546.148 33.992 545.908 34.232C545.684 34.456 545.412 34.568 545.092 34.568ZM551.047 47.12L551.263 45.152C552.175 45.152 552.815 45.064 553.183 44.888C553.551 44.712 553.759 44.4 553.807 43.952C553.871 43.504 553.887 42.88 553.855 42.08L553.399 29.864H555.343L555.823 41.864C555.855 42.712 555.823 43.464 555.727 44.12C555.647 44.776 555.439 45.328 555.103 45.776C554.783 46.224 554.295 46.56 553.639 46.784C552.999 47.008 552.135 47.12 551.047 47.12ZM559.489 47L559.009 29.864H560.953L561.433 47H559.489Z" fill="black"/>
</svg>
