<?xml version="1.0" encoding="UTF-8"?>
<svg version="1.1" viewBox="0 0 2048 2048" width="512" height="512" xmlns="http://www.w3.org/2000/svg">
<path transform="translate(878,1200)" d="m0 0h290l36 2 33 3 35 5 37 7 44 11 29 9 32 11 30 12 29 13 36 18 24 14 20 12 30 20 14 10 19 14 13 11 9 7 14 12 12 11 8 7 9 9 8 7 10 10 7 8 11 11 7 8 12 14 11 13 11 14 13 17 14 20 14 21 15 24 15 27 10 19 13 26 13 30 13 34 12 36 10 36 9 40 7 41 5 44 2 26 1 21v27l-2 12-5 12-7 11-7 7-11 7-12 5-5 2h-1703l-17-7-13-10-8-9-7-14-3-12v-42l3-41 5-42 8-45 10-42 9-31 12-36 11-28 12-28 12-25 9-17 6-12 12-21 15-24 10-15 11-16 14-19 11-14 8-10 11-13 12-14 16-17 11-12 16-16 8-7 8-8 11-9 12-11 14-11 16-13 18-13 17-12 20-13 21-13 23-13 19-10 15-8 27-12 32-13 18-7 34-11 41-11 37-8 37-6 34-4 26-2z" fill="#FEFEFE"/>
<path transform="translate(985)" d="m0 0h79l49 7 36 7 30 8 33 11 34 14 27 13 23 13 20 12 16 11 19 14 14 11 14 12 10 9 13 12 13 13 7 8 11 12 9 11 12 15 13 18 12 18 13 21 13 24 14 29 13 33 10 30 8 30 7 36 4 29 2 22 1 18v38l-2 30-4 33-5 27-6 27-8 27-11 32-11 26-16 33-14 24-10 16-13 19-14 19-14 17-13 15-13 13-7 8h-2v2l-8 7-9 9-11 9-13 11-16 12-20 14-19 12-17 10-22 12-28 13-28 11-33 11-26 7-29 6-33 5-32 3-17 1h-34l-40-3-30-4-26-5-36-9-36-12-26-10-28-13-25-13-15-9-25-16-32-24-15-13-11-9-40-40-9-11-12-14-9-12-13-18-11-17-12-20-9-16-14-28-13-31-12-35-9-33-7-35-5-37-2-25v-57l4-42 6-36 8-34 10-33 9-24 11-26 10-21 12-22 12-20 12-18 12-17 20-25 12-14 15-16 21-21 11-9 11-10 14-11 19-14 18-12 16-10 17-10 29-15 25-11 29-11 32-10 29-7 31-6 37-5z" fill="#FEFEFE"/>
</svg>
